/* XPM */
static char *knife_021660771379[] = {
/* columns rows colors chars-per-pixel */
"65 65 32 1 ",
"  c #AAAAAA",
". c #464646",
"X c #FFCDB0",
"o c #535353",
"O c gray99",
"+ c #353535",
"@ c #FF9D5C",
"# c gray49",
"$ c #C1C1C1",
"% c #DDDDDD",
"& c #FFB17E",
"* c #FFB98F",
"= c #FF8D54",
"- c gray82",
"; c #D17943",
": c #646464",
"> c #FFBD9C",
", c #AF6032",
"< c #C9713F",
"1 c #985729",
"2 c white",
"3 c #B3008C",
"4 c black",
"5 c black",
"6 c black",
"7 c black",
"8 c black",
"9 c black",
"0 c black",
"q c black",
"w c black",
"e c black",
/* pixels */
"33333333333333333333333333333333333333333333333333333333333333332",
"33333333333333333333333333333333333333333333333333333333333333332",
"33333333333333333333333333333333333333333333333333333333333333332",
"33333333333333333333333333333333333333333333333333333333333333332",
"33333333333333333333333333333333333333333333333333333333333333332",
"33333333333333333333333333333333333333333333333333333333333333332",
"33333333333333333333333333333333333333333333333333333333333333332",
"33333333333333333333333333333333333333333333333333333333333333332",
"33333333333333333333333333333333333333333333333333333333333333332",
"33333333333333333333333333333333333333333333333333333333333333332",
"33333333333333333333333333333333333333333333333333333333333333332",
"33333333333333333333333333333333333333333333333333333333333333332",
"33333333333333333333333333333333333333333333333333333333333333332",
"33333333333333333333333333333333333333333333333333333333333333332",
"33333333333333333333333333333333333333333333333333333333333333332",
"33333333333333333333333333333333333333333333333333333333333333332",
"33333333333333333333333333333333333333333333333333333333333333332",
"33333333333333333333333333333333333333333333333333333333333333332",
"33333333333333333333333333333333333333333333333333333333333333332",
"33333333333333333333333333333333333333333333333333333333333333332",
"33333333333333333333333333333333333333333333333333333333333333332",
"33333333333333333333333333333333333333333333333333333333333333332",
"33333333333333333333333333333333333333333333333333333333333333332",
"33333333333333333333333333333333333333333333333333333333333333332",
"33333333333333333333333333333333333333333333333333333333333333332",
"33333333333333333333333333333333333333333333333333333333333333332",
"33333333333333333333333333333333333333333333333333333333333333332",
"33333333333333333333333333333333333333333333333333333333333333332",
"33333333333333333333333333333333333333333333333333333333333333332",
"33333333333333333333333333333333333333333333333333333333333333332",
"33333333333333333333333333333333333333333333333333333333333333332",
"33333333333333333333333333333333333333333333333333333333333333332",
"33333333333333333333333333333333333333333333333333333333333333332",
"33333333333333333333333333333333333333333333333333333333333333332",
"33333333333333333333333333333333333333333333333333333333333333332",
"33333333333333333333333333333333333333333333333333333333333333332",
"33333333333333333333333333333333333333333333333333333333333333332",
"33333333333333333333333333333333333333333333333333333333333333332",
"33333333333333333333333333333333333333333333333333333333333333332",
"33333333333333333333333333333333333333333333333333333333333333332",
"33333333333333333333333333333333333333333333333333333333333333332",
"33333333333333333333333333333333333333333333333333333333333333332",
"33333333333333333333333333333333333333333333333333333333333333332",
"33333333333333333333333333333333333333333333333333333333333333332",
"33333333333333333333333333333333333333333333333333333333333333332",
"33333333333333333333333333333333333333333333333333333333333333332",
"33333333333333333333333333333333333333333333333333333333333333332",
"33333333333333333333333333333333333333333333333333333333333333332",
"33333333333333333333333333333333333333333333333333333333333333332",
"3333333333333333333333333333333333333 333333333333333333333333332",
"3333333333333333333333333333333333333Oo33333333333333333333333332",
"3333333333333333333333333333333333333O o3333333333333333333333332",
"3333333333333333333333333333333333333O  o333333333333333333333332",
"3333333333333333333333333333333333333O$  o33333333333333333333332",
"3333333333333333333333333333333333333O%   o3333333333333333333332",
"3333333333333333333333333333333333333-O$   o333333333333333333332",
"33333333333333333333333333333333333333O%   #o33333333333333333332",
"33333333333333333333333333333333333333-O$   #o3333333333333333332",
"333333333333333333333333333333333333333O%$   #o333333333333333332",
"3333333333333333333333333333333333333333O%    #o33333333333333332",
"3333333333333333333333333333333333333333#::..........333333333332",
"3333333333333333333333333333333333333o.++@*XX>&@;,++.333333333332",
"333333333333333333333333333333333333o++1@XXXXX*&@=<+.333333333332",
"333333333333333333333333333333333333.++=*XXXXX>&&@=;3333333333332",
"22222222222222222222222222222222222222222222222222222222222222222"
};
