/* XPM */
static char *knife_041660771379[] = {
/* columns rows colors chars-per-pixel */
"65 65 32 1 ",
"  c #AAAAAA",
". c gray60",
"X c gray49",
"o c #FFCDB0",
"O c #353535",
"+ c #FFBD9C",
"@ c #FFB17E",
"# c #FFA56E",
"$ c #FF8D54",
"% c gray82",
"& c gray99",
"* c #464646",
"= c #535353",
"- c #8D8D8D",
"; c #F58950",
": c #DDDDDD",
"> c #C1C1C1",
", c #FF9D5C",
"< c #646464",
"1 c #D17943",
"2 c #FFB98F",
"3 c #BC683B",
"4 c white",
"5 c #B3008C",
"6 c black",
"7 c black",
"8 c black",
"9 c black",
"0 c black",
"q c black",
"w c black",
"e c black",
/* pixels */
"45555555555555555555555555555555555555555555555555555555555555555",
"45555555555555555555555555555555555555555555555555555555555555555",
"45555555555555555555555555555555555555555555555555555555555555555",
"45555555555555555555555555555555555555555555555555555555555555555",
"45555555555555555555555555555555555555555555555555555555555555555",
"45555555555555555555555555555555555555555555555555555555555555555",
"45555555555555555555555555555555555555555555555555555555555555555",
"45555555555555555555555555555555555555555555555555555555555555555",
"45555555555555555555555555555555555555555555555555555555555555555",
"45555555555555555555555555555555555555555555555555555555555555555",
"45555555555555555555555555555555555555555555555555555555555555555",
"45555555555555555555555555555555555555555555555555555555555555555",
"45555555555555555555555555555555555555555555555555555555555555555",
"45555555555555555555555555555555555555555555555555555555555555555",
"45555555555555555555555555555555555555555555555555555555555555555",
"45555555555555555555555555555555555555555555555555555555555555555",
"45555555555555555555555555555555555555555555555555555555555555555",
"45555555555555555555555555555555555555555555555555555555555555555",
"45555555555555555555555555555555555555555555555555555555555555555",
"45555555555555555555555555555555555555555555555555555555555555555",
"45555555555555555555555555555555555555555555555555555555555555555",
"45555555555555555555555555555555555555555555555555555555555555555",
"45555555555555555555555555555555555555555555555555555555555555555",
"45555555555555555555555555555555555555555555555555555555555555555",
"45555555555555555555555555555555555555555555555555555555555555555",
"45555555555555555555555555555555555555555555555555555555555555555",
"45555555555555555555555555555555555555555555555555555555555555555",
"45555555555555555555555555555555555555555555555555555555555555555",
"45555555555555555555555555555555555555555555555555555555555555555",
"45555555555555555555555555555555555555555555555555555555555555555",
"45555555555555555555555555555555555555555555555555555555555555555",
"45555555555555555555555555555555555555555555555555555555555555555",
"45555555555555555555555555555555555555555555555555555555555555555",
"45555555555555555555555555555555555555555555555555555555555555555",
"45555555555555555555555555555555555555555555555555555555555555555",
"45555555555555555555555555555555555555555555555555555555555555555",
"45555555555555555555555555555555555555555555555555555555555555555",
"45555555555555555555555555555555555555555555555555555555555555555",
"45555555555555555555555555555555555555555555555555555555555555555",
"45555555555555555555555555555555555555555555555555555555555555555",
"45555555555555555555555555555 55555555555555555555555555555555555",
"45555555555555555555555555555&<5555555555555555555555555555555555",
"45555555555555555555555555555&%<555555555555555555555555555555555",
"45555555555555555555555555555&% <55555555555555555555555555555555",
"45555555555555555555555555555&%  =5555555555555555555555555555555",
"45555555555555555555555555555::> X=555555555555555555555555555555",
"45555555555555555555555555555>&%  X=55555555555555555555555555555",
"455555555555555555555555555555:%>  X=5555555555555555555555555555",
"4555555555555555555555555555555-X=OOOOOO*555555555555555555555555",
"45555555555555555555555555555**OO,oo+@$O*555555555555555555555555",
"45555555555555555555555555555*O3+oooo+#$2555555555555555555555555",
"45555555555555555555555555555OO@+oooo+@,$555555555555555555555555",
"4555555555555555555555555555555##@+oo+@#$255555555555555555555555",
"4555555555555555555555555555555511@++++@,$55555555555555555555555",
"45555555555555555555555555555555;1#@@#.    .555555555555555555555",
"455555555555555555555555555555555;;##.      .55555555555555555555",
"45555555555555555555555555555555555;X        .5555555555555555555",
"455555555555555555555555555555555555X.       ..X55555555555555555",
"455555555555555555555555555555555555X......   ..X5555555555555555",
"455555555555555555555555555555555555X.-X.      ..X555555555555555",
"4555555555555555555555555555555555555XX-        .XX55555555555555",
"4555555555555555555555555555555555555XX-        ..XX5555555555555",
"4555555555555555555555555555555555555XX..       ...XX555555555555",
"45555555555555555555555555555555555555X...        ..XX55555555555",
"44444444444444444444444444444444444444444444444444444444444444444"
};
