/* XPM */
static char *machine_gun_021660771379[] = {
/* columns rows colors chars-per-pixel */
"65 65 32 1 ",
"  c #AAAAAA",
". c #535353",
"X c gray49",
"o c #8D8D8D",
"O c gray60",
"+ c #DDDDDD",
"@ c #353535",
"# c gray99",
"$ c gray10",
"% c #717171",
"& c gray71",
"* c #464646",
"= c #646464",
"- c gray82",
"; c #DF7D48",
": c #282828",
"> c #FFA56E",
", c white",
"< c #B3008C",
"1 c black",
"2 c black",
"3 c black",
"4 c black",
"5 c black",
"6 c black",
"7 c black",
"8 c black",
"9 c black",
"0 c black",
"q c black",
"w c black",
"e c black",
/* pixels */
"<<<<<<<<<<<<<<<<<<<<<<<<<<<<<<<<<<<<<<<<<<<<<<<<<<<<<<<<<<<<<<<<,",
"<<<<<<<<<<<<<<<<<<<<<<<<<<<<<<<<<<<<<<<<<<<<<<<<<<<<<<<<<<<<<<<<,",
"<<<<<<<<<<<<<<<<<<<<<<<<<<<<<<<<<<<<<<<<<<<<<<<<<<<<<<<<<<<<<<<<,",
"<<<<<<<<<<<<<<<<<<<<<<<<<<<<<<<<<<<<<<<<<<<<<<<<<<<<<<<<<<<<<<<<,",
"<<<<<<<<<<<<<<<<<<<<<<<<<<<<<<<<<<<<<<<<<<<<<<<<<<<<<<<<<<<<<<<<,",
"<<<<<<<<<<<<<<<<<<<<<<<<<<<<<<<<<<<<<<<<<<<<<<<<<<<<<<<<<<<<<<<<,",
"<<<<<<<<<<<<<<<<<<<<<<<<<<<<<<<<<<<<<<<<<<<<<<<<<<<<<<<<<<<<<<<<,",
"<<<<<<<<<<<<<<<<<<<<<<<<<<<<<<<<<<<<<<<<<<<<<<<<<<<<<<<<<<<<<<<<,",
"<<<<<<<<<<<<<<<<<<<<<<<<<<<<<<<<<<<<<<<<<<<<<<<<<<<<<<<<<<<<<<<<,",
"<<<<<<<<<<<<<<<<<<<<<<<<<<<<<<<<<<<<<<<<<<<<<<<<<<<<<<<<<<<<<<<<,",
"<<<<<<<<<<<<<<<<<<<<<<<<<<<<<<<<<<<<<<<<<<<<<<<<<<<<<<<<<<<<<<<<,",
"<<<<<<<<<<<<<<<<<<<<<<<<<<<<<<<<<<<<<<<<<<<<<<<<<<<<<<<<<<<<<<<<,",
"<<<<<<<<<<<<<<<<<<<<<<<<<<<<<<<<<<<<<<<<<<<<<<<<<<<<<<<<<<<<<<<<,",
"<<<<<<<<<<<<<<<<<<<<<<<<<<<<<<<<<<<<<<<<<<<<<<<<<<<<<<<<<<<<<<<<,",
"<<<<<<<<<<<<<<<<<<<<<<<<<<<<<<<<<<<<<<<<<<<<<<<<<<<<<<<<<<<<<<<<,",
"<<<<<<<<<<<<<<<<<<<<<<<<<<<<<<<<<<<<<<<<<<<<<<<<<<<<<<<<<<<<<<<<,",
"<<<<<<<<<<<<<<<<<<<<<<<<<<<<<<<<<<<<<<<<<<<<<<<<<<<<<<<<<<<<<<<<,",
"<<<<<<<<<<<<<<<<<<<<<<<<<<<<<<<<<<<<<<<<<<<<<<<<<<<<<<<<<<<<<<<<,",
"<<<<<<<<<<<<<<<<<<<<<<<<<<<<<<<<<<<<<<<<<<<<<<<<<<<<<<<<<<<<<<<<,",
"<<<<<<<<<<<<<<<<<<<<<<<<<<<<<<<<<<<<<<<<<<<<<<<<<<<<<<<<<<<<<<<<,",
"<<<<<<<<<<<<<<<<<<<<<<<<<<<<<<<<<<<<<<<<<<<<<<<<<<<<<<<<<<<<<<<<,",
"<<<<<<<<<<<<<<<<<<<<<<<<<<<<<<<<<<<<<<<<<<<<<<<<<<<<<<<<<<<<<<<<,",
"<<<<<<<<<<<<<<<<<<<<<<<<<<<<<<<<<<<<<<<<<<<<<<<<<<<<<<<<<<<<<<<<,",
"<<<<<<<<<<<<<<<<<<<<<<<<<<<<<<<<<<<<<<<<<<<<<<<<<<<<<<<<<<<<<<<<,",
"<<<<<<<<<<<<<<<<<<<<<<<<<<<<<<<<<<<<<<<<<<<<<<<<<<<<<<<<<<<<<<<<,",
"<<<<<<<<<<<<<<<<<<<<<<<<<<<<<<<<<<<<<<<<<<<<<<<<<<<<<<<<<<<<<<<<,",
"<<<<<<<<<<<<<<<<<<<<<<<<<<<<<<<<<<<<<<<<<<<<<<<<<<<<<<<<<<<<<<<<,",
"<<<<<<<<<<<<<<<<<<<<<<<<<<<<<<<<<<<<<<<<<<<<<<<<<<<<<<<<<<<<<<<<,",
"<<<<<<<<<<<<<<<<<<<<<<<<<<<<<<<<<<<<<<<<<<<<<<<<<<<<<<<<<<<<<<<<,",
"<<<<<<<<<<<<<<<<<<<<<<<<<<<<<<<<<<<<<<<<<<<<<<<<<<<<<<<<<<<<<<<<,",
"<<<<<<<<<<<<<<<<<<<<<<<<<<<<<<<<<<<<<<<<<<<<<<<<<<<<<<<<<<<<<<<<,",
"<<<<<<<<<<<<<<<<<<<<<<<<<<<<<<<<<<<<<<<<<<<<<<<<<<<<<<<<<<<<<<<<,",
"<<<<<<<<<<<<<<<<<<<<<<<<<<<<<<<<<<<<<<<<<<<<<<<<<<<<<<<<<<<<<<<<,",
"<<<<<<<<<<<<<<<<<<<<<<<<<<<<<<<<<<<<<<<<<<<<<<<<<<<<<<<<<<<<<<<<,",
"<<<<<<<<<<<<<<<<<<<<<<<<<<<<<<<<<<<<<<<<<<<<<<<<<<<<<<<<<<<<<<<<,",
"<<<<<<<<<<<<<<<<<<<<<<<<<<<<<<<<<<<<<<<<<<<<<<<<<<<<<<<<<<<<<<<<,",
"<<<<<<<<<<<<<<<<<<<<<<<<<<<<<<<<<<<<<<<<<<<<<<<<<<<<<<<<<<<<<<<<,",
"<<<<<<<<<<<<<<<<<<<<<<<<<<<<<<<<<<<<<<<<<<<<<<<<<<<<<<<<<<<<<<<<,",
"<<<<<<<<<<<<<<<<<<<<<<<<<<<<<<<<<<<<<<<<<<<<<<<<<<<<<<<<<<<<<<<<,",
"<<<<<<<<<<<<<<<<<<<<<<<<<<<<<<<<<<<<<<<<<<<<<<<<<<<<<<<<<<<<<<<<,",
"<<<<<<<<<<<<<<<<<<<<<<<<<<<<<<<<<<<<<<<<<<<<<<<<<<<<<<<<<<<<<<<<,",
"<<<<<<<<<<<<<<<<<<<<<<<<<<<<<<<<<<<<<<<<<<<<<<<<<<<<<<<<<<<<<<<<,",
"<<<<<<<<<<<<<<<<<<<<<<<<<<<<<<<<<<<<<<<<<<<<<<<<<<<<<<<<<<<<<<<<,",
"<<<<<<<<<<<<<<<<<<<<<<<<<<<<<<<<<<<<<<<<<<<<<<<<<<<<<<<<<<<<<<<<,",
"<<<<<<<<<<<<<<<<<<<<<<<<<<<<<<<<<<<<<<<<<<<<<<<<<<<<<<<<<<<<<<<<,",
"<<<<<<<<<<<<<<<<<<<<<<<<<<<<<<<<<<<<<<<<<<<<<<<<<<<<<<<<<<<<<<<<,",
"<<<<<<<<<<<<<<<<<<<<<<<<<<<<<<<o.o<<<<<<<<<<<<<<<<<<<<<<<<<<<<<<,",
"<<<<<<<<<<<<<<<<<<<<<<<<<<<<<<<.@.<<<<<<<<<<<<<<<<<<<<<<<<<<<<<<,",
"<<<<<<<<<<<<<<<<<<<<<<<<<<<<<<<...<<<<<<<<<<<<<<<<<<<<<<<<<<<<<<,",
"<<<<<<<<<<<<<<<<<<<<<<<<<<<<<<<-&=<<<<<<<<<<<<<<<<<<<<<<<<<<<<<<,",
"<<<<<<<<<<<<<<<<<<<<<<<<<<<<<< #+o.<<<<<<<<<<<<<<<<<<<<<<<<<<<<<,",
"<<<<<<<<<<<<<<<<<<<<<<<<<<<<<< &&X.<<<<<<<<<<<<<<<<<<<<<<<<<<<<<,",
"<<<<<<<<<<<<<<<<<<<<<<<<<<<<<<+#+ .<<<<<<<<<<<<<<<<<<<<<<<<<<<<<,",
"<<<<<<<<<<<<<<<<<<<<<<<<<<<<<  XXX..<<<<<<<<<<<<<<<<<<<<<<<<<<<<,",
"<<<<<<<<<<<<<<<<<<<<<<<<<<<<< #+ o=.<<<<<<<<<<<<<<<<<<<<<<<<<<<<,",
"<<<<<<<<<<<<<<<<<<<<<<<<<<<<<+&@@@X.<<<<<<<<<<<<<<<<<<<<<<<<<<<<,",
"<<<<<<<<<<<<<<<<<<<<<<<<<<<< +@%%%@..<<<<<<<<<<<<<<<<<<<<<<<<<<<,",
"<<<<<<<<<<<<<<<<<<<<<<<<<<<< o#+  %@.<<<<<<<<<<<<<<<<<<<<<<<<<<<,",
"<<<<<<<<<<<<<<<<<<<<<<<<<<< +#&ooo..%.<<<<<<<<<<<<<<<<<<<<<<<<<<,",
"<<<<<<<<<<<<<<<<<<<<<<<<<<< & #+  XX@.<<<<<<<<<<<<<<<<<<<<<<<<<<,",
"<<<<<<<<<<<<<<<<<<<<<<<oO;>o+##%**XXX@<<<<<<<<<<<<<<<<<<<<<<<<<<,",
"<<<<<<<<<<<<<<<<<<<<XOOOOO; +#% . *X X@<<<<<<<<<<<<<<<<<<<<<<<<<,",
"<<<<<<<<<<<<<<<<<XoOOOOOoo -+ :$$$:* X.<<<<<<<<<<<<<<<<<<<<<<<<<,",
"<<<<<<<<<<<<<<<=XoOooXXoOX -#X$$$$$*X .@<<<<<<<<<<<<<<<<<<<<<<<<,",
",,,,,,,,,,,,,,,,,,,,,,,,,,,,,,,,,,,,,,,,,,,,,,,,,,,,,,,,,,,,,,,,,"
};
