/* XPM */
static char *f90f450dfd3e4510d800dab1bd37dce8M33G8Yrx6sj7M6r5[] = {
/* columns rows colors chars-per-pixel */
"65 65 32 1 ",
"  c gray49",
". c #646464",
"X c gray60",
"o c #535353",
"O c #AAAAAA",
"+ c #FFA56E",
"@ c #464646",
"# c #FFB17E",
"$ c #8D8D8D",
"% c #717171",
"& c #C9713F",
"* c #FF8D54",
"= c #282828",
"- c #E8814C",
"; c #DF7D48",
": c black",
"> c #D17943",
", c #FF9D5C",
"< c #FFC5A4",
"1 c #F58950",
"2 c gray71",
"3 c #353535",
"4 c #FFB98F",
"5 c #FFBD9C",
"6 c gray10",
"7 c #8F4F25",
"8 c #FFD9C4",
"9 c #FF9558",
"0 c white",
"q c #B3008C",
"w c black",
"e c black",
/* pixels */
"0qqqqqqqqqqqqqqqqqqqqqqqqqqqqqqqqqqqqqqqqqqqqqqqqqqqqqqqqqqqqqqqq",
"0qqqqqqqqqqqqqqqqqqqqqqqqqqqqqqqqqqqqqqqqqqqqqqqqqqqqqqqqqqqqqqqq",
"0qqqqqqqqqqqqqqqqqqqqqqqqqqqqqqqqqqqqqqqqqqqqqqqqqqqqqqqqqqqqqqqq",
"0qqqqqqqqqqqqqqqqqqqqqqqqqqqqqqqqqqqqqqqqqqqqqqqqqqqqqqqqqqqqqqqq",
"0qqqqqqqqqqqqqqqqqqqqqqqqqqqqqqqqqqqqqqqqqqqqqqqqqqqqqqqqqqqqqqqq",
"0qqqqqqqqqqqqqqqqqqqqqqqqqqqqqqqqqqqqqqqqqqqqqqqqqqqqqqqqqqqqqqqq",
"0qqqqqqqqqqqqqqqqqqqqqqqqqqqqqqqqqqqqqqqqqqqqqqqqqqqqqqqqqqqqqqqq",
"0qqqqqqqqqqqqqqqqqqqqqqqqqqqqqqqqqqqqqqqqqqqqqqqqqqqqqqqqqqqqqqqq",
"0qqqqqqqqqqqqqqqqqqqqqqqqqqqqqqqqqqqqqqqqqqqqqqqqqqqqqqqqqqqqqqqq",
"0qqqqqqqqqqqqqqqqqqqqqqqqqqqqqqqqqqqqqqqqqqqqqqqqqqqqqqqqqqqqqqqq",
"0qqqqqqqqqqqqqqqqqqqqqqqqqqqqqqqqqqqqqqqqqqqqqqqqqqqqqqqqqqqqqqqq",
"0qqqqqqqqqqqqqqqqqqqqqqqqqqqqqqqqqqqqqqqqqqqqqqqqqqqqqqqqqqqqqqqq",
"0qqqqqqqqqqqqqqqqqqqqqqqqqqqqqqqqqqqqqqqqqqqqqqqqqqqqqqqqqqqqqqqq",
"0qqqqqqqqqqqqqqqqqqqqqqqqqqqqqqqqqqqqqqqqqqqqqqqqqqqqqqqqqqqqqqqq",
"0qqqqqqqqqqqqqqqqqqqqqqqqqqqqqqqqqqqqqqqqqqqqqqqqqqqqqqqqqqqqqqqq",
"0qqqqqqqqqqqqqqqqqqqqqqqqqqqqqqqqqqqqqqqqqqqqqqqqqqqqqqqqqqqqqqqq",
"0qqqqqqqqqqqqqqqqqqqqqqqqqqqqqqqqqqqqqqqqqqqqqqqqqqqqqqqqqqqqqqqq",
"0qqqqqqqqqqqqqqqqqqqqqqqqqqqqqqqqqqqqqqqqqqqqqqqqqqqqqqqqqqqqqqqq",
"0qqqqqqqqqqqqqqqqqqqqqqqqqqqqqqqqqqqqqqqqqqqqqqqqqqqqqqqqqqqqqqqq",
"0qqqqqqqqqqqqqqqqqqqqqqqqqqqqqqqqqqqqqqqqqqqqqqqqqqqqqqqqqqqqqqqq",
"0qqqqqqqqqqqqqqqqqqqqqqqqqqqqqqqqqqqqqqqqqqqqqqqqqqqqqqqqqqqqqqqq",
"0qqqqqqqqqqqqqqqqqqqqqqqqqqqqqqqqqqqqqqqqqqqqqqqqqqqqqqqqqqqqqqqq",
"0qqqqqqqqqqqqqqqqqqqqqqqqqqqqqqqqqqqqqqqqqqqqqqqqqqqqqqqqqqqqqqqq",
"0qqqqqqqqqqqqqqqqqqqqqqqqqqqqqqqqqqqqqqqqqqqqqqqqqqqqqqqqqqqqqqqq",
"0qqqqqqqqqqqqqqqqqqqqqqqqqqqqqqqqqqqqqqqqqqqqqqqqqqqqqqqqqqqqqqqq",
"0qqqqqqqqqqqqqqqqqqqqqqqqqqqqqqqqqqqqqqqqqqqqqqqqqqqqqqqqqqqqqqqq",
"0qqqqqqqqqqqqqqqqqqqqqqqqqqqqqqqqqqqqqqqqqqqqqqqqqqqqqqqqqqqqqqqq",
"0qqqqqqqqqqqqqqqqqqqqqqqqqqqqqqqqqqqqqqqqqqqqqqqqqqqqqqqqqqqqqqqq",
"0qqqqqqqqqqqqqqqqqqqqqqqqqqqqqqqqqqqqqqqqqqqqqqqqqqqqqqqqqqqqqqqq",
"0qqqqqqqqqqqqqqqqqqqqqqqqqqqqqqqqqqqqqqqqqqqqqqqqqqqqqqqqqqqqqqqq",
"0qqqqqqqqqqqqqqqqqqqqqqqqqqqqqqqqqqqqqqqqqqqqqqqqqqqqqqqqqqqqqqqq",
"0qqqqqqqqqqqqqqqqqqqqqqqqqqqqqqqqqqqqqqqqqqqqqqqqqqqqqqqqqqqqqqqq",
"0qqqqqqqqqqqqqqqqqqqqqqqqqqqqqqqqqqqqqqqqqqqqqqqqqqqqqqqqqqqqqqqq",
"0qqqqqqqqqqqqqqqqqqqqqqqqqqqqqqqqqqqqqqqqqqqqqqqqqqqqqqqqqqqqqqqq",
"0qqqqqqqqqqqqqqqqqqqqqqqqqqqqqqqq3qqqqqqqqqqqqqqqqqqqqqqqqqqqqqqq",
"0qqqqqqqqqqqqqqqqqqqqqqqqqqqqqqqo%oqqqqqqqqqqqqqqqqqqqqqqqqqqqqqq",
"0qqqqqqqqqqqqqqqqqqqqqqqqqqqqqq@ O @qqqqqqqqqqqqqqqqqqqqqqqqqqqqq",
"0qqqqqqqqqqqqqqqqqqqqqqqqqqqqqq@ O @qqqqqqqqqqqqqqqqqqqqqqqqqqqqq",
"0qqqqqqqqqqqqqqqqqqqqqqqqqqqqqq@ O @qqqqqqqqqqqqqqqqqqqqqqqqqqqqq",
"0qqqqqqqqqqqqqqqqqqqqqqqqqqqqqq@ O @qqqqqqqqqqqqqqqqqqqqqqqqqqqqq",
"0qqqqqqqqqqqqqqqqqqqqqqqqqqqqq  .$.  qqqqqqqqqqqqqqqqqqqqqqqqqqqq",
"0qqqqqqqqqqqqqqqqqqqqqqqqqqqq.  .$.  .qqqqqqqqqqqqqqqqqqqqqqqqqqq",
"0qqqqqqqqqqqqqqqqqqqqqqqqqqqqo O3@3. oqqqqqqqqqqqqqqqqqqqqqqqqqqq",
"0qqqqqqqqqqqqqqqqqqqqqqqqqqqqoXX===. @qqqqqqqqqqqqqqqqqqqqqqqqqqq",
"0qqqqqqqqqqqqqqqqqqqqqqqqqqqqoO2% %. 3qqqqqqqqqqqqqqqqqqqqqqqqqqq",
"0qqqqqqqqqqqqqqqqqqqqqqqqqqqqoO2222.@=&qqqqqqqqqqqqqqqqqqqqqqqqqq",
"0qqqqqqqqqqqqqqqqqqqqqqqqqqq+o$2$$$@@:&&qqqqqqqqqqqqqqqqqqqqqqqqq",
"0qqqqqqqqqqqqqqqqqqqqqqqqqq+5oo @@@=6:&&qqqqqqqqqqqqqqqqqqqqqqqqq",
"0qqqqqqqqqqqqqqqqqqqqqqqqqq+5.o.===:6:>&&qqqqqqqqqqqqqqqqqqqqqqqq",
"0qqqqqqqqqqqqqqqqqqqqqqqqqq+5 o.===::o;>&qqqqqqqqqqqqqqqqqqqqqqqq",
"0qqqqqqqqqqqqqqqqqqqqqqqqq++## o:::6o&;>&qqqqqqqqqqqqqqqqqqqqqqqq",
"0qqqqqqqqqqqqqqqqqqqqqqqqq++#84;777&**1;&qqqqqqqqqqqqqqqqqqqqqqqq",
"0qqqqqqqqqqqqqqqqqqqqqqqqq+##8<<<<4#+**1&qqqqqqqqqqqqqqqqqqqqqqqq",
"0qqqqqqqqqqqqqqqqqqqqqqqqq+#*#<<<<4#+,*1;qqqqqqqqqqqqqqqqqqqqqqqq",
"0qqqqqqqqqqqqqqqqqqqqqqqqq+#+*++++++,,*1;qqqqqqqqqqqqqqqqqqqqqqqq",
"0qqqqqqqqqqqqqqqqqqqqqqqqq9##**,,,,,,**-;qqqqqqqqqqqqqqqqqqqqqqqq",
"0qqqqqqqqqqqqqqqqqqqqqqqqq1###1---------;qqqqqqqqqqqqqqqqqqqqqqqq",
"0qqqqqqqqqqqqqqqqqqqqqqqqXXXX >>>>>      .qqqqqqqqqqqqqqqqqqqqqqq",
"0qqqqqqqqqqqqqqqqqqqqqqqXOOOX %%;>o XXX   .qqqqqqqqqqqqqqqqqqqqqq",
"0qqqqqqqqqqqqqqqqqqqqqqqXOOOX  %oo  XX    .qqqqqqqqqqqqqqqqqqqqqq",
"0qqqqqqqqqqqqqqqqqqqqqqXXOX$%  .oo   %%%....qqqqqqqqqqqqqqqqqqqqq",
"0qqqqqqqqqqqqqqqqqqqqqXOOOOXX%...@o % $   ...qqqqqqqqqqqqqqqqqqqq",
"0qqqqqqqqqqqqqqqqqqqqqOOOOXX   .o@o% $$$   ..qqqqqqqqqqqqqqqqqqqq",
"0qqqqqqqqqqqqqqqqqqqqXOOOXX   ..o@o% $$$    ..qqqqqqqqqqqqqqqqqqq",
"00000000000000000000000000000000000000000000000000000000000000000"
};
