/* XPM */
static char *_a57e4c8a5e5441fe3909870462eca3aD4cCutgpxDNb4V8q[] = {
/* columns rows colors chars-per-pixel */
"64 65 64 1 ",
"  c gray60",
". c gray49",
"X c #AAAAAA",
"o c #646464",
"O c #FFB17E",
"+ c #282828",
"@ c #464646",
"# c #FFA56E",
"$ c #FFD9C4",
"% c black",
"& c #535353",
"* c #FF8D54",
"= c #FF9558",
"- c #8D8D8D",
"; c gray10",
": c #C9713F",
"> c #B30000",
", c #DF7D48",
"< c #717171",
"1 c #FF9D9D",
"2 c red",
"3 c #FF9D5C",
"4 c #FF5C5C",
"5 c #BC683B",
"6 c #F58950",
"7 c #FF5353",
"8 c gray71",
"9 c #FCFC3E",
"0 c #FFC5A4",
"q c #8F4F25",
"w c gray82",
"e c red",
"r c #FFB98F",
"t c #B36437",
"y c #814B20",
"u c #5B3913",
"i c white",
"p c #B3008C",
"a c black",
"s c black",
"d c black",
"f c black",
"g c black",
"h c black",
"j c black",
"k c black",
"l c black",
"z c black",
"x c black",
"c c black",
"v c black",
"b c black",
"n c black",
"m c black",
"M c black",
"N c black",
"B c black",
"V c black",
"C c black",
"Z c black",
"A c black",
"S c black",
"D c black",
"F c black",
/* pixels */
"pppppppppppppppppppppppppppppppppppppppppppppppppppppppppppppppp",
"pppppppppppppppppppppppppppppppppppppppppppppppppppppppppppppppp",
"pppppppppppppppppppppppppppppppppppppppppppppppppppppppppppppppp",
"pppppppppppppppppppppppppppppppppppppppppppppppppppppppppppppppp",
"pppppppppppppppppppppppppppppppppppppppppppppppppppppppppppppppp",
"pppppppppppppppppppppppppppppppppppppppppppppppppppppppppppppppp",
"pppppppppppppppppppppppppppppppppppppppppppppppppppppppppppppppp",
"pppppppppppppppppppppppppppppppppppppppppppppppppppppppppppppppp",
"pppppppppppppppppppppppppppppppppppppppppppppppppppppppppppppppp",
"pppppppppppppppppppppppppppppppppppppppppppppppppppppppppppppppp",
"pppppppppppppppppppppppppppppppppppppppppppppppppppppppppppppppp",
"pppppppppppppppppppppppppppppppppppppppppppppppppppppppppppppppp",
"pppppppppppppppppppppppppppppppppppppppppppppppppppppppppppppppp",
"pppppppppppppppppppppppppppppppppppppppppppppppppppppppppppppppp",
"pppppppppppppppppppppppppppppppppppppppppppppppppppppppppppppppp",
"pppppppppppppppppppppppppppppppppppppppppppppppppppppppppppppppp",
"pppppppppppppppppppppppppppppppppppppppppppppppppppppppppppppppp",
"pppppppppppppppppppppppppppppppppppppppppppppppppppppppppppppppp",
"pppppppppppppppppppppppppppppppppppppppppppppppppppppppppppppppp",
"pppppppppppppppppppppppppppppppppppppppppppppppppppppppppppppppp",
"pppppppppppppppppppppppppppppppppppppppppppppppppppppppppppppppp",
"pppppppppppppppppppppppppppppppppppppppppppppppppppppppppppppppp",
"pppppppppppppppppppppppppppppppppppppppppppppppppppppppppppppppp",
"pppppppppppppppppppppppppppppppppppppppppppppppppppppppppppppppp",
"pppppppppppppppppppppppppppppppppppppppppppppppppppppppppppppppp",
"pppppppppppppppppppppppppppppppppppppppppppppppppppppppppppppppp",
"pppppppppppppppppppppppppppppppppppppppppppppppppppppppppppppppp",
"pppppppppppppppppppppppppppppppppppppppppppppppppppppppppppppppp",
"pppppppppppppppppppppppppppppppppppppppppppppppppppppppppppppppp",
"pppppppppppppppppppppppppppppppppppppppppppppppppppppppppppppppp",
"pppppppppppppppppppppppppppppppppppppppppppppppppppppppppppppppp",
"pppppppppppppppppppppppppppppppppppppppppppppppppppppppppppppppp",
"pppppppppppppppppppppppppppppppppppppppppppppppppppppppppppppppp",
"pppppppppppppppppppppppppppppppppppppppppppppppppppppppppppppppp",
"pppppppppppppppppppppppppppppppppppppppppppppppppppppppppppppppp",
"pppppppppppppppppppppppppppppppp>ppppppppppppppppppppppppppppppp",
"ppppppppppppppppppppppppppppppp>e>pppppppppppppppppppppppppppppp",
"ppppppppppppppppppppppppppppeppe1eppeppppppppppppppppppppppppppp",
"ppppppppppppppppppppppppppppp7441447pppppppppppppppppppppppppppp",
"pppppppppppppppppppppppppppppe11917epppppppppppppppppppppppppppp",
"pppppppppppppppppppppppppppp>79X.X97eppppppppppppppppppppppppppp",
"ppppppppppppppppppppppppppp>41X-w-X14>pppppppppppppppppppppppppp",
"pppppppppppppppppppppppppppp>e.8w8.e>ppppppppppppppppppppppppppp",
"pppppppppppppppppppppppppppppp@8w8@ppppppppppppppppppppppppppppp",
"ppppppppppppppppppppppppppppp..@.@..pppppppppppppppppppppppppppp",
"pppppppppppppppppppppppppppp+. +++o.&ppppppppppppppppppppppppppp",
"pppppppppppppppppppppppppppp+.X<.<o.@ppppppppppppppppppppppppppp",
"pppppppppppppppppppppppppppp+.X   o.+ppppppppppppppppppppppppppp",
"pppppppppppppppppppppppppppp+@ XXX@@%ppppppppppppppppppppppppppp",
"pppppppppppppppppppppppppppp+;.@@@%;%5pppppppppppppppppppppppppp",
"ppppppppppppppppppppppppppp=+;o+++%;%5:ppppppppppppppppppppppppp",
"pppppppppppppppppppppppppp=OO;o+++%;u5:ppppppppppppppppppppppppp",
"pppppppppppppppppppppppppp#0$,%%%%;;y:::pppppppppppppppppppppppp",
"pppppppppppppppppppppppppp#O$$,qqq:**6,:pppppppppppppppppppppppp",
"ppppppppppppppppppppppppp#OO$$$$0rO#**6:pppppppppppppppppppppppp",
"ppppppppppppppppppppppppp#O*O$$$0rO#3*6,pppppppppppppppppppppppp",
"ppppppppppppppppppppppppp#O#*OOOOO#33*6,pppppppppppppppppppppppp",
"ppppppppppppppppppppppppp=OO33OOO##33*6,pppppppppppppppppppppppp",
"ppppppppppppppppppppppppp   XX,=====   ..ppppppppppppppppppppppp",
"pppppppppppppppppppppppp XX -<o55to XX  .opppppppppppppppppppppp",
"ppppppppppppppppppppppp XX  .<o&@o.-XX   .oppppppppppppppppppppp",
"pppppppppppppppppppppp XX  ..<o&&o.- ---  o&pppppppppppppppppppp",
"pppppppppppppppppppppp..  .<ooo&&o.o. XX  .o@ppppppppppppppppppp",
"ppppppppppppppppppppp8 XX  ..<o&&ooo   XX .o@@pppppppppppppppppp",
"iiiiiiiiiiiiiiiiiiiiiiiiiiiiiiiiiiiiiiiiiiiiiiiiiiiiiiiiiiiiiiii"
};
