/* XPM */
static char *pistol_021660771379[] = {
/* columns rows colors chars-per-pixel */
"65 65 32 1 ",
"  c gray60",
". c gray49",
"X c #646464",
"o c #AAAAAA",
"O c #FFB17E",
"+ c #464646",
"@ c #282828",
"# c black",
"$ c #FFA56E",
"% c #FF8D54",
"& c #535353",
"* c #FFD9C4",
"= c #717171",
"- c #C9713F",
"; c gray10",
": c #FF9558",
"> c #FF9D5C",
", c #DF7D48",
"< c #8D8D8D",
"1 c #BC683B",
"2 c #F58950",
"3 c #8F4F25",
"4 c #FFC5A4",
"5 c #FFB98F",
"6 c #5B3913",
"7 c #814B20",
"8 c white",
"9 c #B3008C",
"0 c black",
"q c black",
"w c black",
"e c black",
/* pixels */
"99999999999999999999999999999999999999999999999999999999999999998",
"99999999999999999999999999999999999999999999999999999999999999998",
"99999999999999999999999999999999999999999999999999999999999999998",
"99999999999999999999999999999999999999999999999999999999999999998",
"99999999999999999999999999999999999999999999999999999999999999998",
"99999999999999999999999999999999999999999999999999999999999999998",
"99999999999999999999999999999999999999999999999999999999999999998",
"99999999999999999999999999999999999999999999999999999999999999998",
"99999999999999999999999999999999999999999999999999999999999999998",
"99999999999999999999999999999999999999999999999999999999999999998",
"99999999999999999999999999999999999999999999999999999999999999998",
"99999999999999999999999999999999999999999999999999999999999999998",
"99999999999999999999999999999999999999999999999999999999999999998",
"99999999999999999999999999999999999999999999999999999999999999998",
"99999999999999999999999999999999999999999999999999999999999999998",
"99999999999999999999999999999999999999999999999999999999999999998",
"99999999999999999999999999999999999999999999999999999999999999998",
"99999999999999999999999999999999999999999999999999999999999999998",
"99999999999999999999999999999999999999999999999999999999999999998",
"99999999999999999999999999999999999999999999999999999999999999998",
"99999999999999999999999999999999999999999999999999999999999999998",
"99999999999999999999999999999999999999999999999999999999999999998",
"99999999999999999999999999999999999999999999999999999999999999998",
"99999999999999999999999999999999999999999999999999999999999999998",
"99999999999999999999999999999999999999999999999999999999999999998",
"99999999999999999999999999999999999999999999999999999999999999998",
"99999999999999999999999999999999999999999999999999999999999999998",
"99999999999999999999999999999999999999999999999999999999999999998",
"99999999999999999999999999999999999999999999999999999999999999998",
"99999999999999999999999999999999999999999999999999999999999999998",
"99999999999999999999999999999999999999999999999999999999999999998",
"99999999999999999999999999999999999999999999999999999999999999998",
"99999999999999999999999999999999999999999999999999999999999999998",
"99999999999999999999999999999999999999999999999999999999999999998",
"99999999999999999999999999999999999999999999999999999999999999998",
"99999999999999999999999999999999999999999999999999999999999999998",
"99999999999999999999999999999999999999999999999999999999999999998",
"99999999999999999999999999999999999999999999999999999999999999998",
"99999999999999999999999999999999999999999999999999999999999999998",
"99999999999999999999999999999999999999999999999999999999999999998",
"99999999999999999999999999999999#99999999999999999999999999999998",
"9999999999999999999999999999999&=&9999999999999999999999999999998",
"999999999999999999999999999999+.o.+999999999999999999999999999998",
"999999999999999999999999999999+.o.+999999999999999999999999999998",
"99999999999999999999999999999..+.+..99999999999999999999999999998",
"9999999999999999999999999999@. @@@X.&9999999999999999999999999998",
"9999999999999999999999999999@.o=.=X.+9999999999999999999999999998",
"9999999999999999999999999999@.o   X.@9999999999999999999999999998",
"9999999999999999999999999999@+ ooo++#9999999999999999999999999998",
"9999999999999999999999999999@;.+++#;#1999999999999999999999999998",
"999999999999999999999999999:@;X@@@#;#1-99999999999999999999999998",
"99999999999999999999999999:OO;X@@@#;61-99999999999999999999999998",
"99999999999999999999999999$4*,####;;7---9999999999999999999999998",
"99999999999999999999999999$O**,333-%%2,-9999999999999999999999998",
"9999999999999999999999999$OO****45O$%%2-9999999999999999999999998",
"9999999999999999999999999$O%O***45O$>%2,9999999999999999999999998",
"9999999999999999999999999$O$%OOOOO$>>%2,9999999999999999999999998",
"9999999999999999999999999:OO>>OOO$$>>%2,9999999999999999999999998",
"9999999999999999999999999   %%,:::::   ..999999999999999999999998",
"999999999999999999999999 oo <=X111X oo  .X99999999999999999999998",
"99999999999999999999999 oo  .=X&+X.<oo   .X9999999999999999999998",
"9999999999999999999999 oo  ..=X&&X.< <<<  X&999999999999999999998",
"9999999999999999999999..  .=XXX&&X.X. oo  .X+99999999999999999998",
"999999999999999999999. oo  ..=X&&XXX   oo .X++9999999999999999998",
"88888888888888888888888888888888888888888888888888888888888888888"
};
