/* XPM */
static char *_e29af31c0f84aa6889c2f518bee4ed8ffBbIpCWTFV1bo19[] = {
/* columns rows colors chars-per-pixel */
"64 65 64 1 ",
"  c gray99",
". c #920000",
"X c #A1E9E9",
"o c red",
"O c #FCFC3E",
"+ c #78DDDD",
"@ c #FF7D7D",
"# c #FFB9B9",
"$ c #FF5353",
"% c #F70000",
"& c #00B1B1",
"* c #282828",
"= c #008D8D",
"- c #464646",
"; c #005757",
": c #00C1C1",
"> c #C00000",
", c #CDF4F4",
"< c #535353",
"1 c #003E3E",
"2 c #C50000",
"3 c #006C6C",
"4 c #1FC9C9",
"5 c #008585",
"6 c #00B5B5",
"7 c #FF9D9D",
"8 c gray49",
"9 c #DC0000",
"0 c #AAAAAA",
"q c gray10",
"w c #FCFC98",
"e c #007575",
"r c #009999",
"t c #007171",
"y c #FCFCB6",
"u c #670000",
"i c #00A5A5",
"p c #646464",
"a c #FCFC73",
"s c #EA0000",
"d c gray71",
"f c #007D7D",
"g c #009D9D",
"h c #FF3E3E",
"j c #A00000",
"k c #B30000",
"l c #FCFCD7",
"z c gray60",
"x c #CE0000",
"c c #00B5B5",
"v c #353535",
"b c #FF1A1A",
"n c #840000",
"m c white",
"M c #B3008C",
"N c black",
"B c black",
"V c black",
"C c black",
"Z c black",
"A c black",
"S c black",
"D c black",
"F c black",
/* pixels */
"MMMMMMMMMMMMMMMMMMMMMMMMMMMMMMMMMMMMMMMMMMMMMMMMMMMMMMMMMMMMMMMM",
"MMMMMMMMMMMMMMMMMMMMMMMMMMMMMMMMMMMMMMMMMMMMMMMMMMMMMMMMMMMMMMMM",
"MMMMMMMMMMMMMMMMMMMMMMMMMMMMMMMMMMMMMMMMMMMMMMMMMMMMMMMMMMMMMMMM",
"MMMMMMMMMMMMMMMMMMMMMMMMMMMMMMMMMMMMMMMMMMMMMMMMMMMMMMMMMMMMMMMM",
"MMMMMMMMMMMMMMMMMMMMMMMMMMMMMMMMMMMMMMMMMMMMMMMMMMMMMMMMMMMMMMMM",
"MMMMMMMMMMMMMMMMMMMMMMMMMMMMMMMMMMMMMMMMMMMMMMMMMMMMMMMMMMMMMMMM",
"MMMMMMMMMMMMMMMMMMMMMMMMMMMMMMMMMMMMMMMMMMMMMMMMMMMMMMMMMMMMMMMM",
"MMMMMMMMMMMMMMMMMMMMMMMMMMMMMMMMMMMMMMMMMMMMMMMMMMMMMMMMMMMMMMMM",
"MMMMMMMMMMMMMMMMMMMMMMMMMMMMMMMMMMMMMMMMMMMMMMMMMMMMMMMMMMMMMMMM",
"MMMMMMMMMMMMMMMMMMMMMMMMMMMMMMMMMMMMMMMMMMMMMMMMMMMMMMMMMMMMMMMM",
"MMMMMMMMMMMMMMMMMMMMMMMMMMMMMMMMMMMMMMMMMMMMMMMMMMMMMMMMMMMMMMMM",
"MMMMMMMMMMMMMMMMMMMMMMMMMMMMMMMMMMMMMMMMMMMMMMMMMMMMMMMMMMMMMMMM",
"MMMMMMMMMMMMMMMMMMMMMMMMMMMMMMMMMMMMMMMMMMMMMMMMMMMMMMMMMMMMMMMM",
"MMMMMMMMMMMMMMMMMMMMMMMMMMMMMMMMMMMMMMMMMMMMMMMMMMMMMMMMMMMMMMMM",
"MMMMMMMMMMMMMMMMMMMMMMMMMMMMMMMMMMMMMMMMMMMMMMMMMMMMMMMMMMMMMMMM",
"MMMMMMMMMMMMMMMMMMMMMMMMMMMMMMMMMMMMMMMMMMMMMMMMMMMMMMMMMMMMMMMM",
"MMMMMMMMMMMMMMMMMMMMMMMMMMMMMMMMMMMMMMMMMMMMMMMMMMMMMMMMMMMMMMMM",
"MMMMMMMMMMMMMMMMMMMMMMMMMMMMMMMMMMMMMMMMMMMMMMMMMMMMMMMMMMMMMMMM",
"MMMMMMMMMMMMMMMMMMMMMMMMMMMMMMMMMMMMMMMMMMMMMMMMMMMMMMMMMMMMMMMM",
"MMMMMMMMMMMMMMMMMMMMMMMMMMMMMMMMMMMMMMMMMMMMMMMMMMMMMMMMMMMMMMMM",
"MMMMMMMMMMMMMMMMMMMMMMMMMMMMMMMMMMMMMMMMMMMMMMMMMMMMMMMMMMMMMMMM",
"MMMMMMMMMMMMMMMMMMMMMMMMMMMMMMMMMMMMMMMMMMMMMMMMMMMMMMMMMMMMMMMM",
"MMMMMMMMMMMMMMMMMMMMMMMMMMMMMMMMMMMMMMMMMMMMMMMMMMMMMMMMMMMMMMMM",
"MMMMMMMMMMMMMMMMMMMMMMMMMMMMMMMMMMMMMMMMMMMMMMMMMMMMMMMMMMMMMMMM",
"MMMMMMMMMMMMMMMMMMMMMMMMMMMMMMMMMMMMMMMMMMMMMMMMMMMMMMMMMMMMMMMM",
"MMMMMMMMMMMMMMMMMMMMMMMMMMMMMMMMMMMMMMMMMMMMMMMMMMMMMMMMMMMMMMMM",
"MMMMMMMMMMMMMMMMMMMMMMMMMMMMMMMMMMMMMMMMMMMMMMMMMMMMMMMMMMMMMMMM",
"MMMMMMMMMMMMMMMMMMMMMMMMMMMMMMMMMMMMMMMMMMMMMMMMMMMMMMMMMMMMMMMM",
"MMMMMMMMMMMMMMMMMMMMMMMMMMMMMMMMMMMMMMMMMMMMMMMMMMMMMMMMMMMMMMMM",
"MMMMMMMMMMMMMMMMMMMMMMMMMMMMMMMMMMMMMMMMMMMMMMMMMMMMMMMMMMMMMMMM",
"MMMMMMMMMMMMMMMMMMMMMMMMMMMMMMMM.MMMMMMMMMMMMMMMMMMMMMMMMMMMMMMM",
"MMMMMMMMMMMMMMMMMMMMMMMMMMMMMMM.2.MMMMMMMMMMMMMMMMMMMMMMMMMMMMMM",
"MMMMMMMMMMMMMMMMMMMMMMMMMMMMMMM.o.MMMMMMMMMMMMMMMMMMMMMMMMMMMMMM",
"MMMMMMMMMMMMMMMMMMMMMMMMMMMMMM.o$2.MMMMMMMMMMMMMMMMMMMMMMMMMMMMM",
"MMMMMMMMMMMMMMMMMMMMMMMMMMMMM.2$@$2.MMMMMMMMMMMMMMMMMMMMMMMMMMMM",
"MMMMMMMMMMMMMMMMMMMMMMMMMMMM..o@#@o2.MMMM...MMMMMMMMMMMMMMMMMMMM",
"MMMMMMMMMMMMMMMMMMMMMMMMMMM.2o@#O#@o2.M.>%%.MMMMMMMMMMMMMMMMMMMM",
"MMMMMMMMMMMMMMMMMjjkMMMMM..2o@#OyO#@o9.2oo%>MMMMMMMMMMMMMMMMMMMM",
"MMMMMMMMMMMMMMMMMjxs..MM.2so@#Oa wO#@o9$$o>MMMMMMMMMMMMMMMMMMMMM",
"MMMMMMMMMMMMMMMMMksoo%.92$o@#Oal laO#7$$$%.MMMMMMMMMMMMMMMMMMMMM",
"MMMMMMMMMMMMMMMMMM.o$$o%so$7OOw   yaO#7$o>.....MMMMMMMMMMMMMMMMM",
"MMMMMMMMMMMMMMMMMMMs$#@$oo@#Oay   ywOO#$%%o@o2.MMMMMMMMMMMMMMMMM",
"MMMMMMMMMMMMMMMMMMM9o@O#7$#OOwy +&ywOOO@@@#O@%.MMMMMMMMMMMMMMMMM",
"MMMMMMMMMMMMMMMMMMM.%$# w7#Ow:5 +&5:wOO## y#%.MMMMMMMMMMMMMMMMMM",
"MMMMMMMMMMMMMMMMMMM.%$@   w00000000000w   y@.MMMMMMMMMMMMMMMMMMM",
"MMMMMMMMMMMMMMMMMMM>o$7  d8888888888888d  7b>.uuMMMMMMMMMMMMMMMM",
"MMMMMMMMMMMMMMM...>9o@#wdp-------------pdlO7oo%9>uuMMMMMMMMMMMMM",
"MMMMMMMMMMM..>9%oo$@7#Ozp-q*<<*5e<*<<*q-pzOO#7@$ho%9>uuMMMMMMMMM",
"MMMMMMM..>9%%oo$@#OOOOO8-q1e=3tX451;=<*q-<OOOOO#@@$ooo%>.uuMMMMM",
"MMMMMMMMMMM.>22%oo@7#O0p<veX+5i +51;:=***-8O#7@$ho%2>..MMMMMMMMM",
"MMMMMMMMMMMMM..>>9%o7Op;:<: +r4 +r;*=i<*1*-O7ho%xk..MMMMMMMMMMMM",
"MMMMMMMMMMMMMMMMMM>o@@*::= X4&+ +i<*5c5*<*-7@o9.MMMMMMMMMMMMMMMM",
"MMMMMMMMMMMMMMMMMM>%o$* g: Xc:+ +&e*t:&<*-*$o9MMMMMMMMMMMMMMMMMM",
"MMMMMMMMMMMMMMMMM.2>%.:XgX +r:X X&=<;=:<*<;.2.MMMMMMMMMMMMMMMMMM",
"MMMMMMMMMMMMMMMMMM.MM% c4 X+  XX+4i=55c=*;;%>MMMMMMMMMMMMMMMMMMM",
"MMMMMMMMMMMMMMMMMMMMM:XgX +: X X+4crttcce*<<nMMMMMMMMMMMMMMMMMMM",
"MMMMMMMMMMMMMMMMMMMMMX+c+++,X, X+4c&3;4Xc31;MMMMMMMMMMMMMMMMMMMM",
"MMMMMMMMMMMMMMMMMMMM:+,X ,X X  X+4c&e;5&=&=113MMMMMMMMMMMMMMMMMM",
"MMMMMMMMMMMMMMMMMMM=+ +  XX X  X+4c&=;;r&=teq13MMMMMMMMMMMMMMMMM",
"MMMMMMMMMMMMMMMMMM=+X,+ ,X,XX  X+4c&r3;5&rf31q13MMMMMMMMMMMMMMMM",
"MMMMMMMMMMMMMMMMM=:X +X ,X X,  X+4c&ie;tr&=t31q13MMMMMMMMMMMMMMM",
"MMMMMMMMMMMMMMMM=:+,,+, XX X   X+4c&ie;;5&rf3;1q1MMMMMMMMMMMMMMM",
"MMMMMMMMMMMMMMMM:+, +X ,X,XX   X+4c&&=3;tr&=f31qq3MMMMMMMMMMMMMM",
"MMMMMMMMMMMMMMM:+X, +, ,X X,   X+4c&&=e;t5&=5331q1MMMMMMMMMMMMMM",
"mmmmmmmmmmmmmmmmmmmmmmmmmmmmmmmmmmmmmmmmmmmmmmmmmmmmmmmmmmmmmmmm"
};
