/* XPM */
static char *_4ce8a13e47446acc36175b4a482e5ea3VZGh1czurnVUsxQ[] = {
/* columns rows colors chars-per-pixel */
"65 65 32 1 ",
"  c gray99",
". c #A1E9E9",
"X c #003E3E",
"o c #78DDDD",
"O c #005757",
"+ c black",
"@ c #008D8D",
"# c #00B1B1",
"$ c #282828",
"% c #CDF4F4",
"& c #00C1C1",
"* c #006C6C",
"= c #008585",
"- c #535353",
"; c #00B5B5",
": c #1FC9C9",
"> c gray10",
", c #007575",
"< c #009999",
"1 c #007171",
"2 c #00A5A5",
"3 c #007D7D",
"4 c #009D9D",
"5 c #AAAAAA",
"6 c #00B5B5",
"7 c white",
"8 c #B3008C",
"9 c black",
"0 c black",
"q c black",
"w c black",
"e c black",
/* pixels */
"88888888888888888888888888888888888888888888888888888888888888887",
"88888888888888888888888888888888888888888888888888888888888888887",
"88888888888888888888888888888888888888888888888888888888888888887",
"88888888888888888888888888888888888888888888888888888888888888887",
"88888888888888888888888888888888888888888888888888888888888888887",
"88888888888888888888888888888888888888888888888888888888888888887",
"88888888888888888888888888888888888888888888888888888888888888887",
"88888888888888888888888888888888888888888888888888888888888888887",
"88888888888888888888888888888888888888888888888888888888888888887",
"88888888888888888888888888888888888888888888888888888888888888887",
"88888888888888888888888888888888888888888888888888888888888888887",
"88888888888888888888888888888888888888888888888888888888888888887",
"88888888888888888888888888888888888888888888888888888888888888887",
"88888888888888888888888888888888888888888888888888888888888888887",
"88888888888888888888888888888888888888888888888888888888888888887",
"88888888888888888888888888888888888888888888888888888888888888887",
"88888888888888888888888888888888888888888888888888888888888888887",
"88888888888888888888888888888888888888888888888888888888888888887",
"88888888888888888888888888888888888888888888888888888888888888887",
"88888888888888888888888888888888888888888888888888888888888888887",
"88888888888888888888888888888888888888888888888888888888888888887",
"88888888888888888888888888888888888888888888888888888888888888887",
"88888888888888888888888888888888888888888888888888888888888888887",
"88888888888888888888888888888888888888888888888888888888888888887",
"88888888888888888888888888888888888888888888888888888888888888887",
"88888888888888888888888888888888888888888888888888888888888888887",
"88888888888888888888888888888888888888888888888888888888888888887",
"88888888888888888888888888888888888888888888888888888888888888887",
"88888888888888888888888888888888888888888888888888888888888888887",
"88888888888888888888888888888888888888888888888888888888888888887",
"88888888888888888888888888888888888888888888888888888888888888887",
"88888888888888888888888888888888888888888888888888888888888888887",
"88888888888888888888888888888888888888888888888888888888888888887",
"88888888888888888888888888888888888888888888888888888888888888887",
"88888888888888888888888888888888888888888888888888888888888888887",
"88888888888888888888888888888888888888888888888888888888888888887",
"88888888888888888888888888888888888888888888888888888888888888887",
"88888888888888888888888888888888888888888888888888888888888888887",
"88888888888888888888888888888888888888888888888888888888888888887",
"88888888888888888888888888888888888888888888888888888888888888887",
"88888888888888888888888888888888888888888888888888888888888888887",
"88888888888888888888888888888888888888888888888888888888888888887",
"8888888888888888888888888888888 .=8888888888888888888888888888887",
"888888888888888888888888888885= .=*588888888888888888888888888887",
"888888888888888888888888888OOOOOOOOOOO888888888888888888888888887",
"8888888888888888888888888OXXXXXXXXXXXXXO8888888888888888888888887",
"888888888888888888888888OX+++++++++++++$X888888888888888888888887",
"88888888888888888888888OX+>$--$=,-$--$>+>X88888888888888888888887",
"88888888888888888888888X+>X,@*1.:=XO@-$>+>88888888888888888888887",
"8888888888888888888888X+-X,.o=2 o=XO&@$$$+X8888888888888888888887",
"8888888888888888888888XO&-& o<: o<O$@2-$X+>8888888888888888888887",
"8888888888888888888888+&&@ .:#o o2-$=6=$-$+8888888888888888888887",
"8888888888888888888888+ 4& .6&o o#,$1&#-$O+8888888888888888888887",
"8888888888888888888888&.4. o<&. .#@-O@&-$-O8888888888888888888887",
"8888888888888888888888 6: .o  ..o:2@==6@$OO8888888888888888888887",
"888888888888888888888&.4. o& . .o:6<1166,$-8888888888888888888887",
"888888888888888888888.o6ooo%.% .o:6#*O:.6*XO888888888888888888887",
"88888888888888888888&o%. %. .  .o:6#,O=#@#@XX*8888888888888888887",
"8888888888888888888@o o  .. .  .o:6#@OO<#@1,>X*888888888888888887",
"888888888888888888@o.%o %.%..  .o:6#<*O=#<3*X>X*88888888888888887",
"88888888888888888@&. o. %. .%  .o:6#2,O1<#@1*X>X*8888888888888887",
"8888888888888888@&o%%o% .. .   .o:6#2,OO=#<3*OX>X8888888888888887",
"8888888888888888&o% o. %.%..   .o:6##@*O1<#@3*X>>*888888888888887",
"888888888888888&o.% o% %. .%   .o:6##@,O1=#@=**X>X888888888888887",
"77777777777777777777777777777777777777777777777777777777777777777"
};
