/* XPM */
static char *_e34f2d1153c4f6df71c3ddc4e1a8349ZIav3JsGtR0qm9Zt[] = {
/* columns rows colors chars-per-pixel */
"65 65 64 1 ",
"  c gray99",
". c #FCFC3E",
"X c red",
"o c #CE0000",
"O c #A1E9E9",
"+ c #78DDDD",
"@ c #FF7D7D",
"# c #FFB9B9",
"$ c #282828",
"% c #A00000",
"& c #CDF4F4",
"* c #FF5353",
"= c #535353",
"- c #005757",
"; c #009999",
": c #FF3E3E",
"> c red",
", c #00C1C1",
"< c #00B1B1",
"1 c gray49",
"2 c #003E3E",
"3 c #1FC9C9",
"4 c #006C6C",
"5 c #008D8D",
"6 c #008585",
"7 c #007575",
"8 c #00B5B5",
"9 c gray10",
"0 c #00A5A5",
"q c #007D7D",
"w c #353535",
"e c #007171",
"r c #EA0000",
"t c #FF9D9D",
"y c #717171",
"u c #C50000",
"i c #464646",
"p c black",
"a c white",
"s c #B3008C",
"d c black",
"f c black",
"g c black",
"h c black",
"j c black",
"k c black",
"l c black",
"z c black",
"x c black",
"c c black",
"v c black",
"b c black",
"n c black",
"m c black",
"M c black",
"N c black",
"B c black",
"V c black",
"C c black",
"Z c black",
"A c black",
"S c black",
"D c black",
"F c black",
/* pixels */
"assssssssssssssssssssssssssssssssssssssssssssssssssssssssssssssss",
"assssssssssssssssssssssssssssssssssssssssssssssssssssssssssssssss",
"assssssssssssssssssssssssssssssssssssssssssssssssssssssssssssssss",
"assssssssssssssssssssssssssssssssssssssssssssssssssssssssssssssss",
"assssssssssssssssssssssssssssssssssssssssssssssssssssssssssssssss",
"assssssssssssssssssssssssssssssssssssssssssssssssssssssssssssssss",
"assssssssssssssssssssssssssssssssssssssssssssssssssssssssssssssss",
"assssssssssssssssssssssssssssssssssssssssssssssssssssssssssssssss",
"assssssssssssssssssssssssssssssssssssssssssssssssssssssssssssssss",
"assssssssssssssssssssssssssssssssssssssssssssssssssssssssssssssss",
"assssssssssssssssssssssssssssssssssssssssssssssssssssssssssssssss",
"assssssssssssssssssssssssssssssssssssssssssssssssssssssssssssssss",
"assssssssssssssssssssssssssssssssssssssssssssssssssssssssssssssss",
"assssssssssssssssssssssssssssssssssssssssssssssssssssssssssssssss",
"assssssssssssssssssssssssssssssssssssssssssssssssssssssssssssssss",
"assssssssssssssssssssssssssssssssssssssssssssssssssssssssssssssss",
"assssssssssssssssssssssssssssssssssssssssssssssssssssssssssssssss",
"assssssssssssssssssssssssssssssssssssssssssssssssssssssssssssssss",
"assssssssssssssssssssssssssssssssssssssssssssssssssssssssssssssss",
"assssssssssssssssssssssssssssssssssssssssssssssssssssssssssssssss",
"assssssssssssssssssssssssssssssssssssssssssssssssssssssssssssssss",
"assssssssssssssssssssssssssssssssssssssssssssssssssssssssssssssss",
"assssssssssssssssssssssssssssssssssssssssssssssssssssssssssssssss",
"assssssssssssssssssssssssssssssssssssssssssssssssssssssssssssssss",
"assssssssssssssssssssssssssssssssssssssssssssssssssssssssssssssss",
"assssssssssssssssssssssssssssssssssssssssssssssssssssssssssssssss",
"assssssssssssssssssssssssssssssss%sssssssssssssssssssssssssssssss",
"asssssssssssssssssssssssssssssssoo%ssssssssssssssssssssssssssssss",
"assssssssssssssssssssssssssssssso>ossssssssssssssssssssssssssssss",
"assssssssssssssssssssssssssssss%>>>osssssssssssssssssssssssssssss",
"asssssssssssssssssssssssssssssso>*>osssssssssssssssssssssssssssss",
"assssssssssssssssssssssssssssso>*.*>ossssssssssssssssssssssssssss",
"asssssssssssssssssssssssssssso>>@.@>oosssssssssssssssssssssssssss",
"assssssssssssssssssssssssssso>>@#.@:>oossssssssssssssssssssssssss",
"assssssssssssssssssssssssss%o>:#...@:>ossssssssssssssssssssssssss",
"asssssssssssssssssssssssssso>:@.....@:>osssssssssssssssssssssssss",
"asssssssssssssssssssssssss%r>@#.. ..#*>oosso%%sssssssssssssssssss",
"asssssssssssssssssssssssssr>:@..   ..@:>ooo>>%sssssssssssssssssss",
"assssssssssssssssssss%%orrr>@#..   ..#*>>>>>>osssssssssssssssssss",
"assssssssssssssssssss%>>>>>>@#..   ...@:>**::osssssssssssssssssss",
"assssssssssssssssssss>u:**::@..     ..t@*@@@:osssssssssssssssssss",
"asssssssssssssssssssss>*#t@@t..     ..#t@@.@>ssssssssssssssssssss",
"assssssssssssssssssssss>..###.+++ +++..#..#@ossssssssssssssssssss",
"assssssssssssssssssssss>u. ..+ &O,  &O.. .#>ossssssssssssssssssss",
"assssssssssssssssssssss>:# .11111111111. .#>sssssssssssssssssssss",
"asssssssssssssssssssso>:*.1=============1.#>ooossssssssssssssssss",
"assssssssssssssss%%oo>:*@1=$$$$$$$$$$$$$=1.@*>*>ooossssssssssssss",
"asssssssssssss%o>>:**@#.1=$9$-q0qwq0-w$9$=1#@@:>>>>oo%%%sssssssss",
"assssssssss%o>>:**@@#...=$9-;3+ ,q O0-2$9$=...#@>>o%%ssssssssssss",
"asssssssssssss%%oo>>>>*=$wy,;3& ,; &,727w$$1.#*>>o%ssssssssssssss",
"asssssssssssssssssoo>>#=iy+,;+& ,;  304-7w$i.#>>sssssssssssssssss",
"asssssssssssssssssss>@.$=8+;3O &,;& 30q26-$$..#>sssssssssssssssss",
"assssssssssssssssss>@.#$0 ,;+& O,;O O,5267w$...@>ssssssssssssssss",
"assssssssssssssssso:@@sp+O<;+& O,;+ O,04-6-w*###@>sssssssssssssss",
"assssssssssssssss%>>>>>1 ,;3O  OO+305667267w>*@@@*ossssssssssssss",
"assssssssssssssss%%osss+ ,;+O O O+38;ee72-6-o>>>oo%%sssssssssssss",
"asssssssssssssssssssssO+;+++&O& O+38<4-3O842-ssssssssssssssssssss",
"assssssssssssssssssss,+&O &O O  O+38<7-6<5<5224ssssssssssssssssss",
"asssssssssssssssssss5+ +  OO O  O+38<5--;<5e7924sssssssssssssssss",
"assssssssssssssssss5+O&+ &O&OO  O+38<;4-6<;q42924ssssssssssssssss",
"asssssssssssssssss5,O +O &O O&  O+38<07-e;<5e42924sssssssssssssss",
"assssssssssssssss5,+&&+& OO O   O+38<07--6<;q4-292sssssssssssssss",
"assssssssssssssss,+& +O &O&OO   O+38<<54-e;<5q42994ssssssssssssss",
"asssssssssssssss,+O& +& &O O&   O+38<<57-e6<5644292ssssssssssssss",
"aaaaaaaaaaaaaaaaaaaaaaaaaaaaaaaaaaaaaaaaaaaaaaaaaaaaaaaaaaaaaaaaa"
};
