/* XPM */
static char *_9f1eeb779cc435d9b174f25c378f217PYfjYiHCHCgqOjCL[] = {
/* columns rows colors chars-per-pixel */
"64 64 8 1 ",
"  c None",
". c #D33438",
"X c #D23538",
"o c #D33538",
"O c #D23439",
"+ c #D33439",
"@ c #D23539",
"# c #D33539",
/* pixels */
"                               ##                               ",
"                               ###                              ",
"                               ###                              ",
"                               ##O                              ",
"                               ###                              ",
"                               ###                              ",
"                           ##  ##O ###                          ",
"                       #####O  ##O O#O###                       ",
"                     +#OOOO##  ##O +##O##O#                     ",
"                   +##OO#O##O  ##O  ##OO#####                   ",
"                 +####O#O      ##+     +###OOO#                 ",
"                O#####         ##+        OO###O                ",
"               #####           ###          #####               ",
"              #####            ###           #####              ",
"             #####             ##O             ####             ",
"            ####               #OO              ####            ",
"           ###++               ###               ###O           ",
"          ####+                #O#                ##O#          ",
"          ##O+            ###  ### ###            OO##          ",
"         #O#+           ###    ##O   ###           ####         ",
"         ###           +#      ###     ##           ###         ",
"        O#O#          +        ###       #          ####        ",
"        +##          +         ###        #          ###        ",
"       #OOO         #          ###         #         ####       ",
"       OO#O        ##          ###         ##         ###       ",
"       #+O         +           ###          #         ###       ",
"       #O#        +#           ###           #        ####      ",
"      ##O#        #            ###           #        ####      ",
"      #OOO        #            ###           #         ###      ",
"                                                                ",
"                                                                ",
"#############################      #############################",
"++#####+OO#######+O##########      ##o##########################",
" +O####+OO#######+O##########       ############################",
"                                                                ",
"      +++         #            ##            #         ###      ",
"      #O+#        #            ###           #        ####      ",
"      ####        ##           ###           #        ####      ",
"       OOO         #           ###          #         ###       ",
"       OOO#        ##          ###         ##         ###       ",
"       #@@@         #          ###         #         ##o#       ",
"        @#@          #         ###        #          ###        ",
"        ##O#          #        ###       #          ####        ",
"         OO#           ##      ###     ##           ####        ",
"         ####           ##     ###    ##           ####         ",
"          ####            ###  ### ###             o###         ",
"          #O##                 ###                ####          ",
"           OO##                ###               ####           ",
"            ####               ###              ##o#            ",
"             #O##              ###             #####            ",
"              OOOO#            ###           ###o##             ",
"               OO##O           ###          oo####              ",
"                ######         ###        ######                ",
"                 #######       ###      #######                 ",
"                   #########   ###  ####oo###                   ",
"                    #########  ### ######o##                    ",
"                       ######  ### ######                       ",
"                          ###  ### ###                          ",
"                               ###                              ",
"                               ###                              ",
"                               ###                              ",
"                               ###                              ",
"                               ###                              ",
"                               ###                              "
};
