/* XPM */
static char *_4d0ef4d638b46cef0b91343072a0c3eoofiLCKKoMOtlZj0[] = {
/* columns rows colors chars-per-pixel */
"64 64 20 1 ",
"  c None",
". c #5A5757",
"X c #5B5757",
"o c #5D5657",
"O c #5C5757",
"+ c #5D5757",
"@ c #5E5656",
"# c #5F5656",
"$ c #5E5657",
"% c #5A5758",
"& c #585858",
"* c #595858",
"= c #5A5858",
"- c #625555",
"; c #635555",
": c #615556",
"> c #605656",
", c #615656",
"< c #645455",
"1 c #655455",
/* pixels */
"                               &&+                              ",
"                              %&&&                              ",
"                              %&&&                              ",
"                              %&&&                              ",
"                              %&&&                              ",
"                              %&&&                              ",
"                          OO: %&&& :++                          ",
"                       :&&&&+ %&&& +&&&&&                       ",
"                     &&&&&&&+ %&&O O&&&&&&&                     ",
"                   O&&&&&&&+: %&&&  O&&&&&&&O                   ",
"                 OO&&&&&+     %&&&     OO&&&&&O                 ",
"                O&&&&&        %&&&        &&&&&&                ",
"               &&&&&O         %&&&          &&&&&               ",
"              &&&&&           %&&O           O&&&&              ",
"             &&&%O            %&&&            O&&&&             ",
"            &&&&O             %&&&              &&&&            ",
"           O&&&+              %&&&               &&&+           ",
"          O&&&+               %&&&               >&&&+          ",
"          &&&+            %&O +&&& :&X            &&&&          ",
"         &&&&           &&&   %&&O   &&O           O&&&         ",
"         &&&O          &+     %&&&     1X           &&&+        ",
"        O&&&          %O      %&&&       &          &&&&        ",
"        &&&O         &:       %&&O        &          &&&        ",
"       &&&&         XX        %&&&         &         &&&+       ",
"       &&&%        &:         %&&&         %+        +&&&       ",
"       &&&         &          %&&&          %         &&&       ",
"       &&&        O&          %&&O          %%        %&&+      ",
"      +%&O        X           %%&&           &        +%&&      ",
"      1+O1        O            ++O           >         +++      ",
"                                                                ",
" +%%%%%%%%%%%%%%%%%%%%%%+%%%        O&&O%%%%%%%%%%%%%%%%+%%%%%%%",
"&&&&&&&&&&&&&&&&&&&&&&&&&&&&+      O&&&&&&&&&&&&&&&&&&&&&&&&&&&&",
"&&&&&&&&&***&&&&&&&&&&&&&&&&+      O&&&&&&&*****&&&&&&&&&&****&*",
"O&O&&&&&****O&&&O&&&&O&&&&&&+      >&&O&&&&O********&&&&O&*****%",
"                                                                ",
"      >+O         O            +O&           O         +O+      ",
"      +&*+        &           %&&&           &        +&&%      ",
"      +&&&        OO          %&&&          &+        &&&+      ",
"       &&&         &          %&&&          +         *&&+      ",
"       &&&&        &+         %&*O         >%         *&&       ",
"       O&&&         &         %&**         &         +&&&       ",
"        &&&          &        %&**        &          &&&&       ",
"        O&&&          &       &&**       &+         &&&&        ",
"        >&&&           &1     +&&*     O+           &&&&        ",
"         O&&&           O&&   %&&*    &O           %&&+         ",
"          &&&O            O&: %&&* &&O            +&&&&         ",
"          &&&&>               %&&*                %&&+          ",
"           O&&&               %&&*               &&&&           ",
"            &&&&              %&&&              &&&&&           ",
"             &&&&+            %&&&             &&&&&            ",
"             >&&&&+           %&&&           +&&&&&             ",
"              >&&&&&          %&&&          &&&&&+              ",
"                &&&&&%        %&&&        &&&&&&                ",
"                 +&&&&&%+     %&&O      &&&&&&+                 ",
"                   &&&&&&&%+  %&&&  %%%&**&&&                   ",
"                    +&&*&&&&+ %&&& O&&&&&**>                    ",
"                       *&*&*+ %&&O O&&&&+&                      ",
"                          +++ %&&& >O+                          ",
"                              %&&&                              ",
"                              %&&&                              ",
"                              %**O                              ",
"                              %**&                              ",
"                              *&**                              ",
"                              ****                              "
};
