/* XPM */
static char *_75480a866e3436f894ab1a41c84a56cNPw0cpti4xiKArTW[] = {
/* columns rows colors chars-per-pixel */
"64 64 59 1 ",
"  c None",
". c #F7DADA",
"X c #F7DCDC",
"o c #F7DDDE",
"O c #F8DDDE",
"+ c #F8DEDE",
"@ c #F8DEDF",
"# c #F8DFDF",
"$ c #F8E1E1",
"% c #F9E1E2",
"& c #F9E4E4",
"* c #F9E5E5",
"= c #F9E5E6",
"- c #FAE7E8",
"; c #FAE9E9",
": c #FAE9EA",
"> c #FAEAEA",
", c #FAEAEB",
"< c #FBEAEB",
"1 c #FBEBEB",
"2 c #FBEBEC",
"3 c #FBECEC",
"4 c #FBECED",
"5 c #FBEDED",
"6 c #FBEDEE",
"7 c #FBEEEE",
"8 c #FBEEEF",
"9 c #FBEFEF",
"0 c #FCEFF0",
"q c #FCF0F0",
"w c #FCF0F1",
"e c #FCF1F1",
"r c #FCF1F2",
"t c #FCF2F2",
"y c #FCF2F3",
"u c #FCF3F3",
"i c #FCF3F4",
"p c #FDF4F4",
"a c #FDF5F5",
"s c #FDF5F6",
"d c #FDF6F6",
"f c #FDF6F7",
"g c #FDF7F7",
"h c #FDF7F8",
"j c #FDF8F8",
"k c #FEF8F8",
"l c #FEF8F9",
"z c #FEF9F9",
"x c #FEF9FA",
"c c #FEFAFA",
"v c #FEFAFB",
"b c #FEFBFB",
"n c #FEFBFC",
"m c #FEFCFC",
"M c #FEFCFD",
"N c #FEFDFD",
"B c #FFFDFD",
"V c #FFFEFE",
"C c white",
/* pixels */
"                               zzh                              ",
"                              nCCC                              ",
"                              zCCz                              ",
"                              nCCC                              ",
"                              nCCC                              ",
"                              zCCC                              ",
"                           p; zCCz uup                          ",
"                       .CCCCu nCCC pCCCCC                       ",
"                     nCCCCCCu zCCz pCCCCCCp                     ",
"                   CCCCCCCCi- nCCC  zCCCCCCCp                   ",
"                 uzCCCCCO     nCCC     p8CCCCCu                 ",
"                pCCCCC        zCCC        CCCCCC                ",
"               CCCCC          nCCz          CCCCC               ",
"              CCCCh           zCCC           uCCCC              ",
"             CCCCp            zCCz            pCCCC             ",
"            CCCCp             nCCC              CCCC            ",
"           pCCC;              nCCC               CCCz           ",
"          2CCCp               zCCC               =CCCu          ",
"          CCCp            zCp nCCn ;Cu            pCCC          ",
"         zCCC           Czz   nCCC   zCp           pCCC         ",
"         CCCp          Cz     zCCC     5i           CCC$        ",
"        pCCp          C       nCCz       C          CCCC        ",
"        CCC=         C        nCCC        C          CCC        ",
"       CCCC         uz        zCCC         C         CCC0       ",
"       zCCp        z0         nCCz         zi         CCC       ",
"       CCC         C          zCCC          i         CCC       ",
"       CCC        uz          zCCz          up        zCC=      ",
"      pCCp        p           nCCC           C        2CCp      ",
"      =ut;        i            upp           $         uuu      ",
"                                                                ",
" znznznzzznznznznznznznznznz        nzznznnznnznnzznznnzznznnzCz",
"zCCCCCCCCCCCCCCCCCCCCCCCCCCCu      pCCCCCCCCCCCCCCCCCCCCCCCCCCCz",
"zCCCCCCCCCCCCCCCCCCCCCCCCCCCu      pCCCCCCCCCCCCCCCCCCCCCCCCCCCC",
" zCCCzCCCzCCCzCCCzCCCzCCzCCCp       CCCzCCzCzCCCzCzCCCzCzCCCCzCp",
"                                                                ",
"      opp         z            pp            u         ppp      ",
"      uCC2        p           nCCC           p        OCCz      ",
"      5CCC        pC          zCCC           2        CCCp      ",
"       CCC         z          zCCz          z         zCC       ",
"       CCCp        Cu         nCCC         0z         CCC       ",
"       ;CCC         C         nCCz         p         tCCC       ",
"        CCC          C        zCCC        C          CCCC       ",
"        pCCC          C       nCCC       C          CCCC        ",
"         CCC           C;     nCCC     Cp           CCCC        ",
"         CCCC           uCC   zCCz    zp           zCCC         ",
"          CCCz            ;C5 nCCC zCn             CCCz         ",
"          zCCC                nCCz                CCCp          ",
"           8CCC               zCCC               CCCC           ",
"            CCCC              nCCC              CCCCz           ",
"             CCCC             zCCC             CCCCC            ",
"              CCCCu           zCCz           pCCCCC             ",
"               CCCCz          nCCC          zCCCCz              ",
"                CCCCCp        nCCz        CCCCCC                ",
"                 pCCCCCu      zCCC      CCCCCCu                 ",
"                   CCCCCCCzO  zCCC  uzzCCCCCC                   ",
"                    oCCCCCCCu nCCC pCCCCCCCo                    ",
"                       zCCCCu zCCz pCCCCpz                      ",
"                          2uu nCCC =p5                          ",
"                              nCCz                              ",
"                              zCCC                              ",
"                              nCCC                              ",
"                              zCCC                              ",
"                              zCCz                              ",
"                               nCz                              "
};
