/* XPM */
static char *trash_021660767710[] = {
/* columns rows colors chars-per-pixel */
"65 65 32 1 ",
"  c #DDDDDD",
". c #AAAAAA",
"X c gray71",
"o c #C1C1C1",
"O c gray82",
"+ c gray93",
"@ c gray99",
"# c gray60",
"$ c #8D8D8D",
"% c #FFA56E",
"& c #F70000",
"* c gray49",
"= c #FF1A1A",
"- c #B30000",
"; c #FF9D5C",
": c #F58950",
"> c #FF8D54",
", c #FF9558",
"< c white",
"1 c #B3008C",
"2 c black",
"3 c black",
"4 c black",
"5 c black",
"6 c black",
"7 c black",
"8 c black",
"9 c black",
"0 c black",
"q c black",
"w c black",
"e c black",
/* pixels */
"<<<<<<<<<<<<<<<<<<<<<<<<<<<<<<<<<<<<<<<<<<<<<<<<<<<<<<<<<<<<<<<<<",
"<1111111111111111111111111111111111111111111111111111111111111111",
"<1111111111111111111111111111111111111111111111111111111111111111",
"<1111111111111111111111111111111111111111111111111111111111111111",
"<1111111111111111111111111111111111111111111111111111111111111111",
"<1111111111111111111111111111111111111111111111111111111111111111",
"<1111111111111111111111111111111111111111111111111111111111111111",
"<1111111111111111111111111111111111111111111111111111111111111111",
"<1111111111111111111111111111111111111111111111111111111111111111",
"<1111111111111111111111111111111111111111111111111111111111111111",
"<1111111111111111111111111111111111111111111111111111111111111111",
"<1111111111111111111111111111111111111111111111111111111111111111",
"<1111111111111111111111111111111111111111111111111111111111111111",
"<1111111111111111111111111111111111111111111111111111111111111111",
"<1111111111111111111111111111111111111111111111111111111111111111",
"<1111111111111111111111111111111111111111111111111111111111111111",
"<1111111111111111111111111111111111111111111111111111111111111111",
"<1111111111111111111111111111111111111111111111111111111111111111",
"<1111111111111111111111111111111111111111111111111111111111111111",
"<1111111111111111111111111111111111111111111111111111111111111111",
"<1111111111111111111111111111111111111111111111111111111111111111",
"<1111111111111111111111111111111111111111111111111111111111111111",
"<1111111111111111111111111111111111111111111111111111111111111111",
"<1111111111111111111111111111111111111111111111111111111111111111",
"<1111111111111111111111111111111111111111111111111111111111111111",
"<1111111111111111111111111111111111111111111111111111111111111111",
"<1111111111111111111111111111111111111111111111111111111111111111",
"<1111111111111111111111111111111111111111111111111111111111111111",
"<1111111111111111111111111111111111111111111111111111111111111111",
"<1111111111111111111111111111111111111111111111111111111111111111",
"<1111111111111111111111111111111111111111111111111111111111111111",
"<1111111111111111111111111111111111111111111111111111111111111111",
"<1111111111111111111111111111111111111111111111111111111111111111",
"<1111111111111111111111111111111111111111111111111111111111111111",
"<1111111111111111111111111111111111111111111111111111111111111111",
"<1111111111111111111111111111111111111111111111111111111111111111",
"<1111111111111111111111111111111111111111111111111111111111111111",
"<1111111111111111111111111111111111111111111111111111111111111111",
"<1111111111111111111111111111111111111111111111111111111111111111",
"<1111111111111111111111111111111111111111111111111111111111111111",
"<1111111111111111111111111111111111111111111111111111111111111111",
"<1111111111111111111111111111111111111111111111111111111111111111",
"<1111111111111111111111111111111111111111111111111111111111111111",
"<1111111111111111111111111111111111111111111111111111111111111111",
"<1111111111111111111111111111111111111111111111111111111111111111",
"<1111111111111111111111111111111111111111111111111111111111111111",
"<1111111111111111111111111111111111111111111111111111111111111111",
"<1111111111111111111111111111111111111111111111111111111111111111",
"<1111111111111111111111111111111111111111111111111111111111111111",
"<1111111111111111111111111111111111111111111111111111111111111111",
"<1111111111111111111111111111111111111111111111111111111111111111",
"<1111111111111111111111111111111111111111111111111111111111111111",
"<1111111111111111111111111111111111111111111111111111111111111111",
"<1111111111111111111111111111111111111111111111111111111111111111",
"<1111111111111111111111111111111111111111111111111111111111111111",
"<111111111111111111. o.1111111O11111111111111111111111.@.11111111",
"<111111111. o.1111111O1OO11 1O+++.1o>111111O111111 11.@ 1@.111111",
"<111111111111111+1+O.Ooo . @@ +++O .%1 1  .1  .11O11@;:1111111111",
"<11111.O+@o.111OO+O@O.O+%:o+ .++ .o. o.1OX+#X XX+XO111+111111+111",
"<1111111111111@@.OX@@Oooo+# .+o.#Oo o.o.X .X+  XX@...11+11  11111",
"<11111$X===*1111@.1@O@.+o o o.ooOoO1.OOXX@ o X @@  1111 111111111",
"<11111XX&&&&1111111.@.$$1 1X .@ .%;O1+o..XXXXXXX1X11+%,1111@11111",
"<11111$*---*11111+11$$11 +X11O@@ o.1o+@ .XXo o1X  1111+11@1111111",
"<1111111111111  X11111111O#X1111.1 1111111ooo#1111111111111111111",
"<111111111111XX#111111111111111111111111111##11111111111111111111"
};
