/* XPM */
static char *trash_031660767710[] = {
/* columns rows colors chars-per-pixel */
"65 65 32 1 ",
"  c gray71",
". c gray49",
"X c gray60",
"o c #AAAAAA",
"O c gray82",
"+ c #DDDDDD",
"@ c #C1C1C1",
"# c gray99",
"$ c gray93",
"% c #D17943",
"& c #F58950",
"* c #8D8D8D",
"= c #AF6032",
"- c #FFB17E",
"; c #8F4F25",
": c #FFA56E",
"> c #FF9D5C",
", c #FF9558",
"< c white",
"1 c #B3008C",
"2 c black",
"3 c black",
"4 c black",
"5 c black",
"6 c black",
"7 c black",
"8 c black",
"9 c black",
"0 c black",
"q c black",
"w c black",
"e c black",
/* pixels */
"<<<<<<<<<<<<<<<<<<<<<<<<<<<<<<<<<<<<<<<<<<<<<<<<<<<<<<<<<<<<<<<<<",
"1111111111111111111111111111111111111111111111111111111111111111<",
"1111111111111111111111111111111111111111111111111111111111111111<",
"1111111111111111111111111111111111111111111111111111111111111111<",
"1111111111111111111111111111111111111111111111111111111111111111<",
"1111111111111111111111111111111111111111111111111111111111111111<",
"1111111111111111111111111111111111111111111111111111111111111111<",
"1111111111111111111111111111111111111111111111111111111111111111<",
"1111111111111111111111111111111111111111111111111111111111111111<",
"1111111111111111111111111111111111111111111111111111111111111111<",
"1111111111111111111111111111111111111111111111111111111111111111<",
"1111111111111111111111111111111111111111111111111111111111111111<",
"1111111111111111111111111111111111111111111111111111111111111111<",
"1111111111111111111111111111111111111111111111111111111111111111<",
"1111111111111111111111111111111111111111111111111111111111111111<",
"1111111111111111111111111111111111111111111111111111111111111111<",
"1111111111111111111111111111111111111111111111111111111111111111<",
"1111111111111111111111111111111111111111111111111111111111111111<",
"1111111111111111111111111111111111111111111111111111111111111111<",
"1111111111111111111111111111111111111111111111111111111111111111<",
"1111111111111111111111111111111111111111111111111111111111111111<",
"1111111111111111111111111111111111111111111111111111111111111111<",
"1111111111111111111111111111111111111111111111111111111111111111<",
"1111111111111111111111111111111111111111111111111111111111111111<",
"1111111111111111111111111111111111111111111111111111111111111111<",
"1111111111111111111111111111111111111111111111111111111111111111<",
"1111111111111111111111111111111111111111111111111111111111111111<",
"1111111111111111111111111111111111111111111111111111111111111111<",
"1111111111111111111111111111111111111111111111111111111111111111<",
"1111111111111111111111111111111111111111111111111111111111111111<",
"1111111111111111111111111111111111111111111111111111111111111111<",
"1111111111111111111111111111111111111111111111111111111111111111<",
"1111111111111111111111111111111111111111111111111111111111111111<",
"1111111111111111111111111111111111111111111111111111111111111111<",
"1111111111111111111111111111111111111111111111111111111111111111<",
"1111111111111111111111111111111111111111111111111111111111111111<",
"1111111111111111111111111111111111111111111111111111111111111111<",
"1111111111111111111111111111111111111111111111111111111111111111<",
"1111111111111111111111111111111111111111111111111111111111111111<",
"1111111111111111111111111111111111111111111111111111111111111111<",
"1111111111111111111111111111111111111111111111111111111111111111<",
"1111111111111111111111111111111111111111111111111111111111111111<",
"1111111111111111111111111111111111111111111111111111111111111111<",
"1111111111111111111111111111111111111111111111111111111111111111<",
"1111111111111111111111111111111111111111111111111111111111111111<",
"1111111111111111111111111111111111111111111111111111111111111111<",
"1111111111111111111111111111111111111111111111111111111111111111<",
"1111111111111111111111111111111111111111111111111111111111111111<",
"1111111111111111111111111111111111111111111111111111111111111111<",
"1111111111111111111111111111111111111111111111111111111111111111<",
"1111111111111111111111111111111111111111111111111111111111111111<",
"1111111111111111111111111111111111111111111111111111111111111111<",
"1111111111111111111111111111111111111111111111111111111111111111<",
"1111111111111111111111111111111111111111111111111111111111111111<",
"11111111111111111111111111111111111#oo11111111111111111111111111<",
"11111111111111111111111111.1.111.+.11111111111111111111111111111<",
"111111111111 111111 O1 ##@o.o&. + +..1..  +.. 11###+@11111111111<",
"11111111$1$1111 OO1Oo ##$**o.:$$$+X@+ ..Xo+++11111XX@XX111111111<",
"11111X+##$@X11 O o  oOo+@@++@+ X X ++&>o$+###+o1111XX11111111111<",
"11111111@X111%%1.OXX@Oo..@@$+@-&&=++@+X$o$##+o1X@$$@##o1111O$o11<",
"1111111111 1111@#OoXX@ XX+X@-&&==;X@+@ $OX..XX###,+OOoXX11O$$111<",
"1. +o1$11111####O %%@o@%%@@-&=;Xo$ @X+#++o.X.X...% O 1 11XX oXX1<",
"11@@+#+oo.111OOOo*o111111o&&=;. O$O .  @@Oo.X.O %OO OOXoX1111111<",
"1111@ooX*1O11111111+O@ 11 111  . . ....oo*..O%%11  OOo.11@o*1111<",
"1111111111111O1o11111111111111...   111111O111O11111111111111111<"
};
