/* XPM */
static char *e47e4b7078a44724b669c2e662a1dcbbTa3POFzjL9t4c6KC[] = {
/* columns rows colors chars-per-pixel */
"48 48 31 1 ",
"  c None",
". c #11EF04",
"X c #11EE05",
"o c #0CF303",
"O c #0BF403",
"+ c #0AF503",
"@ c #0BF503",
"# c #08F702",
"$ c #09F702",
"% c #09F603",
"& c #0AF603",
"* c #0CF403",
"= c #0FF004",
"- c #0EF104",
"; c #0FF104",
": c #0DF204",
"> c #0EF204",
", c #05FA01",
"< c #04FB01",
"1 c #07F802",
"2 c #06F902",
"3 c #07F902",
"4 c #06FA02",
"5 c #02FD00",
"6 c #03FC01",
"7 c #02FD01",
"8 c #03FD01",
"9 c #01FE00",
"0 c green",
"q c #08F802",
"w c #10F004",
/* pixels */
"                       06                       ",
"                       00                       ",
"                       00                       ",
"                       00                       ",
"                       00                       ",
"                 0100& 00 o00q&                 ",
"               &00000& 00 :00000:               ",
"             000001*   00   w000000             ",
"            10001      00      w0000            ",
"           100&        00        0001           ",
"          100&         00         1001          ",
"         1000          00          :006         ",
"        0000           00            001        ",
"        00o            00            100q       ",
"       000        0&6  00   06        000       ",
"      100        :     00     1        00:      ",
"      101       0      00      1       100      ",
"      00       &       00       1       00&     ",
"     101      1&       00        q      000     ",
"     00:      0        00        0      100     ",
"     00       1        00         w      00     ",
"     &&                @&         :      &&     ",
"                                                ",
"600000000000000000000@    :000000000000000000000",
"000000000000000000000&    o000000000000000000000",
"                                                ",
"     ::                oo                o:     ",
"     00      :         00         q      00     ",
"     00:      1        00        q       00     ",
"     *00      1        00        &      &00     ",
"     &00       1       00       1       00@     ",
"      001       0      00      0       &00      ",
"      *00        @     00     1        101      ",
"       000        q1   00   00        100       ",
"       1000         q@ 00  X          001       ",
"        000            00            106        ",
"         000           00           000         ",
"          0001         00         X006          ",
"           0000        00        1006           ",
"            0000w      00      q0001            ",
"             &0000:@   00    01000&             ",
"               :00000@ 00 o000001               ",
"                 @&00@ 00 *001&                 ",
"                       00                       ",
"                       00                       ",
"                       00                       ",
"                       00                       ",
"                       00                       "
};
