/* XPM */
static char *wolfstein_texture_181659569480[] = {
/* columns rows colors chars-per-pixel */
"64 64 16 1 ",
"  c #00007F",
". c #00008C",
"X c #353535",
"o c #464646",
"O c #282828",
"+ c #00009C",
"@ c #000016",
"# c #000032",
"$ c #00004C",
"% c #000029",
"& c #000073",
"* c #000066",
"= c #000059",
"- c black",
"; c #00003F",
": c black",
/* pixels */
"X=*******************=XX=**************************=XX=*******=X",
"-=====================%%&&&&&&&&&&&&&&&&&&&&&&&&&&&&%%*********-",
"-===$=;==;;;;;;;;=;;;%--&=&*;=&;;;;;==;;;=&=;;=&&=;;--*&=;=**;;-",
"-=$;$;;;;;=;=;;;;;;;;;--&&=;;;;;%;%%;==;;;;;;%;;;;;;--**==;;==%-",
"-=$=$$$;;;;;;;;;%%;%%;--------------------------------*=*&&*=;;-",
"-=$$===$;;$=$;;;%%;%%%--===================-----------*&=*=$;;%-",
"-=$$**===;===$;;;;%;;;--=&&&*=;;&;;*;;*&&==--====;;;--*$$=$$$;;-",
"-==;=**=$;$==$;;%%;%%;--=*&&&*=&=;;;**===;=--=$$;;;;--*;;=;$$;;-",
"-=$;$==$;;;$$$;$$%;#%%--=*&&&;*==&;;=;=;;=;--=$$$;;;--*&=;==;;%-",
"-=$;;=$;;==;%;;$$$;#%%--=***;;;*====;;;##;;--==$$;%%--&;;;==$%;-",
"-$$;=;;;;==;#%%;$$;;%---=&***;;*&&==;=;;##%--==;;=;%--&;&=%$%%;-",
"-$;;;;=;;;%;;%%;;%;%;%--=&==****&**=$;;=##;--=$$;;%%--&&;;;%;%%-",
"-$;;;;;;;;;##;;###;;#;--=*==;&;;=**=$;;;%%;--=$$$;;#--&;;;;;%%%-",
"-;;;;##;%%;;#####-##%%--=*=&;;;;;;$$$;;;;;%--==$$;;#--&;;;%%%%%-",
"-;;;;;#####%%;%#%%%%-%--=&&=;;;==;;;;;$$;%%--=$;=%%%------------",
"------------------------=&==;;;===;;**$$$%@--===$=%#------------",
"=&*=*=====*====-***==;;-=*;=;;====;;**=$$@@--$=$=$;#--====-&&&&&",
"&*=;=&*=;==;=;;-**;&&;&-====&=;===;;;==;#@@--$$;;;;%--=*;;-&&=*&",
"&*;;;==;##;;;;;-*&&*$;;-=*;=&=;;;;##;;;;#@@--$;%%%;#--=**;-&=***",
"*=;**;;;###;;##-*&**=;;-=*===;=;;;##%%%##%@--;;%;%%#--=;;%-&&&**",
"=;;*&*$;;##;%##-*&$===;-===;;;;;;%;#%##%%%@--;;#%%##--=%;%-&&***",
"==;$**$$;;$$;;#-*$&$==;------------------------------------&&==$",
"*;;;$=$$$$$$;%@-*$$;;;%--------------------------********--&==$;",
"*=;;;;$;$$$$;#@-*&;;;%;--********************;=--* * ===$--&*=$;",
"**;;*;;;$$$;%%@-=&;;;;%--*&*=&&&*&=*=&*;=&&&;=%--* *  =$;--&&*$;",
"*=;;;**;;$$$;%#-=;;;;%;--*&=*  &&*&=&==&&====;@--*    =$;--&*&==",
"=;;;=**=;$$$;%#-;;@@@@;--**=&   &&*&*;=;;=;;=%@--**= =;=;--&&&==",
"*;*;;=*=;;;;;%@----------*&&**  ==&;==;;;;=;;%@--* ====$;--&&&**",
"=;;==;==##@;%%@----------**&***===&===;;;;;%%%;--*  ==$$;--&==&*",
"=;;===;;#@@@;%@--****==--*==&*;;=&*;==;;;;;;;%%--*  $;==%--&==**",
"=;;;==;;#@@@%@@--**;=;;--*&*&*;;===;===;;;%;;#@--** $;$=%--&&=$$",
"=;$;;;;;;#@@@@@--*==;;;--*&&=***;=;;;==;%;%;;#@--**=$*==;--&=$;;",
"=$=;;$$;#;#%@@---*=;;;;--*&=;=**==;;;;;;;%;;%%@--** $**$;--&$;;;",
"==$;;$$#@##%@-@--**=*;%--*==&;==;;;#;;##;;;#;#@--*= =$;;%--&&$;;",
"$$;;;;;#@@@%%@---***;;;--*;&;==;;;;;##;#%%;###@--* ==$%;;--&*=;;",
"$$;$$;;#@@@%%@---***=%%--*=&;==;;;%####%%%%;##@--* =$;##%--&==$;",
"$;;$$;;#@#@%%;@--*=$%;;--*=;==;%%%%;###%%@@@@@@--* =;;###--&*==;",
";;;;;##@#@@%@@@--*$;*%;--------------------------=*=$;;##--&**$;",
";;;;;##@@@;;@@@--**$*;%--------------------------=**=$%;;--&&$;;",
";;;;;;##@@;@@;;--**$;%;--======================--=*=&=;;;--&*;;;",
"-----------------**$;%%--=&&&&&&*=======;;;&;=;--= ==&;%%-------",
"-----@@;;;;;;;;--=*;;;%--*&  &==***$$$==$$$;;;;--====;;%#--;;;;-",
"-;=*&&&&&&&&&&&--==;;;;--*&   *****$$;;$$$$;;;;--= =;;%%#--;$$;-",
"-=&&&&&*=*&===&--==;%;;--*&&&&*****$;;***$$;;;;--=*;##%##--;$$;-",
"-=&**=**&&&;=&&--=$;@@@--*&&*&***;=$$;****;;;;;--==;##%%%--;;;%-",
"-&&&**&&$$=&&;*----------=*&*&&==&==$$;;**%;;%;--;;;%%%;;--;;;%-",
"-&=*=***$;;&=;;----------==*&==&=&====%;;;;;%;%------------;;%;-",
"-&&*$$**=;;=&&=--&&*==;--==*&=$$*===;;;%;;%%%%;-----------------",
"-&&$=&*$=***;==--&$&$$;--=&&&*$;&&&=$;%;%%;%%%;--****&&&&&&&&&&-",
"-&&&&=$&;*$$=;=--&=**;;--=*==***&&&&=$;;%;%%%%#--**==****=;&==;-",
"-&=&$==&*$;;$==--&&$=$;--=&===;=&&&&==$%%%%%@;#--*=*&=***;===;;-",
"-&*$$& &=;=;$==--&*==$=--=&&==&$$&&&==$;%%;@-@@--*&&&****$;=;;#-",
"-&=&= + $$=$;;$--&*=;=;--==&$$$;;$===$;;;;%%@-@--*$&$$***==$;#%-",
"-&*&*& &=;$=;;$--&=**;;--==&=$$;;;$$$%%;%;;@@@---*&*;;$===$$;%#-",
"-&=&***$;;;;$;#--&&*$$;--=;&&$$;;;;;;;%%;%%@-@---**=$;;=$;;;%%#-",
"-=&**=$;;=$;;;#--&*=$$$--=&;=&=;;;;;;%%;%;%@@----**$=;;=;;;$$%%-",
"-&=&*$;*;==$##%--&=&;$$--=&===;;==;;%;%%%%%%@@---**&*;**$;;$$$%-",
"-&=&=$;;;$=$###--&&=;;;--===;;;;===;;;;%%%@@@-@--&&*;=***$#;$$;-",
"-*=$$$=;;;$$;##--&*=;;%--=*=;;&=;==%%;;;%%@-@@---&*=;==**$###;;-",
"-*=$$;;=;;;%;%%--*=$;;%--=*&;&&=%;;;%%;;%%%@-@@--&*=&==$$$;##%%-",
"-==$;#;%;%;;###--*=;;;;--==*&=;;%;%;%%%%@@@%@-@--&&&$=;;;;;#;##-",
"-=$$;##%%;%##%%%%=$;;%;%%==;=;%;%%%%;%;@@@-@%@%%%&==;;=##%;#%%#-",
"-$;;;;#%#%%##%#OO=;;%%;OO=;;;;;%%%;%%%%@%-@-@;;OO&=&=;;##%;###%-",
"X .....        oo ...  oo ......               oo ....         X"
};
