/* XPM */
static char *wolfstein_texture_411659569480[] = {
/* columns rows colors chars-per-pixel */
"64 64 32 1 ",
"  c #4C350E",
". c #B24B00",
"X c #653E17",
"o c #464646",
"O c #C9713F",
"+ c #BC683B",
"@ c #BF5300",
"# c #DF7D48",
"$ c #E86000",
"% c #595300",
"& c #535353",
"* c #726C00",
"= c #9D9D00",
"- c #FCFC3E",
"; c #CE5300",
": c #8F4F25",
"> c gray60",
", c #353535",
"< c #8D8D8D",
"1 c #646464",
"2 c gray49",
"3 c #717171",
"4 c black",
"5 c black",
"6 c black",
"7 c black",
"8 c black",
"9 c black",
"0 c black",
"q c black",
"w c black",
"e c black",
/* pixels */
",,,,,,,,,,,,,,,,,,,,,,,,,,,,,,,,,,,,,,,,,,,,,,,,,,,,,,,,,,,,,,,,",
",<<<<<<><><>>>>>>>>>>>>>>><><><<<<2<2<2<2<222222223232323213131,",
",<<<><><><>>>>>>>>>>>>><><><<<<<<<<2<22222222222222223333333313,",
",><><><><>>>>>>>>>>>>><><><<<<2<2<2<2<2<22222222323232323313131,",
",<><><>>>>>>>>>>>>>>><><><<<<<<<<2<2222222222222222333333331313,",
",><>>>>>>>>>>>>>>><><><<<<<<2<2<2<2<2<2222222232323232331313131,",
",>>>>>>>>>>>>>>>><><><<<<<<<<<<2<222222222222222233333333331311,",
",>>>>>>>>>>>>>>><><><<<<<<2<2<2<2<2<222222223232323233331313131,",
",>>>>>>>>>>>>>><><<<<<<<<<<<<2<22222222222222223233333333131111,",
",>>>>>>>>>>><><><<<<<<<<2<2<2<2<2<22222222323232323333131313131,",
",>>>>>>>>>><><><<<<<<<<<<2<2<2222222222222222323333333333131111,",
",>>>>>>>>><><><<<<<<2<2<2<2<2<2<2222222222323232333313131313131,",
",>>>>>><><><<<<<<<<<<<<2<2<222222222222222232333333333313111111,",
",>>>>><><><<<<<<<<2<2<2<2<2<2<222222222232323232333313131313131,",
",>>>><><><<<<<<<<<<<<2<2<22222222222222223233333333331313111111,",
",><><><<<<<<<<<<2<2<2<2<2<2<22222222223232323233331313131311131,",
",<><><<<<<<<<<<<<<<2<2<2222222222222222323333333333331311111111,",
",><><<<<<<<<<<2<2<2<2<2<2<2222222222323232323333131313131311131,",
",<<<<<<<<<<<<<<2<2<2<222222222222222222333333333333131311111111,",
",<<<<<<<<<2<2<2<2<2<2<2<222222222232323232333333131313131113131,",
",<<<<<<<<<<<<2<2<2<22222222222222222232333333333313131111111113,",
",<<<<<<<2<2<2<2<2<2<2<22222222223232323233333313131313131113131,",
",<<<<<<<<<<2<2<2<2222222222222222223233333333333313111111111113,",
",<<<<<2<2<2<2<2<2<2<2222222222323232323333333313131313111113131,",
",<<<<<<<<2<2<2<222222222222222222323333333333331313111111111313,",
",<<<2<2<2<2<2<2<2<222222222222323232323333331313131311111313131,",
",<<<<2<2<2<2<22222222222222222232333333333333331311111111111313,",
",<2<2<2<2<2<2<2<22222222222232323232333333131313131311111313131,",
",<<2<2<2<2<2222222222222222223233333333333333131311111111111333,",
",<2<2<2<2<2<2<2222222222223232323233333333131313131111131313131,",
",2<2<2<2<222222222222222222323233333333333313131111111111131333,",
",<2<2<2<2<2<222222222222323232323333333313131313131111131313131,",
",2<2<2<22222222222222222222323333333333333313111111111111131333,",
",<2<2<2<2<22222222222232323232333333331313131313111111131313131,",
",2<2<2222222222222222222232333333333333331313111111111113131333,",
",<2<2<2<2222222222223232323233333333331313131311111113131313131,",
",2<222222222222222222223233333333333333331311111111111113133333,",
",<2<2<222222222222323232323233333333131313131311111113131313133,",
",2222################OOOOOOOOOOOOOOOO+++++++++++++++++++OOO&333,",
",<2<:;$$$$$$$$$$@@@@@@@@@@@@@@@........................@@@+O&33,",
",2222XXXXXXXXXXXXXXXXXXXX                              XXXX&133,",
",<2222&&%=*&&&oooooooooooooooo%=*oo,,,,,,,,,,,,,,,,,,%=*,oo1133,",
",2222221%-*222222323233333333o%-*3333131111111111111o%-*1133333,",
",22222221%22223232323233333333o%331313131311111111131o%11313333,",
",22222222222222323233333333333333331313111111111111111313333333,",
",22222222222323232323333333333331313131311111111131313131313333,",
",22222222222232323333333333333333131311111111111111131313333333,",
",22222222232323232323333333333131313131311111111131313131313333,",
",22222222222232333333333333333333131311111111111111131313333333,",
",22222223232323232333333333313131313131111111111131313131313333,",
",22222222223233333333333333333313131111111111111113131333333333,",
",22222323232323233333333333313131313131111111113131313131333333,",
",22222222323333333333333333333313111111111111111113131333333333,",
",22232323232323333333333331313131313111111111113131313131333333,",
",22222232323333333333333333331313111111111111111113131333333333,",
",22232323232333333333333331313131313111111111313131313131333333,",
",22223232333333333333333333131311111111111111111313133333333333,",
",23232323233333333333333131313131311111111111313131313133333333,",
",22223233333333333333333333131311111111111111111313133333333333,",
",22232323233333333333313131313131111111111111313131313133333333,",
",22323333333333333333333313131111111111111111131313133333333333,",
",23232323333333333333313131313131111111111131313131313133333333,",
",32323333333333333333333313131111111111111111131333333333333333,",
",,,,,,,,,,,,,,,,,,,,,,,,,,,,,,,,,,,,,,,,,,,,,,,,,,,,,,,,,,,,,,,,"
};
