/* XPM */
static char *wolfstein_texture_451659569480[] = {
/* columns rows colors chars-per-pixel */
"64 64 32 1 ",
"  c #464646",
". c gray49",
"X c #D0C500",
"o c #646464",
"O c #B9AE00",
"+ c black",
"@ c gray10",
"# c gray60",
"$ c #E9D900",
"% c #353535",
"& c #535353",
"* c #858500",
"= c #9D9D00",
"- c #432C0F",
"; c #AAAAAA",
": c #8D8D8D",
"> c #653E17",
", c #000059",
"< c #261A03",
"1 c #FFF400",
"2 c #814B20",
"3 c #39280A",
"4 c #78461C",
"5 c #282828",
"6 c #A15C2E",
"7 c #4C350E",
"8 c #5B3913",
"9 c #00004C",
"0 c black",
"q c black",
"w c black",
"e c black",
/* pixels */
"----------------------------------------------------------------",
"4444444444444444444444444444444444444444444444444444444444444444",
"6666666666666666666666666666666666666666666666666666666666666666",
"888888838<38888888888888838<3888838<388888838<38888888888838<388",
"774222286<86>7777227474$$$$<8627286<$$$$77>86<86727727272286<864",
"774222>86<864777822747477==$$$$7$$$$==777>286<86727727272286<864",
"77>222886<8628778227OO$1$86<$$$$$$$<7>=X1118><86727727272286<864",
"878422886<862877>X$14O$11$XXOOOOOOO11111X1>X118>727727272286<864",
"477>2>786<862>78XO$1111====O=+++@@=O==OO111XX1177>7727274286<868",
"4787>8786<8624O$2X11===OO$1++@@@@@@@=XXXO==1113X173727274286<868",
"287787786<862OX111===$+OO$1++@555555=XX15==OO11X1137>727>286<868",
"287777886<862X$11=OO$1+OO$+@@55555555X11@=XXX=OO11337727>286<867",
"427778286<86OX1===+O$+++++@@55555555555@@@X1@=X1OXX377287286<867",
"42877828OX==*X=O1++++@@@@@55555555555555555@@511XX*==XX87286<867",
">227822OX111==+++@@@@55555555555555555555555555@@==*XXX13486<867",
"822282>X111OO=++@55;;;;;;;;;;;;;;;;;;;;;;;;;55555=X1OX113>86<868",
"7422>288=1OOX$1+@55#,,,,,,,,,,,,,,,,,,,,,,,#5555=XXX1O=33786<868",
"7422228O11=X$11+@55 # .:::::::::::::::::. # 5555XXX11O=X3786<868",
"7>4222OX1O=+11++@55%o.,: 9999999999999 :,.o%55555117=1OX1786<864",
"78422>X11=X1+++@5555 # .o9999999999999o. # 55555555=X1O11782<864",
"77>22871O$$1+@@55555%o.,. 99999999999 .,.o%555555551111O3334<864",
"77822=O1=+$+@;# %5555 # :o99999999999o: # 5555% #;55171OXX3><864",
"878>8O11=O++@;,#o %55%o.,. 999999999 .,.o%55% o#,;555OO1X138<864",
"87787X11=O+@@;,,.#o %5 # :o999999999o: # 5% o#. ,;555O111138<864",
"877777X$=++@5;,., .#o 5o.&.999999999.&.o5 o#. ,.,;555511X338<86>",
"4777==*+++@55;,::., .#o5#,: 9999999 :,#5o#. ,.::,;555555*==8<868",
"477OX11==+@55;,: o:., .## oo9999999oo ##. ,.:o :,;5555=X1*X1<868",
"487X11O=$1+@5;,:99 o:.&, .,:9999999:,. ,&.:o 99:,;555=XX1O11<867",
">87711OX$1+@5;,:9999 o.:o,,:9999999:,,o:.o 9999:,;5551111O18<867",
"847==1=X1++@5;,:9999999 o.::9999999::.o 9999999:,;5555111===<867",
"848X11==++@55;,:9999999999999999999999999999999:,;55555=1OX1<867",
"7>8O11=$1+@55;,:9999999999999999999999999999999:,;5555=X1O11<867",
"7848=1=$1+@55;,:9999999999999999999999999999999:,;5555111O=8<867",
"784==1=+++@55;,:9999999999999999999999999999999:,;555555====<867",
"77>O11=1@@555;,:9999999999999999999999999999999:,;55555=1O11<868",
"778>11=$8<383;,:9999999999999999999999999999999:,;33333X1O1-<868",
"777831O38<383;,:9999999999999999999999999999999:,;333333XX3-<86>",
"777733338<383;,:9999999 o.::9999999::.o 9999999:,;333-333338<864",
"777773338<862;,:9999 o.:o,,:9999999:,,o:.o 9999:,;33->777-88<864",
"877777886<864;,:99 o.:&, .,.9999999.,. ,&:.o 99:,;33-4774286<864",
"877777>86<864;,: o.:, .## oo9999999oo ##. ,:.o :,;33-477>286<868",
"487778>86<86>;,::., .#o3#,: 9999999 :,#3o#. ,.::,;33-277>286<868",
"487778486<868;,., .#o33o.&.999999999.&.o33o#. ,.,;33-2878486<867",
"4>878>486<867;,,.#o3333# :o999999999o: #3333o#. ,;33-2878486<867",
"448884>86<867;,#o33333o.,. 999999999 .,.o3338<o#,;33-2878>86<867",
">4>8>4886<867;#3333333# :o99999999999o: #3338<-8#;33-2>77>86<867",
"844>44886<86773333333o.,. 99999999999 :,.o338<-83833-2>87886<867",
"844>44786<86777333332# .o9999999999999o. #336<-83833-2487886<867",
"742224786<8687733338o.,: 9999999999999 :,.o36<883833-2487886<867",
"7>2224786<868777337># .:::::::::::::::::. #38<8678---42>7786<867",
"784224786<86>777777#,,,,,,,,,,,,,,,,,,,,,,,#8<867277742>8786<867",
"78422>786<864877777;;;;;;;;;;;;;;;;;;;;;;;;;8<8672777>248786<868",
"77>24>786<86287777823333338<-833338<-83333338<8672777>24>786<868",
"778448786<862>7777>24333338<-833338<-83333338<8672877842>886<86>",
"7784>8786<8644877742>733338<-833338<-83333338<86728778>24886<86>",
"777>>7786<86428778427774786<8622286<867>48786<86728777>24886<864",
"777887786<86>24878227774786<8622286<8678>7786<86728777842886<864",
"877777886<86742482247774786<8622286<867787786<8674>7778>2486<862",
"877777886<867>22222>7772786<8622486<867777786<867447777>2486<862",
">77777486<867722224777>2786<8622486<867777786<867>4877784486<862",
">87778486<8677>424>77742786<8624>86<867777786<867>287777>>86<862",
"487778486<86777>4>777742786<8624>86<867777786<86772877777886<862",
"4>7778486<867777>7777422>86<864>786<867777786<86>72>77777786<862",
">>>>>>>86<86>7777777>>>>>86<86>7786<86>777>86<86>7>>77777786<86>"
};
