/* XPM */
static char *wolfstein_texture_931659569481[] = {
/* columns rows colors chars-per-pixel */
"64 64 64 1 ",
"  c #5B3913",
". c gray99",
"X c #B36437",
"o c #78461C",
"O c #FF1A1A",
"+ c #EA0000",
"@ c #F58950",
"# c #464646",
"$ c gray60",
"% c #FFF400",
"& c gray71",
"* c #B24B00",
"= c gray93",
"- c #E8814C",
"; c #8D8D8D",
": c #717171",
"> c #535353",
", c #DF7D48",
"< c #282828",
"1 c #AAAAAA",
"2 c red",
"3 c #353535",
"4 c #B30000",
"5 c #DDDDDD",
"6 c gray82",
"7 c #FF9558",
"8 c #C1C1C1",
"9 c #A00000",
"0 c gray10",
"q c #4C350E",
"w c gray49",
"e c #646464",
"r c #FCFCD7",
"t c #E86000",
"y c #FFAA56",
"u c #FF5C5C",
"i c #FFA56E",
"p c #39280A",
"a c #432C0F",
"s c #FF8D54",
"d c #920000",
"f c #FF8900",
"g c #840000",
"h c #C00000",
"j c #750000",
"k c #C50000",
"l c #653E17",
"z c red",
"x c #DC0000",
"c c #CE0000",
"v c #D17943",
"b c #F70000",
"n c #A15C2E",
"m c #985729",
"M c #AF6032",
"N c #C9713F",
"B c #BC683B",
"V c #814B20",
"C c red",
"Z c #8F4F25",
"A c black",
"S c black",
"D c black",
"F c black",
/* pixels */
" 7vvvvvvv@@7777777@@@77@@@@@777vNi@@@@@@@@@@@@@@vvvvvvv@@@@@vvvN",
"lvoVVVZZZmnMMMMMMnXBv@@-,@-,vNBV -BBBBBBBNNNNNNBXXMMXBNNBXnmZZZl",
"lvVVVZZ%ZZZZZZZZVZmBv@@vv-@,vBXV -BBNNNv,,-@---,vvvvv-,NX%mmmmml",
"lvVVVVyrZVVVVVVVZmMBNNBMXNv,vNBVl@,,-@--@@@s@@@@@s@---vXMryMMMnl",
"lvZZy%rrf%%%>w>%%%%%%%%%%%%%%%%%%%%%%%%%%%%%%%%%%%%ew%%%rr%%yMnl",
" vZZttt%****1>3#3********************************3<A#M***ytttnnl",
" vZZZllflllVVkCc#3AVVVVVVVZZZmno BMMnnmnnnZZVVVA<3jca ooV*lonnno",
" vZZZZZZmnMNvCCCCc4ddMXBBBNNNNNml7-,NNB-,NBBBBgcccxc omnnnnmmmmo",
" vVVVZZZmMBNNCCCCb+xckkcxbC.#.Cbxk&A$k94c+bCOOCCCbxc omnnmZZZZmo",
" vVVVVVZnBNBMCCCCb+xckkcxbC.#.Cbxk&A$k94c+bCOOCCCbxclVnmmZZZVZZo",
"lvVVVZZnXBBnmCCCCb+xckkcxbC.#.Cbxk&A$k94c+bCOOCCCbxclVMmZZZVVZZl",
"lvZZnMXBBXnmZCCCCb+xckkcxbC.#.Cbxk&A$k94c+bCOOCCCbxclZBMmZZZZZml",
"lvmMBNvvBnZZZCCCCb+xckkcxbC.#.Cbxk&A$k94c+bCOOCCCbxc VBBBMmmmmml",
"o@BBBBvvBZZZZCCCCb+xckkcxbC.#.Cbxk&A$k94c+bCOOCCCbxc VN,vBMMMMno",
"o7BMmnBNMZVZZCCCCb+xckkcxbC.#.Cbxk&A$k94c+bCOOCCCbxc Vv-vBXMMMMo",
"o@nZZnBBmVVVZCCCCb+xckkcxbC.#.Cbxk&A$k94c+bCOOCCCbxc ZvNBXMnnMXV",
"lvVVZMNMZoVVZCCCCb+xckkcxbu.#.Cbxk&A$k94c+bCOOCCCbxclZBMnnnmmnMo",
"lvoVZXNMVoVZmCCCCb+xckkcxu..#.==56&A$$e4c+bCOOCCCbxclVMmmnnnnnMo",
"lvoVmBNnVoVmXCCCCb+xckkc:5.>#.==56&1AAw:#+bCOOCCCbxc ommnMMMnnMV",
"lvoZMvNnVVmXNCCCCb+xckk:8<#.$#33<00A$$AA$:bCOOCCCbxcqlmmnMMMnMNZ",
" voZXvBmZmXNNCCCCb+xck:8<:.>#.==56&1AAw:A1:COOCCCbxcqlmnnMMMMB,m",
" voZXNXmmXNBMCCCCb+xck&A:5#..>33;6&1$:A::A&COOCCCbxc onMMMMXN,-Z",
" vVmBNXMXNBMZCCCCb+xc1A:8<..;#33>6&1$$wA$:A6OOCCCbxc VXXMMXv@@vo",
" vZXNBBBNBMZVCCCCb+xe1A8<5.;##3>;6&>A<w:A1A6$OCCCbxc VBBMMN-@vXl",
"lvXNvNNNBMZVoCCCCb+x;A&A85;>##>;56>AAA<:$A&A=OCCCbxc VBBMMN-vMZl",
"l@NvvvNBMmZVo...6&$;;A&A81#>##>;5>0AAAA<$A:A===561;: VBBMXNvXmmo",
"l7NNvNBMmZZVVAA333AAA1A885;>##3>>00AAAAA<:A6#e>><AAA VBXMBNNXMBZ",
"o7NNNBnmZZZZm...6&$;;1A885.;##33<00A<AAAA1A6===561;: VBMMN,,NNNZ",
"oiNNXnZZZmmMBCCCCb+x;1A885..;#33<00<$<AAA1A6=OCCC+xc VBBBv--vNBo",
"ZiNBnZZmmnMBvCCCCb+x;1A8<;...>33<0<e$$<<<1A6=OCCC+xc ZNNNvvNBMnl",
"ZiBnmZZnMXBN,CCCCb+x;1A8<<;.;#33<00Ae$w:$1A6=OCCC+xclm,vNBMnnmml",
"lvollllooVVmm...6&$;;1A8<<#>##33>00AAew:$1A6===561;: onZVoollllq",
"lN qqqq    llAA333AAA1A8><#>##3;5>0AAAw:$:A6#e>><AAAa ol   qqqqp",
"V7vvvvvvv-@@7...6&;;;A:A8>#>##;=56>AAAA:$A&A===561;:VB@---vvvvvm",
"lvZZZZZZZmNs7CCCCb+x;A&A85;>#;==56>AAAA:$A&A=OCCCbxcVMNBBXMnmZZl",
"lvZZZZZZZnN@@CCCCb+xc1A8<5....==5>0AAAw:A1A6;OCCCbxcVMNNBBXMnmmo",
"lvVZZZZmMBNNNCCCCb+xc1A88<....==500AA$wA$:A=OOCCCbxcomNNNNNvNBBV",
"lvVZZmMBNNBXMCCCCb+xck&A85#...==5>0A$#A::A&:OOCCCbxclVNNN,---,vZ",
"lvZmMBNNNBMMMCCCCb+xcku8<5.>#.==56&1AAw#A1;COOCCCbxc VNN,-,vvNNV",
"lvmXNNNBXMMMXCCCCb+xckku8<#..#33<00A$$AA$;bCOOCCCbxc VN,,vNBXMnl",
"lvXNNBMMnMMMMCCCCb+xckkcu51>#.==56&:AAw::+bCOOCCCbxcon,,vNBMnmZ ",
"l@BBMmmnnMMnnCCCCb+xckkcxb$.#.==56&A$$e4c+bCOOCCCbxcVn,vNBMnmZV ",
"o7XnZZmnnnnmmCCCCb+xckkcxbC.#.Cbxk&A$k94c+bCOOCCCbxclmNNBBMnmZZ ",
"o@mZZmnnnnmmmCCCCb+xckkcxbC.#.Cbxk&A$k94c+bCOOCCCbxc ZNNNNBBBXMo",
"lvZZmnMnnnmmnCCCCb+xckkcxbC.#.Cbxk&A$k94c+bCOOCCCbxclmv,vNNNNNNV",
"lvZmnMMMnnnMBCCCCb+xckkcxbC.#.Cbxk&A$k94c+bCOOCCCbxclZBBBBXMMMno",
"lvmnMXXMMXBNNCCCCb+xckkcxbC.#.Cbxk&A$k94c+bCOOCCCbxc VMnnmmmZZZl",
"lvnXBBXXBNvNNCCCCb+xckkcxbC.#.Cbxk&A$k94c+bCOOCCCbxc VXBXXMMnnno",
"lvXBBBBNNvNBnCCCCb+xckkcxbC.#.Cbxk&A$k94c+bCOOCCCbxc ZNNNNBBBBNV",
"l@BBNNv,vNXnZCCCCb+xckkcxbC.#.Cbxk&A$k94c+bCOOCCCbxclVXXMMnnnMBo",
"o@BNv,-,NBMmZCCCCb+xckkcxbC.#.Cbxk&A$k94c+bCOOCCCbxc omZZVVVVVZl",
"o@N,--,NBBMnmCCCCb+xckkcxbC.#.Cbxk&A$k94c+bCOOCCCbxcqlZZZVolllV ",
"o7,-,vNNBBMnmCCCCb+xckkcxbC.#.Cbxk&A$k94c+bCOOCCCbxc lZZZZVVVVVl",
"o7,vNNNNBBXnmCCCCb+xckkcxbC.#.Cbxk&A$k94c+bCOOCCCbxc VnmZZZZZZZl",
"o7NNBNNNBBMnmCCCCb+xckkcxbC.#.Cbxk&A$k94c+bCOOCCCbxclZXnnnnnmmml",
"o@BXBBBBBXMnnnMZ         441A14444eAe    dhbOOCCCbxo VBBBBBBXMMo",
"lvnnMMMMXXXXBBNBXVoVVVVVVV     aplq                oVmXNNNNNNBXo",
"lvmmmnnMXBNvvNBnmZZZZZZmnmVVVolqpmloZnZVooollllloooVVZmMXBBBNNBo",
"lvmmnMXBNNNvvBmZZZZZZmmnnMnnmmZlqvZMMmVlloVVVZZZZZZVVZZZmmmnBNNV",
"lvMBBBNNNBXBXnZZZmmmmmnnnnnmZZZlqvMMmVllooVVVVZZZZZZZZZZZZZZmMBZ",
"l@BBBXMnmZZZmmmmmnnnnmmmmZZZmZZl -XnZVVVVVVVVVZZZZZZZZZZZZZZZZmo",
"o@nmZZVVVoVZZmnMMMMnnnmmmZZnMXXV -MZZZZZZZVVVVVZZZZZZZZZZVVVVVVl",
"o@nmZZVVVoVZZmnMMMMnnnmmmZZnMXXV -MZZZZZZZVVVVVZZZZZZZZZZVVVVVVl",
"lvl     lloVZnXBBBBBBBBXXMXBBNNV vZZVZZZZZVVVoVVVVVVVVVVVVVVVolq"
};
