/* XPM */
static char *wolfstein_texture_661659569480[] = {
/* columns rows colors chars-per-pixel */
"64 64 64 1 ",
"  c #920000",
". c #282828",
"X c #78461C",
"o c #FFE1D0",
"O c #858500",
"+ c #E8814C",
"@ c #C1C1C1",
"# c #E9D900",
"$ c gray10",
"% c #B9AE00",
"& c #9D9D00",
"* c #726C00",
"= c gray82",
"- c #FFF400",
"; c #FFB17E",
": c #00A500",
"> c #595300",
", c #5B3913",
"< c #432C0F",
"1 c #D17943",
"2 c #94FCFC",
"3 c #FEF84B",
"4 c #39280A",
"5 c #3E3E00",
"6 c #BC683B",
"7 c #C9713F",
"8 c #AF6032",
"9 c #005700",
"0 c #003E00",
"q c #FFA56E",
"w c #FCFC73",
"e c #750000",
"r c #8F4F25",
"t c #FF9D5C",
"y c #00B100",
"u c #009900",
"i c #840000",
"p c #007100",
"a c #004B00",
"s c #007D00",
"d c DarkGreen",
"f c #FFB98F",
"g c #FFF41B",
"h c #FFF400",
"j c #4C350E",
"k c #D0C500",
"l c #653E17",
"z c gray71",
"x c #717171",
"c c #AAAAAA",
"v c #814B20",
"b c #646464",
"n c #464646",
"m c #261A03",
"M c #535353",
"N c gray49",
"B c gray60",
"V c black",
"C c black",
"Z c black",
"A c black",
"S c black",
"D c black",
"F c black",
/* pixels */
"bbbbbbxxxxxxxxbxbxbbbbbbbbbxbbbxxxxxbbbbbbbbbxbbbxxbxbbbbbbbbbxb",
"xbxxxbxxxxxxbxbxbbbbxxxxbxbbbxxxxxbbbbbxxxbxbbbxxbxbxxxbxxxxxbxb",
"xxxxxxxMMMMMMMMMMMMMMMMMMMMMMMMMMMMMMMMMMMMMMMMMMMMMMMMMxxxxxxxx",
"xNxxNxxMnNz=====x====x====x====x====x====x====x=====zNMbxxxxNxxN",
"NcNxNxxMnNz=zzzzbzzzzbzzzzbzzzzbzzzzb@@@@b@@@@b@@@z=zNnbNxNxNxxc",
"cBBNNNNMnNzkkkkkMkkkkMkkkkMkkkkMkkkkMkkkkMkkkkMkkkkkzNnbBNBNNNNN",
"cBcBNcNMnNzkVVVVVVVVVVVVVVVVVVVVVVVVVVVVVVVVVVVVVVVkzNnbcBcBNcNc",
"cBcBNccMnMbxVOOVO&&%%%%.%kk##hhhhVhhhhhhhhhhhVVhhhVxbMnbcBcBNccB",
"cBBBNcBMnNzkVOOVO&&%%%%.%kk##hhhhVhhhhhhhhVVVhhhhhVkzNnbBBBBNcBB",
"cBcBBcBMnNzkVOOVO&&%%%%VVVVVVVVVVVVVVhhVVVhhhhhhhVVkzNnbcBcBBcBB",
"cBcBBBcMnNzkVVVVO&&%%%%VVVV$$$$$$....VVhhhhhhhhhVhVkzNnbcBcBBBcB",
"BBBBBBcMnNzkV*OVVVVVVVVVVVVVVVVVVVVVVVVwhhhhhhhVhhVkzNnbBBBBBBcB",
"BBBBBcBMnMbxV*OVO&&%%%V;;;;;;V$.MMVMnMM.whhhhhVhhhVxbMnbBBBBBcBB",
"cBBBBBBMnNzkV*OVO&&%%%V;;;;;;V$.MMVMnnMM.hwhhVhhhhVkzNnbBBBBBBBB",
"BBBBBBcMnNzkV*OVO&&%%V;;;;;;;V$$MMVMMMnnV.hwVhhhhhVkzNnbBBBBBBcB",
"BBBBBBBMnNzkV*OVO&&%%V;;;;;;;V$$..V....Vn.hVhhhhhVVkzNnbBBBBBBBB",
"cBBBBBcMnNzkV*OVO&&%V;;;;;;;;V$$$$V$$$VMM.VhhhhhhVVkzNnbBBBBBBcB",
"BBBBBBBMnMbxV*OVVVVVVVVVVVVVVVVV$$V$$V$.M.33hhhhVkVxbMnbBBBBBBBB",
"BBBBBBBMnNzkV*OVO&&%%VVV$+++++V1V.V$V$$$..3hhhhhV3VkzNnbBBBBBBBB",
"BBcBBcBMnNzkVVVVO&&%VfV$++++++V11VVVVV$$$.3hhhhVkhVkzNnbcBcBBcBB",
"BBBBBBBMnNzkV*OVO&&V;qV++++++V11111V6V$$$.V333hVghVkzNnbBBBBBBBB",
"BBBBBBBMnNzkV*OVO&VqqqV++++++V1111V88V$$.#kV33VkhhVkzNnbBBBBBBBB",
"BBBBBBBMnMbxV*OVO&VtttV+++++V1111V666V$.3##kV3VhhhVxbMnbBBBBBBBB",
"BBNNBBBMnN@kV*OVVVVVVVV+++++V111VVVVVVV#####kVVVVVVk@NnbNNNNBBBB",
"NBccNNBMnN@kV*OVOOO&V$V++++V777VrrV678V######V####Vk@NnbccccNNBB",
"cBBcccNMnN@kV*OVOOO&VVV++++V88VvvV7++6Vk####V#####Vk@NnbBcBcccNB",
"BBBBBBcMnN@kV*OVOOO&V+++++V,,VvvV7+17VV%%k#kV#####Vk@NnbBBBBBBcN",
"BBcBBBcMnMbxV*OVOOOOVVVVVVVVVvvV868VVvV&&%%Vkk####VxbMnbcBcBBBcc",
"cBcBBBBMnN@kV*OV****V,,,,,,VllV6rVVvvVlVV&&Vkkkk##Vk@NnbcBcBBBBB",
"BBBBBBBMnN@kV**V****VVVVVVV,,V6VVvvvVllllVVV&%%%kkVk@NnbBBBBBBBB",
"BBBBBBBMnN@kV**V>>>V>>>>>V,,VVVvvvvVlllllllVVO&&%%Vk@NnbBBBBBBBB",
"BBBBBBBMnN@kV**V>>V>>>>>VllV$vvvvvVllllllllllVVO&&Vk@NnbBBBBBBBB",
"BBccBBBMnMbxV**V>V>>>>>VllVvvvvvvVlllllllllllllVVOVxbMnbccccBBBB",
"BBBBBBBMnN@kV**VV>V555VvVVvvvvvvVllllllllllllllll$Vo@NnbBBBBBBBB",
"BBBBBBBMnN@kV**V55>V5VvvvVvvvvvVVVVVVVVVVVVVVVVVVVVo@NnbBBBBBBBB",
"cBBBBBBMnN@kV*V55555VvvvvvVvvvVlllllllVmmVXXXXXXXXVo@NnbBBBBBBBB",
"cBBBBBBMnN@kVVVVVVVVvvvvvvvVlVlllllllmmmmmVXXXXXXXVo@NnbBBBBBBBB",
"BBBBBBBMnMbxV::::::VvvvvvvvvVlllllllVmmmmVXVXXXXXXVxbMnbBBBBBBBB",
"BBcBBcBMnNz2V:::::VvvvvvvvvVlllllllVmmmmVXXXVXXXXVVozNnbcBcBBcBB",
"BBBBBBBMnNz2V:::::VvvvvvvvVlllllllVmmmmVXXXXXVXXVjVozNnbBBBBBBBB",
"BBBcBBBMnNz2V:::::VvvvvvvVlllllllVmmmmVXXXXXXXVVjjVozNnbBcBcBBBB",
"BBBBcBBMnNz2VV:::VvvvvvvVlllllllVmmmmVVXXXXXXXVjjjVozNnbBBBBcBBB",
"BBBBBBBMnMbxVyV::VvvvvvV,lllll,VmmmmV  VXXXXXVjjjjVxbMnbBBBBBBBB",
"BBBBBBBMnNz2VyyV:VvvvvVVVVVVVVVmmmmV    VXXXVjjjjjVozNnbBBBBBBBc",
"BcBBBBBMnNz2V:::VmvvvV,,,,,,,,VmmmV      VXVjjjjjjVozNnbBBBBBBBB",
"BBBBBBBMnNz2Vu::VmmmVjjjjjjjjjVmmV        VjjjjjjVVozNnbBBBBBBBB",
"NNBBBBBMnNz2VuuV<<<VmV<<<<<<<<VVV          V,jjjVmVozNnbBBBBBBBB",
"NNNBBBBMnMbxV::V<<VmmmV<<<<<<<VVV           VjjVmmmxbMnbNBNBBBBB",
"BBcBBBBMnNz2VssV<VmmmmmV444444VvvV           VVmmmVozNnbcBcBBBBB",
"cBcBBBBMnNz2VpVVVmmmmmmmV4444VvvvvV          VmmmmVozNnbcBcBBBBB",
"cccBBBBMnNz2VVpVmVmmmmmmmV44VvvvvVjV        VmmmmmVozNnbcBcBBBBB",
"BBBBBBBMnNz2VddVmmVmmmmmmmVVvvvvVjjjV      VmmmmmmVozNnbBBBBBBBB",
"BBBBBBBMnMbxV99VmmmVmmmmmmVvvvvVjjjjjViiieVmmmmmmmVxbMnbBBBBBBBB",
"BcBBBBBMnNz2VaaVmmmmVmmmmVvvvvVjjjjjjjVeeVmmmmmmmmVozNnbBBBBBBBB",
"BBBBBBBMnNz2V99VmmmmmVmmVvvvvVjjjjjjjjjVVmmmmmmmmmVozNnbBBBBBBBB",
"BBcBBBBMnNz2V00VmmmmmmVVvvvvVjjjjjjjjjjVmmmmmmmmmmVozNnbcBcBBBBB",
"BBNBBBBMnNz2V00VmmmmmmmvvvvVjjjjjjjjjjVmmmmmmmmmmmVozNnbNBNBBBBB",
"BBNBBcBMnMbxVVVVVVVVVVVVVVVVVVVVVVVVVVVVVVVVVVVVVVVxbMnbNBNBBcBB",
"BBNNNBBMnNzoooooxooooxooooxooooxooooxoooobooooxooooozNnbNNNNNBBB",
"NBzcNNBMnNz=zzzzbzzzzbzzzzbzzzzbzzzzb@@@@b@@@@b@@@z=zNnbzczcNNBB",
"cNBBzNNMnNNNNNNNMNNNNMNNNNMNNNNMNNNNMNNNNMNNNNMNNNNNNNnbBBBBzNNB",
"BcBBBcNMn.............................................nbBBBBBcNN",
"ccccccNMnMMMMMMMMMMMMMMMMMMMMMMMMMMMMMMMMMMMMMMMMMMMMMnbccccccNN",
"NNNNNNxMMnnnnnnnnnnnnnnnnnnnnnnnnnnnnnnnnnnnnnnnnnnnnnbbNNNNNNxx"
};
