/* XPM */
static char *wolfstein_texture_771659569480[] = {
/* columns rows colors chars-per-pixel */
"64 64 16 1 ",
"  c #353535",
". c #717171",
"X c #3E3E3E",
"o c gray36",
"O c gray49",
"+ c gray82",
"@ c #282828",
"# c #646464",
"$ c #535353",
"% c #8D8D8D",
"& c gray60",
"* c #464646",
"= c #C1C1C1",
"- c #AAAAAA",
"; c gray71",
": c black",
/* pixels */
"*$*&-;=+++++++++++++++++++++=;-&*$*&-;=+++++++++++++++++++++=;-&",
"*$*O============;;;;=;=;=;=;=;=%*$*O============;;;;=;=;=;=;=;=%",
"*$*O==;===;;=;;;;;;;;=;=;=;;;=;%*$*O==;===;;=;;;;;;;;=;=;=;;;=;%",
"*$*O;;=;;==;;;-;;;;;=;=;=;;;;-;%*$*O;;=;;==;;;-;;;;;=;=;=;;;;-;%",
"*$*O;=;;;;=;;-;-=;;=;;;=;=;=-;-%*$*O;=;;;;=;;-;-=;;=;;;=;=;=-;-%",
"*$*O;=;;;;=;;-;-=;;=;;;=;=;=-;-%*$*O;=;;;;=;;-;-=;;=;;;=;=;=-;-%",
"*$*O;;=;;;;;-;-=;=;-;;;;-;=-;--%*$*O;;=;;;;;-;-=;=;-;;;;-;=-;--%",
"*$*O;;;=;;;-;-;-=-=--;-;------;%*$*O;;;=;;;-;-;-=-=--;-;------;%",
"*$*O;;-;-----;-;------;-=--;;--%*$*O;;-;-----;-;------;-=--;;--%",
"*$*O-&;&----&-;--&-;-;&---&--&-%*$*O-&;&----&-;--&-;-;&---&--&-%",
"*$*O-%&-&%-&-&-&&-&&-&---&-%&-&%*$*O-%&-&%-&-&-&&-&&-&---&-%&-&%",
"*$*O%%%&%&%-%-&%-&%&%&%&%-%&%-&%*$*O%%%&%&%-%-&%-&%&%&%&%-%&%-&%",
"*$*O&%&%&&&%&%%-&&&%&%&%&%&%&%%%*$*O&%&%&&&%&%%-&&&%&%&%&%&%&%%%",
"*$*#############################*$*#############################",
"** @@@@@@@@@@@@@@@@@@@@@@@@@@@@@ * @@@@@@@@@@@@@@@@@@@@@@@@@@@@ ",
"****************************************************************",
"$$$$$$$$$$$$$$$$$$$$$$$$$$$$$$$$$$$$$$$$$$$$$$$$$$$$$$$$$$$$$$$$",
"+++++++++++=;-&*$*&-;=+++++++++++++++++++++=Oo$*$*&-;=++++++++++",
";;;=;=;=;=;=;=%*$*O============;;;;=;=;=;=;&OO. $*O==========;;;",
";;;;=;=;=;;;=;%*$*O==;===;;=;;;;;;;;=;=;=;;%.-%*$*O==;===;;;;;;;",
";;;=;=;=;;;;-;%*$*O;;=;;==;;;-;;;;;=;=;=;;;O=;%*$*O;;=;;==;-;;;;",
"=;-;;;;-;=-;--%*$*O;;=;;;;;-;-=;=;-;;;;-;=%-=-%*$*O;;=;;;;;-=;==",
"-=--;-;------;%*$*O;;;=;;;-;-;-=-=--;-;--%-=-;%*$*O;;;=;;;-;-=--",
";;=;;;=;=;=-;-%*$*O;=;;;;=;;-;-=;;=;;;=;&%=-;-%*$*O;=;;;;=;;-=;;",
"=;-;;;;-;=-;--%*$*O;;=;;;;;-;-=;=;-;;;&%%%-;--%*$*O;;=;;;;;-=;==",
"-=--;-;------;%*$*O;;;=;;;-;-;-=-=--&%&-&%%--;%*$*O;;;=;;;-;-=--",
"-----;-=--;;--%*$*O;;-;-----;-;--%%%%&-=-%%;--%*$*O;;-;-----;---",
"&-;-;&---&--&-%*$*O-&;&----&-;--%%-;-&--%%;-&-%*$*O-&;&----;--&&",
"-&&-&---&-%&-&%*$*O-%&-&%-&-&-&%&&&-&--%%;-&-&%*$*O-%&-&%-&-&&--",
"&%&%&%&%-%&%-&%*$*O%%%&%&%-%-&%&&%&%&%&%O;&%-&%*$*O%%%&%&%-&%-&&",
"&&%&%&%&%&%&%%%*$*O&%&%&&&%&%%-&&&%&%&%%O&%&%%%*$*O&%&%&&&%%-&&&",
"###############*$*##########$$#########$#######*$*##############",
"@@@@@@@@@@@@@@@@@@@@@@@@@@@@@@@@@@@@@@@@@@@@@@@@@@@@@@@@@@@@@@@@",
"*********************************X******************************",
"$$$$$$$$$$$$$$$$$$$$$$$$$$$$$$$$X$*$$$$$$$$$$$$$$$$$$$$$$$$$$$$$",
"*$*&-;=+++++++++++++++++++++=;-&*$*&-;=+++++++++++++++++++++=;-&",
"*$*O============;;;;=;=;=;=;=;=%*$*O============;;;;=;=;=;=;=;=%",
"*$*O==;===;;=;;;;;;;;=;=;=;;;=;%*$*O==;===;;=;;;;;;;;=;=;=;;;=;%",
"*$*O;;=;;==;;;-;;;;;=;=;=;;;;-;%*$*O;;=;;==;;;-;;;;;=;=;=;;;;-;%",
"*$*O;=;;;;=;;-;-=;;=;;;=;=;=-;-%*$*O;=;;;;=;;-;-=;;=;;;=;=;=-;-%",
"*$*O;;=;;;;;-;-=;=;-;;;;-;=-;--%*$*O;;=;;;;;-;-=;=;-;;;;-;=-;--%",
"*$*O;;;=;;;-;-;-=-=--;-;------;%*$*O;;;=;;;-;-;-=-=--;-;------;%",
"*$*O;;-;-----;-;------;-=--;;--%*$*O;;-;-----;-;------;-=--;;--%",
"*$*O-&;&----&-;--&-;-;&---&--&-%*$*O-&;&----&-;--&-;-;&---&--&-%",
"*$*O-%&-&%-&-&-&&-&&-&---&-%&-&%*$*O-%&-&%-&-&-&&-&&-&---&-%&-&%",
"*$*O%%%&%&%-%-&%-&%&%&%&%-%&%-&%*$*O%%%&%&%-%-&%-&%&%&%&%-%&%-&%",
"*$*O&%&%&&&%&%%-&&&%&%&%&%&%&%%%*$*O&%&%&&&%&%%-&&&%&%&%&%&%&%%%",
"*$*#############################*$*#############################",
"*$* @@@@@@@@@@@@@@@@@@@@@@@@@@@  *  @@@@@@@@@@@@@@@@@@@@@@@@@@@ ",
"****************************************************************",
"$$$$$$$$$$$$$$$$$$$$$$$$$$$$$$$$$$$$$$$$$$$$$$$$$$$$$$$$$$$$$$$$",
"+++++++++++=;-&*$*&-;=+++++++++++++++++++++=;-&*$*&-;=++++++++++",
";;;=;=;=;=;=;=%*$*O============;;;;=;=;=;=;=;=%*$*O==========;;;",
";;;;=;=;=;;;=;%*$*O==;===;;=;;;;;;;;=;=;=;;;=;%*$*O==;===;;;;;;;",
";;;=;=;=;;;;-;%*$*O;;=;;==;;;-;;;;;=;=;=;;;;-;%*$*O;;=;;==;-;;;;",
";;=;;;=;=;=-;-%*$*O;=;;;;=;;-;-=;;=;;;=;=;=-;-%*$*O;=;;;;=;;-=;;",
"=;-;;;;-;=-;--%*$*O;;=;;;;;-;-&;=;-;;;;-;=-;--%*$*O;;=;;;;;-=;==",
"-=--;-;------;%*$*O;;;=;;;-;-;-&-=--;-;------;%*$*O;;;=;;;-;-=--",
"-----;-=--;;--%*$*O;;-;-----;-;-%----;-=--;;--%*$*O;;-;-----;---",
"&-;-;&---&--&-%*$*O-&;&----&-;-&&-;-;&---&--&-%*$*O-&;&----;--&&",
"-&&-&---&-%&-&%*$*O-%&-&%-&-&-%&;&&-&---&-%&-&%*$*O-%&-&%-&-&&--",
"&%&%&%&%-%&%-&%*$*O%%%&%&%-%-&&&&%&%&%&%-%&%-&%*$*O%%%&%&%-&%-&&",
"&&%&%&%&%&%&%%%*$*O&%&%&&&%&%%&&&&%&%&%&%&%&%%%*$*O&%&%&&&%%-&&&",
"###############*$*#############$###############*$*##############"
};
