/* XPM */
static char *wolfstein_texture_1111659569481[] = {
/* columns rows colors chars-per-pixel */
"64 64 2 1 ",
"  c white",
". c #FFB100",
/* pixels */
"................................................................",
"................................................................",
".......................... ..... ....   .. ..... ......    .....",
".......................... .. .. ... ... . ..... ..... .........",
".......................... .. .. ...     . ..... ......   ......",
".......................... .. .. ... ... . ..... ......... .....",
"...........................  .  .... ... .    ..    ..    ......",
"................................................................",
"................................................................",
"................................................................",
"................................................................",
"................................................................",
"............... ..... ...   ... .....    ..    .. ... ...    .. ",
"............... .. .. .. ... .. ..... ..... .....  .. .. .......",
"............... .. .. .. ... .. .....   ...   ... . . ...   ....",
"............... .. .. .. ... .. ..... ..... ..... ..  ...... ...",
"................  .  ....   ...    .. .....    .. ... ..    ....",
"................................................................",
"................................................................",
"................................................................",
"................................................................",
"................................................................",
".............................. ..   ....   ... ... ..    ... ...",
"............................. .. ... .. ... ..  .  .. ... .. ...",
"............................. .. ...... ... .. . . ..    ... ...",
"............................. .. ... .. ... .. ... .. ...... ...",
".............................. ..   ....   ... ... .. .......   ",
"................................................................",
"................................................................",
"................................................................",
"................................................................",
"................................................................",
"....    .. ...    ..    ....    ..    ........    .. ... .......",
".... ... . ... ... . ... ... ..... ... ....... ... .. . ........",
"....    .. ...    ..    ....   ... ... .......    .... .........",
".... ... . ... ..... ....... ..... ... ....... ... ... .........",
".... ... . ... ..... .......    ..    ........    .... .........",
"................................................................",
"................................................................",
"................................................................",
"................................................................",
"................................................................",
"..........................    .... .....    ...   ...    ...    ",
".......................... ... ... ..... ..... ... . ....... ...",
"..........................    .... .....   ...     ..   ....   .",
".......................... ....... ..... ..... ... ..... ... ...",
".......................... .......    ..    .. ... .    ....    ",
"................................................................",
"................................................................",
"................................................................",
"................................................................",
"................................................................",
"...................   ...    ...    ..    ... ..     ....... .. ",
".................. ... .. ... .. ..... ... .. .... ......... .. ",
".................. ......    ...   ... ... .. .... ......... .. ",
".................. ... .. ... .. ..... ... .. .... ......... .. ",
"...................   ... ... ..    ..    ... .... ......... .. ",
"................................................................",
"................................................................",
"................................................................",
"................................................................",
"................................................................",
"................................................................",
"................................................................"
};
