/* XPM */
static char *wolfstein_texture_471659569480[] = {
/* columns rows colors chars-per-pixel */
"64 64 32 1 ",
"  c gray60",
". c #3E3E00",
"X c #E9D900",
"o c #C1C1C1",
"O c #DDDDDD",
"+ c gray82",
"@ c gray71",
"# c #FFF41B",
"$ c gray93",
"% c #FFF400",
"& c #717171",
"* c #D0C500",
"= c gray49",
"- c #B9AE00",
"; c #595300",
": c #646464",
"> c #AAAAAA",
", c #282828",
"< c #8D8D8D",
"1 c #726C00",
"2 c #464646",
"3 c #535353",
"4 c #9D9D00",
"5 c gray10",
"6 c #858500",
"7 c #353535",
"8 c black",
"9 c black",
"0 c black",
"q c black",
"w c black",
"e c black",
/* pixels */
",,,,,,,,,,,,,,,,,,,,,,,,,,,,,,,,,,,,,,,,,,,,,,,,,,,,,,,,,,,,,,,,",
"33333333332O########oO####O57<>o########*<3522222222223333333333",
"33333333332O+XXXXXX>o+oXXX<57<o@<*==4444=3757&444466=&:222222222",
"<<<<<<<<532#+------>+oo44-:57>O><=<=1666=37574*XX**-o@>44466<<<<",
"+---@><<532#+446664>>> 664357<o<<<>>:616&37574X-444=O*XXX***-=++",
">>---1=&532#o466&=6> 4<&663572>->><<=;:1337574X44==<*=444444-:< ",
"@ 1-441&522#+466=>6  4< &6;572=-<-<>>&:1777516*4==***=644466::-=",
"@@=41613572#+<66=>6<=6 ><6;.7216>-><<<>&777,66*4=<**4=1446:6:=6:",
" >>611225,2#o>66=>1 < <<>6;..2;111;77777775;4;*6=>4=4==646:6:>=:",
"<<<1&3225,2*$>46=< <<<<><63,.;277777777755;*6;41<41 4= 166:1:<><",
"&&&&32775,2*O<46==<<><><>13,5.;7,,55555,,;*6;16;46<>4=<&61::::::",
"332225555,26O>16===> <<=<&:75..;.2&%%>>%%*6;41;<11::133312222222",
"55555,,,,73;O+<1< 4<<>=<4<3757.&>%%**O++***4;;<&::32;277777,,,,,",
",,,,,,,,,732>+<><46&<< <6:375,7>%*4--&<>4&;577777777777,,5555555",
"777777777732<+><>66&<=<>63375,2>*4=--:<<431;7,,,,,,,,,,777777777",
"327777777732&o<> 66&><><13&25,2>*6=<--=<63;6;2333352222222222222",
"    4446 ,532oo6<616&<<<&:33552>*6=>-4&<13714---6323=           ",
"+++***41&7532<o1:6:66&><&<&2552>*6=<41:><3757--4652=o***OXXXXXXO",
"> <-4441&7532& ::6:113<&3&32552>6=<&11:333757464652 ***=4444446&",
"><>-4441&75232  &6:;;3&3&32,55,><&<&;7777775:466352 **= 4444446&",
">-<-4441375232:33.....7,555555,<&77755555555:461352 -=< 44444463",
">4>-4441375232,,,,555555555555,7375555,,,,,,<46;352<-=> > 466413",
"<4==464137573327555555552222222<< -----=3,7:o461:52<-=< <44;6413",
"<6==411:2757<******=<:72:4****+*-4---444657=O466&52=4= <>44;=413",
"<<>>41<:2757**-----&=7324**&-4-466444646157<O46165264=> 441;>1;3",
" ><<1<&37757*4666661:5324*-<466666666111;57<$46;1524;&:6661;&&33",
":::::3277757*6666661:5224*-*41=616666131;57<$46.152;772;;;;22333",
"3227775555,7*6666661:5224*-641>6:66161:1.57<$46;;517555555555772",
"555555,,,222*61:6661:5724*-141<6&66:61:;.574$46;3511777777555555",
"2::&< <<<<25*6: 6661:.526--<41=6466&61:;.574$46;351446131111.777",
":<@------>&5-6:<1661:.52644 41<6661&61&;.514O46;3521444**6622223",
":@--66666>256;:>=661:.52=61>6<=1661&61&;.;74O46;352&41444---6 73",
":-4661166;&5$ > >661:.5731$>> <&66&=61&37,74O46;352 &&4466111=73",
":-461:&66;&5$ < >661:.5,3>$>6>6<16==6642,,1<+16;352O>>4166;:&:72",
":-461&<-6;35O>>> 66;:.5,3<$o661<&6<>46;25;4<+>61.52+><41:6;: :72",
":-461&-46;35Oo= =66;:.552&+o61= <1 -41;75;2<+<1;.52o>>41&6;&>372",
":64666666;35oO< >16;:..523@O1<><><6411;7572=>=1.;72>><46&6;& 377",
":O6161666;35@O=><<6;:..573<o><=61;;;;;.7572377;;2;;&323333333377",
":O@<6>666;35 O =>>6;:3.5732<<6;;;;5.1;.55723211;1335555555555557",
":O@<6 616;35=O4 ><6;:3.5,227,,,551,,11;.,72311;2;61;227777777777",
":O@>1<6;6;353$6><<6;:3;5,22277777622.66111661;===16444========73",
":O@<<>616;352$6<4=6;:3;.,7:======-6==;64-461>@@oo**********6o=73",
":+@>> 616;5,2$1<6<6;:3;;57-ooooo***4oo**********************6:,2",
":+@4><61;35,2$<>1 6;:3;1.5-XXXXXXXXX>$O------------------466=3,2",
":o@4<>61<3572O>>.>6;:3.;164-X44444446<>o444461116444444446&&&3,7",
"2o<4><1;&3572+<<><6;:37;11;<<<4644646&>>46441&&&644464&461&<&3,7",
"2@>46<3335,72@><<>1.:37;1;.oOo4144146&><41461&< <64414<411=>&3,7",
"2==6133335,72  ><<<&:37.;1,@O+4144141&4>1&41&=<<><4614*41:< &357",
"2751;33335722=::::::3375.;1>O+414416;&41= 41&<--<>41&6141:==&357",
"3336;55,5,727777777777755..<+@41661;;&11& 41&>61&<41&1=61:==&357",
"2224112,,,7277555555555555,< &6&;;&&&<>&&<61&<11:>61&=>1;:< &357",
"2=>***4<:22377,,,,,,,,,,,,7327;,,,,,3&&=<=1;&==::=1;:===::==:357",
"2>*XXXXX44><&:3277777777772322777777,23333;;333333;;3333333335,7",
"2>*X-<-----XXXXXXXXXXXX==&::332222277,,,,,..,,,,,,..555555555,72",
"2>*X-<*--6:-------------6<o>>>>><232777771;77,,,,,;.,,,,,,,,7722",
"2>*X-<*--6:=*--<---16---6=oOOO+o=723222761777777771;777777772223",
"2>+X-<*>-6: *----*-6=*--6=><>>>=:57326---:2223331-4611;222223333",
"2>o>-===-1:>*-6-<*-6=*1-6=><>>>:35722-666:OO@334******41+o@ =223",
"2><:::::6;::6;:::6;::;661::::::337572:661:@@@:3*464446641><>O 53",
"2<:77777;777;7777;;;;;;;77777777775,2@61: : <:2*6:46:6:61<><>353",
"2755555555555555.........5555555555,27.;3:::::2:: 46::=61>><<353",
"32777,,,,,,,,,,,,,..,,..,,,,,,,,,,,,73..75555573331;3331;3333353",
"333322222222777777;;77;;77777777777773333777777335..555..5555553",
"7777777777777777777777777777777777777777777777777777777777777777"
};
