/* XPM */
static char *wolfstein_texture_821659569481[] = {
/* columns rows colors chars-per-pixel */
"64 64 32 1 ",
"  c #00008C",
". c gray49",
"X c #353535",
"o c #646464",
"O c #464646",
"+ c gray10",
"@ c #000032",
"# c #595300",
"$ c #3E3E3E",
"% c #282828",
"& c #0000A9",
"* c #0000B5",
"= c #00009C",
"- c #0000C1",
"; c #000016",
": c #858500",
"> c #535353",
", c #00007F",
"< c #000073",
"1 c #00004C",
"2 c #000059",
"3 c #000066",
"4 c #00003F",
"5 c #000029",
"6 c #490000",
"7 c black",
"8 c black",
"9 c black",
"0 c black",
"q c black",
"w c black",
"e c black",
/* pixels */
"X333333333333333333333333333XX3333333333333XX333333333333X33333X",
"+333333333333333333333222144553333333321111553333333311555<<<<2;",
"73331343324<<433344314444555773322133211115773,<,<,,,,,247<<1217",
"732412,,233<<<33314422444455773233122414355773<,,3, <,324733<257",
"731342,,,222<<43332445411145773211224145555773,<3 ,<321157154457",
"7314322,,2423422334115411145773313345551455773,3 * 3,32547215557",
"7322334232422422244114544445773331145111545773<,3,,33<4457245557",
"7332333424422212214445;;5;;5773314111414555773<,<3<<<34547255557",
"7324233124142241@@@145;;5;;;773211513345455773< <<,3332557777777",
"7311134442214444@;;@445;54;;773115441155555773<,3<331215572<<<37",
"7241311112221414@;;;45444555772144511545555773<,,3,31145573<2<17",
"72124431142214444;;;5444455577214545155555;773<,,<31324557231257",
"7242451145454554466666666666666666666666666666666222414457232557",
"72244455555455556#::::::::::::::::::::::::::::::#621244457114557",
"724255554555555;6:#6666666666666666666666666666#:613154457455557",
"77777777777777776:66.666.6.6.6...6.6.6.6.66..6.6:62115;557777777",
"3,<3<33333<333376:6.6.6.66.6.66.66.6.6...6.666.6:64244;;;75     ",
",<323,<3133432476:6.6.6.66.6.66.66.6.6...6.666.6:62 245;;71  &, ",
",<221112422442276:6...6.66...66.66.6.6.6.6.6.666:622445;;73 &-&<",
"<3233111242444476:6.6.66.6.6.66.666..6.6.66..6.6:6214545573  &< ",
"312<,144124244476:666666666666666666666666666666:621445457<  <3<",
"3312<141443214476:666666666666666666666666666666:614414557,  < 3",
"<1412324423324476:666666666666666666666666666666:654111457< <,<3",
"<31<<<42241334576:666>>>>>>>>6>>>6>>6>>>>>6>>>66:645414457< <32,",
"<<21<<22244544576:666666666666666666666666666666:645544;;73  <  ",
"<3141145424544476:66>>>6>>>6>>>>>6>6>>>>>>>>>>66:644555;;73 < ,<",
"3241<241245454476:666666666666666666666666666666:6215445;73   <3",
"<2<224<144555;576:66>>>>>6>>>>>6>6>>>6>>>>6>>>66:6245444571   <<",
"31144<<<144545576:666666666666666666666666666666:6214544571 <  3",
"321421<<215;;5576:66>>6>>>>>>66>>>>>6>>>>6>>>>66:64445;;571  ,<<",
"21221412215;;;;76:666666666666666666666666666666:61555;;;71  <23",
"211411414445;;576:66>>>>6>>>>6>>6>6>>>>>>>>6>>66:614544;;71 < <2",
"21325445445555;76:666666666666666666666666666666:6324545;71 < 11",
"2321145455455;576:66>>6>>>>6>>>>>>>6>>>>>6>>>>66:6222155571  121",
"42214444455555;76:666666666666666666666666666666:6422145575 < 22",
"4114544445;5;;576:666666666666666666666666666666:6451454575 <221",
"415545444555;;;76:666666XoooX6666666666666666666:6244545575<<211",
"424545555;55;;;76:66666Xoo77oX6666>>>>>>>>>>>>66:6545454575<2121",
"41215455555;;5;76:66666o7o7ooo666666666666666666:6555545575<2221",
"4214554555;5;;;76:66666o77777o6666>>>>>>>>>>>>66:645;;55;7522242",
"77777777777777776:66666ooo7o7o666666666666666666:645;;;557777777",
"77777755551114556:66666Xo77ooX66666OX6666XO66666:6555;;557755557",
"7723<,,,,,,,,,,,6:666666XoooX666666O>>>OXO>OO>>6:6;5;;55;7755457",
"773,,,,,<3<,333,6:666666666666666666666666666666:677777777755557",
"773,<<3<<,,, 3,,6:666666666666666666666666666666:677777777777777",
"77,,,<<<22< ,,2<6:#6666666666666666666666666666#:6,,,,,,,,,<<<37",
"77,3<3<<222,, 116#::::::::::::::::::::::::::::::#6<<33<<<33<,317",
"77,,<  <32232,,3,666666666666666666666666666666663<3233<32,,2217",
"77,,2   133<<433=32555;;;77525557723<32<2<5577,,<<3,,23<21425147",
"77,,,,  ,1<34313324224;;;7751555773<<314155577,<,<3<<3<322344457",
"77,3,233,<222,335424455;;777777777231145555577,,<<33232213112557",
"77,<22, ,3131133444254455777777777777777777777,<3322,<32<4522557",
"77,3,3 * 2232141345454445772223333333222115577,<322<324241224547",
"77,<,3, ,3433122444554445772321312331234455577,33<21213141315457",
"77,3,3<<111222221545455557722111333<2111544577,,3221141222154457",
"773,323443132241545454555773133<23233321444577,<3244454124555547",
"77,3,<11<44332;;444545555773313214123321455577,<,<3155544454;;57",
"77,3,321451545;;;44455445772132134122214555577,,334424554445;;;7",
"77<311133151545;;44415445772314441544144455577<232,2445454545;;7",
"77<355123242454554444;;55771234545454454445577<,3425545;;5454557",
"773311512244445544545;;;5771214554544545455577342412454;;;555557",
"+532412554544455445555;;55514545555554555555553241445455;;55555;",
"%%245151555555555+++++++5%%114555555@@@+++++%%1455554555555++++%",
"XX<,,,,,,,,,XXXXX$$$OOOOXXX<,,,,,,,XX$$OOOOOXX<,,,,,333XXXX$$OOX"
};
