/* XPM */
static char *wolfstein_texture_331659569480[] = {
/* columns rows colors chars-per-pixel */
"64 64 32 1 ",
"  c #EA0000",
". c #CE0000",
"X c #3E3E3E",
"o c red",
"O c #646464",
"+ c #313131",
"@ c red",
"# c gray36",
"$ c #4B4B4B",
"% c #2C2C2C",
"& c gray10",
"* c #490000",
"= c #B30000",
"- c #580000",
"; c #F70000",
": c #670000",
"> c #DC0000",
", c #920000",
"< c #535353",
"1 c #353535",
"2 c #840000",
"3 c #282828",
"4 c #464646",
"5 c #A00000",
"6 c #750000",
"7 c #C00000",
"8 c black",
"9 c black",
"0 c black",
"q c black",
"w c black",
"e c black",
/* pixels */
"1111111111111111111111111111111111111111111111111111111111111111",
"<1<44444<444444<414444444<<<<<<444444444<<<<<<<444411144<<444441",
"1@@;;;;;;;;;744<@@;;;;;;;;;;;;;;;;;;741<@@@@@@@@@@;;;;;    >>>74",
"4@ ..;57;5 7634<@>5>5>5>,>=>=>,>,> 72341;7 . .. 2 , . 5.7, = 7,3",
"4;7,757=2752634<;>55752772=772=727=2:34<;77,675257,57757,57:7263",
"4;,772=7727:*34<;5>75727572725,72=,2:344;276576727,75767=,7,72-3",
"4 7,5=,72572*34<>>5755=7252752=,5272*314>27,7567227727577,7:75-3",
"4>,7727=2=2:*344> 572727272=52,72=,2:314>=7657,525,75767,57,72*3",
"4>725:2,:252*31<==22-52252-25252-522*314>22:22-5-2:5-2-56-2525*3",
"4,666********314,66:::::::::*********31456666666666:::::::::***3",
"4433333333&&&31<433333&&&&&33&&&&333334<133333333333&&&&&3333333",
"<1111444411111414444444111<44411444444<14<<<<#OO#<<44X1X<1<444<1",
"@;;;>>>>>>>>>>>74<4@@;;;;;;       >>>>>>>>>>>>>>>>>>74X<@@;;;;;;",
".55.=,.,=5.6.57*14<@2. ,>65>55 =75,575757, 6 5=> = 7*141@ ,.5.5.",
"5757,5567565772*344;.27,7757672657,7,767756757257272*14< .,75,7=",
"2775=67,55=6752*314;275=55655275675,6,557:5,72727722*3X4 ,777,7,",
"75575,,5,7=6762*314;277,7657627657,5,7675:7672527272*314 .,7,7=,",
"276725,=6765772*34<;.:7,7565:52675,:,765:57657257272*&14.,77:7,5",
"2.62-,2=2=2:=22*34<.725:2=25625:2=2=65255:=225-2=252*&X<.7,2:2=2",
"*------------***14<76666666666666::::::::::::::::::**&4176*6**6*",
"333&333&&&333&&314141+333333++11+333&&&&&333&&&&3333314<43333333",
"<<4114<1<144111144<444X1X1X1X444<1<4X111XX44<X11X444<4<1<X1X<444",
"<@@;;;;;;;>>>>>>>>>>>>>>>>>74<<@@;;;;;;;;;;>>>>>>>>>>>>>>>>>>>74",
"<@5.>,>,>,.5.5. 5.5.5>.6. 2*14<@>2;7.57.5.=.,675257,57=57,57:7*3",
"1@.57=7,25775=575672756572.*34#;>=767652=5676576727,75767=,7,2*3",
"4>67725:767275=765725756,72*3<O;>,7,7672=7,7,7567227=2=577,7:2*3",
"4>.57-7:25752,7,56,7675672:*3<#;272=565=2765657,525,75767,57,2*3",
"<>267-5,767:767565756765,,.*34<; 27275752767:22-7-7:7-7756-252*3",
"4 76222:2-225652252262=2=22*31< 72=25:22226525-7:27-25-7:7-722*3",
"47=66666666666666---------**31<766666666666666::::::::::::*:,:*3",
"4413333333333333333311133333344433333333&&&&&31113&&&33333333333",
"<<<<<44141114<OO<<<444XX11X11X<444<1<4<4X1X1X4<<44X1X444<1<444<1",
">>>>>>>>>>741<;;;;;;;;>>>>>>>>>>>>>>>>>74<< @;;;;;;;;;>>>>>>>>>>",
"7.7.= .. 7*141;7672776757727567767727,7*14<;7,727767,5,72757,727",
"7,57=7,752*34<;67,57,7=2755255756725767*1<<;7:72756757,55=2=,=52",
"5,7=,7,=72*341;677,=7272757:7-55752=7,7*1<O;7,72757577,72=57=,72",
"75,7=7=,52*14<;=67,7,:=55525767565=257,*1<O;,7727677,,7,75==5,25",
"75,7,7,=72*144;67,:=725575725-6=67=27,7*14< 7,772755,7,72=57,572",
"225=22=222*144=677:7,272767:56756=2=76,*34< 7:72775757,72=2=,772",
"**-------**3447666666666::::::::::::::**3447666666666666666::::*",
"3333333333334<43&&&&331113&&&&&33333333314443333114133&&&3333333",
"<4<14114411114411144444<<44111<444<1414144<4<1<4<#O<$441<4<4<1<1",
"1@;;;;;;;>>>>>>>>>>>>>>>>>>>>>>71<1@@;;;;;;;;>>>>>>>>>>>>>>>>>74",
"<;7557677,=7,725767,75767677,27*14<@776767:727:75:=5275,7,=257*3",
"4;7675675=,765:7=67:5=567,7,72=*344;57656,:5:=,7:76725275,=765*3",
"4;56765267675,576=55:,7-=:56552*314;576657,:7,:=7:722727,72567*3",
"1;7575675,=7,7:5767:57:=7,7772,*314;767567:72=,,:567,5=5=,2757*3",
"<;76576767676727667:5,7,56=6527*&1<;76676,:7:7:=:765272,7,=562*3",
"1 7676525=,75557=65,:67-72=,727*&1< 276567:,7,:=25672727,=2767*3",
"<7666666666--------------------*34<7666666666:::::-----------**3",
"1433333333331113&&&&333&&&&33&&33414333333&&&3+1+3&3333&&&333333",
"<1<1<4<4444<OO<4<1<4<4X111X4<44144<1<44444444$<<<$44441%&&%144<4",
";;;;;>>>>>>>>>>>>74<4@@;;;;;;;;>>>>>>>>>>>>>>>741<@;;;;;>>>>>>>>",
",7:776=67, ,767,7*344;777767-7,76767=76767:726*14<;7657:72727672",
"7,,7,76=,67:,6565*344;,72762-,=,7565=6,525:767*+4<;67:727257275-",
"7,:,76=6,7,:756=,*34X;,,276,,7:7-77676765:5562*34<;6722775252625",
",=:=66767,7:,2676*34X;7-2767-7,=6765,67675:2=6*34<;76:7522727627",
"67,76765767,:57,5*34X;-7767,25:,-7676,,652:526*344;675727522:727",
"67,,6==6=6,:7676=*344;-7276,,5-=65-7,67567:7:5*314;67:2:7272:67-",
",=:76656,,7:7625,*34< 7-2767-567672676,7652565*314 66:7:72727672",
"----------------**3447*****------------------**&4<7**-----------",
"33333333333333333334<41++33333333333333&&&&&3&&&144333333&&&&&33",
"1<1<11144444<<14444<<<<<444<444<441444X11X11X4X1X<441<4444X1X444",
"<<<<<<<<<<<<<<<<<<<<<<<<<<<<<<<<<<<<<<<<<<<<<<<<<<<<<<<<<<<<<<<<"
};
