/* XPM */
static char *wolfstein_texture_711659569480[] = {
/* columns rows colors chars-per-pixel */
"64 64 32 1 ",
"  c #000032",
". c #000073",
"X c #000066",
"o c MediumBlue",
"O c #0000A9",
"+ c #0000F1",
"@ c #0000E5",
"# c #000029",
"$ c #0000D9",
"% c #00008C",
"& c #00009C",
"* c #000059",
"= c #0000C1",
"- c #00004C",
"; c #0000AD",
": c #0000B5",
"> c #00007F",
", c black",
"< c black",
"1 c black",
"2 c black",
"3 c black",
"4 c black",
"5 c black",
"6 c black",
"7 c black",
"8 c black",
"9 c black",
"0 c black",
"q c black",
"w c black",
"e c black",
/* pixels */
"-*-&;:=$$$$$$$$$$$$$$$$$$$$$=:;&-*-&;:=$$$$$$$$$$$$$$$$$$$$$=:;&",
"-*->============::::=:=:=:=:=:=%-*->============::::=:=:=:=:=:=%",
"-*->==:===::=::::::::=:=:=:::=:%-*->==:===::=::::::::=:=:=:::=:%",
"-*->::=::==:::;:::::=:=:=::::;:%-*->::=::==:::;:::::=:=:=::::;:%",
"-*->:=::::=::;:;=::=:::=:=:=;:;%-*->:=::::=::;:;=::=:::=:=:=;:;%",
"-*->::=:::::;:;=:=:;::::;:=;:;;%-*->::=:::::;:;=:=:;::::;:=;:;;%",
"-*->:::=:::;:;:;=;=;;:;:;;;;;;:%-*->:::=:::;:;:;=;=;;:;:;;;;;;:%",
"-*->::;:;;;;;:;:;;;;;;:;=;;::;;%-*->::;:;;;;;:;:;;;;;;:;=;;::;;%",
"-*->;&:&;;;;&;:;;&;:;:&;;;&;;&;%-*->;&:&;;;;&;:;;&;:;:&;;;&;;&;%",
"-*->;%&;&%;&;&;&&;&&;&;;;&;%&;&%-*->;%&;&%;&;&;&&;&&;&;;;&;%&;&%",
"-*->%%%&%&%;%;&%;&%&%&%&%;%&%;&%-*->%%%&%&%;%;&%;&%&%&%&%;%&%;&%",
"-*->&%&%&&&%&%%;&&&%&%&%&%&%&%%%-*->&%&%&&&%&%%;&&&%&%&%&%&%&%%%",
"-*-...X*---            ----*X...-*-...X*---            ----*X...",
"-- ############################# - ############################ ",
"----------------------------------------------------------------",
"****************************************************************",
"===$$==$$$@@@@@@@@@@@@$$$$======$$=====$$$@@@@@@@@@@@@$$$$==$$==",
"::=::==:::;:::::=:=:=::::;::=::==:::::=::==:::;:::::=:=:=::::;:;",
":=::::=::;:;=::=:::=:=:=;::=::::=::;:=::::=::;:;=::=:::=:=:=;:;;",
"::=:::::;:;=:=:;::::;:=;:;::=:::::;:::=:::::;:;=:=:;::::;:=;:;;;",
":::=:::;:;:;=;=;;:;:;:;:;=;:;:::;:;=;=;;:;:;:;:;=;=;;:;:;;;;;;:;",
"----------------------------------------------------------------",
"****************************************************************",
">>>>>>>>>>>>>>>>>>>>>>+ooo-*>>@$o$o@$$$@@@+>>>>>>>>>>>>>>>>>>>>>",
">>>>>>>>>>>>>>>>>>>>>>$::;-*>>$:::::::=::==>>>>>>>>>>>>>>>>>>>>>",
">>>>>>>>>>>>>>>>>>>>>>$:;=-*>>$::::::;::::=>>>>>>>>>>>>>>>>>>>>>",
">>>>>>>>>>>>>>>>>>>>>>$::;-*>>@==:&&&O&&&&&>>>>>>>>>>>>>>>>>>>>>",
">>>>>>>>>>>>>>>>>>>>>>$::;-*>>@:::&-------->>>>>>>>>>>>>>>>>>>>>",
">>>>>>>>>>>>>>>>>>>>>>$::;-*>>$::;&********>>>>>>>>>>>>>>>>>>>>>",
">>>>>>>>>>>>>>>>>>>>>>$::;-*>>$:;:O>>>>>>>>>>>>>>>>>>>>>>>>>>>>>",
">>>>>>>>>>>>>>>>>>>>>>$:;=$$@+$=:=&@$$$$$$o>>>>>>>>>>>>>>>>>>>>>",
">>>>>>>>>>>>>>>>>>>>>>$::;:=:==:::::::::::;>>>>>>>>>>>>>>>>>>>>>",
">>>>>>>>>>>>>>>>>>>>>>$:===::==::::::;:;:==>>>>>>>>>>>>>>>>>>>>>",
">>>>>>>>>>>>>>>>>>>>>>o&O&O&&&O:;:%%%&%O;=;>>>>>>>>>>>>>>>>>>>>>",
">>>>>>>>>>>>>>>>>>>>>>--------&;::&----$:==>>>>>>>>>>>>>>>>>>>>>",
">>>>>>>>>>>>>>>>>>>>>>********&;::&****$:==>>>>>>>>>>>>>>>>>>>>>",
">>>>>>>>>>>>>>>>>>>>>>>>>>>>>>&:::&>>>>$=:;>>>>>>>>>>>>>>>>>>>>>",
">>>>>>>>>>>>>>>>>>>>>>@@@@@@@@&:==&>>>>@::;>>>>>>>>>>>>>>>>>>>>>",
">>>>>>>>>>>>>>>>>>>>>>=::::=::::::&>>>>@:::>>>>>>>>>>>>>>>>>>>>>",
">>>>>>>>>>>>>>>>>>>>>>==::=:::::::&>>>>@=:;>>>>>>>>>>>>>>>>>>>>>",
">>>>>>>>>>>>>>>>>>>>>>O&&&&&&&%&%&%>>>>+==:>>>>>>>>>>>>>>>>>>>>>",
">>>>>>>>>>>>>>>>>>>>>>------------->>>>---->>>>>>>>>>>>>>>>>>>>>",
">>>>>>>>>>>>>>>>>>>>>>*************>>>>****>>>>>>>>>>>>>>>>>>>>>",
"===$$==$$$@@@@@@@@@@@@@@@@@@@@@@@@@@@@@@@$@@@@@@@@@@@@$$$$==$$==",
"::=::==:::;:::::=:=:=::::;::=::==:::;::=::==:::;:::::=:=:=::::;:",
":=::::=::;:;=::=:::=:=:=;::=::::=::;::=::::=::;:;=::=:::=:=:=;:;",
"::=:::::;:;=:=:;::::;:=;:;::=:::::;:;::=:::::;:;=:=:;::::;:=;:;;",
":::=:::;:;:;=;=;;:;:;;;;;;:::=:::;:;::::=:::;:;:;=;=;;:;:;;;;;;:",
"################################################################",
"----------------------------------------------------------------",
"****************************************************************",
"$$$$$$$$$$$=:;&-*-&;:=$$$$$$$$$$$$$$$$$$$$$=:;&-*-&;:=$$$$$$$$$$",
":::=:=:=:=:=:=%-*->============::::=:=:=:=:=:=%-*->==========:::",
"::::=:=:=:::=:%-*->==:===::=::::::::=:=:=:::=:%-*->==:===:::::::",
":::=:=:=::::;:%-*->::=::==:::;:::::=:=:=::::;:%-*->::=::==:;::::",
"::=:::=:=:=;:;%-*->:=::::=::;:;=::=:::=:=:=;:;%-*->:=::::=::;=::",
"=:;::::;:=;:;;%-*->::=:::::;:;=:=:;::::;:=;:;;%-*->::=:::::;=:==",
";=;;:;:;;;;;;:%-*->:::=:::;:;:;=;=;;:;:;;;;;;:%-*->:::=:::;:;=;;",
";;;;;:;=;;::;;%-*->::;:;;;;;:;:;;;;;;:;=;;::;;%-*->::;:;;;;;:;;;",
"&;:;:&;;;&;;&;%-*->;&:&;;;;&;:;;&;:;:&;;;&;;&;%-*->;&:&;;;;:;;&&",
";&&;&;;;&;%&;&%-*->;%&;&%;&;&;&&;&&;&;;;&;%&;&%-*->;%&;&%;&;&&;;",
"&%&%&%&%;%&%;&%-*->%%%&%&%;%;&%;&%&%&%&%;%&%;&%-*->%%%&%&%;&%;&&",
"&&%&%&%&%&%&%%%-*->&%&%&&&%&%%;&&&%&%&%&%&%&%%%-*->&%&%&&&%%;&&&",
"      ----*X...-*-...X*---            ----*X...-*-...X*---     ."
};
