/* XPM */
static char *wolfstein_texture_571659569480[] = {
/* columns rows colors chars-per-pixel */
"64 64 32 1 ",
"  c #653E17",
". c #F58950",
"X c #5B3913",
"o c #432C0F",
"O c #FF8D54",
"+ c #E8814C",
"@ c #78461C",
"# c #814B20",
"$ c #B36437",
"% c #DF7D48",
"& c #AF6032",
"* c #8F4F25",
"= c #985729",
"- c #BC683B",
"; c #A15C2E",
": c #C9713F",
"> c #D17943",
", c black",
"< c black",
"1 c black",
"2 c black",
"3 c black",
"4 c black",
"5 c black",
"6 c black",
"7 c black",
"8 c black",
"9 c black",
"0 c black",
"q c black",
"w c black",
"e c black",
/* pixels */
">>>>>>>>>>-@@**;;&&-->+.;*****;--:%%%%%%%:;.%%%%%%%%:*+>>>>>>>>>",
">>>>>>>>>-@@***=;;&&-+..******---:=:%%%%:;.%%%%%%%%:*+>>>>>>>>>>",
">>>>>>>-@@@@***=;;&&->.$;****;--:=**:%%::.%%%>>>%%:*-+>>:>>>>>>>",
">>>>>>-@@@@**===;;&&-:.$$;**;->:==***=::;.%%>>%%%:**+>>>>>>>>::>",
">>>>-;@@*@**==;;&&&&->;$$$;*-::==*=*=**;.%>%>%%%:@@=+>>>>>>:>>>>",
">>>-;@****==;;&&---:%;$$$-;*:$;;*=****#.%%>>%>%:@@@+>>:::>>>>:>>",
">--#@=*=*&&&---::>>;;$$$-*+:$;=====*=#+%>>%:%%:@@@@;>>>>:>:>:>>>",
"-;#@**==&----:%%%;;$$$--:+:$;;==;**=#>:%::>>%:*@=$*@;::::::>>:>>",
";@@#&----::%%>:;;;$$--:+>>$;;=;=;=;=#:>%:>:%:*=$$$**@;$>:>:>:>>-",
"@#==-%%%%%>%>;;;$$$-::+>:$;;;;===;=#&$>:::%:*=$$:****@;:>:::>:-;",
"=&--:%%%%%%;;$$$$-:::+>$$;;;=;;;=;#=&;;:>::*;$::$**=*@;;-:>:--=@",
"-->::$>%>;;**$$-::::+::$;;;=;;;;;##-&;**::*;-::>;=***@***-:-;;#&",
">>$====-:;-;%*--:>:+:$$;;;;;;;=;*#=:&;;**;--::>>$*==*@@@@*;;=&--",
"$$******--->%&**::++-$;;;;;=;;;=#=&+-&;*--&&:>>+:$==*@-;@*;&---+",
">:$$****--::>%&**++++-;;;;;=;;;*#&>>>&;--&;:>>+>>:$=*@;-*;----+>",
">>>>:$**--:>:%&**+%++--;;;;;;=*@-->>>-;-&;$>++%%>>$$*@#;------+>",
">>>>>>>=--:=>>:&+>%%%+--;;;;;*@ ->>>>-$&;$>+%%%%%>:--;#------+>>",
">>>>>>-=--&;=:&*%++%+++-;;;;*# ;->>>>>$;:>+%%>>>%%:*=;==-----+>:",
">>>>>-=----&;=-%>>>%>%++-;;*# *-->>>>:&:>+%>>>>>%:**=;;==---+>:>",
"::>>-=-------*+;>:%>>%++:-*# *;-:>>>;-:>+%>>:>>%:***=;;;=--+>>::",
"::>-=---;----+-;;:>>>%+%+-#@@*;-:>>#;:++%::-:%::***=;;;;=--+>>:>",
":>-=-->$;;--:+;;;;:%%%++>#@**;;-:>#;:+%>:--:%:%:;;>>>-;;=-+>::::",
"--=->>$;;#-:+-;;;;;%>++-*****=;-=#;@;::$-:-&:>:*>;>>>-;=--+:$>--",
"-=->$;;;*#;:+;;;;;=*>-;&*;;=**-#&.;@@;-::$:--:*&;-->>>-=-+>::$->",
"=-.;;;;;#=:+-;;;;;=*:>:&&&&;;;#=:.;@@@;-::->:*--=;-->>--->:-$$:$",
"-.>>;;;##-+-;;;;;=*&>+::&&&&;##::+>;@@@--::-*&-;=*---+--:-$-$$$=",
".>>>>;*#-%+-;;;;;=*>+::::&&;##@:+>>>;@@&-->*&>-==*::;;->-&$$-$=>",
">>>>-##=%+-;;;;;;*&+:::::&&;#@@>>>>>>;@=$==&+-&;*;::;;>-;*&$$=>.",
">:>>&##:%.-;;;;;=*+:::::::;#@;-=;>>>>*;===->:-=;*;%:->-;*##&=>.>",
">:>-=#:%.-;;;;;=*&:>:::::&#@;-:&=;>>-*==-:>+-&;*;;;;>-;=*##*-.>:",
"::>&#-%.-&;;;;;=*>::::::&#*;->&;&=;-;;&->>.+-;;*-;->-;;*==#=->>>",
"::-#=%.>:-&;;;=*&>:>:>:&#*;->&&&;;=;*&->>..-&&*;-->>--;=#  ->-::",
"::&=:+>>>:-&;;=*:%>:::&#*;->:;;;&;=@;&:>..O&&;*-->>>>-#   @*--:>",
">-=:+>>>>>:-&=*&:%>>>&#*;-->&;&;;=@*;&:..O::&*;->>>>>#   #*@=->:",
">==>+>>>>>>:-&*;-:%>&#=;-->:&&;&;@#*;-%..%%:;*->>>>>#   #=&*@=::",
">=:+>>>>>>>>:;;$-:&&#;;-:>>:-&;;=##;:+.%%%%%=;>>>>>-   #=&==*@->",
"--+>>>>>>>>-;;;$-&##-->>>>:::-&=@**;-%%%%%%-=->>>>>#  #==&===*->",
"=+>>>>>>>>-;;;;$&#==>>>>>>::::-@**$:-%%%%%%==>>>>>=  #==&===*&--",
"@>>>>>>>>-;;;;;&#-=*:>>>>>::::-@#;$::%%%%%$=>>>>>- ##===&===*;-=",
"@@>>>>>>-;;;;;=*:$=#=>>>>>>:::;##*;::%%%%%;>>>>>>= #=&>&====#;-@",
"@@@>>>>&***=;**::$=##=>>>>>::$***###&%%%%$@;&>>>- ==:>+&&==*#==@",
"*#=@>:&&***==*:::==##*:>>>>:$*****###&&:$=@@;&>>==&:>+.:&==# #=@",
"#**=:&&;;**=&::>$==*##*>>:->;;=*=;==#;&:%-=@@;&-&-:>+.+>&&=   #@",
"*==:&&;&;&=*&:>:==*#=#*=:->;;=;=***=$::%.>-=@@*&-::>.+>>:&*@ #@@",
"*=:&&;&;;;&&::>$==#****=->$;=*==*==;$:%.+%>-=@=-::>.+>>>>&;@ @*@",
"=:&&;&&;;;;::>:==*#*===-%>;;;;=;=;;=::.+%>:>-=;::>++>>>>>&# @ @=",
":&&&&;&;&&::>>$=*====##.%$;=;=**=*==::+%>>>>>-&::>.>>>>>-;@@ #&-",
"&&&;&&;;&&:>%:====*=##>.$;;;;;;;=*;$:+%>:>>>>>&:>%>>>>>>-&  ##::",
"&&&;&&&&&:>>%$====*# &.%-&;;;=;==;;::%>>>>:>>&&>%>>>>>>-;@# =::&",
"&$&&&;&&:>>+$====## &.%:--&;;;;;===->>>>::>>>&-%>:>>>>>-&@#=:%:&",
"&$&$$&&::>+$====##  >+>>:--&;;;;;;*&>>>>>>>>&-%:>>>:>>-;##=:%&&&",
"&$$$&&&:>+%>-==#@  =.%>>>:--&;;;;;*&->>>>>$&->%>::>>>>-&#=&>%>&&",
"$&$&$&:>+%>::-==   >+>>>>>:--&;;;=*=->>>>&=->%::::>:>-;*#=:%%:>&",
">&$&&:>+>::::&=@  =.%>>>>>>:--&;;*@=;->>>=&>%->->>:>:-&**&%%>>>:",
">:$&::+>::-::=@   >+>>>>>>>>:--&;*#==->>=&-::-:-:::>-;**&>%>>:>:",
">>--:+::::::-=@  =+%>>>>>>>>>:--=#@*=;-=&->-:--:-->:-&**&%>:>>>:",
">--:+:::-:::-=  =:%:>>>>>>>>>>:-@@@*==;=->->:-:--::&;**&%>:>>>::",
"---+::-:::---=  =%>>>>>>>>>>>>>=Xo **#*&::-----:--:&**&:%:::>:>>",
"--+:::::-$:-&@ =:>:>>>>>>>>>>:=@Xooo@=&:-$$;-;---:&;*&:%::>:>>:>",
"---::--$---:&@ ->:>:::>>>>>>:=XXXXXXo&;$$;;$;-$$--&**&%::::>:>>>",
"-=-$--:$--$-= =::::::::>>:>:=XXXXXXXX $;;$;$-$-;:&;*&%::>::::>::",
"##==$$-$$-$-= --:::::>:>:>&= @XXXXXX  @;;;;;$$$;-&*&%::::::::::#",
"####=$-$$--& -----::>::>:&  # XXXXX    @;;;-;;$:&;*-::::>::>>::#",
"######=$$$-=--------:>>$& ==#XXXXX   @@@=;;;$$$-;*-:::::::::::##"
};
