/* XPM */
static char *wolfstein_texture_351659569480[] = {
/* columns rows colors chars-per-pixel */
"64 64 64 1 ",
"  c #920000",
". c #D0C500",
"X c #B9AE00",
"o c #F70000",
"O c #DC0000",
"+ c #3E3E00",
"@ c #670000",
"# c #B30000",
"$ c #FFF400",
"% c black",
"& c #EA0000",
"* c #CE0000",
"= c red",
"- c #3E3E3E",
"; c red",
": c #2C2C2C",
"> c #646464",
", c #313131",
"< c gray36",
"1 c gray10",
"2 c #A00000",
"3 c #750000",
"4 c #E9D900",
"5 c #535353",
"6 c #840000",
"7 c #490000",
"8 c #464646",
"9 c #353535",
"0 c #726C00",
"q c #9D9D00",
"w c #580000",
"e c #C00000",
"r c #282828",
"t c #595300",
"y c #858500",
"u c black",
"i c black",
"p c black",
"a c black",
"s c black",
"d c black",
"f c black",
"g c black",
"h c black",
"j c black",
"k c black",
"l c black",
"z c black",
"x c black",
"c c black",
"v c black",
"b c black",
"n c black",
"m c black",
"M c black",
"N c black",
"B c black",
"V c black",
"C c black",
"Z c black",
"A c black",
"S c black",
"D c black",
"F c black",
/* pixels */
"9999999999999999999999999999999999999999999999999999999999999999",
"5958888858888885898888888555555888888888555555588889998855888889",
"9;;oooooooooe885;;ooooooooooooooooooe895;;;;;;;;;;ooooo&&&&OOOe8",
"8;&**o2eo2&e3r85;O2O2O2O O#O#O O O&e6r89oe&*&**&6& &*&2*e &#&e r",
"8oe e2e#6e263r85oO22e26ee6#ee6#e6e#6@r85oee 3e262e 2ee2e 2e@e63r",
"8o ee6#ee6e@7r85o2Oe2e6e2e6e62 e6# 6@r88o6e32e3e6e e2e3e# e e6wr",
"8&e 2# e62e67r85OO2e22#e60q....XqX.....0O6e e23e66ee6e2ee e@e2wr",
"8O ee6e#6#6@7r88O&2e6e6qq0yX..Xq4444444Xqqe32e 262 e2e3e 2e e67r",
"8Oe62@6 @6267r95##66w00qq000XXy......0t0qq0066w2w6@2w6w23w62627r",
"8 33377777777r98 330qq0tty4y0XyXXXX4$.4ytt0qq033333@@@@@@@@@777r",
"88rrrrrrrr111r958rtyqq44444.y0qqqqq$q..q440qqytrrrrr11111rrrrrrr",
"59999888899999898tttt044$$yyq0yyyyytqyy$$X40tttt<5588-9-59588859",
";oooOOOOOOOOOOOetqq0444.yy0.+000000t..0yy.q440qqtw6Oe8-5;;oooooo",
"*22*# * #2*3*2eqqtqt4$$yqqX0+ttttttqt0Xqqy$$4tqtqqww6989;& *2*2*",
"2e2e 223e232eetqqtttXyy00..t+++++++qqt..00yyXtttqqtw7985&* e2 e#",
"6ee2#3e 22#3etttty.ytyqytttt+++++++yyttttyqyty.ytttt71-8& eee e ",
"e22e2  2 e#3qqtty.44t0..tq0++1110rr+++qqt..0t4y.yttqq118&* e e# ",
"6e3e62 #3e32qqt444y+0tttt0111110yXrrrryttttt0+4y44tqq118* ee@e 2",
"6*36w 6#6#6+++yX4y4q0qq0t111110yyy$rrrrrt0qq0q44y4y+++%1*e 6@6#6",
"7wwwwwwwwwwt+4X4yqy+ttq0111110yyyyXqr9rrrqqtt+yq4y44+t%1e3737737",
"rrr1rrr111qqy.q4yX40qtt111110yyyyytrr99rrrttq044.yq.yqq%1111rrrr",
"5589985959qqy044yq.t0q111110yyyyytrr5559rrrq0t.qq.y0yqq%119-5888",
"5;;ooooooo0t444yX0tqt111110yyyyytrr55$$59rrrtqt044y44t0w@6OOOOe8",
"5;2*O O Oy0t4X4yX4tq011110yyyyytrr95$XX$59rrqqt44.4q4t0yww3e@e7r",
"9;*2e#e 6q0tX.4yX.tt11110yyyyytrr95$XyyX$99rrtt.XX4yXt0qw7w6 67r",
"8O3ee62@eqqtt00XX+001111t0yyyyyXt9$XyyyyX$9rr00+XX00ttqq77ww@67r",
"8O*2ewe@6qyt+000+qqt111r9t0yyyyX$$XyyyyyyX$9rtqq+000+tyqww7w667r",
"5O63ew2 eqttt44+qqq110qr99t0yyyyXXyyytyyyyX$rrqqq+44tttq77ww667r",
"8&e3666@6ytt04qtttt10yy$999t0yyyyyyytrtyyyyX$rttttX.0ttyw7ww667r",
"8e#333333t0XX4y44000qyyX$999t0yyyyytrrrtyyyyyt0044.q440t777w6@7r",
"889rrrrrrt0.44yXqtqrtyyyX$999qyyyyyy$r9rtyyytrqtqX.qq.0t%%%111rr",
"555558898t+044yyttqrrtyyyX$9$yyyyyyyq$99rtytrrqttq4yq0+t11118859",
"OOOOOOOOOqt+0qy4400trrtyyyX$Xyyytyyyyq$99rt99000444y0+tqw@36OOOO",
"e*e*#&**&qq0XX4yXtq0rrrtyyyXyyytrtyyyyq$99998qqtXX4y40qqww7w6e6e",
"e 2e#e e2tt0.4.yytttrrrrtyyyyytrrrqyyyyqq9885tttyX.y.0tt7www6#26",
"2 e# e #e6t+044y4ytytrrrrtyyytrrr$yyyyytrr950yyy44yq0+t7w7ww6 e6",
"e2 e#e# 260t+0q4yX4tyrrrrrtytrrr$qyyyytrr998yt4XX4y0+t07w77w6 62",
"e2 e e #e6XytX44y4qtq0r9rrrtrrr$qyyyytrr9850qtq4.y44tyX777ww62e6",
"662#66#666y0t.X4yy++t0099rrrrr$qyyyytrr9850qq++yyyX.t0y7w7w6 ee6",
"77wwwwwww77t+04q00t00tqq89rrrqqyyyytrr9850qtt0t00q40+t7777w@@@@7",
"rrrrrrrrrrrtt+00+4q044tt08889rtyyytrr9880tt..0q4+00+tt%%%1111rrr",
"585989988999t0ttt0444.00tX558rrtytrr990qt00.4.40ttt0t%%111195959",
"9;oooooooOO6wqqyty044yX4tq0.qrrrtrryX..qtqXy.y0ytyqqww@@66OOOOe8",
"5oe22e3ee #6w0qyt0qy4444.yy0....y.....yt.X4.yyq0tyq07wwww #62e7r",
"8oe3e23e2# e3w0tt0.q0444q.40qX.y44444yqX0..y0q.0tt0w7wwww6#e327r",
"8o23e3263e3e6wwt0tt0qyy4444y0Xy......yX4.yyXq0tt0tw7w77w e623e7r",
"9oe2e23e2 #e @ww0Xy+.y0yy44q0XyXXXXXXy..yX0q.+yX0ww77w7w@ 6e2e7r",
"5oe32e3e3e3e36www0tt+++qXyyy0yqqqqqqq0yyXq+++tt0ww77w7w @ #2367r",
"9&e3e3262# e226wwwwtqy+..qty0yqqqqqqqttq..+yqtw777w7ww6@ #6e3e7r",
"5e333333333wwwwwwwww0qt+tttttyyyyyyyyt0tt+tq0777777777wwwwwww77r",
"98rrrrrrrrrr999r1%%%%%t000ytt00000000ty000t%%%%%%11r1rr111rrrrrr",
"595958588885>>5899r11%%%yyytttttttttttyyy%%%%%11r1rrr99:11:98858",
"oooooOOOOOOOOOOOOe89r3@@w777+++++++++77777wwww711r;oooooOOOOOOOO",
" e@ee3#3e & e3e e7r89owwwwww77777777777777777771rroe32e@e6e6e3e6",
"e  e e3# 3e@ 32327r88o 6wwwww7w7w777w7w777w77w71rro3e@e6e62e6e2w",
"e @ e3#3 e @e23# 7r8-o  663ww7w77w77w777w777ww71r9o3e66ee2626362",
" #@#33e3e e@ 63e37r8-oew6e36w6w7www7w7ww7wwwww7r98oe3@e266e6e36e",
"3e e3e32e3e @2e 27r8-owee3e 62@ w6w63w@3w6@ 637r88o3e2e6e266@e6e",
"3e  3##3#3 @e3e3#7r88owe6e3  2w#3ww3 @@2we@e@27r98o3e@6@e6e6@3ew",
" #@e3323  e@e362 7r85&ew6e3ew23ew 63e3 e3262327r98&33@e@e6e6e3e6",
"wwwwwwwwwwwwwwww77r88e77777wwwwwwwwwwwwwwwwww77185e77wwwwwwwwwww",
"rrrrrrrrrrrrrrrrrrr8589,,rrrrrrrrrrrrrr11111r111988rrrrrr11111rr",
"95959998888855988885555588858885889888-99-99-8-9-588958888-9-888",
"5555555555555555555555555555555555555555555555555555555555555555"
};
