/* XPM */
static char *wolfstein_texture_201659569480[] = {
/* columns rows colors chars-per-pixel */
"64 64 128 2 ",
"   c #353535",
".  c red",
"X  c #005757",
"o  c #FF3E3E",
"O  c gray71",
"+  c #3E3E00",
"@  c gray60",
"#  c #C00000",
"$  c #007171",
"%  c #920000",
"&  c #008585",
"*  c #464646",
"=  c #DC0000",
"-  c gray49",
";  c #646464",
":  c #007D7D",
">  c #670000",
",  c #006C6C",
"<  c #9D9D00",
"1  c #717171",
"2  c #FFF400",
"3  c #580000",
"4  c #595300",
"5  c #009D9D",
"6  c #E9D900",
"7  c #A00000",
"8  c #750000",
"9  c #AAAAAA",
"0  c #8D8D8D",
"q  c #FCFC98",
"w  c #B36437",
"e  c #814B20",
"r  c #D0C500",
"t  c #008D8D",
"y  c #CE0000",
"u  c #985729",
"i  c #F70000",
"p  c #FF5C5C",
"a  c #726C00",
"s  c #00B5B5",
"d  c #535353",
"f  c #5B3913",
"g  c #007979",
"h  c #858500",
"j  c #B30000",
"k  c #009999",
"l  c #007575",
"z  c #FFF400",
"x  c #B24B00",
"c  c #EA0000",
"v  c #840000",
"b  c #CE5300",
"n  c #E86000",
"m  c #B9AE00",
"M  c #78461C",
"N  c red",
"B  c #432C0F",
"V  c #282828",
"C  c #4C350E",
"Z  c #653E17",
"A  c #003E3E",
"S  c #39280A",
"D  c #490000",
"F  c gray10",
"G  c #261A03",
"H  c black",
"J  c black",
"K  c black",
"L  c black",
"P  c black",
"I  c black",
"U  c black",
"Y  c black",
"T  c black",
"R  c black",
"E  c black",
"W  c black",
"Q  c black",
"!  c black",
"~  c black",
"^  c black",
"/  c black",
"(  c black",
")  c black",
"_  c black",
"`  c black",
"'  c black",
"]  c black",
"[  c black",
"{  c black",
"}  c black",
"|  c black",
" . c black",
".. c black",
"X. c black",
"o. c black",
"O. c black",
"+. c black",
"@. c black",
"#. c black",
"$. c black",
"%. c black",
"&. c black",
"*. c black",
"=. c black",
"-. c black",
";. c black",
":. c black",
">. c black",
",. c black",
"<. c black",
"1. c black",
"2. c black",
"3. c black",
"4. c black",
"5. c black",
"6. c black",
"7. c black",
"8. c black",
"9. c black",
"0. c black",
"q. c black",
"w. c black",
"e. c black",
"r. c black",
"t. c black",
"y. c black",
"u. c black",
/* pixels */
"G G G G G G G G G G G G G G G G G G G G G G G G G G G G G G G G G G G G G G G G G G G G G G G G G G G G G G G G G G G G G G G G ",
"B B B B B B B B B B B B B B B B B B B B B B B B B B B B B B B B B B B B B B B B B B B B B B B B B B B B B B B B B B B B B B B B ",
"Z Z Z Z Z Z Z Z Z Z Z Z Z Z Z Z Z Z Z Z Z Z Z Z Z Z Z Z Z Z Z Z Z Z Z Z Z Z Z Z Z Z Z Z Z Z Z Z Z Z Z Z Z Z Z Z Z Z Z Z Z Z Z Z ",
"G G G G G G G G G G G G G G G G G G G G G G G G G G G G G G G G G G G G G G G G G G G G G G G G G G G G G G G G G G G G G G G G ",
"G G B C C C C G Z G G Z S G G G G C C G B G B G G G Z G G Z C G C G Z G G Z S G G G S G Z G G Z G C G G C G C G C C G Z G G Z B ",
"G G B C C C S G Z G G Z B G G G G C C G B G B G G G Z G G Z C G C G Z G G Z C S G S C G Z G G Z G C G G C G C G C C G Z G G Z B ",
"G G S C C 6 r m m m m m m m m m m m m m m m m m m m m m m m m m m m m m m m m m m m m m m m m m m m m m m m m m m m n S G G Z B ",
"G G G B C r m n n n n n n n n n n n n n n n n n n n n n n n n n n n n n n n n n n n n n n n n n n n n n n n n n n n n S G G Z B ",
"B G G S C m n C C C C C C C C C C C C C C C C C C C C C C C C C C C C C C C C C C C C C C C C C C C C C C C C C C n M S G G Z G ",
"B G G G S m n C H H H H H H H H H H H H H H H H H H H H H H H H H H H H H H H H H H H H H H H H H H H H H H H H H b M S G G Z G ",
"C G G G G m n C H A A A A X , , , $ $ $ , , , X X X A A A A A A A A A A A A A A A A A A A A A A A A A A A A V V V b M S G G Z G ",
"C G G G G m n C H A A X $ $ $ : & & 5 s p o o o N N N N N N N N N N N N N N N N N N N o o o p & & $ X A A A X A A b M S G G Z G ",
"B C G G G m n C H A X $ $ : & 5 s p o N N N N N N N N N N = N = N = N = N N N N N N N N N N N o p & X X A X A X X b M S G G Z G ",
"B C G G G m n C H X $ $ : & 5 s N o o o N o N N N N N N N N = N = N = N N N N N N N N N o N o o o N $ X X , X X X b M S G G Z G ",
"S C C G G m n C H X , : : $ & N o o o o o N o N N N N N N N N = N = N = N N N N N N N o N o o o o o N $ X X , X $ b M S G G Z G ",
"G C C C G m n C H , , : & $ N i N o o o N o N N N N N N N N = N = N = N N N N N N N N N o N o o o N i N $ $ $ $ & b M S G G Z G ",
"G B C C S m n C H , $ : & $ D # = N o N = 7 7 v v v v v v v v v v v v v v v v v v v v 7 7 = N o N = # D $ : & & & b M S G G Z G ",
"G B C C C m n C H X , : : $ D D # = = v 7 A A A A A     V V F F F F V   A X X X X A F F F 7 v = = # D D : & & 5 5 b M S G G Z G ",
"G S B C C m n C H X X , : A D D > v D v F A A A A   V V F F F F F F V V   A X X A A V A F F v D v > D D & 5 5 5 5 b M S G G Z B ",
"G G B C C m n C H X , $ $ N v v D D D D A 1 O O -   F F F * - @ O O F F V   A A   @ O * F F D D D D v v N & 5 5 & b M S G G Z B ",
"G G S C C m n C H A $ X N N N # v D D F @ O 1   F F V F F - @ O @ V F H V V A A F V - O - F D D D v # N N N & & : b M S G G Z B ",
"G G G C C m n C H A X N o o N N # > F @ O 1   F F F V V V - O O O ; O O 1 V     F G V - O * F D > # N N o o N : $ b M S G G Z B ",
"G G G S G m n C H A 7 N N o o N N F X O 1   F F F F V V V - - 9 ; * V     V   V F G F V @ @ * F F N N o o N N c $ b M S G G Z B ",
"G G G G G m n C H A 7 = N N o o A X @ O F F F F F F F V V   @ - ;   F V V V V F F G F F - O - F F V o o N N = 7 X b M S G G Z B ",
"G G G G G m n C H A % # = N N A * X O @   F F F F   F   V F @ @ 0 ;   F V V V   * G F F d @ O F X X y N N = # v X b M S G G Z S ",
"B G G G G m n C H A D v # = i F     O 1 F F F G F F ;       @ 9 9 0 - *   F V *   G F F * @ O F A X F i = # v D $ b M S G G Z G ",
"B G G G G m n C H A A > v # D D F V O * F F F F F F ; - 9 O O O O O O @ F   * 1 F F F F   @ O F A F D 8 # v > A g b M S G G Z G ",
"B G G G G m n C H A X A > v D D D F O * F F F F F F F ; @ O O O O O O @ F   A F F F F F   @ O F F D D D v > A g t b M S G G Z G ",
"S G G G G m n C H X $ X A > D D D D O   F F F F F F F F ; O 9 9 9 9 9 - F F F F F F F F   @ O F D D D D > A l t k b M S G G Z G ",
"G B G G G m n C H $ & $ A D D D D D O   F F F F F F F F F @ - - - - - ;   F F F F F F F   @ O F D D D 8 8 l t k 5 b M S G G Z G ",
"G B G G G m n C H $ 5 & $ # # v v D O * F F F F F F F F F - - ; ; ; ;   F F F F F F F F * @ O F D v v # # & t t t b M S G G Z G ",
"G S G G B m n C H X & & X N # # v D O * F F F F F F F F F @ ;           F F F F F F F V * @ O F D v # # N : & & & b M S G G Z G ",
"G G B G B m n C H A $ X N N # # # D O 1 F F F F F F F F F -   F F F F F F F F F F F F   1 @ O F D # # # N N : & : b M S G G Z G ",
"G G B G B m n C H A X N o N N # D F @ O F F F F F F F F F -   F F F F F V F F F F F   * - @ 0 F F D # N N o N : : b M S G G Z G ",
"G G S B S m n C H A A # N o N D F V * O   F F F F F V V F ;   F F F F V * F F F F F * ; @ O 1 F V F D N o N # $ $ b M S G G Z G ",
"G G G S G m n C H X X v = N D V F F V O 1 F F F F V V V V 1   F F F F * 1 V F F F F ; - @ O ; F V V F 8 N = v , $ b M S G G Z G ",
"G G G G G m n C H $ $ D > = D D D F V @ O F F F F V V V   0 * F F F F d 0   F F F F - @ @ - F A V D D 8 = > D X , b M S G G Z S ",
"G G G G G m n C H $ $ A D > D D D D F * O ; F F F V V F * 0 d F F F F ; 0 * F F F F @ @ O   F V D D D D > D A X X b M S G G Z B ",
"G G G G G m n C H X : X A D D D D D D F 1 O F F V V V F ; 0 ; F F F F - 0 ; F F F F @ O 1 F F D D D D D D A X X X b M S G G Z B ",
"G G G G G m n C H A & $ X A A V D 3 D D F * - F F V V F @ @ @ F F F F @ @ @ V F V F O 1   F D D 3 D A A A X , , X b M S G G Z B ",
"G G G G G m n C H A $ & y y D D F D v 3 D F F   F V F @ * @ * O * @ * * @ * @ V V V 1   F D 3 v D A D v N N : , A b M S G G Z G ",
"B G G G G m n C H A X N o N y v D D v v D F F F F M M 4 4 4 4 4 4 4 4 + + + S G V V V V V D v v D D v v N o N : A b M S G G Z G ",
"B G G G G m n C H A N N N o N 7 D D D v 3 D F F M < r z z z z 6 6 m m < h a + S G V V V D 3 v D D D D N o N N N A b M S G G Z G ",
"B S G G G m n C H A j # N N D D D D D D D D F M < r z z r r N % % % N 4 + + + S S G V V D D D D D D D 8 N N # j A b M S G G Z G ",
"B B G G G m n C H V D v # # D V A V D D D D F V M 4 + h + % % H % % % % S S S S G V     D D D D V V V 8 # # v D A b M S G G Z G ",
"S B S G S m n C H V A D D v v D V A V D D F V F M < + z N % H D % D H % D + S + G   A A   D D V V V D v v D D V A b M S G G Z G ",
"G B B S B m n C H A A A A D D D D D D D V F F V M < + z % % D H D H D H 3 + S + G A A A     D D D D D D D V A A X b M S G G Z G ",
"G B B S B m n C H A X X A A A A D D D D D V V F M < + z % % % D H D % % % + S + G   A   V D D D D D V A A A X X $ b M S G G Z G ",
"G B C C C m n C H A $ o N % D A A A D 3 D D V V M < + z % H D H D H D % 3 + S + G V   V D D 3 D V V V D % N & $ X b M S G G Z G ",
"G S C C C m n C H A o o N # # % D D D > 3 D D V M < + z N % H D % D H % D + S + G   A D D 3 > D D D % # # N N & X b M S G G Z G ",
"G G B C C m n C H A N N o N # D D D v v > 3 D V M < + z + % % % % H % D S + S + G A A D 3 > v v D D D # N o N N   b M S G G Z G ",
"G G B C C m n C H A % # N o D V V D D v v D D V M < + z + 6 N % % % D + S + S + G A   D D v v D D F F 8 o N # % A b M S G G Z G ",
"G G S C B m n C H V A % v # D > V V V D D D V e w 6 z q z q 6 < < a 4 + + + S S + G V V D D D V V F > 8 # v % A A b M S G G Z G ",
"G G G B B m n C H A A A % D D D D D V A A A A f + + u Z Z w Z Z Z Z B G S B B G G G V   V V V V D D D v D % A A A b M S G G Z S ",
"G G G B S m n C H A A A A A D v v > D A A A e w < 6 q z q q 6 6 < < a 4 + + + S S + G         D > v v D A A A A A b M S G G Z S ",
"G G G S S m n C H A A V D D D D D v D A A f f + + u Z Z w e Z Z Z B S S G S B B G G G V   A   D v D D D D D A A A b M S G G Z B ",
"G G G G G m n C H V V V V V V F D D V A A e w < 6 q z z q q 6 6 < < a 4 + + + + S S + G V V V V D D V   A A A A A b M S G G Z B ",
"G G G G G m n C H V V V V V V V V V A V A e w u u Z Z w e e Z C B S S G G G S S S G G G V V V V   A A A A A A A A b M S G G Z C ",
"G G G G G m n n b b b b b b b b b b b b b b b b b b b b b b b b b b b b b b b b b b b b b b b b b b b b b b b b b b M S G G Z C ",
"S G G G G m x M M M M M M M M M M M M M M M M M M M M M M M M M M M M M M M M M M M M M M M M M M M M M M M M M M M M S G G Z C ",
"S G G G G x S S S S S S S S S S S S S S S S S S S S S S S S S S S S S S S S S S S S S S S S S S S S S S S S S S S S S S G G Z C ",
"B G G G G G B G Z G G B G G G G G G G G G G G G G G B G G B G G G G B G G B G G G G G G B G G B G G G G G G G G G G G B G G Z C ",
"B S G G G G B G Z G G Z G G G G S G G G G B C C S G Z G G Z B S G G Z G G Z G G G G G G Z G G Z S G C S G G G G G G G Z G G Z C ",
"S S S S S S S G Z G G Z S G G G G G G G S S S S S G Z G G Z S G G G Z G G Z S G G G S G Z G G Z S G S S G G G G G G G Z G G Z S "
};
