/* XPM */
static char *wolfstein_texture_861659569481[] = {
/* columns rows colors chars-per-pixel */
"64 64 64 1 ",
"  c #003E3E",
". c #464646",
"X c #282828",
"o c #535353",
"O c #AAAAAA",
"+ c #000029",
"@ c #00B100",
"# c DarkGreen",
"$ c #003E00",
"% c #007100",
"& c #000066",
"* c #008D8D",
"= c #005700",
"- c #161616",
"; c #814B20",
": c #985729",
"> c #8F4F25",
", c #00BD00",
"< c #005757",
"1 c #3A0059",
"2 c #2B003F",
"3 c gray36",
"4 c #3E3E3E",
"5 c #5B3913",
"6 c #000032",
"7 c #004B00",
"8 c #313131",
"9 c #261A03",
"0 c #311F06",
"q c #006060",
"w c #00003F",
"e c #008900",
"r c #009900",
"t c #717171",
"y c #78461C",
"u c #00A500",
"i c #646464",
"p c gray10",
"a c #4C350E",
"s c #000073",
"d c #00004C",
"f c gray60",
"g c gray49",
"h c #007D00",
"j c #000059",
"k c #8D8D8D",
"l c black",
"z c black",
"x c black",
"c c black",
"v c black",
"b c black",
"n c black",
"m c black",
"M c black",
"N c black",
"B c black",
"V c black",
"C c black",
"Z c black",
"A c black",
"S c black",
"D c black",
"F c black",
/* pixels */
"pXptgkfOOOOOOOOOOOOOOOOOOOOOfkgtpXptgkfOOOOOOOOOOOOOOOOOOOOOfkgt",
"pXpoffffffffffffkkkkfkfkfkfkfkfipXpoffffffffffffkkkkfkfkfkfkfkfi",
"pXpoffkfffkkfkkkkkkkkfkfkfkkkfkipXpoffkfffkkfkkkkkkkkfkfkfkkkfki",
"pXpokkfkkffkkkgkkkkkfkfkfkkkkgkipXpokkfkkffkkkgkkkkkfkfkfkkkkgki",
"pXpokfkkkkfkkgkgfkkfkkkfkfkfgkgipXpokfkkkkfkkgkgfkkfkkkfkfkfgkgi",
"pXpokfkkkkfkkgkgfkkfkkkfkfkfgkgipXpokfkkkkfkkgkgfkkfkkkfkfkfgkgi",
"pXpokkf:::::::::::>>>>>>>>;;;;;;;;yyyyyyyyyyyyyyyyyyyyyyyyatkggi",
"pXpokkk:aaaaaaaaaaaaaaaaaaaaaaaaaaaaaaaaaaaaaaaaaaaaaaa55ya.ggki",
"pXpokkg:a9-+-$$$$-++---$$$$$$$$$$$$$$$$$$$$$$-++++++++++2yaokggi",
"pXpogtk:a-+++-  --+-$$########==<<########$ -6wwwwwwwwww2ya.gtgi",
"pXpogit>a++wwww   7=hurrrrrrru**uu**eeeeee dd djsssssss&1ya4tgti",
"pXpoiii>a++wwww  #hurrrrrrrrrruuuuu*******q<<==jsssssss&1ya.igti",
"pXpotit>a++ww  =#hrrrrrrrrrrrr@@@@u@@uuuuuuuuu% j&ssssss1ya4tiii",
"pXp....>a-   ==#hrrrrrrrrrrr@@,,@@@@uuuuuuruuu%<  &sssss1yaX....",
"ppppppp>a$%hhhuurrrrrruuu@@@,,,,,@@uuuuuuuruuruh#=jsssss1ya-pppp",
"ppppppp>a$%uu@uuurrruuu@@@@@,,,,,@@@uuuuurru@,rh< jsssss1yaXpppp",
"XXXXXXX;a$%@uuuuurrru@@@@@@@@@@@@@@@uuurrrruuh< j&ssssss1yaXXXXX",
"OOOOOOO;a$%uuuuuuuruuuuuuuu@u@@@@@uuuurrur%%  j&sssssss&1yaiOOOO",
"kkkfkfk;a$%uuuuuuuuuuuuuuuuuuu@@@uuuuuh<  = j&sssssssssj8ya3fkkk",
"kkkkfkf;a$%uuuuuruuuuurrrruuuuu@@uruh< jjjdjsssssssss&  hyaokkkk",
"kkkfkfk;a$%uuurruh%#hhhuuuh#  #huuh< d&&sssssssssss&  hhhya.kkkk",
"fkgkkkk;a$%ruruh#7     =h=  wd     djj&ssssssssssjd hhhhhya.fkff",
"gfggkgk;a$%ru@e%  wddww   wdjjjdjjjj&&sssssssssssd#hhhhhhyaogfgg",
"kkfkkkf;a-$#huu% wdddddddddjjjjjjjjj&sssssssssss& #hhhhhhyaogfkk",
"fkgkkkk;a-- 7#hh# dddddddjjjjjjjjjjj&sssssssssss& #hheehhya.fkff",
"gfggkgk;a++w6    wddddddjjjjjjjjjjjj&ssssssssssssd##heehhyaogfgg",
"gggggkg;a++wwwwwwwddddddjjjjjjjjjjj&&ssssssssssssj #%rehhya.kggg",
"tgkgktg;a++wwwddddddddddjjjjjjjjjjj&&ssssssssssss& #%rehhyaoggtt",
"gttgtggya++wwwwddddddddjjjjjjjjjjjj&sssssssssssss& #%rehhya.ttgg",
"titititya++wwwwwddddddddjjjjjjjjjjjj&ssssssssssssj #rrehhya.igtt",
"ttititiya++wwwwwddddddddjjjjjjjjjjjjj&ssssssssssj #%rehhhya4gttt",
".......ya++wwwddddddddddjjjjjjjjjjjjj&sssssssssj #%eeehhhya-....",
"pppppppya++wwddddddddddddjjjjjjjjjjjj&sssssss&j #heeeehhhya-pppp",
"pppppppya++wwddddddddddddjjjjjjjjjj&&&ssss&j   #heeeeehh%yaXpppp",
"XXXXXXXya++wwwddddddddddddjjjjjjjjj&&&&&&j  #hhherreeehh%yaXXXXX",
"pXptgkfya++wwwwdddddddddddjjjjjjjjjjjjd   #hheeerrreehhh%yaifkgt",
"pXpofffya++wwwwdddddddddddjjjjjjjjdd   =#hhheerrreeeehhh%yaofkfi",
"pXpoffkya++wwwwddddddddddjjjjjd     =#hheerrrrreeeeehhhhhyaokfki",
"pXpokkfya++wwwwddddddddjjjjjjj  =#%hheeeerrrrreheeeehhhhhyaokgki",
"pXpokfkya++wwwwdddddddjjjjjjjj #heeeeerrrrrrrrrerreehhhhhya3gkgi",
"pXpokkfya++wwwwdddddddjjjjjjjj #hhereerrrrrrrrrrrrrhhhhhhya.kggi",
"pXpokkkya++wwwwwdddddddjjjjjjj  #hhhhheeeerrrreeeeeeeeehhya.ggki",
"pXpokkgya-- 6wwwdddddddjjjjjjjd  #hhhhhhhheerreeeeeeeeehhyaokggi",
"pXpogtkya$=h wwwwddddddjjjjjjjjdw =hh**hhhheehheeeeeeeehhya.gtgi",
"pXpogitya$=h= wwwwddddjjjjjjjjjjjw **hh*%**hhhhhheeeehhhhya4tgti",
"pXpoiiiya$=hh=    wwddjjjjjjjjjdw =hh%%**h*%%hhhhheeehhhhya.igti",
"pXpotitya$=eehhh%h   wdjjjjjjdw  hhhhhhhh%***%hhhhhehhhhhya4tiii",
"pXp....y5$=hhheeehhhh wdjjjdw  hhhhhehhhhhhhh*hhhhhhhhhhhyaX....",
"pXpppppy5$$%%h%hhhhhhh8222228hhhhhh%h%hhhhhhhh*hhhh%%%hhhya-pppp",
"pppppppyyyyyyyyyyyyyyyyyyyyyyyyyyyyyyyyyyyyyyyyyyyyyyyyyyyaXpppp",
"XXXXXXXaaaaaaaaaaaaaaaaaaaaaaaaaaaaaaaaaaaaaaaaaaaaaaaaaaa0XXXXX",
"OOOOOOOiiii3o..XXX..o3iiiiiiiiiiiiiiiiiiiii3o..XXX..o3iiiiiiOOOO",
"kkkfkfkfkfkfkfipXpoffffffffffffkkkkfkfkfkfkfkfipXpoffffffffffkkk",
"kkkkfkfkfkkkfkipXpoffkfffkkfkkkkkkkkfkfkfkkkfkipXpoffkfffkkkkkkk",
"kkkfkfkfkkkkgkipXpokkfkkffkkkgkkkkkfkfkfkkkkgkipXpokkfkkffkgkkkk",
"kkfkkkfkfkfgkgipXpokfkkkkfkkgkgfkkfkkkfkfkfgkgipXpokfkkkkfkkgfkk",
"fkgkkkkgkfgkggipXpokkfkkkkkgkgfkfkgkkkkgkfgkggipXpokkfkkkkkgfkff",
"gfggkgkggggggkipXpokkkfkkkgkgkgfgfggkgkggggggkipXpokkkfkkkgkgfgg",
"gggggkgfggkkggipXpokkgkgggggkgkggggggkgfggkkggipXpokkgkgggggkggg",
"tgkgktgggtggtgipXpogtktggggtgkggtgkgktgggtggtgipXpogtktggggkggtt",
"gttgtgggtgitgtipXpogitgtigtgtgttgttgtgggtgitgtipXpogitgtigtgttgg",
"titititigitigtipXpoiiititigigtigtitititigitigtipXpoiiititigtigtt",
"ttitititititiiipXpotititttitiigtttitititititiiipXpotititttiigttt",
"...............pXp.............................pXp.............."
};
