/* XPM */
static char *wolfstein_texture_111659569480[] = {
/* columns rows colors chars-per-pixel */
"64 64 64 1 ",
"  c gray99",
". c #432C0F",
"X c #FFF400",
"o c #FCFCB6",
"O c #653E17",
"+ c gray60",
"@ c gray71",
"# c gray49",
"$ c #FFAA56",
"% c #750000",
"& c #B24B00",
"* c #FFF400",
"= c #E86000",
"- c #DDDDDD",
"; c #CE5300",
": c #646464",
"> c #2C2C2C",
", c #313131",
"< c #8F4F25",
"1 c #FEF84B",
"2 c #78461C",
"3 c #FCFCD7",
"4 c #FF7D7D",
"5 c #C00000",
"6 c #39280A",
"7 c #985729",
"8 c #FF9D9D",
"9 c #FCFC98",
"0 c red",
"q c #FFB9B9",
"w c #FF5C5C",
"e c #CE0000",
"r c #FF1A1A",
"t c #DC0000",
"y c red",
"u c #FF7900",
"i c #FF9935",
"p c #FF6C00",
"a c #FF8900",
"s c #B30000",
"d c #4C350E",
"f c #FFD9D9",
"g c #814B20",
"h c #BC683B",
"j c #FFB17E",
"k c #D17943",
"l c #261A03",
"z c #FF3E3E",
"x c #717171",
"c c gray82",
"v c gray10",
"b c #464646",
"n c #353535",
"m c #C1C1C1",
"M c #8D8D8D",
"N c gray93",
"B c #282828",
"V c #535353",
"C c #AAAAAA",
"Z c black",
"A c black",
"S c black",
"D c black",
"F c black",
/* pixels */
"BBBBBBBBBBBBBBBBBBBBBBBBBBBBBBBBBBBBBBBBBBBBBBBBBBBBBBBBBBBBBBBB",
"CCCCCCCCCCVnVVVVbbbbbB+cccccccccccccccccCMBnnnnnbVVVVV--------+Z",
"m----ccmCMVnVVbbxmNNmV+mNNNNNNNNNNNNNNNcM:BNNNcxbnVVVV-NmCMCMCxB",
"-+m+CCMxVnnVbbZMNNmmCMVCcNmmmmmmmmmmmmm+:BcNNNNcxbnnVVVCCM++C+xB",
"-m+C+MVnnVbMM+B+cmmmmMVMcNmCCCCCCCCCCCCM:#Nmmmc@MB++nnV:MMCCM#xB",
"-+C+#VnnVbCcNNmBVMmCCMxVMc@CCCCCCCCCCC+:BcmCCCmVB+Nc#VnVxM+#CCxB",
"-CM#bnnVbcNNcc-MBVMCCCMVMmmCCCCCCCCCCCM:#NCCCCVB+NcC+#VnVxMCCCxB",
"-CMxnnVbcNccCCC-MBVMCCMxVMmMMMMMMMMMMM:BcmCCCVB+NcCCC+#VnbxMCCxB",
"cCxbnVbCNcmCCCCCcMBVMMMxVVVVVVVVVVVVVVVB@@CCVB+NcCCCCC+:VnbVxxxB",
"mMxnbbVV#-CCCCCCCcMBVVVVVBBBBBBBBBBBvBBVVM@xB+NcCCCCCCC#VVnbVBBB",
"Mxnbb@N+V#CmCCCCCMmMBVnnZZZZZZZZZZZZZZZZnnVB+NcCCCCCCC#VBnnBbbnn",
"Vnnb@NcN+BV#CCCCM#:VVZZZZZZZZZZZZZZZZZZZZZZVVxcCCCCC#VBn++xnBnbb",
"VbbMNcccNmBV:#MM#nnnnZZZZZZZZZZZZZZZZZZZZZvnnnMcCC#:nBCNcc@xnBnV",
"VVb@cmCCcNmxBV::VnnZZZZZZZZZZZZZZZZZZZZZZZvvvnnMc:VBxCNcCCC#nnBV",
"VVxNcCCCCCNN#BBVnZZZZZZZZZZZZZZZZZZZZZZZZZZvvvvnVBBCNNmCCCC@xnBb",
"VVMNcCCCCCCc #BZZZZZZZZZZZZZZZZZZZZZZZZZZZZZZvvvZBC -mCCCCCCxnBn",
"Vb@NcCCCCCCM#VnZZZZZZZZZZZZZZZZZZZZZZZZZO7ZZZZZZvVMNNmCCCCCCxnBn",
"Vb@ccCCCCCCMVnZZZZZZ$oo*;ZZZZ<*o $<ZZZZ;*o=ZZZvvvnVCNNmCCCCC#nvB",
"Vb@MM#MMMMM#VZZZZZZ*oiuO.ZZZ<*3*&OZ<ZZZ.$$o$.ZZvvvVxNcm##VVVVVvB",
"VnnBBBVVVVxVnZZZZZ*oiull.ZZZ&99o$9o*<ZZ.l.$o$.ZvvvnxVxVVVBBBBBBv",
"b@NN@M#BBBBnnZZZZZoiulll..ZZ&p $pOO.<ZZ<l..**.ZZvvnvnBBBxmNNcMBv",
"b@NcccNN-+VnnZZZZ*oi.lll<<ZZZ*op;OZZZZZ<l..$o$6ZZZZvnMcNNcm@@xBv",
"b@NmCCCCCm#nZZZZZo*ullll=..ZZ**$$$;lZZl;l.2;*o6ZZBnVxmNmmCCCCVBv",
"b@NmCCCCCCxnZZZZZo$&ll..&1OO&13399$;lZ<$l22;*o6ZvBnVxmNmCCCCMVBv",
"b@NmCCCCCM:nZZZZZo=&llll<$1o 333331;Op$l.22;*o6ZvBnVxmNmCCCCMVBv",
"b@NmCCCCCMVnZZZZZo=<lllll<$  ooooo1;OZl..22;*o6ZvBnVxmNmMMMMMVBv",
"b@cCMMMMMMVnZZZZZo=2l6llllO$ *1111*;OZl..22;*o6ZvBnVx+xVVVVVVVBv",
"bC#VVVVVVVVnZZZZZo=2l6lllll&1*1111$O.ll..2&;*o6ZZZZZZZZZZZZZZZBv",
"bnnBBZZZZZZZZZZZZo=2ldOZZll&1*$$$$;7.ZZZ.&&=*o6ZvBnVxmNNNNNNcMBv",
"b@NNNNNNNcxnZZZZZo=2.OZllll&*$====;7.Zl.ll&a*o6ZvBnVxmNmmmmmCxBv",
"b@NmmmmmmMVnZZZZZo$&.glllll&*$&&&;=;.Zl.&&=$*o6ZvBnVxmNmCCCCCVBv",
"b@NmCCCCCMVnZZZZZ*o&l7...Zl&*=O777=$.ZZZ&=a$*j6ZvBnV#mNmCCCCMVBv",
"b@NmCCCCCMVnZZZZZZo&l7OdZZZ&$=.OO<$$.ZZZZa$*og6ZvBnVMmNmCCCCMVBv",
"b@NmCCCCCMVnZZZZZZo$OOhlZZZ7*=..l<**.ZZZZ$$*o.ZvvBnV+mNmCCCCMVBv",
"b@NmCCCCCMVnZZZZZZ*o&lOlZZZ7*=.lll*1.ZZZZ$**k.ZvvBnV+mNmCMMMMVBv",
"b@NCMMMMMMVnZZZZZZZ*=OO.ZZZO9=llll*o.ZZZZ**o.ZZvvvnV:#xVVVVVVVBv",
"bC#VVVVVVVVnZZZZZZZ*$&..ZZZO3=lllO*oZZZZZ*o;.ZZZZZZZZZZZZZZZZZBv",
"bnnBBZZZZZZZZZZZZZZ2*&OOZZ&oooOOOo oo&ZZZo;.ZvBB>>bx+cNNNNNNcMBv",
"b@NNNNNNNcxnZZZZZZZZZ&&ZZZoOo  * **oO*ZZZ;.ZZvBB>>bx+mNmmmmmmxBv",
"b@NmmmmmmCVnZZZZZZZZZZZZZ*  z zzzz z zZZZ.ZZvvBB>,bx+mNmCCCCCVBv",
"b@NmCCCCCMVnZZZZZZZZZZZ4 o4zzzzzzzzzzztZZZZZvvBB,,Vx+mNmCCCCMVBv",
"b@NmCCCCCMVnZZZZZZZZZZ4 4zz5%%%%%%%zzzztZZZZvvB>,nVx+mNmCCCCMVBv",
"b@NmCCCCCMVnZZZZZZZZZ4 4z5%%%ZZZZZ%%%zzztZZZvvB>,bVx+mNmCCCCMVBv",
"b@NCMMMMMMVnZZZZZZZZrq4z5  @ZZ       @zzz%ZZvvB>nbVx+mNmCCCCMVBv",
"bC#VVVVVVVVnZZZZZZZZ8qzz% cbZZ ccccccbtzztlZZvB>nbVx+mNmCMMMMVBv",
"bnnBBZZZZZZZZZZZZZZr 4zy% cbZZ cbbbbbb%wzy%ZZZvvvvnV:#xVVVVVVVBv",
"b@NNNNNNNcxnZZZZZZZr zzs% cbZZ cbZZZZZ%4zzslZZZZZZZZZZZZZZZZZZBv",
"b@NmmmmmmCVnZZZZZZZwfzy%Z cbZZ cbZZZZZZ4zzelZvB>,nVx+mNNNNNNcMBv",
"b@NmCCCCCMVnZZZZZZZwfzy%Z c@   c+    @Z8zzelZvB>,nbx+mNmmmmmCxBv",
"b@NCMMMMMMVnZZZZZZZwqzy%Z cccccccccccbZ8zzelZvB>,nbx+mNmCCCCCVBv",
"bC#VVVVVVVVnZZZZZZZy8zy%Z#bbbb+cbbb+cbZ8zzelZvB>,nbx+mNmCMMMMVBv",
"bnnBZZZZZZZZZZZZZZZy4zy%ZZZZZZ cbZZ cbZ8zzelZvvvvvnV:#xVVVVVVVBv",
"b@NNNNNNNcxnZZZZZZZ54zz%%ZZZZZ cbZZ cb%wzzsZZZZZZZZZZZZZZZZZZZBv",
"b@NmmmmmmCVnZZZZZZZZr4z5O      cbZZ cbyyzr%ZvvB>,nbx+mNNNNNNcMBv",
"b@NmCCCCCMVnZZZZZZZZ5zzyO ccccccbZZ cb5zze%ZvvB>,nbx+mNmmmmmCxBv",
"b@NmCCCCCMVnZZZZZZZZZ5zz5#bbbbbbbZZ#bbzzz%ZZvvB>,nbx+mNmCCCCMVBv",
"b@NCMMMMMMVnZZZZZZZZZZzzz5%%%ZZZZZ%%5zzz5ZZZvvB>,nbx+mNmCCCCMVBv",
"bC#VVVVVVVVnZZZZZZZZl.Zzzzwwzzzzzzyq8zz5Z.lZvvB>,nVx+mNCMMMMMVBv",
"bnnBZZZZZZZZZZZZZZZl.OOZzzz4488qqq8zzz5ZOO.lvvvvvvnV:#xVVVVVVVBv",
"bcNNNNNNNcxnZZZZZZZl.OOOZZzzzzzzzzzzzZOOOO.lZZZZZZZZZZZZZZZZZZBv",
"bcNCCCCCCCVnZZZ     ooo99*OOOOOOOOOOO*99333333@Z,nVx+cNNNNNNcMBv",
"bcNCMMMMMMVnZZZ ******************************MZ,nVx+cNmCCMMMxBv",
"bC#VVVVVVVVVZBnMVVVVVVVVVVVVVVVVVVVVVVVVVVVVVVVBvvnV:#xVVVVVVVBv",
"bbbbbbbbbbbbbnV:xxxxxxxxxxxxxxxxxxxxxxxxxxxxxx:nBvbbbbbbbbbbbbbb"
};
