/* XPM */
static char *wolfstein_texture_851659569481[] = {
/* columns rows colors chars-per-pixel */
"64 64 128 2 ",
"   c #00ED00",
".  c #000073",
"X  c #00E100",
"o  c #00D500",
"O  c gray82",
"+  c #003E3E",
"@  c #00FC00",
"#  c #000029",
"$  c #000059",
"%  c gray49",
"&  c #00004C",
"*  c #005757",
"=  c #008900",
"-  c #00BD00",
";  c #00008C",
":  c #282828",
">  c #00FC16",
",  c #00CDCD",
"<  c #005700",
"1  c #009900",
"2  c #BC683B",
"3  c #00FC00",
"4  c #161616",
"5  c #00A500",
"6  c #004B00",
"7  c #717171",
"8  c #C9713F",
"9  c #00FC73",
"0  c #00FC3E",
"q  c #D17943",
"w  c #007100",
"e  c #007D00",
"r  c #00FC4A",
"t  c #0000B5",
"y  c #007171",
"u  c #0000AD",
"i  c gray36",
"p  c gray10",
"a  c #313131",
"s  c #003E00",
"d  c #5D0088",
"f  c #49003F",
"g  c #353535",
"h  c #00AA00",
"j  c #3E3E3E",
"k  c DarkGreen",
"l  c #0000A9",
"z  c #00003F",
"x  c #4E0073",
"c  c #814B20",
"v  c #007D7D",
"b  c #2B003F",
"n  c #78461C",
"m  c #39280A",
"M  c #261A03",
"N  c #3A0059",
"B  c #DF7D48",
"V  c #008585",
"C  c #535353",
"Z  c #646464",
"A  c #00C900",
"S  c gray60",
"D  c #AF6032",
"F  c #464646",
"G  c #8D8D8D",
"H  c #653E17",
"J  c #00009C",
"K  c #00007F",
"L  c #00B100",
"P  c #000066",
"I  c #C1C1C1",
"U  c #AAAAAA",
"Y  c gray71",
"T  c black",
"R  c black",
"E  c black",
"W  c black",
"Q  c black",
"!  c black",
"~  c black",
"^  c black",
"/  c black",
"(  c black",
")  c black",
"_  c black",
"`  c black",
"'  c black",
"]  c black",
"[  c black",
"{  c black",
"}  c black",
"|  c black",
" . c black",
".. c black",
"X. c black",
"o. c black",
"O. c black",
"+. c black",
"@. c black",
"#. c black",
"$. c black",
"%. c black",
"&. c black",
"*. c black",
"=. c black",
"-. c black",
";. c black",
":. c black",
">. c black",
",. c black",
"<. c black",
"1. c black",
"2. c black",
"3. c black",
"4. c black",
"5. c black",
"6. c black",
"7. c black",
"8. c black",
"9. c black",
"0. c black",
"q. c black",
"w. c black",
"e. c black",
"r. c black",
"t. c black",
"y. c black",
"u. c black",
/* pixels */
"F C F S U Y I O O O O O O O O O O O O O O O O O O O O O I Y U S F C F S U Y I O O O O O O O O O O O O O O O O O O O O O I Y U S ",
"F C F % I I I I I I I I I I I I Y Y Y Y I Y I Y I Y I Y I Y I G F C F % I I I I I I I I I I I I Y Y Y Y I Y I Y I Y I Y I Y I G ",
"F C F % I I Y I I I Y Y I Y Y Y Y Y Y Y Y I Y I Y I Y Y Y I Y G F C F % I I Y I I I Y Y I Y Y Y Y Y Y Y Y I Y I Y I Y Y Y I Y G ",
"F C F % Y Y I Y Y I I Y Y Y U Y Y Y Y Y I Y I Y I Y Y Y Y U Y G F C F % Y Y I Y Y I I Y Y Y U Y Y Y Y Y I Y I Y I Y Y Y Y U Y G ",
"F C F % Y I Y Y Y Y I Y Y U Y U I Y Y I Y Y Y I Y I Y I U Y U G F C F % Y I Y Y Y Y I Y Y U Y U I Y Y I Y Y Y I Y I Y I U Y U G ",
"F C F % Y I Y Y Y Y I Y Y U Y U I Y Y I Y Y Y I Y I Y I U Y U G F C F % Y I Y Y Y Y I Y Y U Y U I Y Y I Y Y Y I Y I Y I U Y U G ",
"F C F % Y Y I B q q q q q q q q q q 8 8 8 8 8 8 8 8 2 2 2 2 2 2 2 2 D D D D D D D D D D D D D D D D D D D D D D D D H U Y U U G ",
"F C F % Y Y Y q H H H H H H H H H H H H H H H H H H H H H H H H H H H H H H H H H H H H H H H H H H H H H H H n c D H Z U U Y G ",
"F C F % Y Y U q H M 4 # 4 < < < < 4 # # 4 4 4 < < < < < < < 6 6 6 6 6 6 6 6 6 6 6 6 6 6 6 4 # # # # # # # # # # b D H 7 Y U U G ",
"F C F % U S Y q H 4 # # # p + + p p # 4 s < = = = = = = = = e e v v = = = = = = = = < + p z & $ $ $ $ $ $ $ $ $ b D H Z U S U G ",
"F C F % U G S 8 H # # & & & $ + + + k e L 3 X o X X o o o   , ,     , , A A A A A A * P P + P K J J J J J J J ; x D H C S U S G ",
"F C F % G G G 8 H # # & & & & + * = L   X X X X X X X o X X           , , , , , , , V y y e w . J J J J J J J ; x D H i G U S G ",
"F C F % S G S 8 H # # & & + + e = - X X X X X X X o o o o o > 0 0 > 3 0 0 3     3 3         1 * K ; J J u u u J d D H C S G G G ",
"F C F Z Z Z Z 8 H 4 + * * w e = L X X X o o X X X X X X > r 9 9 r 0 > > 3 3 3 3     X       h y * * ; J u t t l d D H a Z Z Z Z ",
"F F g : : : : 8 H < 1 L L L   3 X X X X X X     3 > 0 0 9 9 9 9 9 r > 3 3 3 3 3     X   3 X   L = e K J t t t l d D H 4 : : : g ",
"F F F F F F F 8 H < 1   3 > 3 3   X X X   3 3 > > 0 r r 9 9 9 9 9 r > > 3 3 3 3   X X   3 9 X L y * K J t t t l d D H : F F F F ",
"C C C C C C C 2 H < 1 > 3 3 3 3   X X X 3 > > > > > 0 0 0 0 r r r 0 > > 3 3   X X X o     L y * . ; J J u t u J d D H a C C C C ",
"O O O O O O O 2 H < 1 3 3   3 3 3   X   3 3 3 3 3 3 3 > 3 > > > > > 3 3 3   X X   o h 1 * * . ; J J J J u u J ; x D H G O O O O ",
"Y Y Y I Y I Y 2 H < 1 3 3 3 3 3 3 3     3 3         3 3 3 3 r 9 > 3     3 3 L y * * e * . ; J J J J J J J J J . j D H % I Y Y Y ",
"Y Y Y Y I Y I 2 H < 1 3 3 3 3   X       3 3 X X X X       3   r >   X 3 L y * . K . P K J J J J J J J J J ; * * L D H 7 Y Y Y Y ",
"Y Y Y I Y I Y 2 H < 1       X X   L 1 = L L L       L = * * = L     L y * P ; ; J J J J J J J J J J J ; * * L L L D H Z Y Y Y Y ",
"I Y U Y Y Y Y 2 H < 1 X 3 X   L = k + + + + * e L e + + $ P + + * * * P K K ; J J J J J J J J J J K P * L L L L L D H Z I Y I I ",
"U I U U Y U Y 2 H < 1 X   > A 1 + + $ P P $ $ + + + $ P . . . P . . K K ; ; J J J J J J J J J J J P = L L L L L L D H 7 U I U U ",
"Y Y I Y Y Y I 2 H 4 < = L     1 * $ P P P P P P P P P . K K K K K K K K ; J J J J J J J J J J J ; + = L L - - L L D H 7 U I Y Y ",
"I Y U Y Y Y Y 2 H 4 p + k = L L = + P P P P P P P . . . K K K K K K K K ; J J J J J J J J J J J ; + = L L A A L L D H Z I Y I I ",
"U I U U Y U Y 2 H # # & z + + + + & P P P P P P . . . K K K K K K K K K ; J J J J J J J J J J J J P = = L A A - L D H 7 U I U U ",
"U U U U U Y U 2 H # # & & & & $ $ $ P P P P P P . . K K K K K K K K K ; ; J J J J J J J J J J J J K * = 5 o A L L D H Z Y U U U ",
"S U Y U Y S U 2 H # # & & $ P P P P P P P P P P . . K K K K K K K K K ; ; J J J J J J J J J J J J ; * = 5 o A L L D H 7 U U S S ",
"U S S U S U U D H # # & & $ $ P P P P P P P P . . . . K K K K K K K K ; J J J J J J J J J J J J J ; * = 5 o A L L D H Z S S U U ",
"S G S G S G S D H # # & & $ $ $ P P P P P P P P . . . K K K K K K K K K ; J J J J J J J J J J J J K * = o o A L L D H i G U S S ",
"S S G S G S G D H # # & $ $ $ $ P P P P P P P P . . . K K K K K K K K K K ; J J J J J J J J J J . * = h o A - L L D H C U S S S ",
"Z Z Z Z Z Z Z D H # # $ $ $ P P P P P P P P P P . K K K K K K K K K K K K ; J J J J J J J J J . * = 5 A A A L L L D H p Z Z Z Z ",
": : : : : : : D H # # & $ P P P P P P P P P P P P . K K K K K K K K K K K ; J J J J J J J ; K * = - A A A A L L L D H 4 : : : : ",
"F F F F F F F D H # # & $ P P P P P P P P P P P P . K K K K K K K K K ; ; ; J J J J ; K * * * = - A A A A A - L 5 D H : F F F F ",
"C C C C C C C D H # # & & $ P P P P P P P P P P P P . K K K K K K K K ; ; ; ; ; ; K * * = L L L A o o A A A - L 1 D H a C C C C ",
"F C F S U Y I D H # # & & & $ P P P P P P P P P P P . K K K K K K K K K K . P + * * = L - A A A o o o A A - - L 1 D H G I Y U S ",
"F C F % I I I D H # # & & & $ P P P P P P P P P P P . K K K K . . . P P + + * e = L - - A A o o o A A A A - L L 1 D H 7 I Y I G ",
"F C F % I I Y D H # # & & $ $ P P P P P P P P P P . . K K K P + + + + * e = L L A A o o o o o A A A A A - L L L L D H 7 Y I Y G ",
"F C F % Y Y I D H # # & & $ $ P P P P P P P P . . . K K K . + * w = 5 L - A A A A o o X X o A - A A A A - L L L L D H 7 Y U Y G ",
"F C F % Y I Y D H # # & & & $ P P P P P P P . K K K K K K . + = - A A A A A o o o o o o o o o A o o A A - L L L L D H % U Y U G ",
"F C F % Y Y I D H # # & & & $ P P P P P P P . K K K K K K . + = L - A o A A o o o o o o o o o o o o o - - L - L L D H Z Y U U G ",
"F C F % Y Y Y D H # # & & & & $ P P P P P P P . K K K K K . + * = L - L L - A A A A o o X o A A A A A A A A A L L D H Z U U Y G ",
"F C F % Y Y U D H 4 p + z & & $ P P P P P P P . K K K K K K P + * = L L L L - - - - A A o o A A A A A A A A A L L D H 7 Y U U G ",
"F C F % U S Y D H s w L + & & $ $ P P P P P P . K K K K K K K P $ + w L L , , L L L - A A - - A A A A A A A A L L D H Z U S U G ",
"F C F % U G S D H s w L w + & & & $ P P P P . . K K K K K K K K . $ + , , L L , 1 , , L L L L - - A A A A - - L L D H C S U S G ",
"F C F % G G G D H s w L L w + + + + $ $ P P . K K K K K K K K P $ + w L L 5 5 , , L , 5 5 L L L L - A A A L L L L D H i G U S G ",
"F C F % S G S D H s w A A L L L 5 L * + + $ P . K K K K . P $ + * L L L - L L L L 5 , , , 5 L L L L - A - L L L L D H C S G G G ",
"F C F Z Z Z Z D n s w - - L A A A L L L L + & P . . . P $ + * L L L L - A - L L L L L L L , L L L L L L L L L L L D H a Z Z Z Z ",
"F C F g : : : D c s < 1 1 L 5 L L L L L L L j f f N f f j L L L L L L 5 L 5 L L L L L L L L , L L L L 1 1 1 L L L D H 4 : : : g ",
"F F F F F F F D D D D D D D D D D D D D D D D D D D D D D D D D D D D D D D D D D D D D D D D D D D D D D D D D D D H : F F F F ",
"C C C C C C C H H H H H H H H H H H H H H H H H H H H H H H H H H H H H H H H H H H H H H H H H H H H H H H H H H H m a C C C C ",
"O O O O O O O G G G G % 7 Z i : a : i Z 7 % G G G G G G G G G G G G G G G G G G G G G % 7 Z i : a : i Z 7 % G G G G G G O O O O ",
"Y Y Y I Y I Y I Y I Y I Y I G F C F % I I I I I I I I I I I I Y Y Y Y I Y I Y I Y I Y I Y I G F C F % I I I I I I I I I I Y Y Y ",
"Y Y Y Y I Y I Y I Y Y Y I Y G F C F % I I Y I I I Y Y I Y Y Y Y Y Y Y Y I Y I Y I Y Y Y I Y G F C F % I I Y I I I Y Y Y Y Y Y Y ",
"Y Y Y I Y I Y I Y Y Y Y U Y G F C F % Y Y I Y Y I I Y Y Y U Y Y Y Y Y I Y I Y I Y Y Y Y U Y G F C F % Y Y I Y Y I I Y U Y Y Y Y ",
"Y Y I Y Y Y I Y I Y I U Y U G F C F % Y I Y Y Y Y I Y Y U Y U I Y Y I Y Y Y I Y I Y I U Y U G F C F % Y I Y Y Y Y I Y Y U I Y Y ",
"I Y U Y Y Y Y U Y I U Y U U G F C F % Y Y I Y Y Y Y Y U Y U I Y I Y U Y Y Y Y U Y I U Y U U G F C F % Y Y I Y Y Y Y Y U I Y I I ",
"U I U U Y U Y U U U U U U Y G F C F % Y Y Y I Y Y Y U Y U Y U I U I U U Y U Y U U U U U U Y G F C F % Y Y Y I Y Y Y U Y U I U U ",
"U U U U U Y U I U U Y Y U U G F C F % Y Y U Y U U U U U Y U Y U U U U U U Y U I U U Y Y U U G F C F % Y Y U Y U U U U U Y U U U ",
"S U Y U Y S U U U S U U S U G F C F % U S Y S U U U U S U Y U U S U Y U Y S U U U S U U S U G F C F % U S Y S U U U U Y U U S S ",
"U S S U S U U U S U G S U S G F C F % U G S U S G U S U S U S S U S S U S U U U S U G S U S G F C F % U G S U S G U S U S S U U ",
"S G S G S G S G U G S G U S G F C F % G G G S G S G U G U S G U S G S G S G S G U G S G U S G F C F % G G G S G S G U S G U S S ",
"S S G S G S G S G S G S G G G F C F % S G S G S S S G S G G U S S S G S G S G S G S G S G G G F C F % S G S G S S S G G U S S S ",
"Z Z Z Z Z Z Z Z Z Z Z Z Z Z Z F C F Z Z Z Z Z Z Z Z Z Z Z Z Z Z Z Z Z Z Z Z Z Z Z Z Z Z Z Z Z F C F Z Z Z Z Z Z Z Z Z Z Z Z Z Z "
};
