/* XPM */
static char *wolfstein_texture_871659569481[] = {
/* columns rows colors chars-per-pixel */
"64 64 64 1 ",
"  c #FF9D5C",
". c gray36",
"X c #AF6032",
"o c #4B4B4B",
"O c #78461C",
"+ c #DF7D48",
"@ c #FF8D54",
"# c #814B20",
"$ c #653E17",
"% c #985729",
"& c #FFD5BC",
"* c #FFCDB0",
"= c #8F4F25",
"- c #646464",
"; c #353535",
": c #FFAA56",
"> c #FFE1D0",
", c #717171",
"< c #FFD9C4",
"1 c #282828",
"2 c #5B3913",
"3 c #4C350E",
"4 c #B36437",
"5 c #C9713F",
"6 c #FFC5A4",
"7 c #A15C2E",
"8 c #E8814C",
"9 c #D17943",
"0 c #BC683B",
"q c #FFB98F",
"w c #FFBD9C",
"e c #313131",
"r c #F58950",
"t c #FFA56E",
"y c #FF9558",
"u c #535353",
"i c #FFB17E",
"p c #3E3E3E",
"a c black",
"s c black",
"d c black",
"f c black",
"g c black",
"h c black",
"j c black",
"k c black",
"l c black",
"z c black",
"x c black",
"c c black",
"v c black",
"b c black",
"n c black",
"m c black",
"M c black",
"N c black",
"B c black",
"V c black",
"C c black",
"Z c black",
"A c black",
"S c black",
"D c black",
"F c black",
/* pixels */
"uuwwwwwwww+%puwwwwwwwwwwwwwww9X1u     rrrrr999=21uiqqqqqiiit87ep",
"uuw&*6666q9%puw6qqqiiiiiiiiit+4pu@iityyyrrrr89X#p.iqqqqqiiit87ep",
"uuw6wqqqqt+%p.w6qiittttttttty94pu5tt@r8+9550047#p.tiitttttty97ep",
"uuw6iiiiiy9%p.w6ittyyy      @94pu098504X44777%#$o.ytyyyyyyyr5%ep",
"uuwqitttt@5=p.w6itt yyy     @+4poouuopppppppppppu.ry@rrrrrr+0=ep",
"uuiit    r0#p.wwi     yyyy  @+4pou-,,,---...uuuuu.8@r88888894#ep",
"uutiyyyy@80#puw6i ::   yyyy @94pu5ytwwqqqit yr90%.9r88+++++5X#ep",
"uutty@r@r+4#p.wwi : :tt yyyy@94p-yiwwwqwww6wity94.58+99999957#ep",
"uutt@rrr89XOp.qwi   :ttt yyyr94p-twwqwwqw6*wi y94u49555599507Oep",
"uuttr888857Op.qwi: : tt yyyyr54p-wwwqwww66*wi y94pO7XX4005047Oep",
"uury8++++57Opuiqt:  ttt yyy@r57p-wwqwwwqw66wi y94e;eO#%7XX4X%Oep",
"uur@+99994=$p.iiit ttt yyy@@r94p.wwwwwqw666wi y94eeeeeeO##77=Oep",
"uu8r955507#$p.tiittty  yy@@r894p.w*wwwww66wii @94eepp;eeeeO##Oep",
"uu985004X=$ep.ritttyyyyy@@rr+54puiwwwwwwqqiity85%p75004%#pee$2;p",
"uu5954X77#$ep.rtttty@@@rrr8+507po9tttiitttyy@857#p9y@89547Oee;pp",
"uu0447%##Oeppu8yyy@r88++999504%ppo98888+9999957#p0yy@8+9507Oeppp",
"uuopppp;eeppou095500XX4444444%ppooo4044444444%#pp8yy8999557Oeppp",
".......uoppouuoppppppppppppppppouuuopppppppppppp4yyr955504=$;ppp",
"6666qit y854%......uoouuuu.........uuuuopp054ppp5@r9044X7=Oe$0ri",
"*&***666wiiiiwqqiitr0ouqqqqqqqit y@r8+90pp09Xppp0507=====O$e=+ q",
"*&*66666666666666wiy5po9r899999999999957pp%4=ppp##O$$$$$$$1pXr6q",
"*&**66666wwwwwwwwwiy5pppoopppppppppppppppoppppoppeeeeeeeeep$0 *q",
"***66666wqqqqqiiqqiy0ppooooppppoouuuuuuuuuuuuuuuuoooooppppp=+w*q",
"w666666wqiiiiiiiiiiy0po%09500%po%400005004444444444777%#OppXrw6q",
"qqwwwwqiiiiiiiiiiiiy0pu0555507po740000004XXXXXXXX777777=Oeo0 6ww",
"qqqqqqiiiiiiiiiittty0pu50XXXX%eo#7777777777777777======#$;p+qwqq",
"qqiiiiiiiiiiiittttt@0pu50XXXX=eo;OOOOOOOOOOOOOOOOOO$$$$$eporiqqq",
"qiitttttttttttyyyyy@0pu50X777=eppeeeeeeeeeeeeeeeeeeeeeeeppo iiii",
"ty@rrrrrr88888888rr80pu507777%epi*wwwwii r7e#44447777%Oeppuytyyy",
"00000000044440000000%pu50777X%eo&6ttttttyr0e7000044XX7=Oepo59000",
"pppppppppppppppppppppou50777X%eu&6 yyyyyyr0e#%%%%%==###Oepopeeee",
"uuuuuuuuuuuuu.....uuuuu50777X%eu&6tttyyy@r0eeeeeeeeeeeeeeooppppp",
"uu8tiqiiiiiiiiiiiiii4uu55X77X%eu&6tttt yyr0epuuuuuuuuuuuuuuopppp",
"u8iq6*&<>>>>>>>>><&w9ou95XX77=eu&6tt    yr0euywiiiiitttyrrr57Opp",
"utq6*&<>>>>><&&&&*6q8pu954XXX%e.&6it :: yr0euwwwqiiittyyyy@+4Opp",
"ui6*&<<&&&&&**6666wi8pu954444%e.&6it :  yr0euiqiityyyrrrrr894#ep",
"uq6*&&&&*666666wwqqt8pu9544447e.&6it   :yr0eutityrrr888888894#ep",
"uq66**6666wwwwqqqqit9pu9500007e.&6it: : yr0euttyr8888888888+0#ep",
"uq6*666wwqqiiiiiqwiy9pu9900557e.&6tt:  tyr0euttr8888888r888+5%ep",
"ui**66qiiiiiiiiqwwqy9pu9955594e.&6ttt ttyr0eutt@88rrrrrrrrr85%ep",
"ui**6wqiiiiiiiqqwwiy9pu8+559+4e.&6tttttty@5eurt@rrrrrrrrrrrr97ep",
"ui*6wqiiiiiqiiqqqqiy9pu8+99++4e.&6itttttty9eur @rrrrr@@@@@@r94ep",
"ui6qiiiiiiiiiiiiiiiy5pu9+99+94e.&6ttttttit9eurty@rrr@@@@@@@r+4ep",
"utiitttttttttttiityr0pu000000%p.&6tttttttt9euryy@rrrrrrrr@@r94ep",
"u9yyyyyyyyyyyyyytyr80puopeeeepp.*wttiiiity9po588+++++++++++957ep",
"up0555555555555555007pu.----....6wtiiqqity5pp%404XXXXXXXX4447#ep",
"ooppppppppppppppppppppu. 666 X..*6iiqqqitr0pppppeeeeeeeeeeeeeeep",
"...-----..uu--,,,-..uou.i*66q5u.&6wwwqiiy8Xoou.uuuuuuuuuuuuuuuuu",
"iiiiiiii+4u4i&wwwww 90puw6qiy0o.&&66wity85%po. iwwwwwwwwwwwwwwww",
"iiw6**6iy+u5&6qqqqq 87p.qqt rXpu&&6wity85%po.r iwwwwwqiiiiiiiiii",
"ryyiiiity9o+wwitttty5=p.tiy@84pu&*iiy@857po.+@titttttyyyyyyyyyyy",
"88ryyyyr+4orqqtyyy@80#pu iyr+4pu&6tyr907po.+r t y@@rrr888888rr88",
"599+88++5Xoyityrrr+5XOpo9rr897;oiyr+54%ppu98@yyrr88+999999999999",
"77XXXXXXX%utiy+99507=pppp4550=;o45047=poo05000000044X77777777777",
"#OO######puyy+500X7#pppppe=77O;pppppppppo%=#########OOOOOOOOOOOO",
"p;ppppppppu99077%#Opu9y80p;O#pouuuuuuuuoppp;;eeeeeeeeeeeeeeeee;p",
"ppu.u..uu.uuuoppppppuiiyr0pppu@twwityr8+5X7=Ouuuuuuuuuuuuooopppp",
"pu@qqqwqqwwwwqqqqw@o.qqt@+7poyiw&&&666wqqqqqqqqqqqqqqqqqqqiiqyXp",
"p.q666wqqqqqiiiiyr5puqiyr+Xepi66wwwqqqqqiiiiqqiiiiiiiiiiiiiitr7e",
"puqqiiittyyyyyyy+4#puiiy894epqqitttyyyyyyyyyyyyyyyyyyyyyyyyy85%e",
"putityyy@rrrr88+57$puiir957eptty@@@rrrrrrrrrrrrrrrrrrrrrr88+94=e",
"pury@r88888+99554=$puit+54%ep8yyr888888888888+9999999999995507#e",
"pu9+550000044X777#$purr0X7#ep5@r+9550000040004XXXXXXXXX4XX777#$e",
"puo#OOOOO$$$$$$$$e;pu-7OO$pep=7X7%=#OOOOOOO$$$$$$$$$$$$$$$$$$23e"
};
