/* XPM */
static char *wolfstein_texture_141659569480[] = {
/* columns rows colors chars-per-pixel */
"64 64 32 1 ",
"  c #00008C",
". c #282828",
"X c #000032",
"o c #717171",
"O c #535353",
"+ c #161616",
"@ c gray60",
"# c #646464",
"$ c #0000A9",
"% c gray49",
"& c #0000B5",
"* c #8D8D8D",
"= c #0000C1",
"- c #AAAAAA",
"; c #00007F",
": c #353535",
"> c #000016",
", c #000073",
"< c #00004C",
"1 c #000059",
"2 c #000066",
"3 c #00003F",
"4 c #000029",
"5 c #464646",
"6 c gray10",
"7 c black",
"8 c black",
"9 c black",
"0 c black",
"q c black",
"w c black",
"e c black",
/* pixels */
":222222222222222222222222222::2222222222222::222222222222:22222:",
"622222222222,,,2222222111<3366222222221<<<<6622222222<<446,,,,14",
"7222<23221312,,21332<33334>>772211<221<<<<4772;,;,;;;;;137,,<1<7",
"7213<1113221<2,,2<33113334>>772122<113<32>>772,;;2; ,;213722,147",
"72<241,,33113322<3143443434>7721<<113<344>>772;,2 ;,21<<47<43347",
"72<321,,,131233<<3<<443433347722<223444<34>772;2 & 2;214371<4447",
"7211111,,13334<4<4<<<343X33477222<<34<<<434772,;2;;22,3347134447",
"72211111134<<111333<443444447722<3<<<3<3444772,;,2,,,23437144447",
"7213133113133111333<44443X>>7721<<4<22343>>772, ,,;2221447777777",
"72<<<333133<33113>>3344X3X>>772<<433<<444>>772,;2,22<1<4471,,,27",
"713<2<<1133334<43>>>34X3334>771<334<<433444772,;;2;2<<34472,1,<7",
"71<1332<4333433443>>4344XX44771<3434<4>>447772,;;,2<21344712<147",
"713134<<34343443444>>44444477713<33344>>>44772,;;2113<4447121447",
"711333>>444>>>>>>>>>>>>>>>>>66>>>>>>>>>>>>>664444444433447<<3447",
"713144>>344>##55555555555555555555555555555555555::.743347344447",
"777777777776#:66666666666666666666666666666666666666743337777777",
"2;,2,22222,656666666666666666666666666666666666666667343374     ",
";,,,2;,2<2265667777777777777777777777777777777777.66734447<  $; ",
";,,,,22<31165667776777777677777767777776777776777.667344472 $=$,",
",21,,1133316566777.677777.677777.677777.67777.677:667334472  $, ",
"2<1,;,331136566777:677777:677777:677777:67777:677:66733347,  ,2,",
"22<1,,3133465667775677777567777756777775677775677566733447;  , 2",
",<3<121331465667775677777567777756777775677775677566733347, ,;,2",
",2<1313113465667775677777567777756777775677775677566743447, ,21;",
",,1<,11,13365667775677777567777756777775677775677566:344472  ,  ",
",2<3<<32,1365667775677777567777756777775677775677566O>>>472 , ;,",
"213,213<134656677756777775677777567777756777756775666>>>>72   ,2",
",1,,211343465667775677777567777756777775677775677566:>>>>7<   ,,",
"2<<2213334365667775677777567777756777775677775677566O4>>>7< ,  2",
"21<3131343465667775677777567777756777775677775677566:44>>7<  ;,,",
"1<11<33113465667775677777567777756777775677775677566744447<  ,12",
"1<<3<21111365667775677777567777756777775677775677566733447< , ,1",
"1<21<1231146566.:5:6..777567777756777775677775677566743>>7< , <<",
"121<<<<4443656666666667775677777567777756777756775667<4>>7<  <1<",
"311<3334434656666666667775677777567777756777756775667<34>74 , 11",
"3<<3434334>656666666667775677777567777756777756775667343474 ,11<",
"3<<<34>>444656666676667775677777567777756777756775667434474,,1<<",
"313434>>>>>656676777667775677777567777756777756775667343474,1<1<",
"3<1<434>>>>656676777667775677777567777756777756775667434474,111<",
"31<3443444>656666767667775677777567777756777756775667>>447411131",
"777777777776566667:7667775677777567777756777756775667>>>47777777",
"7777774444<6566666766677756777775677777567777567756674>>>77444>7",
"7712,;;;;;;656666666667775677777567777756777756775667>>>>7744347",
"772;;;;;,2,656666666667775677777567777756777756775667777777>>>>7",
"772;,,2,,;;65666666666777567777756777775677775677566777777777777",
"77;;;,,;;,,65667777777777567777756@777756777756775667;;;;;;,,,27",
"77;2,2,,,,,65667776677777567777@@@oo777567777567756672,,,22,;2<7",
"77;;,1<,,1;6566777.677777567777O56:O777567:::5677566722,21;;11<7",
"77;;12;,<2,6566777:677777567777ooo:777756:OOO5667566712,1<314<37",
"77;;;;2<;<,65667775677777567777...:77775665oo56:7566:2,211233347",
"77;2;122;,165667775677777567777756..:555676@-5657566O211<2<<1>>7",
"77;,11; ;2<65667775677777567777756777oo567.@@56575666,21,34114>7",
"77;2;2 & 116566777567777756777775677:5*56:%#75657566:1313<113437",
"77;,;2; ;23656677756777775677777567::o6567:@:56:7566O<2<3<2<4347",
"77;2;2,,<<<656677756777775677777566:6o65655oo5677566:3<111<43347",
"772;212332<656677756777775677777566:6o#5675575677566743<13444437",
"77;2;,<<,33656677756777775677777566:55o5677775677566744333434>>7",
"77;2;21XX4<656677756777775677766566::Oo5655O75677566734433344>>7",
"77,2XX<X4X46566777567777756766665666:::56%5O:56775667343434344>7",
"77,244X4XXX656677756777775666666566666656:5O:5677566734>>4343447",
"7722<X4<34>6566777:677776:6667Oo:666666:6:::::677O.6743>>>444447",
"66213<144346:66::5555555555555555555555555555555OO.66344>>444446",
"..134<4<++...666666666666666666666666666666666666..6.4+++++++...",
"::5555555555:::::::::::::::::::::::::::::::::::::::::5555555555:"
};
