/* XPM */
static char *wolfstein_texture_1001659569481[] = {
/* columns rows colors chars-per-pixel */
"64 64 32 1 ",
"  c #535353",
". c #009999",
"X c gray10",
"o c #00B1B1",
"O c #00A5A5",
"+ c #464646",
"@ c #595300",
"# c #3E3E00",
"$ c #8D8D8D",
"% c #646464",
"& c #B9AE00",
"* c gray71",
"= c gray49",
"- c #717171",
"; c #D0C500",
": c black",
"> c #E9D900",
", c #AAAAAA",
"< c gray60",
"1 c #9D9D00",
"2 c #1FC9C9",
"3 c #003E3E",
"4 c #005757",
"5 c #353535",
"6 c #008D8D",
"7 c #008585",
"8 c #007979",
"9 c #006C6C",
"0 c #007D7D",
"q c #007171",
"w c #007575",
"e c black",
/* pixels */
"5555555555555555555555555555555555555555555555555555555555555555",
"5999999999999999999999999999999999999999999999999999999999999995",
"50wwq940qqqqq940wqqqq940qqqqq940qqqqq940qqqqq940qqqqq940qqqqqq95",
"500009340000093400000934000009347766093466600934000009340wqqwq95",
"5000099q0000099q0000099q0000099q76.O099q6600099q0000099qwqqqwq95",
"5000043333333333333333333333333333333333333333333333333333qwwq95",
"5000004444444444444444444444444444444444444444444444444443qwwq95",
"5w4o060qqqqqqqqqqqqqqqqqqqqqqqqqqqqqqqqqqqqqqqqqqqqqqqqq43w4.q95",
"5934067888888888880808080070777776767676777700088888wwwq43934q95",
"599q06688888888880808000070777676766676777700088888wwwwq4399qq95",
"58800678888888080808007077777676766676777700088888w8wwwq43w88q95",
"50000.6888808080800007077767676766676777700080888w8wwwwq43w88q95",
"50000.788808080800707077767676766676777700080888w8wwwwwq43w80q95",
"50000.60808080000707777767676766676777700080888w8wwwwwwq43880q95",
"50000.7808000070707777767676666676777700080888w8wwwwwwqq43800q95",
"5w4o0.608000070707777767676666676777700080888w8wwwwwwqwq43w4.q95",
"59340.7000707077777676767666667677770000088888wwwwwwqwqq43934q95",
"599q0.600707077777676767666667677770700088888wwwwwwqwqqq4399qq95",
"58800.70707077777676767666667677770700088888w8wwwwwwqqq943880q95",
"50000.6707777777676767666667677770700088888w8wwwwwwqwq9q43800q95",
"50000O707777777676766666667676770700088888w8wwwwwwqwqq9w43800q95",
"50000O67777767676766666667676770700080888w8wwwwwwqwq999q43000q95",
"50000O777776767666666666767677070008088888wwwwwwqwq9q9qw43000q95",
"5w4o0O67776767666667666767677070008088888wwwwwwqwq9q9q9q43w4.q95",
"59340O7776767666667666767677070008088888wwwwwwwwq9q999qq43934q95",
"599q0O676767666667666767677070008088888wwwwwwwwqwq999qwq4399qq95",
"58800O76766666667666767677070000088888w8wwwwwwqwq999qqqq43888q95",
"50000o676666666$*******,,070000088888w8wwwwwwqwq9q9q9qwq43088q95",
"50077o766666660%+  %%-=$,70000088888w8wwwwwwqwq9q999qwqq4388wq95",
"50777o6661;>609X+X$ %5*=<0000088888w8wwwwwwqwqqq999qwqwq438w9q95",
"57777o668#@>789X+++  %%-<000080888w8wwwwwwwwqwq999qqqwwq438q9q95",
"5w4o7o689#@;6q9X++++  %%<0008088888wwwwwwwwqwq999q9qwqwq43q47q95",
"59347o79q#@;7q9X+++++  %$008088888wwwwwwwwqwq9q999qwqwwq439+4q95",
"599q6.09O#@;6q9X5X@&&>  $08088888wwwwwwwwqwq9q999qwqwwwq4399qq95",
"5886..w9.#@&7q9XXX@::&+ $8088888w8wwwwwwqwqqq999qqqwqwwq4399wq95",
"56..O7w9.#@&6q9XXX@::&++$088888w8wwwwwwqwqqq999qqqwqwwwq439qwq95",
"5..OO7w9.#@&7q9XXX#XX&++$88888w8wwwwwwqwqwq9q999qwqwwwwq439q8q95",
"5.OOo0w96#@16q9XXX##@@++$8888w8wwwwwwwwqwq9q999qqqwqwwwq439q8q95",
"5Oooo0w96#@17q9XXXXXXX++=888w8wwwwwwwwqwq9q999qqqwqwwwwq43qw0q95",
"5.72o0w96#@@6q9XXXXXXX++=88w8wwwwwwwwqwqqq999qqqwqwwwwwq43q4.q95",
"5037o0w9q9#@7q9XXXXX5+++=888wwwwwwwwqwqqq999q9qwqwqwwwwq43934q95",
"500.o7w999977q9XXX 5+X-+-88w8wwwwwwqwqwq9q999qqqwqwwww8q4399qq95",
"5..oO7w999777q9XXX555+++-8w8wwwwwwqwqwq9q99qqqqwqwwwwwwq439w8q95",
"52oOO7w9q7770q9XXXXXXXXX+w8wwwwwwwwqwq9q999q9qwqwqwwww8q43qw8q95",
"5oOO.6ww77770q9999999999w8wwwwwwwwqwqqq999q9qwqwqwwww8wq43w80q95",
"5OO...w777700qqqqqqqqqq88wwwwwwwwqwqqq99999qqqwqwwwwww8q43w80q95",
"5O.66ow77700000008088888wwwwwwwwqwqqq9q999qqqwqwqwwww8wq43880q95",
"5w4o6o07700000008088888wwwwwwwwqwqwq9q999q9qwqwqwwwwww8q43w4.q95",
"59346o6700000008088888wwwwwwwwqwqwqwq999q9qqqwqwwwwww88q43934q95",
"599q6o.00000008080888w8wwwwwwwwqwqwq99999qqqwqwqwwww8w8q4399qq95",
"58866o.0000008080888w8wwwwwwwwqwqqq99999qqqwqwqwwwwww88q43880q95",
"56667o.000008080888w8wwwwwwwwqwqqq9q999q9qwqwqwwwwww8w8q43880q95",
"56677o.00008080888w8wwwwwwwwqwqwq9q999q9qqqwqwqwwwwww88q43880q95",
"57777o.0008080808w8wwwwwwwwqwqwqwq99999qqqwqwqwwwwww888q43880q95",
"57777o.00808080888wwwwwwwwqwqwqwq99999qqqwqwqwwwwww8w88q43800q95",
"5w4o7o.0008080888wwwwwwwwwwqwqqq9q999q9qwqwqwqwwwwww888q43w4oq95",
"59347o.008080888wwwwwwwwwwqwqqq9q999q9qqqwqwqwwwwww8w88843934q95",
"599q0o..............66677700088ww888007776666666666677779399qq95",
"58800oooooooooooooooOOOO...66777766..OOOOOOOOOOO.......6q9880q95",
"500000000000008888wwwwwwwwq99999999qqwwwwww880000000000000000q95",
"50000w4o00000w4o8wwwww47wq99994w999qww47www80w4o00000w4o00000q95",
"5000093400000934wwwww934q9999934999qw934ww8809340000093400000q95",
"+000099q0000099qwwwww99qq999999999qww99qww80099q0000099q00000q9+",
"                                                                "
};
