/* XPM */
static char *wolfstein_texture_1061659569481[] = {
/* columns rows colors chars-per-pixel */
"64 64 16 1 ",
"  c gray10",
". c gray60",
"X c #8D8D8D",
"o c #282828",
"O c #353535",
"+ c #717171",
"@ c #646464",
"# c gray49",
"$ c #535353",
"% c #464646",
"& c black",
"* c black",
"= c black",
"- c black",
"; c black",
": c black",
/* pixels */
"oooooooooooooooooooooooooooooooooooooooooooooooooooooooooooooooo",
"oOOOOOOOOOOOOOOOOOOOOOOOOOOOOOOOOOOOOOOOOOOOOOOOOOOOOOOOOOOOOOOo",
"oO%%%%%%%%%%%%%%%%%%%%%%%%%%%%%%%%%%%%%%%%%%%%%%%%%%%%%%%%%%%%Oo",
"oO%@@@@@@@@@@@@@@@@@@++#########X#X#X#X#X######++++@@@@@@$@$$%Oo",
"oO%@@@##@@@@@@@@@@@@+++XX######X#X#X#X#X..####++++@@@@@@##$$$%Oo",
"oO%@@$#.#@@@@@@@@+@+++@#.X####X#X#X#X#X@#..##++++@@@@@@$#.+$$%Oo",
"oO%@@o$#%@@@@@@@+@+++#o$#$###X#X#X#X#X#o$#$#++++@@@@@@$o$#O$%%Oo",
"oO%@@%oO@@@@@@@+@+++##$oO###X#X#X#X#X##$oO#++++@@@@@@$@OoO$%$%Oo",
"oO%@@@@@@@@@+@+@+++########X#X#X#X#X######++++@@@@@@$@$$$$%$%%Oo",
"oO%@@@@@@@@+@+@+++########X#X#X#X#X######++++@@@@@@$@$$$$%$%$%Oo",
"oO%@@@@@@@+@+@++++#$%OOOOOOOOOOOOOOOOOOOOOO%@@@@@@$@$$$$%$%$%%Oo",
"oO%@@@@@@+@+@++++##.@  &&&&&&&&&&&&&&&&& o#@@@@@@$@$$$$%$%$%%%Oo",
"oO%@@@+@+@+@++++####.@$$$$$$$$$$$$$$$$$$$#@@#@@@$@$$$$%$%$%%%%Oo",
"oO%@@+@+@+@++++######.X#X#X#X#X#X######+#+@+@@@$@$$$$%$%$%%%%%Oo",
"oO%@+@+@+@++++########..#X#X#X#X######++.@+@@@$@$$$$%$%$%%%%%%Oo",
"oO%+@+@+@++++#########..X#X#X#X######++.@+@@@$@$$$$%$%$%%%%%%%Oo",
"oO%@+@+@++++#######X#X#..X#X#X######++.++@@@@@$$$$%$%$%%%%%%%%Oo",
"oO%+@+@++++#%@####X#X#X#..X#X######+#.++@@@@@$$$$%$o$%%%%%%%%%Oo",
"oO%@+@++++##@O%##X#X#X#X#..X######+#.++@@@@@$@$$%$Oo%%%%%%%%%%Oo",
"oO%+@++++###+%O%X#X#X#..X#..X####+#.#+@@@XX$@$$%$O&o%%%%%%%%%%Oo",
"oO%@++++####X@ O#X#X#@#..X#.X+##+##.+@@@%#.+$$%$O&&o%%%%%%%%%%Oo",
"oO%++++#####.+%&O#X#Xo$#$#X..X#+#+.+@+@@o$+O$$$O&&&o%%%%%%%%%%Oo",
"oO%+++######.X+ &O#X#%oO####..+#+.+@+@@@OoO$$$%& o&o%%%%%%%%%%Oo",
"oO%++#..####.XX$ &O#X#X#X####..+.+@+@@@@@$$$$% &oO&o%%%%$$%%%%Oo",
"oO%+#@#..##X.XXX$ &O#X#X####+#..#@+@@@@@$$$$% &oOO&o%%%$+#$%$%Oo",
"oO%##o$#@#X#..X#X$ &O#X####+#++##+@@@@@$$$$% &oO%O&o%%%o$+O$%%Oo",
"oO%##@oO#X#X..XX#X$ &O####+#++##+@@@@@$@$$% &oO%%O&o%%%OoO$%$%Oo",
"oO%#####X#X#..X#X#X$ &O##+#++##+@@@@@$@$$% &oO%%%O&o%%%%%$%$%%Oo",
"oO%#+%  $X#X..XX#X#X$ &O+#++# oOOOO@$@$$$o&oO%%%%O&o%%%%%%$%$%Oo",
"oO%+$&oo #X#..X#X#X##O&&O++#$&&&  O$@$$$o&oO%%%%%O&o%%%%%$%$%%Oo",
"oO%$%&&  X#X..XX#X###$O&&O+#O&&&& O@$$$o&oO%%%%%%O&o%%%%$%$%$%Oo",
"oO%%$&&& #X#..X#X####+$O O##o&&&&&O$$$o&oO%%%%%%%O&o%%%$%$%$$%Oo",
"oO%$+&&& X#X..XX####+#+$O@+@ &&&&&O$$$ oO%%%%%%%%O&o%%%%$%$$$%Oo",
"oO%+X&&& #X#..X####+#++#.+@+ &&&&&o$$%@#@%%%%%%%%O&o%%%$%$$$$%Oo",
"oO%X#&&& X#X..X###+#+++.#@+@ &&&&& $%$%@#@%%%%%%%O&o%%$%$$$$$%Oo",
"oO%#X&&& #X#..X##+#+++#.@+@@ &&&&&&%$%$%@#@%%%%%%O&o%$%$%$$$$%Oo",
"oO%X#&&& X##..X#+#+++#.#++@@    oO%$%$%%%+#%%%%%%O&o$%$%$$$$$%Oo",
"oO%#+&&&&###..X+#+++#.#++@@@@$@$$$$%$%%%%@#@%%%%%O&o%$%$$$$$$%Oo",
"oO%+$o&&$###..X#+++#.#++@@@@$@$$$$%$%%%%%%@#@%%%%O&o$%$%$$$$$%Oo",
"oO%$%%$#####..X+++#.#+++@@@$@$$$$%$%%%%%%%%@#@%%%O&o%$%$@@$$$%Oo",
"oO%%%$..####..X+++..+++@@@@@$$$$oo%%%%%%%%%%@#@%%O&o$%$%+#@$$%Oo",
"oO%%$@#..##+..X++#.#++@@@@@$@$$o&&o%%%%%%%%%%@#@$O&o%$%o$+O$$%Oo",
"oO%$#o$#@#+#..X+#.#++@@@@@$@$$ & &&o%%%%%%%%%%@#$Ooo$%$OoO%$$%Oo",
"oO%#X@oO#+#+..X#.#++@@+#@$@$$ & O &o%%%%$@@$%%@#@$oo%$$$$$$$$%Oo",
"oO%X####+#++..X.#++@+@##+@$$O& O%O &o%%%$+#@%%%@#+oo$$$$$$$$$%Oo",
"oO%####+#+++..X.++@+@o$@O$$o& O%%%O&&o%%o$+$%%$%@#$o$$$$$$$$$%Oo",
"oO%###+#++++...++@+@@%oO$$o& O%%%%Oo&&o%%oO%%%%$%@#o$$$$$$$$$%Oo",
"oO%##+#+++++..++@+@@@@@$$% &O%%%%%%Oo&&o%%%%%%$%$$@O$$$$$$$$$%Oo",
"oO%#+#++++++.++@+@+@@@$$% &O%%%%%%%%Oo&&o%%%%$%$$$$$$$$$$$$$$%Oo",
"oO%+#+++++++++@+@+@@@$@$ &O%$%%%%%%%%Oo&o%%%%%$%$$%$$$$$$$$$$%Oo",
"oO%#+++++++++@+@+@@@$@$O& %$%%%%%%%%%%Oo&o%%%$%$$%$$$$$$$$$$$%Oo",
"oO%+++++++++@+@+@@@$@$%  %$%%%%%%%%%%%%Oo&o%$%$$%$$$$$$$$$$$$%Oo",
"oO%++++++++@+@+@@@$@$% O@+++@@@@@@++++++$O&o%$$%$$$$$$$$$$$$$%Oo",
"oO%+++++++@+@+@@@@@$@O@XX.X########XX...X#O&$$%$$$$$$$$$$$$$$%Oo",
"oO%++++++@+@+@@@@@$@$#X.X###########XXX...#@$%$%$$$$$$$$$$$$$%Oo",
"oO%+++++@+@+@@@@@$@$@$@$$$%%%%%%%%%%%%%$%$%$%$%$$$$$$$$$$$$$$%Oo",
"oO%+++XX+@+@@@@@$@$@$@$@@%%%%%%%%%%%%%$%@@$%$%$$$$$$$$$$@@$$$%Oo",
"oO%++@#.#+@@@@@$@$@$@$@+#$%%%%%%%%%%%%%$+#@$%$$$$$$$$$$@+#@$$%Oo",
"oO%++o$@O@@@@@$@$@$@$$o$@O%%%%%%%%%%%%$o$+O%$%$$$$$$$$$o$+O$$%Oo",
"oO%+@%oO@@@@@$@$@$@$$$OoO%%%%%%%%%%%%$%OoO%$%$$$$$$$$$$OoO%$$%Oo",
"oO%@+@+@@@@@$@$@$@$$$%%%%%%%%%%%%%%%$%$%$%$%$$$$$$$$$$$$$$$$$%Oo",
"oO%%%%%%%%%%%%%%%%%%%%%%%%%%%%%%%%%%%%%%%%%%%%%%%%%%%%%%%%%%%%Oo",
"oOOOOOOOOOOOOOOOOOOOOOOOOOOOOOOOOOOOOOOOOOOOOOOOOOOOOOOOOOOOOOOo",
"oooooooooooooooooooooooooooooooooooooooooooooooooooooooooooooooo"
};
