/* XPM */
static char *wolfstein_texture_611659569480[] = {
/* columns rows colors chars-per-pixel */
"64 64 64 1 ",
"  c #840000",
". c #A00000",
"X c #653E17",
"o c #F58950",
"O c #EA0000",
"+ c #750000",
"@ c #F70000",
"# c #CE0000",
"$ c #5B3913",
"% c #920000",
"& c #C00000",
"* c red",
"= c #B30000",
"- c red",
"; c #580000",
": c #DC0000",
"> c #432C0F",
", c #FF1A1A",
"< c red",
"1 c #FF5C5C",
"2 c #FF8D54",
"3 c #670000",
"4 c #814B20",
"5 c #78461C",
"6 c #E8814C",
"7 c #B36437",
"8 c #DF7D48",
"9 c #8F4F25",
"0 c #AF6032",
"q c #985729",
"w c #A15C2E",
"e c #BC683B",
"r c #C9713F",
"t c #D17943",
"y c black",
"u c black",
"i c black",
"p c black",
"a c black",
"s c black",
"d c black",
"f c black",
"g c black",
"h c black",
"j c black",
"k c black",
"l c black",
"z c black",
"x c black",
"c c black",
"v c black",
"b c black",
"n c black",
"m c black",
"M c black",
"N c black",
"B c black",
"V c black",
"C c black",
"Z c black",
"A c black",
"S c black",
"D c black",
"F c black",
/* pixels */
"tttttttttte5599ww00eet6ow99999weer8888888rw,88888888r96ttttttttt",
"ttttttttte55999qww00e6<o999+99eeerqr88O8,wo,88O8888r96tttttttttt",
"ttttttte5555999qww00eto7w9999weerq9.r88rro888ttt<8r9e6ttrttttttt",
"tttttte555599qqqww00ero77w99wetrqq+.9qr,w<88Ot888r996ttttttttrrt",
"ttttew559599qqww0000etw777w9e<rq+9q.q99wo<t<t<8<r55q6ttttttrtttt",
"tttew59999qqww00eeer8w77:ew9r7+w9q9+99+o8<tt8O8r5556ttrrrttttrtt",
"tee45q9q9000eeerrttww777e96r7wq+.qq+q+6Ot<8r<8r5555wttttrtrtrttt",
"ew4599qq0eeeer888ww777eer6r .w.q+++++trOr<ttOr95q795wrrrrrrttrtt",
"w5540eeeerr88trwww77eer6tt7wwqw  +++;Ot8O<rOr9q777995w7trtrtrtte",
"54qqe88888t8twww777err6<r7www.q..++;.=OrOO8O9q77r99995wrtrrrtrew",
"q0eer888888ww7777errr6t77wwwqwwwq.;;# .OOOO w7@r799q95wwertreeq5",
"eetrr7t8tww9977errrr6rr7www.w.....;#   .OO w=@rtwq9995999ereww40",
"tt7qqqqerwew89eertr6r7.ww #wwwqw. #.      3=@ttt79qq955559wwq0ee",
"77999999eeet8099rr66e7wwwwwq#wwq4;@      3@@@@t6r7qq95ew59w0eee6",
"tr779999eerrt80996666.wwwwwqww.9;@<q    33@rtt6ttr7q95we9weeee6t",
"ttttr799eertr80996866eeww.w.wq9 @<@tq   3@=<6688tt77954weeeeee6t",
"tttttttqeerqttr06t8886eewwwww953<@@ttq 3@=t6,8888treew4eeeeee6tt",
"tttttteqee0wqr098668666ewwww943we@@ttt3@<t688ttt88r9qwqqeeeee6tr",
"ttttteqeeee0wqe8ttt8t866ew.943&ee@@ttr@r<68ttttt8r99qwwqqeee6trt",
"rrtteqeeeeeee96wtr8tt866re9439&er@@tw@rt68ttrtt8r999qwwwqee6ttrr",
"rrteqeeeweeee6ewwrttt8686e4339&er@&4@r66<rrer8rr999qwwwwqee6ttrt",
"rteqeet7wweer6wwwwr88866t433%w&er&4@r68treer8r8rwwtttewwqe6trrrr",
"eeqett7ww4er6ewwwww8t66e933%%q&eq%w5wrr7ere0rtr9twtttewqee6r7tee",
"eqet7www94wr6wwwwwq9tew09wwq%=&4%:w55werr7reer90weettteqe6trr7et",
"qeowwwww4qr6ewwwwwq9rtr0000ww=#%:<w555werretr9eeqweetteeetre77r7",
"eottwww44e6ewwwwwq90t6rr0000w43:<<tw555eerre90ewq9eee6eere7e777q",
"ottttw94e86ewwwwwq9t6rrrr00w433O<tttw550eet90teqq9rrwwete077e7qt",
"tttte44q86ewwwwww906rrrrr00w3333<ttttw5q7qq06e0w9wrrwwtew9077qto",
"trtt044r8oewwwwwq96rrrrrrrw35w: .<ttt9wqqqetreqw9w8retew9440qtot",
"trteq4r8oewwwwwq90rtrrrrr035wer. .<te9qqert6e0w9wwwwtewq9449eotr",
"rrt04e8oe0wwwwwq9trrrrrr039wet0.5 .5ww0etto6eww9eweteww9qq4qettt",
"rre4q8otre0wwwq90trtrtr039wet00.9.5390ettooe009weetteewq4XXeterr",
"rr0qr6tttre0wwq9r8trrr039wetrww.0 %3w0rtoo200w9eetttte4XXX59eert",
"teqr6tttttre0q90r8ttt03.weet0w0 . 3%w0roo2rr09wettttt4XXX495qetr",
"tqqt6ttttttre09wer8t03.weetr00w  3%9we8oo88rw9ettttt4XXX4q095qrr",
"tqr6ttttttttrww7er003.werttre0w  34wr6o88888qwttttteXXX4q0qq95et",
"ee6ttttttttewww7e043.ettttrrre0 3$9we888888eqettttt4XX4qq0qqq9et",
"q6ttttttttewwww704qOOtttttrrrre $97re888888qqtttttqXX4qq0qqq90ee",
"5ttttttttewwwww04eq.Otttttrrrre$4w7rr888887qttttteX44qqq0qqq9weq",
"55ttttttewwwwwq9r7q.OOtttttrrrw339wrr88888wttttttqX4q0t0qqqq4we5",
"555tttt0999qw99rr7q.3Otttttrr7 333340888875w0ttteXqqrt600qq94qq5",
"94q5tr00999qq9rrrqq.%3rtttt77.. +333400r7q55w0ttqq0rt6or0qq4X4q5",
"499qr00ww99q0rrt7qq.% Ott1 7w...   +3w0r8eq55w0e0ert6o6t00qXXX45",
"9qqr00w0w0q90rtrqq9%% 3q1=twwq##=%  7rr8oteq5590errto6ttr095X455",
"9qr00w0www00rrt7qq4%  3 Ot7wq9O##.%.7r8o68teq5qerrto6tttt0w5X595",
"qr00w00wwwwrrtrqq94% 33 8twwwwO##=%+rro68trteqwrrt66ttttt04X5X5q",
"r0000w0w00rrtt7q9qq 33 o87wqwq###&.qrr68ttttte0rrtotttttew55X40e",
"000w00ww00rt8rqqqq9 3 to7wwwww=O#&=7r68trttttt0rt8tttttte0XX44rr",
"000w00000rtt87qqqq9330o8e0wwwqwO#&%rr8ttttrtt00t8ttttttew54Xqrr0",
"07000w00rtt67qqqq4430o8ree0wwwwO#&+ettttrrttt0e8trttttte054qr8r0",
"0707700rrt67qqqq44X3t6ttree0www##&90tttttttt0e8rtttrttew44qr8000",
"0777000rt68teqq45X3qo8tttree0ww=#.90ettttt70et8trrtttte04q0t8t00",
"707070rt68trreqqXX3t6tttttree0ww#.9qetttt0qet8rrrrtrtew94qr88rt0",
"t0700rt6trrrr0q5X3qo8ttttttree0w#%5qwetttq0t8etettrtre099088tttr",
"tr70rr6trrerrq5XX3t6ttttttttree0#+4qqettq0errererrrtew990t8ttrtr",
"tteer6rrrrrreq5X3q68tttttttttree%459qweq0etereereetre09908trtttr",
"teer6rrrerrreqXX3r8rttttttttttre>559qqwqetetrereerr0w9908trtttrr",
"eee6rrerrreeeqX3q8tttttttttttttq3>X99490rreeeeereer0990r8rrrtrtt",
"ee6rrrrre7re05Xqrtrttttttttttrq533>>5q0re77weweeer0w90r8rrtrttrt",
"eeerree7eeer053etrtrrrttttttrq$$$3+$>0w77ww7we77ee09908rrrrtrttt",
"eqe7eer7ee7eqXqrrrrrrrrttrtrq$$$$3+$$X7ww7w7e7ewr0w908rrtrrrrtrr",
"44qq77e77e7eq3eerrrrrtrtrt0qX5$$$$3+XX5wwwww777we0908rrrrrrrrrr4",
"4444q7e77ee0Xeeeeerrtrrtr0XX4X$$$$3+++++wwweww7r0w9errrrtrrttrr4",
"444444q777eqeeeeeeeertt70Xqq4$$$$33333%%.=&#.+7ew9errrrrrrrrrr44"
};
