/* XPM */
static char *front_running_guard_041660768017[] = {
/* columns rows colors chars-per-pixel */
"65 65 64 1 ",
"  c gray10",
". c #A15C2E",
"X c #B36437",
"o c #8F4F25",
"O c #E8814C",
"+ c #78461C",
"@ c #985729",
"# c #814B20",
"$ c #F58950",
"% c #4C350E",
"& c #BC683B",
"* c #5B3913",
"= c #C9713F",
"- c #D17943",
"; c #FF9558",
": c #AF6032",
"> c #432C0F",
", c #653E17",
"< c #261A03",
"1 c #353535",
"2 c #FF8D54",
"3 c #FFA56E",
"4 c gray49",
"5 c #535353",
"6 c #DF7D48",
"7 c #00008C",
"8 c #646464",
"9 c #39280A",
"0 c #000066",
"q c #FF9D5C",
"w c #282828",
"e c #717171",
"r c #464646",
"t c #00003F",
"y c #00004C",
"u c #8D8D8D",
"i c #FFB98F",
"p c #AAAAAA",
"a c #FFBD9C",
"s c #FFB17E",
"d c blue",
"f c #C1C1C1",
"g c #0000A9",
"h c gray60",
"j c #00007F",
"k c gray71",
"l c gray82",
"z c black",
"x c white",
"c c #B3008C",
"v c black",
"b c black",
"n c black",
"m c black",
"M c black",
"N c black",
"B c black",
"V c black",
"C c black",
"Z c black",
"A c black",
"S c black",
"D c black",
"F c black",
/* pixels */
"xxxxxxxxxxxxxxxxxxxxxxxxxxxxxxxxxxxxxxxxxxxxxxxxxxxxxxxxxxxxxxxxx",
"ccccccccccccccccccccccccccccccccccccccccccccccccccccccccccccccccx",
"ccccccccccccccccccccccccccccccccccccccccccccccccccccccccccccccccx",
"ccccccccccccccccccccccccccccccccccccccccccccccccccccccccccccccccx",
"ccccccccccccccccccccccccccccccccccccccccccccccccccccccccccccccccx",
"ccccccccccccccccccccccccccccccccccccccccccccccccccccccccccccccccx",
"ccccccccccccccccccccccccccccccccccccccccccccccccccccccccccccccccx",
"ccccccccccccccccccccccccccccccccccccccccccccccccccccccccccccccccx",
"ccccccccccccccccccccccccccccccccccccccccccccccccccccccccccccccccx",
"ccccccccccccccccccccccccccccccccccccccccccccccccccccccccccccccccx",
"ccccccccccccccccccccccccccccccccccccccccccccccccccccccccccccccccx",
"ccccccccccccccccccccccccccccccccccccccccccccccccccccccccccccccccx",
"ccccccccccccccccccccccccccccccccccccccccccccccccccccccccccccccccx",
"ccccccccccccccccccccccccccccccccccccccccccccccccccccccccccccccccx",
"ccccccccccccccccccccccccccccccccccccccccccccccccccccccccccccccccx",
"ccccccccccccccccccccccccccccccccccccccccccccccccccccccccccccccccx",
"ccccccccccccccccccccccccccccccccccccccccccccccccccccccccccccccccx",
"ccccccccccccccccccccccccccccccccccccccccccccccccccccccccccccccccx",
"ccccccccccccccccccccccccccccc4pu451cccccccccccccccccccccccccccccx",
"cccccccccccccccccccccccccccc4p8e5rwwccccccccccccccccccccccccccccx",
"ccccccccccccccccccccccccccccu4ee5r1wccccccccccccccccccccccccccccx",
"ccccccccccccccccccccccccccc4u4ee55rwwcccccccccccccccccccccccccccx",
"cccccccccccccccccccccccccc44flfpue5511ccccccccccccccccccccccccccx",
"cccccccccccccccccccccccccc4rzXdXodoz 1ccccccccccccccccccccccccccx",
"ccccccccccccccccccccccccccw #3aO=a3# wccccccccccccccccccccccccccx",
"ccccccccccccccccccccccccccc %$q;;q$% cccccccccccccccccccccccccccx",
"cccccccccccccccccccccccccccc%-$6=$-%ccccccccccccccccccccccccccccx",
"ccccccccccccccccccccccccccczz:qssq%zzcccccccccccccccccccccccccccx",
"cccccccccccccccccccccccccc8z55z@=z55zz+cccccccccccccccccccccccccx",
"cccccccccccccccccccccccc&&81khzzzzh4z.&&ccccccccccccccccccccccccx",
"ccccccccccccccccccccccc#$2=8*zr@<@zz=$$$&cccccccccccccccccccccccx",
"ccccccccccccccccccccccc62OO18.22:$$$$O66-#ccccccccccccccccccccccx",
"cccccccccccccccccccccc6$2-==11.O:O..o#X.X-ccccccccccccccccccccccx",
"ccccccccccccccccccccccO2-&o6. 1.*O.OO##+.oocccccccccccccccccccccx",
"ccccccccccccccccccccccO2-+%... 11.#::%#9oo*cccccccccccccccccccccx",
"ccccccccccccccccccccc66O.+>*..*z 1.#%#*9##occcccccccccccccccccccx",
"ccccccccccccccccccccc22&.+9>#oo,zz 1.*99>,+cccccccccccccccccccccx",
"ccccccccccccccccccccc2-:,,9>>,,,9*zzz<<%,XX+ccccccccccccccccccccx",
"ccccccccccccccccccccc-22.o9    488     %XXX@ccccccccccccccccccccx",
"ccccccccccccccccccccc-O6Xo%    88r    <<Xi$@ccccccccccccccccccccx",
"ccccccccccccccccccccccOiO+%%%+++*+,%%>><i$$:ccccccccccccccccccccx",
"cccccccccccccccccccccci$@&,,#@&&*o&&&@*>$$$:ccccccccccccccccccccx",
"cccccccccccccccccccccc33$&#,,#.@oX---X@c>$=cccccccccccccccccccccx",
"ccccccccccccccccccccccc&&@@++##+oX-;;X@cccccccccccccccccccccccccx",
"ccccccccccccccccccccccccc:::###*o#@@o+,cccccccccccccccccccccccccx",
"ccccccccccccccccccccccccc*,+++**9oO;;-occcccccccccccccccccccccccx",
"ccccccccccccccccccccccccc...:::o&O;;q;Occcccccccccccccccccccccccx",
"ccccccccccccccccccccccccc.===XXo&O;;32Occcccccccccccccccccccccccx",
"ccccccccccccccccccccccccc.O==XX@&O;q3q-cccccccccccccccccccccccccx",
"ccccccccccccccccccccccccccO==XX@.:33333cccccccccccccccccccccccccx",
"ccccccccccccccccccccccccccO==XX@,;=;;-;-ccccccccccccccccccccccccx",
"ccccccccccccccccccccccccccO$OXX@6;o:&&:;ccccccccccccccccccccccccx",
"ccccccccccccccccccccccccc.OXXX@*@*=&oo+cccccccccccccccccccccccccx",
"ccccccccccccccccccccccccc..+X@@*<%<*oo**ccccccccccccccccccccccccx",
"cccccccccccccccccccccccccc+++++%%><>>>>cccccccccccccccccccccccccx",
"cccccccccccccccccccccccccc><>%%%< z<<< cccccccccccccccccccccccccx",
"cccccccccccccccccccccccccccz0 zzz70tzz cccccccccccccccccccccccccx",
"cccccccccccccccccccccccccccz0 zzzyjtzzccccccccccccccccccccccccccx",
"cccccccccccccccccccccccccccz7tzzzzzzzzccccccccccccccccccccccccccx",
"cccccccccccccccccccccccccccz70zzzzzzzzccccccccccccccccccccccccccx",
"cccccccccccccccccccccccccccc70zzzz7tzzzcccccccccccccccccccccccccx",
"ccccccccccccccccccccccccccccz7zzzz7tzzzcccccccccccccccccccccccccx",
"cccccccccccccccccccccccccccz7ggyzczzzzccccccccccccccccccccccccccx",
"ccccccccccccccccccccccccccc0770yyzccccccccccccccccccccccccccccccx",
"ccccccccccccccccccccccccccc0   zzzccccccccccccccccccccccccccccccx"
};
