/* XPM */
static char *left_walking_guard_041660768017[] = {
/* columns rows colors chars-per-pixel */
"65 65 64 1 ",
"  c #814B20",
". c #5B3913",
"X c gray10",
"o c #653E17",
"O c #985729",
"+ c #F58950",
"@ c #432C0F",
"# c #261A03",
"$ c #FF9D5C",
"% c #B36437",
"& c #AAAAAA",
"* c #282828",
"= c #4C350E",
"- c #353535",
"; c gray49",
": c #D17943",
"> c #AF6032",
", c #535353",
"< c #464646",
"1 c #C9713F",
"2 c #A15C2E",
"3 c #39280A",
"4 c #FF8D54",
"5 c #8F4F25",
"6 c #00004C",
"7 c #DF7D48",
"8 c #0000AD",
"9 c #FF9558",
"0 c #78461C",
"q c #FFB98F",
"w c #00003F",
"e c #BC683B",
"r c #E8814C",
"t c #717171",
"y c #8D8D8D",
"u c #000066",
"i c #646464",
"p c #000073",
"a c #C1C1C1",
"s c #00007F",
"d c gray60",
"f c #DDDDDD",
"g c #0000A9",
"h c #00009C",
"j c #FFB17E",
"k c #000059",
"l c #FFA56E",
"z c black",
"x c white",
"c c #B3008C",
"v c black",
"b c black",
"n c black",
"m c black",
"M c black",
"N c black",
"B c black",
"V c black",
"C c black",
"Z c black",
"A c black",
"S c black",
"D c black",
"F c black",
/* pixels */
"ccccccccccccccccccccccccccccccccccccccccccccccccccccccccccccccccx",
"ccccccccccccccccccccccccccccccccccccccccccccccccccccccccccccccccx",
"ccccccccccccccccccccccccccccccccccccccccccccccccccccccccccccccccx",
"ccccccccccccccccccccccccccccccccccccccccccccccccccccccccccccccccx",
"ccccccccccccccccccccccccccccccccccccccccccccccccccccccccccccccccx",
"ccccccccccccccccccccccccccccccccccccccccccccccccccccccccccccccccx",
"ccccccccccccccccccccccccccccccccccccccccccccccccccccccccccccccccx",
"ccccccccccccccccccccccccccccccccccccccccccccccccccccccccccccccccx",
"ccccccccccccccccccccccccccccccccccccccccccccccccccccccccccccccccx",
"ccccccccccccccccccccccccccccccccccccccccccccccccccccccccccccccccx",
"ccccccccccccccccccccccccccccccccccccccccccccccccccccccccccccccccx",
"ccccccccccccccccccccccccccccccccccccccccccccccccccccccccccccccccx",
"ccccccccccccccccccccccccccccccccccccccccccccccccccccccccccccccccx",
"ccccccccccccccccccccccccccccccccccccccccccccccccccccccccccccccccx",
"ccccccccccccccccccccccccccccccccccccccccccccccccccccccccccccccccx",
"ccccccccccccccccccccccccccccccccccccccccccccccccccccccccccccccccx",
"cccccccccccccccccccccccccc&&&;;ttcccccccccccccccccccccccccccccccx",
"ccccccccccccccccccccccccc&a;tti,,,ccccccccccccccccccccccccccccccx",
"ccccccccccccccccccccccccc&;,,,<<--<cccccccccccccccccccccccccccccx",
"ccccccccccccccccccccccccc;;&z,<<--*cccccccccccccccccccccccccccccx",
"ccccccccccccccccccccccccfa&zz,<---*cccccccccccccccccccccccccccccx",
"ccccccccccccccccccccccccccy&&dy;i<-*ccccccccccccccccccccccccccccx",
"cccccccccccccccccccccccccc>&&dy;;i<-*cccccccccccccccccccccccccccx",
"ccccccccccccccccccccccccccqqzzzzzzccccccccccccccccccccccccccccccx",
"ccccccccccccccccccccccccccqqz>   0ccccccccccccccccccccccccccccccx",
"cccccccccccccccccccccccccclzj9:eO0ccccccccccccccccccccccccccccccx",
"cccccccccccccccccccccccccccc***zzzzcccccccccccccccccccccccccccccx",
"cccccccccccccccccccccccccccf***zzzz=ccccccccccccccccccccccccccccx",
"ccccccccccccccccccccccccc$$++1>>..z*zcccccccccccccccccccccccccccx",
"cccccccccccccccccccccccc$$:rrrr1  zz.>ccccccccccccccccccccccccccx",
"ccccccccccccccccccccccc$$+ %%%%% @zz. ccccccccccccccccccccccccccx",
"ccccccccccccccccccccccc$+e. %%%% #z..=ccccccccccccccccccccccccccx",
"ccccccccccccccccccccccc$++O. 222@z@@.=ccccccccccccccccccccccccccx",
"ccccccccccccccccccccccc$++O. 220zz..#.ccccccccccccccccccccccccccx",
"ccccccccccccccccccccccc+++..  0zz ..#=ccccccccccccccccccccccccccx",
"cccccccccccccccccccccccc+.O.  zz ...#=ccccccccccccccccccccccccccx",
"ccccccccccccccccccccccc+eeO.=zz  ..#.=ccccccccccccccccccccccccccx",
"cccccccccccccccccccccccc+:2.zzzzzzzz.=ccccccccccccccccccccccccccx",
"ccccccccccccccccccccccc++:.Xzzzzzzzzooccccccccccccccccccccccccccx",
"ccccccccccccccccccccccc++:.@ooooo=ooo0ccccccccccccccccccccccccccx",
"ccccccccccccccccccccccc+:2.@o    o  occcccccccccccccccccccccccccx",
"ccccccccccccccccccccccc55.@.     .  occcccccccccccccccccccccccccx",
"cccccccccccccccccccccccq%%.o     3  ccccccccccccccccccccccccccccx",
"ccccccccccccccccccccccc99:.o     3  ccccccccccccccccccccccccccccx",
"ccccccccccccccccccccccc99O...3333#3occccccccccccccccccccccccccccx",
"cccccccccccccccccccccccc9:OOO55@###cccccccccccccccccccccccccccccx",
"cccccccccccccccccccccccccOOO>Oo@##.cccccccccccccccccccccccccccccx",
"ccccccccccccccccccccccccc471>Oo@#@ccccccccccccccccccccccccccccccx",
"ccccccccccccccccccccccccc471>Oo@#.ccccccccccccccccccccccccccccccx",
"ccccccccccccccccccccccccc477+1Oo##@cccccccccccccccccccccccccccccx",
"cccccccccccccccccccccccccO7$O:%.#@ccccccccccccccccccccccccccccccx",
"cccccccccccccccccccccccccO4$$O..##@cccccccccccccccccccccccccccccx",
"cccccccccccccccccccccccccc44O$e5@zzcccccccccccccccccccccccccccccx",
"cccccccccccccccccccccccccc74+155@zzcccccccccccccccccccccccccccccx",
"cccccccccccccccccccccccccc171ooo@zzzccccccccccccccccccccccccccccx",
"cccccccccccccccccccccccccccpkwzzzzzXXcccccccccccccccccccccccccccx",
"cccccccccccccccccccccccccccp86zXzzXXXcccccccccccccccccccccccccccx",
"cccccccccccccccccccccccccccX86zXzzXXXcccccccccccccccccccccccccccx",
"cccccccccccccccccccccccccccc86zXXXXXccccccccccccccccccccccccccccx",
"ccccccccccccccccccccccccccccuhzXXXXcccccccccccccccccccccccccccccx",
"ccccccccccccccccccccccccccccu6zXXcccccccccccccccccccccccccccccccx",
"cccccccccccccccccccccccccc88866zzXccccccccccccccccccccccccccccccx",
"cccccccccccccccccccccccccussgg6zzXccccccccccccccccccccccccccccccx",
"cccccccccccccccccccccccccccwwwwzzXccccccccccccccccccccccccccccccx",
"xxxxxxxxxxxxxxxxxxxxxxxxxxxxxxxxxxxxxxxxxxxxxxxxxxxxxxxxxxxxxxxxx"
};
