/* XPM */
static char *right_idle_guard_031660768017[] = {
/* columns rows colors chars-per-pixel */
"65 65 64 1 ",
"  c #DF7D48",
". c black",
"X c #FF9558",
"o c #282828",
"O c #814B20",
"+ c #00003F",
"@ c #A15C2E",
"# c #5B3913",
"$ c #353535",
"% c #BC683B",
"& c #B36437",
"* c #AF6032",
"= c #D17943",
"- c #653E17",
"; c gray10",
": c #8F4F25",
"> c #000066",
", c #432C0F",
"< c #E8814C",
"1 c #464646",
"2 c #F58950",
"3 c #78461C",
"4 c #261A03",
"5 c #0000AD",
"6 c #985729",
"7 c #535353",
"8 c #4C350E",
"9 c #8D8D8D",
"0 c #C9713F",
"q c #717171",
"w c #646464",
"e c gray60",
"r c #FF8D54",
"t c gray49",
"y c #C1C1C1",
"u c #AAAAAA",
"i c #FFA56E",
"p c blue",
"a c gray71",
"s c white",
"d c #B3008C",
"f c black",
"g c black",
"h c black",
"j c black",
"k c black",
"l c black",
"z c black",
"x c black",
"c c black",
"v c black",
"b c black",
"n c black",
"m c black",
"M c black",
"N c black",
"B c black",
"V c black",
"C c black",
"Z c black",
"A c black",
"S c black",
"D c black",
"F c black",
/* pixels */
"sdddddddddddddddddddddddddddddddddddddddddddddddddddddddddddddddd",
"sdddddddddddddddddddddddddddddddddddddddddddddddddddddddddddddddd",
"sdddddddddddddddddddddddddddddddddddddddddddddddddddddddddddddddd",
"sdddddddddddddddddddddddddddddddddddddddddddddddddddddddddddddddd",
"sdddddddddddddddddddddddddddddddddddddddddddddddddddddddddddddddd",
"sdddddddddddddddddddddddddddddddddddddddddddddddddddddddddddddddd",
"sdddddddddddddddddddddddddddddddddddddddddddddddddddddddddddddddd",
"sdddddddddddddddddddddddddddddddddddddddddddddddddddddddddddddddd",
"sdddddddddddddddddddddddddddddddddddddddddddddddddddddddddddddddd",
"sdddddddddddddddddddddddddddddddddddddddddddddddddddddddddddddddd",
"sdddddddddddddddddddddddddddddddddddddddddddddddddddddddddddddddd",
"sdddddddddddddddddddddddddddddddddddddddddddddddddddddddddddddddd",
"sdddddddddddddddddddddddddddddddddddddddddddddddddddddddddddddddd",
"sdddddddddddddddddddddddddddddddddddddddddddddddddddddddddddddddd",
"sdddddddddddddddddddddddddddddddddddddddddddddddddddddddddddddddd",
"sdddddddddddddddddddddddddddddddddddddddddddddddddddddddddddddddd",
"sddddddddddddddddddddddddddddddde999q77dddddddddddddddddddddddddd",
"sddddddddddddddddddddddddddddddea9qw1117ddddddddddddddddddddddddd",
"sddddddddddddddddddddddddddddde99q71$$$1ddddddddddddddddddddddddd",
"sdddddddddddddddddddddddddddddetqq71$$$1ddddddddddddddddddddddddd",
"sdddddddddddddddddddddddddddddeqw77$ooo$$dddddddddddddddddddddddd",
"sddddddddddddddddddddddddddddyu9tw71ooodddddddddddddddddddddddddd",
"sdddddddddddddddddddddddddddyu9tw71ooo:dddddddddddddddddddddddddd",
"sdddddddddddddddddddddddddddddd---8,.:0dddddddddddddddddddddddddd",
"sdddddddddddddddddddddddddddddd****:.:0dddddddddddddddddddddddddd",
"sddddddddddddddddddddddddddddddXXX<=:.:dddddddddddddddddddddddddd",
"sddddddddddddddddddddddddddddd1$$$o;;.ddddddddddddddddddddddddddd",
"sddddddddddddddddddddddddddddd1$$$o;;w.dddddddddddddddddddddddddd",
"sddddddddddddddddddddddddddd=XXXX<=&ooo:ddddddddddddddddddddddddd",
"sdddddddddddddddddddddddddd=XXiXiXoooXX%@dddddddddddddddddddddddd",
"sddddddddddddddddddddddddd=X<XX2XoooX=<<@@ddddddddddddddddddddddd",
"sddddddddddddddddddddddddd=*XXX2ooOX&<<%@@ddddddddddddddddddddddd",
"sdddddddddddddddddddddddddXO X ooOXXO&<%@Oddddddddddddddddddddddd",
"sdddddddddddddddddddddddddX*O ooO  OO  %@#ddddddddddddddddddddddd",
"sdddddddddddddddddddddddddX*OOo#   &O 2@##ddddddddddddddddddddddd",
"sdddddddddddddddddddddddddX*OoO     # 2 O#ddddddddddddddddddddddd",
"sddddddddddddddddddddddddd0*8o6   6 # %#@Oddddddddddddddddddddddd",
"sddddddddddddddddddddddddd0*81$$$o;..  %#dddddddddddddddddddddddd",
"sddddddddddddddddddddddddd0 81$$$o;..==%O#ddddddddddddddddddddddd",
"sddddddddddddddddddddddddd60:&&-&::-8**%O#ddddddddddddddddddddddd",
"sdddddddddddddddddddddddddd6&22= 2=@83**@#ddddddddddddddddddddddd",
"sdddddddddddddddddddddddddd6 2X=X2==@3**@3ddddddddddddddddddddddd",
"sdddddddddddddddddddddddddd& 2X&X2==@#**O:ddddddddddddddddddddddd",
"sdddddddddddddddddddddddddd& 2X:X2==@O##: ddddddddddddddddddddddd",
"sddddddddddddddddddddddddddd::38,----,#3X ddddddddddddddddddddddd",
"sddddddddddddddddddddddddddd% &84O<<&-#3 6ddddddddddddddddddddddd",
"sddddddddddddddddddddddddddd%X -4%< &O#,ddddddddddddddddddddddddd",
"sddddddddddddddddddddddddddd% &-4%< 063,ddddddddddddddddddddddddd",
"sddddddddddddddddddddddddddd%% @4%<  63,ddddddddddddddddddddddddd",
"sddddddddddddddddddddddddddd X @4O< r&3,ddddddddddddddddddddddddd",
"sdddddddddddddddddddddddddddd@% 4 Xr 6*,ddddddddddddddddddddddddd",
"sddddddddddddddddddddddddddd X --4OO,,O,ddddddddddddddddddddddddd",
"sddddddddddddddddddddddddddd% @-4rrr &3,ddddddddddddddddddddddddd",
"sddddddddddddddddddddddddddd% O-4@   3#,ddddddddddddddddddddddddd",
"sddddddddddddddddddddddddddd@@O-4@&&O##,ddddddddddddddddddddddddd",
"sdddddddddddddddddddddddddddd+>.+>>+;..dddddddddddddddddddddddddd",
"sdddddddddddddddddddddddddddd+5.+5>+;..dddddddddddddddddddddddddd",
"sdddddddddddddddddddddddddddd+5.+5>+;..dddddddddddddddddddddddddd",
"sdddddddddddddddddddddddddddd+>.+>>+;..dddddddddddddddddddddddddd",
"sddddddddddddddddddddddddddddd+5.+5>+;.dddddddddddddddddddddddddd",
"sddddddddddddddddddddddddddddd+5.+5>+;.dddddddddddddddddddddddddd",
"sdddddddddddddddddddddddddddd+p.+p>+;;..ddddddddddddddddddddddddd",
"sdddddddddddddddddddddddddddd+5.+5>+;.....ddddddddddddddddddddddd",
"sdddddddddddddddddddddddddddd+..+>>+;......dddddddddddddddddddddd",
"sssssssssssssssssssssssssssssssssssssssssssssssssssssssssssssssss"
};
