/* XPM */
static char *right_running_guard_011660768017[] = {
/* columns rows colors chars-per-pixel */
"65 65 64 1 ",
"  c #653E17",
". c #814B20",
"X c #985729",
"o c #5B3913",
"O c #DF7D48",
"+ c #A15C2E",
"@ c #D17943",
"# c #8F4F25",
"$ c #E8814C",
"% c #FF9558",
"& c #BC683B",
"* c #00003F",
"= c #353535",
"- c #78461C",
"; c #B36437",
": c gray10",
"> c #4C350E",
", c #AF6032",
"< c #000066",
"1 c #700066",
"2 c #282828",
"3 c #C9713F",
"4 c #464646",
"5 c #432C0F",
"6 c #535353",
"7 c #8D8D8D",
"8 c #00008C",
"9 c gray49",
"0 c #FFA56E",
"q c #646464",
"w c #FF9D5C",
"e c #FF8D54",
"r c #0000B5",
"t c #AAAAAA",
"y c gray60",
"u c #C1C1C1",
"i c #0000AD",
"p c #261A03",
"a c #F58950",
"s c #000059",
"d c #39280A",
"f c #FFB98F",
"g c black",
"h c white",
"j c #B3008C",
"k c black",
"l c black",
"z c black",
"x c black",
"c c black",
"v c black",
"b c black",
"n c black",
"m c black",
"M c black",
"N c black",
"B c black",
"V c black",
"C c black",
"Z c black",
"A c black",
"S c black",
"D c black",
"F c black",
/* pixels */
"hjjjjjjjjjjjjjjjjjjjjjjjjjjjjjjjjjjjjjjjjjjjjjjjjjjjjjjjjjjjjjjjj",
"hjjjjjjjjjjjjjjjjjjjjjjjjjjjjjjjjjjjjjjjjjjjjjjjjjjjjjjjjjjjjjjjj",
"hjjjjjjjjjjjjjjjjjjjjjjjjjjjjjjjjjjjjjjjjjjjjjjjjjjjjjjjjjjjjjjjj",
"hjjjjjjjjjjjjjjjjjjjjjjjjjjjjjjjjjjjjjjjjjjjjjjjjjjjjjjjjjjjjjjjj",
"hjjjjjjjjjjjjjjjjjjjjjjjjjjjjjjjjjjjjjjjjjjjjjjjjjjjjjjjjjjjjjjjj",
"hjjjjjjjjjjjjjjjjjjjjjjjjjjjjjjjjjjjjjjjjjjjjjjjjjjjjjjjjjjjjjjjj",
"hjjjjjjjjjjjjjjjjjjjjjjjjjjjjjjjjjjjjjjjjjjjjjjjjjjjjjjjjjjjjjjjj",
"hjjjjjjjjjjjjjjjjjjjjjjjjjjjjjjjjjjjjjjjjjjjjjjjjjjjjjjjjjjjjjjjj",
"hjjjjjjjjjjjjjjjjjjjjjjjjjjjjjjjjjjjjjjjjjjjjjjjjjjjjjjjjjjjjjjjj",
"hjjjjjjjjjjjjjjjjjjjjjjjjjjjjjjjjjjjjjjjjjjjjjjjjjjjjjjjjjjjjjjjj",
"hjjjjjjjjjjjjjjjjjjjjjjjjjjjjjjjjjjjjjjjjjjjjjjjjjjjjjjjjjjjjjjjj",
"hjjjjjjjjjjjjjjjjjjjjjjjjjjjjjjjjjjjjjjjjjjjjjjjjjjjjjjjjjjjjjjjj",
"hjjjjjjjjjjjjjjjjjjjjjjjjjjjjjjjjjjjjjjjjjjjjjjjjjjjjjjjjjjjjjjjj",
"hjjjjjjjjjjjjjjjjjjjjjjjjjjjjjjjjjjjjjjjjjjjjjjjjjjjjjjjjjjjjjjjj",
"hjjjjjjjjjjjjjjjjjjjjjjjjjjjjjjjjjjjjjjjjjjjjjjjjjjjjjjjjjjjjjjjj",
"hjjjjjjjjjjjjjjjjjjjjjjjjjjjjjjjjjjjjjjjjjjjjjjjjjjjjjjjjjjjjjjjj",
"hjjjjjjjjjjjjjjjjjjjjjjjjjjjjjjjjjjjjjjjjjjjjjjjjjjjjjjjjjjjjjjjj",
"hjjjjjjjjjjjjjjjjjjjjjjjjjjjjjjjj7uy99q6jjjjjjjjjjjjjjjjjjjjjjjjj",
"hjjjjjjjjjjjjjjjjjjjjjjjjjjjjjjj7u7q64=2=jjjjjjjjjjjjjjjjjjjjjjjj",
"hjjjjjjjjjjjjjjjjjjjjjjjjjjjjjjju7q644=22jjjjjjjjjjjjjjjjjjjjjjjj",
"hjjjjjjjjjjjjjjjjjjjjjjjjjjjjjjjt9664=222=jjjjjjjjjjjjjjjjjjjjjjj",
"hjjjjjjjjjjjjjjjjjjjjjjjjjjjjjjj7q69q662222jjjjjjjjjjjjjjjjjjjjjj",
"hjjjjjjjjjjjjjjjjjjjjjjjjjjjjjjty77>i8&o8=jjjjjjjjjjjjjjjjjjjjjjj",
"hjjjjjjjjjjjjjjjjjjjjjjjjjjjjjty77>,OwOe#=jjjjjjjjjjjjjjjjjjjjjjj",
"hjjjjjjjjjjjjjjjjjjjjjjjjjjjjjjjj>gw$O&,#jjjjjjjjjjjjjjjjjjjjjjjj",
"hjjjjjjjjjjjjjjjjjjjjjjjjjjjjjjjj#:wOO. ojjjjjjjjjjjjjjjjjjjjjjjj",
"hjjjjjjjjjjjjjjjjjjjjjjjjjjjjjjjgg#:wO&,.jjjjjjjjjjjjjjjjjjjjjjjj",
"hjjjjjjjjjjjjjjjjjjjjjjjjjjjjjjgg9ge##>:jjjjjjjjjjjjjjjjjjjjjjjjj",
"hjjjjjjjjjjjjjjjjjjjjjjjjjjj+O44gt9g##>:.jjjjjjjjjjjjjjjjjjjjjjjj",
"hjjjjjjjjjjjjjjjjjjjjjjjjj+%%OO44pg:gog+X.jjjjjjjjjjjjjjjjjjjjjjj",
"hjjjjjjjjjjjjjjjjjjjjjjjj+%%$%O+1=1&#g&XXX.jjjjjjjjjjjjjjjjjjjjjj",
"hjjjjjjjjjjjjjjjjjjjjjjj+%%$3,++&:=1#X.--X#jjjjjjjjjjjjjjjjjjjjjj",
"hjjjjjjjjjjjjjjjjjjjjjjj%3$3;.o++3:11X..o.X.jjjjjjjjjjjjjjjjjjjjj",
"hjjjjjjjjjjjjjjjjjjjjjj00O&+. o+X+;:11.oXo.#jjjjjjjjjjjjjjjjjjjjj",
"hjjjjjjjjjjjjjjjjjjjjjj%%3##j@.+XX.-:11oo-,,Xjjjjjjjjjjjjjjjjjjjj",
"hjjjjjjjjjjjjjjjjjjjjjj%$%%,j@@+XX..>:1.@f%XXjjjjjjjjjjjjjjjjjjjj",
"hjjjjjjjjjjjjjjjjjjjjjj$%%%3jj@&X#..>:11@aO;Xjjjjjjjjjjjjjjjjjjjj",
"hjjjjjjjjjjjjjjjjjjjjjjjO%O0wj==2:g9q4gg@aO;Xjjjjjjjjjjjjjjjjjjjj",
"hjjjjjjjjjjjjjjjjjjjjjjj&O00OX==2:g664ggo@;;jjjjjjjjjjjjjjjjjjjjj",
"hjjjjjjjjjjjjjjjjjjjjjjjjO00&X;+.  >5>>5jjjjjjjjjjjjjjjjjjjjjjjjj",
"hjjjjjjjjjjjjjjjjjjjjjjjjjO&X$$@&+...>- jjjjjjjjjjjjjjjjjjjjjjjjj",
"hjjjjjjjjjjjjjjjjjjjjjjjjjjjj$@@+#... - jjjjjjjjjjjjjjjjjjjjjjjjj",
"hjjjjjjjjjjjjjjjjjjjjjjjjjjj$$@,+X... - jjjjjjjjjjjjjjjjjjjjjjjjj",
"hjjjjjjjjjjjjjjjjjjjjjjjjjjj$@,X-oo>5 - jjjjjjjjjjjjjjjjjjjjjjjjj",
"hjjjjjjjjjjjjjjjjjjjjjjjjjjjX&&O&#- o55jjjjjjjjjjjjjjjjjjjjjjjjjj",
"hjjjjjjjjjjjjjjjjjjjjjjjjjjjjX@$O+#-  >jjjjjjjjjjjjjjjjjjjjjjjjjj",
"hjjjjjjjjjjjjjjjjjjjjjjjjjjjj3O$O&+-  jjjjjjjjjjjjjjjjjjjjjjjjjjj",
"hjjjjjjjjjjjjjjjjjjjjjjjjjjjj3,eO3+-  ojjjjjjjjjjjjjjjjjjjjjjjjjj",
"hjjjjjjjjjjjjjjjjjjjjjjjjjjjj3,eO$&#-  jjjjjjjjjjjjjjjjjjjjjjjjjj",
"hjjjjjjjjjjjjjjjjjjjjjjjjjjj@;,&$$@X-  ojjjjjjjjjjjjjjjjjjjjjjjjj",
"hjjjjjjjjjjjjjjjjjjjjjjjjjjj;@;#X3$;X   jjjjjjjjjjjjjjjjjjjjjjjjj",
"hjjjjjjjjjjjjjjjjjjjjjjjjjj @@;# $@;#  ojjjjjjjjjjjjjjjjjjjjjjjjj",
"hjjjjjjjjjjjjjjjjjjjjjjjjjj<@;X. @X -  oojjjjjjjjjjjjjjjjjjjjjjjj",
"hjjjjjjjjjjjjjjjjjjjjjjjjj<<g+.o 3X.   oojjjjjjjjjjjjjjjjjjjjjjjj",
"hjjjjjjjjjjjjjjjjjjjjjjjjj<<:g55j,@..o o5jjjjjjjjjjjjjjjjjjjjjjjj",
"hjjjjjjjjjjjjjjjjjjjjjj*iigggggjjj-o5dpp5jjjjjjjjjjjjjjjjjjjjjjjj",
"hjjjjjjjjjjjjjjjjjjjjjj*<*gggjjjjjr8*gggjjjjjjjjjjjjjjjjjjjjjjjjj",
"hjjjjjjjjjjjjjjjjjjjjjj**ggggjjjjj<r*gggjjjjjjjjjjjjjjjjjjjjjjjjj",
"hjjjjjjjjjjjjjjjjjjjjjjg<ggggjjjjjjr8sggjjjjjjjjjjjjjjjjjjjjjjjjj",
"hjjjjjjjjjjjjjjjjjjjjjjjggggggjjjjj<**sggjjjjjjjjjjjjjjjjjjjjjjjj",
"hjjjjjjjjjjjjjjjjjjjjjjjjgggggjjjjjjr8*ggjjjjjjjjjjjjjjjjjjjjjjjj",
"hjjjjjjjjjjjjjjjjjjjjjjjjjjjjjjjjjj<88<gggjjjjjjjjjjjjjjjjjjjjjjj",
"hjjjjjjjjjjjjjjjjjjjjjjjjjjjjjjjjjj<<***ggggjjjjjjjjjjjjjjjjjjjjj",
"hjjjjjjjjjjjjjjjjjjjjjjjjjjjjjjjjjj====****gjjjjjjjjjjjjjjjjjjjjj",
"hhhhhhhhhhhhhhhhhhhhhhhhhhhhhhhhhhhhhhhhhhhhhhhhhhhhhhhhhhhhhhhhh"
};
