/* XPM */
static char *wolfstein_texture_631659569480[] = {
/* columns rows colors chars-per-pixel */
"64 64 64 1 ",
"  c #653E17",
". c #F58950",
"X c #5B3913",
"o c #750000",
"O c #B30000",
"+ c #A00000",
"@ c red",
"# c #FF3E3E",
"$ c #CE0000",
"% c #840000",
"& c #432C0F",
"* c #DC0000",
"= c #670000",
"- c #FF1A1A",
"; c #F70000",
": c #EA0000",
"> c red",
", c #FF8D54",
"< c red",
"1 c #C00000",
"2 c #920000",
"3 c #E8814C",
"4 c #78461C",
"5 c #814B20",
"6 c #B36437",
"7 c #DF7D48",
"8 c #AF6032",
"9 c #8F4F25",
"0 c #985729",
"q c #A15C2E",
"w c #BC683B",
"e c #C9713F",
"r c #D17943",
"t c black",
"y c black",
"u c black",
"i c black",
"p c black",
"a c black",
"s c black",
"d c black",
"f c black",
"g c black",
"h c black",
"j c black",
"k c black",
"l c black",
"z c black",
"x c black",
"c c black",
"v c black",
"b c black",
"n c black",
"m c black",
"M c black",
"N c black",
"B c black",
"V c black",
"C c black",
"Z c black",
"A c black",
"S c black",
"D c black",
"F c black",
/* pixels */
"rrrrrrrrrrw4499qq88wwr3.q99999qwwe7777777eq.77777777e93rrrrrrrrr",
"rrrrrrrrrw449990qq88w3..999999wwwe0e7777eq.77777777e93rrrrrrrrrr",
"rrrrrrrw44449990qq88wr.6q9999qwwe099e77ee.777rrr77e9w3rrerrrrrrr",
"rrrrrrw444499000qq88we.66q99qwre009990eeq.7erw777e993rrrrrrrreer",
"rrrrwq44949900qq8888wrq666q9wee00909099q.7rw8777e4403rrrrrrerrrr",
"rrrwq4999900qq88wwwe7q666wq9e6qq909999566qq9we7e4443rreeerrrrerr",
"rww540909888wwweerrqq666w93e0q090009053766qq77e4444qrrrrerererrr",
"wq5499008wwwwe777qq666wwe3e60q99q9905r66eqwq7e940694qeeeeeerrerr",
"q4458wwwwee77reqqq66wwe3r50q9099q0q056r76rwqe90666994q6rerererrw",
"4500w77777r7rqqq666wee3re65959500q0586r8ew7q9066e99994qereeerewq",
"08wwe777777qq6666weee3r6q995459q99508qqerwe9q6ee699094qqwereww04",
"wwree6r7rqq9966weeee3ee6qq95 599q55w8q99we9qweerq09994999wewqq58",
"rr60000weqwq79wwere3e66qqqq9X90q950e8qq99qwweerr6900944449qq08ww",
"66999999wwwr7899ee33w6qqqqq999905083w8q9ww88err3e60094wq49q8www3",
"re669999wweer78993333wqqqq909qq958rrr8qww8qerr3rre6094qw9qwwww3r",
"rrrre699wwere78993733wwqqqqqq094wwrrrwqw8q6r3377wr66945qwwwwww3r",
"rrrrrrr0wwe0rre83r7773wwqqqqq94 wrrrrw68q6r37w7w.rewwq5wwwwww3rr",
"rrrrrrw0ww8q0e897337333wqqqq95oqwrrrrr6qer377ww.77e90q00wwwww3re",
"rrrrrw0wwww8q0w7rrr7r733wqq95=9w:rrrre8er3www9wwwww90qq00www3rer",
"eerrw0wwwwwww93qre7rr733ew95o9qOer-rqwer37rrwwr7e9990qqq0ww3rree",
"eerw0wwwqwwww3wqqerrr7373w=o4O+werr5qe337eewewee9990qqqq0ww3rrer",
"erw0wwr6qqwwe3qqqqe77733ro=oO+Ower5qe37re<we7w7eqqrrrwqq0w3reeee",
"ww0wrr6qq5we3wqqqqq7r33ooooo+Oqw05q4qee6wew8ewe9rqrrrwq0ww3e6rww",
"w0wr6qqq95qe3qqqqq09rwq89%oo+**58.q44qwee6ewwe98qwwrrrw0w3ree6wr",
"0w.qqqqq50e3wqqqqq09ere888*+oq50e.q444qwee<re9ww0qwwrrwwwrew66e6",
"w.rrqqq55w3wqqqqq098r3ee8*8*O55ee3rq444wweew98wq09www3wwew6w6660",
".rrrrq95w73wqqqqq09r3eeee88;o54e3rrrq448wwr98rw009eeqqwrw866w60r",
"rrrrw55073wqqqqqq983eeeee88oo44rrr#rrq4060083w8q9qeeqqrwq98660r.",
"rerr855e7.wqqqqq093eeeeeeeqo4qw0qrrrr9q000wrew0q9q7ewrwq95580r.r",
"rerw05e7.wqqqqq098ereeeee8o4qwe09qrrw900wer3w8q9qqqqrwq09559w.re",
"eer85w7.w8qqqqq09reeeeee8o9qwr8O90qwqq8wrr#3wqq9wqwrwqq90050wrrr",
"eew507.rew8qqq098rerere859qwr08959Oq98#rr..w8+9qwwrrwwq05  wrwee",
"ee80e3rrrew8qq09e7reee859qwreq055q04q8er..,88q9wwrrrrw5   49wwer",
"rw0e3rrrrrew8098e7rrr859qwwr59945549O8e.#,e+89qwrrrrr5   5940wre",
"r00r3rrrrrrew89qwe7r850qwwre8009q45Oqw7..w<eq+wrrrrr5   508940ee",
"r0e3rrrrrrrreqq6we885qqwerre00q905Oqe3#7$<O70qrrr#rw   5080094wr",
"ww3rrrrrrrrwqqq6w855wwrrrweeew85499q-7<$<O7;0wrrrrr5  50080009wr",
"03rrrrrrrrwqqqq68500rwwww9wwwew4996ew<;+<<$00rrrrr0  500800098ww",
"4rrrrrrrrwqqqqq85w09erwwwweeeew45q6<e-$$$$<0rrrrrw 5500080009qw0",
"44rrrrrrwqqqqq09e6050wrwrwreeeq559qeeO-<O7qrrrr<r0 508r800005qw4",
"444rrrr89990q99ee60550wrrwree699%55=O77<7O4q8rrrw 00er3880095004",
"9504re88999009eee00559errwre699999o5=88e6044q8rr008er3.e8005 504",
"5990e88qq9908eer6009559rrwwrqq+90%0%2q8<7w044q8w8wer3.3r880   54",
"900e88q8q8098ere00950590ewrqq0q0+9+06ee7#rw04498weer.3rre894 544",
"90e88q8qqq88eer600599990wr6q0900900q%e7.37rw040weer.3rrrr8q4 494",
"0e88q88qqqqeere00959000w7rq:qq0q0Oq0ee#37rerw0qeer33rrrrr85 4 40",
"e8888q8q88eerr609000055.76q0q1990900ee37rrrrrw8eer.rrrrrwq44 58w",
"888q88qq88er7e00009055r.6qqqqqqq09q%e37rerrrrr8er7rrrrrrw8  55ee",
"888q88888err76000095 8.7w8qqq0q00qqee7rrrrerr88r7rrrrrrwq45 0ee8",
"86888q88err36000055 8.7eww8qqqqq000wrrrreerrr8w7rerrrrrw8450e7e8",
"8686688eer36000055  r3rreww8qq:qqq98rrrrrrrr8w7errrerrwq550e7888",
"8666888er37rw0054  0.7rrreww8qqqqq98wrrrrr68wr7reerrrrw8508r7r88",
"686868er37reew00   r3rrrrreww8qqq090wrrrr80wr7eeeererwq950e77er8",
"r8688er3reeee804  0.7rrrrrreww8qq940qwrrr08r7wrwrrerew899877rrre",
"re68ee3reewee04   r3rrrrrrrreww8q9500wrr08weeweweeerwq998r7rrere",
"rrwwe3eeeeeew04  037rrrrrrrrreww05490qw08wrwewwewwrew89987rerrre",
"rwwe3eeeweeew0  0e7errrrrrrrrrew444900q0wrwrewewwee8q9987rerrree",
"www3eeweeewww0  07rrrrrrrrrrrrr0X& 99598eewwwwwewwe8998e7eeererr",
"ww3eeeeew6ew84 0ererrrrrrrrrre04X&&&408ew66qwqwwwe8q98e7eererrer",
"wwweeww6wwwe84 wrereeerrrrrre0XXXXXX&8q66qq6qw66ww89987eeeererrr",
"w0w6wwe6ww6w0 0eeeeeeeerrere0XXXXXXXX 6qq6q6w6wqe8q987eereeeeree",
"550066w66w6w0 wweeeeererer80 4XXXXXX  4qqqqq666qw8987eeeeeeeeee5",
"555506w66ww8 wwwwweereere8  5 XXXXX    4qqqwqq6e8q9weeeereerree5",
"5555550666w0wwwwwwwwerr68 005XXXXX   4440qqq666wq9weeeeeeeeeee55"
};
