/* XPM */
static char *wolfstein_texture_621659569480[] = {
/* columns rows colors chars-per-pixel */
"64 64 32 1 ",
"  c #BC683B",
". c #670000",
"X c #750000",
"o c #490000",
"O c #B30000",
"+ c #840000",
"@ c #580000",
"# c #920000",
"$ c #EA0000",
"% c #A00000",
"& c #DC0000",
"* c #353535",
"= c #DF7D48",
"- c #CE0000",
"; c red",
": c #F70000",
"> c #535353",
", c #39280A",
"< c #261A03",
"1 c #B36437",
"2 c #432C0F",
"3 c #814B20",
"4 c #AF6032",
"5 c #4C350E",
"6 c #78461C",
"7 c #5B3913",
"8 c #653E17",
"9 c #8F4F25",
"0 c #985729",
"q c #A15C2E",
"w c black",
"e c black",
/* pixels */
"qqqqqqqqqq9878787660qq1 8555558990444444408 44444444051qqqqqqqqq",
"qqqqqqqqq9778777863qq1  555555999070444408 44444444051qqqqqqqqqq",
"qqqqqqq988777788869q1  985555899075504400 444qqq440591qq0qqqqqqq",
"qqqqqq98777877786391  98685589q07+5557008 44qq4440551qqqqqqqq00q",
"qqqq9875585568669q1  8863385900775757558 4q4q4440,,71qqqqqq0qqqq",
"qqq98,7575686669q  986633389038+5755552 44qq4q40,,,1qq000qqqq0qq",
"q992,75756669990 48633330910387777757214qq40440,,,,8qqqq0q0q0qqq",
"982,557769999044486333900103887785572q0400:q405,735,8000000qq0qq",
"8,,2699990044q0883339001qq3887+7878720q40q0405733355,83q0q0q0qq9",
",277764444q4q8863390001q0388887+7+7263q00040573305555,80q000q098",
"76996744444886339q0q01q3388#788+78296880q005830035575,8890q0997,",
"99q00374q687333900001003888788++828968550058900q87555,5559098826",
"qq377776669676990q010338888888++.78$6885589900qq35775,,,,5887699",
"33555555999q465500119388888788++.861968599660qq103775,98,5869991",
"q03355559900q46551111988888788+.@6qqq6899680qq1qq0375,895899991q",
"qqqq0355990q046551411998888887+.6$q-qO89683q1144qq335,289999991q",
"qqqqqqq79907qq061q444199888885@X39O9q93683q1$4444q099829999991qq",
"qqqqqq979968706541141119888852@X9-9O00380O144qqq44057877999991q0",
"qqqqq97999968794qqq4q41198852@XXOO99##60q14qqqqq4055788779991q0q",
"00qq979999999518q04qq4110952@.X#O##389Oq$$qq0qq4055578887991qq00",
"00q979998999919880qqq414192oo.X##8528O$&40090400555788887991qq0q",
"0q9799q38899018888044411q8oo@.XXX2XXO14q0990404088qqq988791q0000",
"9979qq38829019888884q1198o@@o@ooooo0100390960q05q8qqq98799103q99",
"979q3888528018888875q98#XX...@*>X3oo539003099056899qqq9791q0039q",
"79 888882701988888750q06++X.X.**Xq92.539009q05997899qq999q093303",
"9 qq8882291988888756q10066.XXo.XOqq32..9900956987599919909393337",
" qqqq85294198888875q10000OXXoo+qq;138...99q56q977500889q9633937q",
"qqqq9227419888888561000008XXo%O91qqqq5...7761968580088q9856337q ",
"q0qq62204 9888887510000000Xo5%O09qqqqq8..79q097858409q9852267q q",
"q0q97204 9888887560q000006o5%9&399qqqqq7.0q196858888q98752259 q0",
"00q6294 968888875q0000006o58%933799qqq3OOq 19885989q988577279qqq",
"009274 q096888756q0q0q06o58%9033673356OOq  9665899qq99872<<9q900",
"006701qqq096887504q0006o589&0333677,+OOq  =668599qqqq92<<<,5990q",
"q9701qqqqq09675604qqq62o8990333367,.+O0  =006589qqqqq2<<<25,79q0",
"q77q1qqqqqq09658904q6o7899$033338,..894  440859qqqqq2<<<2765,700",
"q701qqqqqqqq088390662889000093367.2801 4444478qqqqq9<<<276775,9q",
"991qqqqqqqq98883962299qqq0000937,5589444444979qqqqq2<<277677759q",
"71qqqqqqqq9888836277qqqqqq00009,5588904444477qqqqq7<<27767775699",
",qqqqqqqq988888629750qqqqq00009,258880444437qqqqq9<2277767775897",
",,qqqqqq9888887503727qqqqqq0008225588304448qqqqqq7<276q67777289,",
",,,qqqq655578550037227qqqqq003555222680443,86qqq9<770q166775277,",
"527,q066555775000772250qqqq035555522266037,,86qq7760q1 06772<27,",
"255706688557600q3775225qq09q887578772860497,,869690q1 1q667<<<2,",
"57706686867560q07752725709q8878755573004 q97,,56900q 1qq065,<2,,",
"57066868886600q3772555579q3875775778304 14q97,7900q 1qqqq68,<,5,",
"7066866888800q07752577794q888878788700 14q0q97800q11qqqqq62<,<,7",
"066668686600qq375777722 4387875575770014qqqqq9600q qqqqq98,,<279",
"66686688660q4077775722q 388888887588014q0qqqqq60q4qqqqqq98<<2700",
"6668666660qq43777752<6 496888787788304qqqq0qq66q4qqqqqq98,2<7006",
"636668660qq13777722<6 409968888877799qqq00qqq694q0qqqqq98,270406",
"636336600q13777722<<q1qq0996888888563qqqqqqq6940qqq0qq9822704666",
"63336660q14q9772,<<7 4qqq0996888885869qqqq369q4q00qqqq98276q4q66",
"3636360q14q00977<<<q1qqqqq099688877869qqq679q40000q0q985270440q6",
"q63660q1q000067,<<7 4qqqqqq09968857789qqq76q49q9qq0q09855644qqq0",
"q036001q009007,<<<q1qqqqqqqq09968527869q76900909000q98556q4qq0q0",
"qq990100000097,<<714qqqqqqqqq09972,7769769q9099099q0985564q0qqq0",
"q9901000900097<<7040qqqqqqqqqq09,,,776579q9q0909900685564q0qqq00",
"99910090009997<<74qqqqqqqqqqqqq7<<<<725600999990990655604000q0qq",
"9910000093096,<70q0qqqqqqqqqq07,<<<<,260933898999068560400q0qq0q",
"9990099399906,<9q0q000qqqqqq07<<<<<<<2833883893399655640000q0qqq",
"9793990399397<700000000qq0q07<<<<<<<<<288383939806856400q0000q00",
"2277339339397<9900000q0q0q67<,<<<<<<<<,8888833389656400000000002",
"222273933996<9999900q00q06<<2<<<<<<<<<<,8889883068590000q00qq002",
"222222733397999999990qq36<772<<<<<<<<,,,788833398590000000000022"
};
