/* XPM */
static char *wolfstein_texture_921659569481[] = {
/* columns rows colors chars-per-pixel */
"64 64 16 1 ",
"  c #5B3913",
". c #4C350E",
"X c #432C0F",
"o c #E8814C",
"O c #D17943",
"+ c #78461C",
"@ c #C9713F",
"# c #B36437",
"$ c #BC683B",
"% c #653E17",
"& c #985729",
"* c #8F4F25",
"= c #814B20",
"- c #AF6032",
"; c #A15C2E",
": c black",
/* pixels */
"%#--#$OOOOOOOOO$$#---#OO@$##$$@*%@@@@O@@$$$#$$@$#---#$$@O@@@@$#%",
" -**&-@OO@$$$#;*=====-$$;;&;;-#*%$;----;&*==&;;*====*;;-###-;**%",
".-&;-$OO@$--;&*=====&$O$;;;;---*%#&;--;&====&;*====*&;;----;&*&=",
".$$$$@$$--;;**======-@@#;;;;;-;+ -*&;;*==+=*&&**===*;;;;--;&&;-*",
" OO@$$-;;***=======;$O@#-;;;;;&%.-*&;*==+=*&&&&*===&;--;;;;&;-$;",
"%o@$--;&*======***&#@@$#---;;*= .-*&&*===&;;&&;&*=*;----;;;-$@$*",
"%O$-;;**======*&&;#$@$$##-;;*=% .-*&&*==;--;&;;&*=*;----;;-$@$-%",
"%O-;**=======*&;;-$@$$##--&=+%% .-*;&**&---;&;&****;;--;--$@$-*%",
"%@;&*=======*&;--#@@#----;=+%%+ .-*;;;;;;;;&*******&;;;--$O@-;*%",
"%$&*========&;-#$OO$-;;;&*=%%%+ .-;-#-;;&********=*;;;;-$@O$;&*%",
"%#*========*;-$@OO@-;;&*=+%%%%+ .#---;&*====****==&;;;;##$$-&**%",
" -=======*&;-#@OO@-;&*==+%%%%++% $;;;*====**&**==*;;;;---#$;***+",
".-=+====*;;-#$@O@-;&*==%% %%+==%%$;**===*&;;;*===&;---#-;-#-&**%",
".-++==*&;-$@$@O@#;*===+%  %+=*;*%$**==**;;;;&*==*;--###-;-#;&**+",
".-+=*;;-$@@@@@@#&*====%  %%=&-#*%#*==*&;--;&*==*;--###-;-##;&**+",
".-=*;-#$@@@$@O$;*====+% %%=*;##= -==*&;--;*==*&;-###$#-;-$-&**&+",
" #&;;-$@$---@@#*====+%%%%==;-#;%.-=*&;---;*=*&-#$##$$-;&-#;**&;%",
"%$;;;-$#;&&-@$;*===+% %%==&--;&%.-*&;---;&**;-$$$#---;*;-;*&&;&%",
"%@-;;-#-*=;$@#&*==+%  %=*;;-;*=%.-*;---;;;;-#$$$-;;&**&-;*&;;&*%",
"%@-;;--&=&$O$;*==+%% %%=;--;*==%.#;---;;;--#$$-;;*===&-;**;-;==%",
"%O-----;;$O@-*==+%%%%%=&--;*===% $---;;;---##-&*====&;&**&-;*==%",
"%O$$$@$#$@@-&==+%%%%%=*;-;*===*%%@--;;-------&=====&;&==*;;&=++%",
"%O$OOO$-;-#;*=++%%%%+=&--&===*;=%$;;;-##-;--;*==*&;-&===*;;=%%=%",
"%@@OO$;*&--*=++++%+==*;;&===*&;=%#*;-$$#-;--;==*-##-*===*;*+%%=%",
"%OO$-*==;-;*===+++==*&&*===**;;= -*-@@$-;;--;&&;#;&*===*&;*%%=*=",
"%O@;=++*;-;====+++=&;;*==**&;;;% -;#@$-;;;--#$#-&==+===*;&=%+*;*",
"+O-=%%=*--&===+++=;--;**&;;;;;&%.#-$$-;;;-$$$#;*===+===*;&==*;-*",
"+O*+%==;--*======&--;&&;;---;;*% $#$-;&;#$$-;&=========&;;&&;--+",
"%#=+==&;-;*====*;;;;*&;;----;*=% @$$------;*===========&-#----;%",
" -==**;--;===*;-#-;*=*;;;;;-;*=%%O@@@$-;;;*=======*&&&*;#$--#-&%",
" -**&&;--*=*&;-$$-&==****;;;&==%%O@@$;&*&&*======*;;;;;--#-##-*%",
".%%%%%=*=%%+*****=%%%%%%%+==%%%% -;=%%%%+%%%%%%%%+==%%+******=%.",
"X     %%% %%%%%%% ......  %  %% .=% ..    ....      .. %%%%%% .X",
" $$$##$OO@@$$$$$#--------#$$$OO*%OO#-#$$#----#$$#-----$@@@OO@#-%",
" $;;**;$$-;&*&&**==++==&;-##$$#*%O-*&;;&===*&;;&=+%=*;--;;-#;*=%",
" $;;;;#@#;;*****==++=*;-#$$#-#-*+O-;;;;*==*;-;&=+%=*;--;;;--;&&%",
"%$;;;-$#-;&&***===+=*--;-$$---#*%O-;-;&===;--&==+=*;##-;;;;#-;;+",
" $*&---;;;;;**===*&&;;;&;#$$#--*%O$--;*==&;;&*===&-#$-;;;;-##;;%",
" -=*;;&*&;;&**&&;##-;&;;#@@$---*%O-;&*==*&&*===*;-#$#-;;;-##-;&%",
" -=*;&**&&&**;$$$$-&&;-$@@$----*%O-**==*&*====*;-###--;;--##;&&+",
".-=*;&*****;-#$##;*=*;#@@#-;;--=%O;*=****=+==*&-##----;;;;#-;*&+",
".-=;;&*=**-$$$--;;*=*;#@#-;;;-;+%O-**&&*=+==*&;-##----;&&;--;*&=",
".-*-;*==*-$O$---;;*=*;-$#-;---;+%O#;;;*====**&;#$#---;&**;--&*;=",
".-;-;***-$@$---;;***&;-#$#-----*%O#-;;*=******;#$#-;;**=*;-;**;*",
".$--;**-$$$-;;;&***;;;;#$$#--#$;=O;&===*&;&***;##-;&*===&;;&**;*",
" @--;;-$$--;&***==&-;;;$@$###@@;%$=+%%=*;;**=*;##;&*===*;-;&*;#*",
"%O#--$$$-;;*******;-;;-@@$#-$@$= -%  %=&;&*==*-#-;*===*;-;;&;-$*",
"%O#$@O$-;&*=**&&;;--;-$@@#--##;%.-%  %*&;**=*;-#-&****;--;;;##-%",
"%O$@OO$;&*=*&;;;---;-#$$-;;--&=%.-%%%=****=*&;##-;&&&;;--;;-#;*%",
"%O$$$$-;&**&;;;---;;-#---;;-&==%.-%%+=====*&;-$$-;;;;;----##;==%",
"%O$----;;&&;;;;---;-#$-#$#-&**&% -=+======*;-#$$#;;;&;#@O@#;==*%",
"+O-;----;;&&&&;##-#$@@$##;**&;;= -=======*;--#$#-;&**-$OO$;*===%",
"%O;;---;;&&**&;$$$@O@$;&***;;--= -+======&;-###-;&**;#$@@-*====%",
"%$;---;&***&&;-@@@O$-&===*&;--;%.-+=====*;--##-;;*&-#-;--;*====%",
"%$;;;;;&*&;;;-$@@@$;===**&;---;%.-+===**;;-##-;;;;-#;**&;;;&*==%",
"%$&&;;;;;--#$$$$$-&==**&;;;--;&%.-+==*;;--##--;;-##;*==*&;-;&== ",
"%#*&;--##$@@$#$$-*==**;;;;---;*%.-+=*;-$$$##----##;*==**&;--;== ",
" -*;#$###$@$--$$;***&;;;;;---;*%.-=*;-@@@$###--##;===**&&&;;&=+ ",
".-;-@$---$#;&;#-;;;;;-;;;;--;&=%.-=&-$@O@$##-;--;====*&;&*;;*=+%",
".-;#$--;--;*&-;;------;&*&;;;*=%.-*;-@@@$$#----&====*&;&**&;*==+",
" #-#--;--;*=&#;;-#---;&*=*;;*== .-*;$@@$#---##;====*&&&*=*;-;;;*",
" $-----$#;==;$#----;;&*=*&;&*==%.-*-@@@#;;--$$&===*&;&*==*;----*",
"%O----#$-*=*#$---;;**===*;;;***% #;#@@#;;;;-$-====*;;*==*;-----=",
"%*******=%%=**==+%%%%%%%%***=+=% *****=+%+=**%%%%%%%%%%%+=****=%"
};
