/* XPM */
static char *wolfstein_texture_951659569481[] = {
/* columns rows colors chars-per-pixel */
"64 64 32 1 ",
"  c #F58950",
". c #646464",
"X c #D17943",
"o c #432C0F",
"O c #261A03",
"+ c #535353",
"@ c #39280A",
"# c #C9713F",
"$ c gray49",
"% c #78461C",
"& c #653E17",
"* c #A15C2E",
"= c #814B20",
"- c #5B3913",
"; c #4C350E",
": c #FF9558",
"> c #FF8D54",
", c black",
"< c black",
"1 c black",
"2 c black",
"3 c black",
"4 c black",
"5 c black",
"6 c black",
"7 c black",
"8 c black",
"9 c black",
"0 c black",
"q c black",
"w c black",
"e c black",
/* pixels */
"================================================================",
"&&&&&&&&&&&&&&&&&&&&&&&&&&&&&&&&&&&&&&&&&&&&&&&&&&&&&&&&&&&&&&&&",
"%%%%%%%%%%%%%%%%%%%%%%%%%%%%%%%%%%%%%%%%%%%%%%%%%%%%%%%%%%%%%%%%",
";-;--;%#XXXXXXXXXXXXXXXXXXXXXXXXXXXXXXXXXXXXXXXXXXXXXXXX;&;-;O-;",
"-=;%=-* >::>>>:>:>:>>>>:>>:>:>>>:>>>>:::>>::>::>>>::>>>>-*;=;@=;",
"-=;%=-* ::>>:>:>::>>>::>::>>>:>>>::>>:::>:>:>>:>>:>:::::-*;=;o=;",
"-=;==-* >>>:::>:>>:>>::>:::>>>>:>:>>::::::>>:>>:>:>::>::-*;=;;=;",
"-=;==-* ::>>>>>:::>:>::>>>>>:>:::>>:>>:>>>:>>:>>>:>>>>>>-*;=;;=;",
"-=;%=-* >>:>>::::>:>:>>:::>::>::::>>>:>::>>>>>>>::::>:::-*;=;;=;",
"-=;%=-* ::::>>>>::>>>::>:>>:::>>>:>:>>>:>:>::>::>::>>>>>-*;=;;=;",
"-=;&=-* >:::>:>:::>>>::>:>:>>>>::>>:::::>:::>::>>::>>::>-*;=;;%;",
"-=;&=-* ::>::>>::>>::::>>:>>:>::>:>>>:>:>>>:>>:>>>::>>>>-*;=;;&;",
"-=-;=-* ::>:>:>>:>::>>>>::>:::::::>>>>>:>:>:>>:>:>:>:>>>-*;=;;-;",
"-=-;=-* ::>>>>>::>:::::>:::::>>>>:>:>:>>>>::>::>>:>::>::-*;=;;;;",
"-=-;=-* ::::>>:>:::::::>::>>>>>::>>>>:>>>::>>:>>:>:::>:>-*;=;;@;",
"-=-;=-* >>>>::>:>:>>>>>>>>>>:::>>:>>::>>>>:>::>:>:>>>>>:-*;=;;O;",
"-=&;=-* >:>>>:>>>>>>:::>>>::>>::>>:>>::::>>::>:::>>>:::>-*;=;;$;",
"-=&;%-* :>>>>>>>::>:::::::>::>::>>>>::::>>>:>>:>>::>>>:>-*;=;;o;",
"-=%;%-* :::::>>:>>>>:::>>>>::>:>>>>:>:>:>::>::>:::>:>>::-*;=;;;;",
"-=%;%-* >::>:>>:>:>>>::>::>:>::>:::>::>::>::::::>>>:::>>-*;=;;-;",
"-=%;&-* >>>::>:>>>::>:::::::>>>>:::>:>:>:>>>>>>>:>:>:>:>-*;=;;&;",
"-==;&-* ::>>>:>>:>:>>>>:::>>>:>:::>:>:>>::>>:>>::>::>::>-*;=;;%;",
"-%=;;-* >::>>>:>:>:>>>>:>>:>::>>>>::>::::>>:>>:>:>>>>::>-*;=;;=;",
"-%=-;-* ::::>>:>::>>:>>::::>>>:>:>>:>:>>::>::>::>:>:>>:>-*;=;;=;",
"-&=-;-* :>>:::::>:::>::>::>:>>>>>>::>:>:>>::>::>>>>>>::>-*;=;;=;",
"-&=&;-* :>:>>>>>:>>>:>>:>:>>>>:::>::>>>>>>>::>::>:::>::>-*;=;;=;",
"--=&;-* >>>>>>>>>>>>:>>>>>>::>:>>:::>::>>:::>::>>:>>:::>-*;=;;=;",
"--=%--* ::>>::>:>>:>:>>>::>:>>>::>:>:::>::>::>::>::::>::-*;=;;=;",
"--=%--* >>>::::>::>:>>>>>>>>::>:::>>:>:>>>::::::>>>:::>:-*;=;;=;",
"-;==&;* >:>>>>>:>>:::>>>:>:>:>::>:>::::>>:::::::::>>:>>>-*;=;;=;",
"-;==&-* ::::>::>:>>:>>>::>>::>:>>:::>:>::>::>::>:>>::>::-*;=;;=;",
"-;%=%-* >>>>>>>>>>>>:>>>>>>::>:>>:::>::>>:::>::>>:>>:::>-*;=;;=;",
"-;%=%-* ::>>::>:>>:>:>>>::>:>>>::>:>:::>::>::>::>::::>::-*;=;;=;",
"-;&==-* >>>::::>::>:>>>>>>>>::>:::>>:>:>>>::::::>>>:::>:-*;=;;=-",
"-;&==-* >:>>>>>:>>:::>>>:>:>:>::>:>::::>>:::::::::>>:>>>-*;=;;=-",
"-;-==-* ::::>::>:>>:>>>::>>::>:>>:::>:>::>::>::>:>>::>::-*;=;;=-",
"-;-==-* :>>>>:>>>>>::::>>>>:>:>::>>::>>>::::>::>::>:>::>-*;=;;%-",
"-;-==-* >>::::>>:>:>:>>>>::>::>:>::::>>>:>:>>:>>>>>::>:>-*;=;;&&",
"-;;%=-* >>:>>::::>::>::>:>:>:>:::>::::>>>>>:>>:>>:::>>>>-*;=;;-&",
"-;;%=-* >::>>>>>>>:>:::>>>>::>:>>>>:>:>:>::>::>:::>:>>::-*;=;;;%",
"-;;&=-* >::>:>>:>:>>>::>::>:>::>:::>::>::>::::::>>>:::>>-*;=;;.%",
"-;;&=-* >>>::>:>>>::>:::::::>>>>:::>:>:>:>>>>>>>:>:>:>:>-*;=;;o=",
"--;-%-* ::>>>:>>:>:>>>>:::>>>:>:::>:>:>>::>>:>>::>::>::>-*;=;;&=",
"--;-%-* >::>>>:>:>:>>>>:>>:>:>>>:>>>>:::>>::>::>>>::>>>>-*;=;;&=",
"--;-&-* ::>>:>:>::>>>::>::>>>:>>>::>>:::>:>:>>:>>:>:::::-*;=;;-=",
"-&;;&-* >>>:::>:>>:>>::>:::>>>>:>:>>::::::>>:>>:>:>::>::-*;=;;-=",
"-&-;--* ::>>>>>:::>:>::>>>>>:>:::>>:>>:>>>:>>:>>>:>>>>>>-*;=;;-=",
"-%-;--* >>:>>::::>:>:>>:::>::>::::>>>:>::>>>>>>>::::>:::-*;=;;-=",
"-%-;--* ::::>>>>::>>>::>:>>:::>>>:>:>>>:>:>::>::>::>>>>>-*;=;;;=",
"-=&;;-* >:::>:>:::>>>::>:>:>>>>::>>:::::>:::>::>>::>>::>-*;=;;;%",
"-=&-;-* ::>::>>::>>::::>>:>>:>::>:>>>:>:>>>:>>:>>>::>>>>-*;=;;;%",
"-=%-;-* ::>:>:>>:>::>>>>::>:::::::>>>>>:>:>:>>:>:>:>:>>>-*;=;;;&",
"-=%&;-* ::>>>>>::>:::::>:::::>>>>:>:>:>>>>::>::>>:>::>::-*;=;;;&",
"-%=&--* ::::>>:>:::::::>::>>>>>::>>>>:>>>::>>:>>:>:::>:>-*;=-;;-",
"-&=%--* >>>>::>:>:>>>>>>>>>>:::>>:>>::>>>>:>::>:>:>>>>>:-*;=-;;-",
"-&=%--* >:>>>:>>>>>>:::>>>::>>::>>:>>::::>>::>:::>>>:::>-*;=-;;;",
"--%=--* :>>>>>>>::>:::::::>::>::>>>>::::>>>:>>:>>::>>>:>-*;=-;;;",
"--&=%-* :::::>>:>>>>:::>>>>::>:>>:>>::>>:>>>:>>:>>:>>>>>-*;%&;;;",
"-;&=%-* ::>>>>:>:>>>:>>>>>>:>>>::::>:>>:>>>>>>>>>>::>:>>-*;%%;;;",
"-;-%%-* >::>::>>:>:>>>>>>>>>::>:>:>>>::::>::>::>:>::>:>>-*;&%-;;",
"-;;&&-* ::>:>::::>>:>>>>>::>:>>>:>::>>::>::::::::>>>>:>>-*;&=-;;",
"-;;;--* >:>>>>>>:>>::>>>:>>>>:::>::>>>>>:>>>:>>:::>>:>:>-*;;=-;;",
"-;;;;-* >:::>>>>:>:>::::>>::::>>::>::>>:>>>:>>:>>>>>>>>:-*&;=&;;",
"-;;;;-+.................................................+*&;&&;;"
};
