/* XPM */
static char *wolfstein_texture_071659569479[] = {
/* columns rows colors chars-per-pixel */
"64 64 64 1 ",
"  c gray49",
". c #653E17",
"X c #C1C1C1",
"o c #985729",
"O c #D17943",
"+ c #A15C2E",
"@ c #DF7D48",
"# c #B36437",
"$ c #646464",
"% c #E8814C",
"& c #8F4F25",
"* c #BC683B",
"= c #F58950",
"- c #FF9558",
"; c #FF8D54",
": c #FFA56E",
"> c #FFB17E",
", c #FF9D5C",
"< c gray82",
"1 c #5B3913",
"2 c #4C350E",
"3 c #A00000",
"4 c gray71",
"5 c #FFB98F",
"6 c #750000",
"7 c #B30000",
"8 c #920000",
"9 c #FFC5A4",
"0 c #580000",
"q c #840000",
"w c #F70000",
"e c gray93",
"r c #C50000",
"t c #78461C",
"y c #FFD5BC",
"u c #39280A",
"i c #FFBD9C",
"p c #C00000",
"a c red",
"s c #814B20",
"d c #AF6032",
"f c #464646",
"g c #C9713F",
"h c #DDDDDD",
"j c #282828",
"k c #AAAAAA",
"l c #717171",
"z c #353535",
"x c #8D8D8D",
"c c #535353",
"v c gray10",
"b c gray60",
"n c black",
"m c black",
"M c black",
"N c black",
"B c black",
"V c black",
"C c black",
"Z c black",
"A c black",
"S c black",
"D c black",
"F c black",
/* pixels */
"jjjjjjjjjjjjjjjjjjjjjjjjjjjjjjjjjjjjjjjjjjjjjjjjjjjjjjjjjjjjjjjj",
"cccccccccccccccccccvvvvvccccffffffffcccccccccccccccccccccccccccc",
"chhhhhhhhhhhhhhhhhhhhklvcfkXhhhhhhh<k fzcclkhhhXkxxl$cfffffffffc",
"chhhXXXXXXX              lllllllllllllllllllllllllllllhhhhh<XX4b",
"chhXxbkkkkk ffffffffzzzzzzzzzzzzzzzzzzvvvvvvvvvvvvvvvvhhhhhhhhhh",
"chXkkk xkkb fbbbbbbbbbbbbbbbbbbbbbbbbbbbbbbbbbbbbbbbcvlkkxxkkxxk",
"c4Xxkxk kxb fbbbbbbbbbbbbbbbbbbbbbbbbbbbbbbbbbbbbbbbcvl xkx xkxx",
"c4Xbkkxkxxx fbbbbbbbbbbbbbbbbbbbbbbbbbbbbbbbbbbbbbbbcvlbkxkbkxkb",
"cxXxbxkxkbk fbbbbbbbbbbbbb $fffffff xbbbbbbbbbbbbbbbcvlbbkkbbk b",
"cxXxxbxxxxx fbbbbbbbbbbbbcffvvvvvvvvvff bbbbbbbbbbbb$vlkxkxkxkxb",
"vlXkxbkkbxb fbbbbbbbbbbbcfvvzzczzzzzvvvfbbbbbbbbbbbb$vlxbbbxbbbx",
"vcXxbxkxxbk fbbbbbbbbbb=@lzzzccx czfczzvvbbbbbbbbbbb$vlxll$$cccc",
"vcX kkxbxbk fbbbbbbbbbb,>>>l@Ol x$j$l$zjvfbbbbbbbbbb$vcccccccffz",
"zc ccccc$l  zbbbbbbbbb=>55i>l%Occzjfcffjvv$bbbbbbbbb$vffzzjvvvvv",
"zvvvvzffccc zbbbbbbbbb,>559>l%zzzzjzzzzjvvfbbbbbbbbb$vvvvvvvvvvv",
"czvvvvvvjjj zbbbbbbbb,>>59>>>-zzzzjzzzzjvvjbbbbbbbbb$vvjjzzzzzfc",
"x lcfzzvvvv zbbbbbbbb@*O:9>>>>gddo&zzzjvvvjbbbbbbbbb$vccccccl kk",
"hhhXXkx ccc zbbbbbbbbbuuoO9>>5:-****&zvvvjjbbbbbbbbblvlzcc bXeee",
"hhhhhhhhhhh zbbbbbbbb5@fO:->9:--=--*+.vvvjfbbbbbbbbblvczcxXhh4Xb",
"kkXX<hhhhhh zbbbbbbb5y>=:>>>:--;,.*-..vvjflbbbbbbbbblvczckh<XXb4",
"xkkkbxXXkXk zbbbbbb9y9:,=5>:--;=:%&:..vvjlbbbbbbbbbblvczcXh4kbbk",
"kxxxxkbxbxk zbbbbbb;OOO@,=,,,;==%*-O..vjfbbbbbbbbbbblvczcXhXxbxx",
"xxbxbkkkkbx zbbbbbbbbv.:=:,,-;=@,:%s..vjlbbbbbbbbbbblvcvcXhkxxxb",
"xkkxkbkxbkk zbbbbbbbb.d>:-:-;@O*%osss..fbbbbbbbbbbbblvcvfhhxbkkb",
"kxxkxbxxxxk zbbbbbbbb5,,>:--@**dO=++s..lbbbbbbbbbbbblvcvfhhkxbxx",
"xkxxbxkbxkb zbbbbbbbb%:->:,;@*ddg:=Oo..bbbbbbbbbbbbblvcvfhhxkbbb",
"ccccllxxxxx zbbbbbbbb:5:=,=Od+dg:::-O*ssbbbbbbbbbbbblvcvfhk cccc",
"ccccccccccc zbbbbbbbb-:=O*d++dg=::OO+&ss xbbbbbbbbbblvzvfk ccccc",
"vvvvvzzzzzz zbbbbbbbbbbbdooodg=:OO+++&&1sslxbbbbbbbblvvvvvvvvvvv",
"vvvvvvvvvvv zbbbbbbbbbbbbbgdgg:O++d+os1&&ssslxbbbbbblvzzvvvvvvvv",
"ccfzzjjjvvvlzbbbbbbbbbbbx%gg%:++ddds1&###++&oslxbbbblvccccccczcc",
"ccccffffffflvbbbbbbbbbxx%O%%gddggs1&#gggggggddoslbbblv xhhhXkjzc",
"cclk4hhhhhhlvbbbbbbbbxl%%O%@#ggo1&#gggggggggggdos bblvx4hhXkljjc",
"cfkhhhhhhhhlvbbbbbbbxls%#%%@@gs1dgggg*d&ddgggggd&s blvlkxkxlcvjc",
"cf4h4kkkxkxlvbbbbbbbl&s%#%%@gss#gggg*#&&ddddooooo&sblvlbxxxczvvc",
"cfhhxkxkkkxlvbbbbbbx&&s%&#%gssgggggg#+s&ddodddoooosblvlxkxxczvvc",
"cfhhkbbxbxklvbbbbbbl++sds#s1#gggggg*+&..gggggddo&&.blvlkbkbczvvc",
"cfhhxbxkxbxlvbbbbbbd++s&s##+ggggggg#&..gg%gggdgdss2blvlbbxbczvvc",
"cfhkxxkxxxxlvbbbbbxd++.so##ggggggg**&.gg%gg%d+gds.2blvlxbbkczvvc",
"cfklllxxbxklvbbbbbld++ss##OO@@ggggd&..g%gg%gd+gos.2blvlkbxkczvvc",
"cfcccflkkxxlvbbbbb#d++so#OO@@OOOsdo..ddggg%d+#gos.2blvlxkkxczvvc",
"cfzzvvfcccclvbbbbx##+ss##OO@OOOsdoo.bhhd%%g#+gg&.2cblvlkxbxczvvc",
"cccczvvzzzzlvbbbbl#+++s##+s22OOso..bjjchw%sd+ggs.2lblvlxbxkczvvc",
"ccccczvvvvvlvbbbxdd++so#gOO22sso.bjhj<hhhws+dggs.2 blvlbxxlczvvc",
"cccccczzjjjlvbbbl***+s##OO@&*oo.8bcjjjjcXr77+ggs2.bblvcccccczvvc",
"ccffccccccclvbbbdd**ss#gOO@+*oo8pahhhjhjbr733+os2.bblvzzzzzzzvvc",
"cbXXXX4bl$clvbbbg*++s&#gOOO*o.d77wbjjchb 7338qs2..bblvvvvvvvvvzc",
"cXhhhhhhhhhlvbbbg+*+#+#gOOOo.;O@&1wbXXb 7338q6s2..bblvvvvvvvvzzc",
"cXhh<<<<<<<lvbb=@g+sgddoooO;@#;@@&1wwr77338q660..sbblvjjjjjjzzcc",
"cXh<bxxxxkklvbb=%@gggddddd;;;##;Ogg1177338q660..ssbblvcffffffffv",
"cX<bxxbkkkblvbbb=%%==ddd@@;;@;O;;gdd11338q660...sobblvxxkkkkkk v",
"cX<xbkxxxbxlvbbbb==b==ggO;;OO@;;;@dds138q660...oodbblvx4hhhhhXcv",
"cX<kxkkxkbxlvbbbbbbbbb@@g;O**dd@@@dot11q60....sodgbblvlkkxxkxxcv",
"cX<kkbxbxxxlvbbbbbbbbb-@@Ogg**&&&&ossst60..sso+dg@bblvlkxkxxkxcv",
"cX<xbxkxkxklvbbbbbbbbbb-@@@@@Ogg*oooooo0.sso+dg@@,bblvlxxkxbxkcv",
"cX<kxbxxxbxlvbbbbbbbbbbbb-=======@@*dddsoo+dg@@,,bbblvlxbxkxkxcv",
"cX<xkxbxxxxlvbbbbbbbbbbbbbbb---------%%%%%@@,,bbbbbblvlkxbxbb$cv",
"cX<xxbxxxxxlvbbbbbbbbbbbbbbbb,,,bbbbb;;;;;;;bbbbbbbblv$$$$$$$ccv",
"cX<kxxxxxkxlvbbbbbbbbbbbbbbbbbbbbbbbbbbbbbbbbbbbbbbblvcccccccczv",
"cX<xxxkxbxklvccccc$$$$$$$llllllllllllllllllllllllllllvvvvvvvvvvv",
"cb4$$$$$$$$lvvvvvvvvvvvvvvvvvvvvvvvvvvvvvvvvvvvvvvvvvvvvvvvvvvvv",
"cclffffzzzzzzzzjvjjvvvvvvvvvvvvvvvvvvvvvvvvjjjjzzzzzzvzzzzzzzzzc",
"cvvvvvvvvvvvvvvvvccfzjjjjjjjjjjjjjjjjjjjjjzccccccccccccccccccccc",
"zzzzzzzzzzzzzzzzzzzzzzzzzzzzzzzzzzzzzzzzzzzzzzzzzzzzzzzzzzzzzzzz"
};
