/* XPM */
static char *wolfstein_texture_761659569480[] = {
/* columns rows colors chars-per-pixel */
"64 64 32 1 ",
"  c #B30000",
". c #261A03",
"X c gray36",
"o c #985729",
"O c #4C350E",
"+ c #432C0F",
"@ c #646464",
"# c #717171",
"$ c #AF6032",
"% c #39280A",
"& c #A00000",
"* c #78461C",
"= c #535353",
"- c #C00000",
"; c #C9713F",
": c #8F4F25",
"> c #464646",
", c gray10",
"< c #920000",
"1 c #653E17",
"2 c #814B20",
"3 c #5B3913",
"4 c #750000",
"5 c #580000",
"6 c #2C2C2C",
"7 c #490000",
"8 c #3E3E3E",
"9 c #282828",
"0 c #840000",
"q c #670000",
"w c #353535",
"e c black",
/* pixels */
"wwwwwwwwwwwwwwwwwwwwwwwwwwwwwwwwwwwwwwwwwwwwwwwwwwwwwwwwwwwwwwww",
"868wwwww8wwwwww8w6wwwwwww888888wwwwwwwww8888888wwww666ww88wwwww6",
"6--         0ww8####################Xw68----           &&&&<<<0w",
"w-&<< 40 4&059w8#@>@>@>@>@=@=@>@>@@X89w6 0&<&<<&q&q&<&4<0q&0&0q9",
"w 0q0400q04q59w8#@>>X>8XX8=XX8=X8X=8w9w8 00q504q40q40040q4070q59",
"w q00q000q07.9w8#>@X>X8X>X8X8>>X8=>8w9ww q054050q0q040500q0q0q79",
"w&0q40q0q40q.9w8@@>X>>=X8>8X>8=>>8X8996w<q0q0450qq00q0400q070479",
"w<q00q00q0q7.9ww@@>X8X8X8X8=>8>X8=>8w96w<00540q4q4q04050q40q0q.9",
"w<0q47qq7q4q.968==886>88>868>8>86>88996w<qq7qq747q747q7457q4q4.9",
"wq555........96w>wwwwwwwwwww99999999996w45555555555777777777...9",
"ww99999999,,,968w99999,,,,,99,,,,99999w8699999999999,,,,,9999999",
"86666wwww66666w6wwwwwww6668www66wwwwww86w8888>>>>88ww666868www86",
"-   <<<<<<<<<<<0w8w;;$$$$$$ooooooooooooooooooooooooo2w68--      ",
"<44<0q<q04<5<40.6w8;3:o1o31o11o*2111212121o3o1*oo*o2%6w6-&q<4<4<",
"4040q445045400q.9ww$:3212212323312121232213212312323%6w8&<q04q00",
"q004050q440504q.96w$321*11311321321131112O1123232233%96w&q000q0q",
"04404qq4q00505q.96w$322123123323121112321O2323132323%96w&<q0q00q",
"q050q4q0505400q.9w8$:O212131O133211O1231O12312312323%,6w<q0070q4",
"q<5q7qq0q0q70qq.9w8:231O3*31331O3*3*31311O*331+3*313%,68<0qq7q0q",
".777777777777...6w823333333333333OOOOOOOOOOOOOOOOOO%%,w605.5..5.",
"999,999,,,999,,96w6w6999999999669999,,,,,999,,,,999996w8w9999999",
"88w66w8686ww6666ww8www6666666www868w666666ww86666www8w8686668www",
"8#########@@@@@@@@@@@@@@@@@Xw88<<00000000004444444444444444444qw",
"8#>X@>@>@>X>X>X#>X>X>@XwX#866w8<450q4qq4q4q457qq5qq5qqqqq5qq7q.9",
"6#X>X=X>8>XX>=>X>wX8X>w>X8X69w>04qq7q7q5qq7q7qq7q5q5qqq7qq5q55.9",
"w@wXX8>wXwX8X>=Xw>X8>X>w>X8698>045q5q7q5qq5q5qq7q55qq5qqqq5q75.9",
"w@X>X6Xw8>X>8>X>>w>XwX>wX8w698>05q5qq7qq5q7q7qq5q5q5qqq7q5qq55.9",
"8@8wX6>>XwXwXwX>w>X>wXw>>>X69w8005q5qqqq5q7q7557q7q7q7qqq775q5.9",
"w#Xw888w8688>w>88>88w8=8=8869680q5q5q755557q5q7q75q75q7q7q7q55.9",
"wX=wwwwwwwwwwwwww66666666666968q77777777777777777777777777.757.9",
"ww699999999999999999666999999www99999999,,,,,96669,,,99999999999",
"88888ww6w666w8>>888www666666668www868w8w66666w88ww666www868www86",
"<<<<<<<<<<0w68$$$$$$$$ooooooooooooooooo2w88&-         <<<<<<<<<<",
"0<0<0&<<&0.6w6$232322321223213223223212%6w8 0q0q0050q4q0q040q0q0",
"0q4000q04q.9w8$3211212*3211311213231232%688 070q045040q440q0q04q",
"4q00q0q00q.9w6$3221*2323212O2+11213*212%68> 0q0q040400q0q0400q0q",
"04q0000q4q.6w8$*32121O*11131232131*3121%68> q00q0500qq0q04004qq4",
"04q0q0q00q.6ww$321O*231121231+3*32*3212%6w8&0q00q044q0q0q040q40q",
"qq40qq0qqq.6ww*322O21323232O13213*3*231%9w8&070q004040q0q0q0q00q",
"..7777777..9ww2333333333OOOOOOOOOOOOOO%%9ww05555555555555557777.",
"999999999999w8w9,,,,996669,,,,,9999999996www999966w699,,,9999999",
"8w86w66ww6666ww666wwwww88ww6668www86w6w6ww8w868w8>>8www68w8w8686",
"6<qq000004444444444444444444444q686--        <<<<<<<<<<<<<<<<<0w",
"8055qq7qq5qq5q5qq7q5qqq7q7qq55q.6w8-00505070q0704704q04q0q0q40.9",
"w057qq7qqq5q7q7qq7q7qqq7q5q5q5q.9ww 40545q7470q07050q4q04q0054.9",
"w057q7q57q7qq5qq7qqq75q7q7q7qq5.96w 405540q70q70070qq0q0q0q450.9",
"6055qq7qq5qq5q7qq7q7qq7qq5qqq55.96w 05045070q0qq7450q4040qq040.9",
"8057qq7q7q7q7q5q77q7q5q5q7q7q5q.,68 05505q7070707054q0qq0q045q.9",
"6057q7q5qq5qqqqqq7q577q7q5q5q5q.,68&q054507q0q70q450q0q0q0q050.9",
"8q77777777777777777777777777777.9w805555555557777777777777777..9",
"6w99999999996669,,,,999,,,,99,,99w6w999999,,,99699,9999,,,999999",
"86868w8wwww8>>8w868w8w66666w8ww6ww868wwwwwwwww888wwwww69,,96ww8w",
"     <<<<<<<<<<<<0w8w;;$$$$$$$$ooooooooooooooo2w68-     <<<<<<<<",
"q07005050q&q050q0.9ww$222232+2123232+23232O233%6w8 054070q0q050q",
"0qq0q050q507q5454.9ww$123233+1*1213++31131O232%9w8 5070q0q40q047",
"0q7q0505q0q70450q.9w6$11323112O2+2++23231O1133%9w8 50qq004q4q5q4",
"q07055050q07qq505.9w6$2+3232+21*32++132321O3*3%9w8 05704qq0q05q0",
"50q05054050q740q4.9w6$+2232131O1++++311313O133%9ww 5040q04qq70q0",
"50qq500505q705050.9ww$+2323111+*+++2132132O2O1%96w 507q70q0q7507",
"q0705545qq0705q4q.9w8o2+3232+1323+332312313131%96w&557070q0q050q",
"7777777777777777..9ww2%%%%%++++++++++++++++++%%,w80..77777777777",
"9999999999999999999w8w69999999999999999,,,,,9,,,6ww999999,,,,,99",
"6868666wwwww886wwww88888www8www8ww6www6666666w6668ww68wwww666www",
"8888888888888888888888888888888888888888888888888888888888888888"
};
