/* XPM */
static char *ammo1660767710[] = {
/* columns rows colors chars-per-pixel */
"65 64 16 1 ",
"  c #007171",
". c #008585",
"X c #005757",
"o c #646464",
"O c #009D9D",
"+ c #006464",
"@ c #003E3E",
"# c #FF9558",
"$ c #BC683B",
"% c #006060",
"& c #FFB17E",
"* c #78461C",
"= c #FFE1D0",
"- c #00B5B5",
"; c #B3008C",
": c #B3008C",
/* pixels */
";::::::::::::::::::::::::::::::::::::::::::::::::::::::::::::::::",
";::::::::::::::::::::::::::::::::::::::::::::::::::::::::::::::::",
";::::::::::::::::::::::::::::::::::::::::::::::::::::::::::::::::",
";::::::::::::::::::::::::::::::::::::::::::::::::::::::::::::::::",
";::::::::::::::::::::::::::::::::::::::::::::::::::::::::::::::::",
";::::::::::::::::::::::::::::::::::::::::::::::::::::::::::::::::",
";::::::::::::::::::::::::::::::::::::::::::::::::::::::::::::::::",
";::::::::::::::::::::::::::::::::::::::::::::::::::::::::::::::::",
";::::::::::::::::::::::::::::::::::::::::::::::::::::::::::::::::",
";::::::::::::::::::::::::::::::::::::::::::::::::::::::::::::::::",
";::::::::::::::::::::::::::::::::::::::::::::::::::::::::::::::::",
";::::::::::::::::::::::::::::::::::::::::::::::::::::::::::::::::",
";::::::::::::::::::::::::::::::::::::::::::::::::::::::::::::::::",
";::::::::::::::::::::::::::::::::::::::::::::::::::::::::::::::::",
";::::::::::::::::::::::::::::::::::::::::::::::::::::::::::::::::",
";::::::::::::::::::::::::::::::::::::::::::::::::::::::::::::::::",
";::::::::::::::::::::::::::::::::::::::::::::::::::::::::::::::::",
";::::::::::::::::::::::::::::::::::::::::::::::::::::::::::::::::",
";::::::::::::::::::::::::::::::::::::::::::::::::::::::::::::::::",
";::::::::::::::::::::::::::::::::::::::::::::::::::::::::::::::::",
";::::::::::::::::::::::::::::::::::::::::::::::::::::::::::::::::",
";::::::::::::::::::::::::::::::::::::::::::::::::::::::::::::::::",
";::::::::::::::::::::::::::::::::::::::::::::::::::::::::::::::::",
";::::::::::::::::::::::::::::::::::::::::::::::::::::::::::::::::",
";::::::::::::::::::::::::::::::::::::::::::::::::::::::::::::::::",
";::::::::::::::::::::::::::::::::::::::::::::::::::::::::::::::::",
";::::::::::::::::::::::::::::::::::::::::::::::::::::::::::::::::",
";::::::::::::::::::::::::::::::::::::::::::::::::::::::::::::::::",
";::::::::::::::::::::::::::::::::::::::::::::::::::::::::::::::::",
";::::::::::::::::::::::::::::::::::::::::::::::::::::::::::::::::",
";::::::::::::::::::::::::::::::::::::::::::::::::::::::::::::::::",
";::::::::::::::::::::::::::::::::::::::::::::::::::::::::::::::::",
";::::::::::::::::::::::::::::::::::::::::::::::::::::::::::::::::",
";::::::::::::::::::::::::::::::::::::::::::::::::::::::::::::::::",
";::::::::::::::::::::::::::::::::::::::::::::::::::::::::::::::::",
";::::::::::::::::::::::::::::::::::::::::::::::::::::::::::::::::",
";::::::::::::::::::::::::::::::::::::::::::::::::::::::::::::::::",
";::::::::::::::::::::::::::::::::::::::::::::::::::::::::::::::::",
";::::::::::::::::::::::::::::::::::::::::::::::::::::::::::::::::",
";::::::::::::::::::::::::::::::::::::::::::::::::::::::::::::::::",
";::::::::::::::::::::::::::::::::::::::::::::::::::::::::::::::::",
";::::::::::::::::::::::::::::::::::::::::::::::::::::::::::::::::",
";::::::::::::::::::::::::::::::::::::::::::::::::::::::::::::::::",
";::::::::::::::::::::::::::::::::::::::::::::::::::::::::::::::::",
";::::::::::::::::::::::::::::::::::::::::::::::::::::::::::::::::",
";::::::::::::::::::::::::::::::::::::::::::::::::::::::::::::::::",
";::::::::::::::::::::::::::::::::::::::::::::::::::::::::::::::::",
";::::::::::::::::::::::::::::::::::::::::::::::::::::::::::::::::",
";::::::::::::::::::::::::::::::::::::::::::::::::::::::::::::::::",
";::::::::::::::::::::::::::::::::::::::::::::::::::::::::::::::::",
";::::::::::::::::::::::::::::::::::::::::::::::::::::::::::::::::",
";::::::::::::::::::::::::::::::::::::::::::::::::::::::::::::::::",
";::::::::::::::::::::::::::::::::::::::::::::::::::::::::::::::::",
";::::::::::::::::::::::::::::::OO....::::::::::::::::::::::::::::",
";:::::::::::::::::::::::::::::-&=$##*X:::::::::::::::::::::::::::",
";:::::::::::::::::::::::::::::O.....+X:::::::::::::::::::::::::::",
";:::::::::::::::::::::::::::::. @ @ +X:::::::::::::::::::::::::::",
";:::::::::::::::::::::::::::::. X X %X:::::::::::::::::::::::::::",
";:::::::::::::::::::::::::::::O     XX:::::::::::::::::::::::::::",
";::::::::::::::::::::::::::::O . .  X::::::::::::::::::::::::::::",
";:::::::::::::::::::::::::::.O      X::::::::::::::::::::::::::::",
";:::::::::::::::::::::::::::OOO....+@ooooo:::::::::::::::::::::::",
";::::::::::::::::::::::::::: ++++++@@ooooo:::::::::::::::::::::::",
";::::::::::::::::::::::::::::::::::::::::::::::::::::::::::::::::"
};
