/* XPM */
static char *armor1660767710[] = {
/* columns rows colors chars-per-pixel */
"65 65 64 1 ",
"  c #00E5E5",
". c #009D9D",
"X c #94FCFC",
"o c #DC0000",
"O c #353535",
"+ c #F70000",
"@ c gray49",
"# c gray82",
"$ c gray99",
"% c #282828",
"& c #8D8D8D",
"* c #646464",
"= c #535353",
"- c #464646",
"; c #AAAAAA",
": c gray60",
"> c #FF1A1A",
", c gray71",
"< c #FF3E3E",
"1 c gray93",
"2 c red",
"3 c #FF5353",
"4 c #00FCF8",
"5 c #FF7D7D",
"6 c #FF9D9D",
"7 c #00FCFC",
"8 c gray10",
"9 c #C9FCFC",
"0 c #C1C1C1",
"q c #00FCFC",
"w c #DDDDDD",
"e c #00FCFC",
"r c #53FCFC",
"t c black",
"y c #00FCFC",
"u c #00FCFC",
"i c #717171",
"p c #003E3E",
"a c #008585",
"s c #005757",
"d c #00B5B5",
"f c #007171",
"g c #00CDCD",
"h c None",
"j c None",
"k c black",
"l c black",
"z c black",
"x c black",
"c c black",
"v c black",
"b c black",
"n c black",
"m c black",
"M c black",
"N c black",
"B c black",
"V c black",
"C c black",
"Z c black",
"A c black",
"S c black",
"D c black",
"F c black",
/* pixels */
"hjjjjjjjjjjjjjjjjjjjjjjjjjjjjjjjjjjjjjjjjjjjjjjjjjjjjjjjjjjjjjjjj",
"hjjjjjjjjjjjjjjjjjjjjjjjjjjjjjjjjgjjjjjjjjjjjjjjjjjjX;jjjjjjjjjjj",
"hjjjjjjjjjjjjjjjjjjjjjjjjjjjjjj&&.&&jjjjjjjjjjj jjjj;$;jjjjjjjjjj",
"hjjjjjjjjjjjjjjjjjjjjjjjjjjjj@4X#s;;;@jjjjjjjjj jjjjjr$jjjjjjjjjj",
"hjjjjjjjjjjjjjjjjjjjjjjjjjjj@4XX1u;;;&*jjjjjjjj jjjj;u$;jjjjjjjjj",
"hjjjjjjjjjjjjjjjjjjjjjjjjjjj,4X#uw@&&aajjjjjjjd djjjuuXXjjjjjjjjj",
"hjjjjjjjjjjjjjjjjjjjjjjjjjjj,wwuw#0@sspjjjjjjjd djjju X$jjjjjjjjj",
"hjjjjjjjjjjjjjjjjjjjjjjjjjjX&uu9@#=,@pp:jjjjjjd ajjud X$jjjjjjjjj",
"hjjjjjjjjjjjjjjjjjjjjjjjjjjguur9-#%,.af@jjjjj d uuudd X$jjjjjjjjj",
"hjjjjjjjjjjjjjjjjjjjjjjjjjj:1u@9-#%,=af*jjjj gd ddddd X$jjjjjjjjj",
"hjjjjjjjjjjjjjjjjjjjjjjjjjjf1u*9-#%,%afpjjjjgdd    dd X$jjjjjjjjj",
"hjjjjjjjjjjjjjjjjjjjjjjjjjjj#u@9-#%,=a@jjjj d.d aag d X$jjjjjjjjj",
"hjjjjjjjjjjjjjjjjjjjjjjjjjjj@#r9@#=,.a@jjjjg.ad d.adg X$jjjjjjjjj",
"hjjjjjjjjjjjjjjjjjjjjjjjjjjj-@:,w#0::@-jjjjgajd ddaa  X$jjjjjjjjj",
"hjjjjjjjjjjjjjjjjjjjjjjjjjjj-#@@@@@@@=-jjjj.jjd ff.ad X$jjjjjjjjj",
"hjjjjjjjjjjjjjjjjjjjjjj@000##:#$##;==OO==jjjjjd fjfa. X$jjjjjjjjj",
"hjjjjjjjjjjjjjjjjjjj@ww0#rr$$#::@**OOO...s=-==d fjjaa XXjjjjjjjjj",
"hjjjjjjjjjjjjjjjjjj,99 drr$$9X1XXw ggd.aaaf-ffd fjjjaXX;jjjjjjjjj",
"hjjjjjjjjjjjjjjjjj@1$9 d11$9XX$X1dd ggd.aafp.dd fjjjaXXjjjjjjjjjj",
"hjjjjjjjjjjjjjjjjj,91 d1#0$XX$$uw.d ggd.affpaad ffjj XXjjjjjjjjjj",
"hjjjjjjjjjjjjjjjjj,9Xd1$<0000$$u#.d ggd.afspiid ffjj;X;jjjjjjjjjj",
"hjjjjjjjjjjjjjjjjju1u1$3<>@00,,,,,ddggd.afsp**d ffjj;Xjjjjjjjjjjj",
"hjjjjjjjjjjjjjjj,u1u1$53<>2++@@::&sdddd.asOpppd fsjjX;jjjjjjjjjjj",
"hjjjjjjjjjjjjjjjjj@=1653<>2++ooo:&sfaaffss%pssd fssjjjjjjjjjjjjjj",
"hjjjjjjjjjjjjjjjjj;&1653<>2++ooo:&OOpppppO8padd fsjjjjjjjjjjjjjjj",
"hjjjjjjjjjjjjjjjjj;X1653<>2++ooo:&ppspp%%8tpadd fsjjjjjjjjjjjjjjj",
"hjjjjjjjjjjjjjjjjj;X1653<>2++ooo:&psafp-O8jfadd fsjjjjjjjjjjjjjjj",
"hjjjjjjjjjjjjjjjjjXX1653<>2++ooo:&Osafs-Opjfaad fasjjjjjjjjjjjjjj",
"hjjjjjjjjjjjjjjjjXXd#653<>2++ooo:&Osafs-Opjad 44ffsjjjjjjjjjjjjjj",
"hjjjjjjjjjjjjjjjXXdX#653<>2++ooo:&%sfss-pjjjdXXd.fpsjjjjjjjjjjjjj",
"hjjjjjjjjjjjjjjjX;.u#653<>2++ooo:&%ssss=pjjjd44..fpsjjjjjjjjjjjjj",
"hjjjjjjjjjjjjjjj#;..#653<>2++ooo:&pf..aa=pjjdX4d.fpsjjjjjjjjjjjjj",
"hjjjjjjjjjjjjjjj#;s&#653<>2++ooo:&pfdd.afspjjX4d.fpsjjjjjjjjjjjjj",
"hjjjjjjjjjjjjjjjj@@s#653<>2++ooo:&sfddd.fspjjdddppsjjjjjjjjjjjjjj",
"hjjjjjjjjjjjjjjjjj@@#653<>2++ooo:&ffffssppjjjffffajjjjjjjjjjjjjjj",
"hjjjjjjjjjjjjjjjjjjj#653<>2++ooo:&%%pppppOjjjjaffjjjjjjjjjjjjjjjj",
"hjjjjjjjjjjjjjjjjjjjj#53<>2++ooo:&%O-ssspOjjjjd.fjjjjjjjjjjjjjjjj",
"hjjjjjjjjjjjjjjjjjjjj#53<>2++oo@&8Osff*spOjjjjd fjjjjjjjjjjjjjjjj",
"hjjjjjjjjjjjjjjjjjjjj#63<>2++oo;&8-faf*spOjjjjd fjjjjjjjjjjjjjjjj",
"hjjjjjjjjjjjjjjjjjjjjj#3<>2++o@&%p-faf*spOjjjjggfjjjjjjjjjjjjjjjj",
"hjjjjjjjjjjjjjjjjjjjjjj#<>2++@&s%p-faf*spOjjjjggfjjjjjjjjjjjjjjjj",
"hjjjjjjjjjjjjjjjjjjjjjjj#>2+;&fs%psfaf*spOjjjjgdsjjjjjjjjjjjjjjjj",
"hjjjjjjjjjjjjjjjjjjjjjjjj,,,fffs%psfaf*spOjjjjgdsjjjjjjjjjjjjjjjj",
"hjjjjjjjjjjjjjjjjjjjjjjjj gd.ffsppsfaa.spOjjjjg.sjjjjjjjjjjjjjjjj",
"hjjjjjjjjjjjjjjjjjjjjjjjjXXg.afsppsfa.gfsOjjjjd.sjjjjjjjjjjjjjjjj",
"hjjjjjjjjjjjjjjjjjjjjjjjjXu .affpOfaddg.sppjjjdapjjjjjjjjjjjjjjjj",
"hjjjjjjjjjjjjjjjjjjjjjjjXu g.aafsOaddg .fspjjjdapjjjjjjjjjjjjjjjj",
"hjjjjjjjjjjjjjjjjjjjjjjjdaaaaaafsOsfffsssppjjd44dfjjjjjjjjjjjjjjj",
"hjjjjjjjjjjjjjjjjjjjjjjjjdffssspp8ppppppppjjjd  dfjjjjjjjjjjjjjjj",
"hjjjjjjjjjjjjjjjjjjjjjjjjjgdaaffs8a..fffsjjjjjdapjjjjjjjjjjjjjjjj",
"hjjjjjjjjjjjjjjjjjjjjjjjjjgugdaas8.ggdffsjjjjd4 dfjjjjjjjjjjjjjjj",
"hjjjjjjjjjjjjjjjjjjjjjjjjjgu$gaas8. g4ffsjjjjd  dfjjjjjjjjjjjjjjj",
"hjjjjjjjjjjjjjjjjjjjjjjjjjgu$ afs8.ggufsjjjjjjdapjjjjjjjjjjjjjjjj",
"hjjjjjjjjjjjjjjjjjjjjjjjjjdg$rafs8auXafsjjjjjd4 dfjjjjjjjjjjjjjjj",
"hjjjjjjjjjjjjjjjjjjjjjjjjjjgg afs8aaadfsjjjjjd  dfjjjjjjjjjjjjjjj",
"hjjjjjjjjjjjjjjjjjjjjjjjjjjgg.ffp%adgaspjjjjjjdapjjjjjjjjjjjjjjjj",
"hjjjjjjjjjjjjjjjjjjjjjjjjjjdugfsp%aaa.sjjjjjjd4 dfjjjjjjjjjjjjjjj",
"hjjjjjjjjjjjjjjjjjjjjjjjjjjj gfsp%fdgasjjjjjjd  dfjjjjjjjjjjjjjjj",
"hjjjjjjjjjjjjjjjjjjjjjjjjjjgasppp%fafffsjjjjjjdapjjjjjjjjjjjjjjjj",
"hjjjjjjjjjjjjjjjjjjjjjjjjj$ugaafp%f.  ..sjjjjd4 dfjjjjjjjjjjjjjjj",
"hjjjjjjjjjjjjjjjjjjjjjjjj$uug.ffp%sd Xud.s===d  df=***jjjjjjjjjjj",
"hjjjjjjjjjjjjjjjjjjjjjjju$ugd.fsp%sdguXug.s%%%dap%OO--====****jjj",
"hjjjjjjjjjjjjjjjjjjjjjju$ugd.fspt%%ffg Xugfttttdf88%%OOO----==**j",
"hjjjjjjjjjjjjjjjjjjjjjjgg..ffpt%%=**=%fffffOOOOOOOOOOO---==*****j",
"hhhhhhhhhhhhhhhhhhhhhhhhhhhhhhhhhhhhhhhhhhhhhhhhhhhhhhhhhhhhhhhhh"
};
