/* XPM */
static char *bed1660767710[] = {
/* columns rows colors chars-per-pixel */
"65 65 16 1 ",
"  c #464646",
". c #C1C1C1",
"X c #8D8D8D",
"o c gray49",
"O c #535353",
"+ c gray60",
"@ c #646464",
"# c gray71",
"$ c gray10",
"% c #AAAAAA",
"& c black",
"* c #282828",
"= c #353535",
"- c white",
"; c #B3008C",
": c black",
/* pixels */
"-;;;;;;;;;;;;;;;;;;;;;;;;;;;;;;;;;;;;;;;;;;;;;;;;;;;;;;;;;;;;;;;;",
"-;;;;;;;;;;;;;;;;;;;;;;;;;;;;;;;;;;;;;;;;;;;;;;;;;;;;;;;;;;;;;;;;",
"-;;;;;;;;;;;;;;;;;;;;;;;;;;;;;;;;;;;;;;;;;;;;;;;;;;;;;;;;;;;;;;;;",
"-;;;;;;;;;;;;;;;;;;;;;;;;;;;;;;;;;;;;;;;;;;;;;;;;;;;;;;;;;;;;;;;;",
"-;;;;;;;;;;;;;;;;;;;;;;;;;;;;;;;;;;;;;;;;;;;;;;;;;;;;;;;;;;;;;;;;",
"-;;;;;;;;;;;;;;;;;;;;;;;;;;;;;;;;;;;;;;;;;;;;;;;;;;;;;;;;;;;;;;;;",
"-;;;;;;;;;;;;;;;;;;;;;;;;;;;;;;;;;;;;;;;;;;;;;;;;;;;;;;;;;;;;;;;;",
"-;;;;;;;;;;;;;;;;;;;;;;;;;;;;;;;;;;;;;;;;;;;;;;;;;;;;;;;;;;;;;;;;",
"-;;;;;;;;;;;;;;;;;;;;;;;;;;;;;;;;;;;;;;;;;;;;;;;;;;;;;;;;;;;;;;;;",
"-;;;;;;;;;;;;;;;;;;;;;;;;;;;;;;;;;;;;;;;;;;;;;;;;;;;;;;;;;;;;;;;;",
"-;;;;;;;;;;;;;;;;;;;;;;;;;;;;;;;;;;;;;;;;;;;;;;;;;;;;;;;;;;;;;;;;",
"-;;;;;;;;;;;;;;;;;;;;;;;;;;;;;;;;;;;;;;;;;;;;;;;;;;;;;;;;;;;;;;;;",
"-;;;;;;;;;;;;;;;;;;;;;;;;;;;;;;;;;;;;;;;;;;;;;;;;;;;;;;;;;;;;;;;;",
"-;;;;;;;;;;;;;;;;;;;;;;;;;;;;;;;;;;;;;;;;;;;;;;;;;;;;;;;;;;;;;;;;",
"-;;;;;;;;;;;;;;;;;;;;;;;;;;;;;;;;;;;;;;;;;;;;;;;;;;;;;;;;;;;;;;;;",
"-;;;;;;;;;;;;;;;;;;;;;;;;;;;;;;;;;;;;;;;;;;;;;;;;;;;;;;;;;;;;;;;;",
"-;;;;;;;;;;;;;;;;;;;;;;;;;;;;;;;;;;;;;;;;;;;;;;;;;;;;;;;;;;;;;;;;",
"-;;;;;;;;;;;;;;;;;;;;;;;;;;;;;;;;;;;;;;;;;;;;;;;;;;;;;;;;;;;;;;;;",
"-;;;;;;;;;;;;;;;;;;;;;;;;;;;;;;;;;;;;;;;;;;;;;;;;;;;;;;;;;;;;;;;;",
"-;;;;;;;;;;;;;;;;;;;;;;;;;;;;;;;;;;;;;;;;;;;;;;;;;;;;;;;;;;;;;;;;",
"-;;;;;;;;;;;;;;;;;;;;;;;;;;;;;;;;;;;;;;;;;;;;;;;;;;;;;;;;;;;;;;;;",
"-;;;;;;;;;;;;;;;;;;;;;;;;;;;;;;;;;;;;;;;;;;;;;;;;;;;;;;;;;;;;;;;;",
"-;;;;;;;;;;;;;;;;;;;;;;;;;;;;;;;;;;;;;;;;;;;;;;;;;;;;;;;;;;;;;;;;",
"-;;;;;;;;;;;;;;;;;;;;;;;;;;;;;;;;;;;;;;;;;;;;;;;;;;;;;;;;;;;;;;;;",
"-;;;;;;;;;;;;;;;;;;;;;;;;;;;;;;;;;;;;;;;;;;;;;;;;;;;;;;;;;;;;;;;;",
"-;;;;;;;;;;;;;;;;;;;;;;;;;;;;;;;;;;;;;;;;;;;;;;;;;;;;;;;;;;;;;;;;",
"-;;;;;;;;;;;;;;;;;;;;;;;;;;;;;;;;;;;;;;;;;;;;;;;;;;;;;;;;;;;;;;;;",
"-;;;;;;;;;;;;;;;;;;;;;;;;;;;;;;;;;;;;;;;;;;;;;;;;;;;;;;;;;;;;;;;;",
"-;;;;;;;;;;;;;;;;;;;;;;;;;;;;;;;;;;;;;;;;;;;;;;;;;;;;;;;;;;;;;;;;",
"-;;;;;;;;;;;;;;;;;;;;;;;;;;;;;;;;;;;;;;;;;;;;;;;;;;;;;;;;;;;;;;;;",
"-;;;;;;;;;;;;;;;;;;;;;;;;;;;;;;;;;;;;;;;;;;;;;;;;;;;;;;;;;;;;;;;;",
"-;;;;;;;;;;;;;;;;;;;;;;;;;;;;;;;;;;;;;;;;;;;;;;;;;;;;;;;;;;;;;;;;",
"-;;;;;;;;;;;;;;;;;;;;;;;;;;;;;;;;;;;;;;;;;;;;;;;;;;;;;;;;;;;;;;;;",
"-;;;;;;;;;;;;;;;;;;;;;;;;;;;;;;;;;;;;;;;;;;;;;;;;;;;;;;;;;;;;;;;;",
"-;;;;;;;;;;;;;;;;;;;;;;;;;;;;;;;;;;;;;;;;;;;;;;;;;;;;;;;;;;;;;;;;",
"-;;;;;;;;;;;;;;;;;;;;;;;;;;;;;;;;;;;;;;;;;;;;;;;;;;;;;;;;;;;;;;;;",
"-;;;;;;;;;;;;;;;;;;;;;;;;;;;;;;;;;;;;;;;;;;;;;;;;;;;;;;;;;;;;;;;;",
"-;;;;;;;;;;;;;;;;;;;;;;;;;;;;;;;;;;;;;;;;;;;;;;;;;;;;;;;;;;;;;;;;",
"-;;;;;;;;;;;;;;;;;;;;;;;;;;;;;;;;;;;;;;;;;;;;;;;;;;;;;;;;;;;;;;;;",
"-;;;;;;;;;;;;;;;;;;;;;;;;;;;;;;;;;;;;;;;;;;;;;;;;;;;;;;;;;;;;;;;;",
"-;;;;;;;;;;;;;;;;;;;;;;;;;;;;;;;;;;;;;;;;;;;;;;;;;;;;;;;;;;;;;;;;",
"-;;;;;;;;;;;;;;;;;;;;;;;;;;;;;;;;;;;;;;;;;;;;;;;;;;;;;;;;;;;;;;;;",
"-;;;;;;;;;;;;;;;;;;;;;X%#............%X;;;;;;;;;;;;;;;;;;;;;;;;;;",
"-;;;;;;;;;;;;;;;;;;;;++++++++++++++++++Xo;;;;;;;;;;;;;;;;;;;;;;;;",
"-;;;;;;;;;;;;;;;;;o+oooooooooooooooooooooo++o;;;;;;;;;;;;;;;;;;;;",
"-;;;;;;;;;;;;;;;o############################%o;;;;;;;;;;;;;;;;;;",
"-;;;;;;;;;;;;;o................................%o;;;;;;;;;;;;;;;;",
"-;;;;;;;;;;;;o...................................%o;;;;;;;;;;;;;;",
"-;;;;;;;;;;;;.%+++++++++++++++++++++++++++++++++++oo;;;;;;;;;;;;;",
"-;;;;;;;;;;;;.%XXXXXXXXXXXXXXXXXXXXXXXXXXXXXXXXXXXXo;;;;;;;;;;;;;",
"-;;;;;;;;;;;;.%XXXXXXXXXXXXXXXXXXXXXXXXXXXXXXXXXXXoo;;;;;;;;;;;;;",
"-;;;;;;;;;;;;Xooooooooooooooooooooooooooooooooooooo@;;;;;;;;;;;;;",
"-;;;;;;;;;;;; O                                    =;;;;;;;;;;;;;",
"-;;;;;;;;;;; O ======================================;;;;;;;;;;;;",
"-;;;;;;;;;;;  =************************************=*;;;;;;;;;;;;",
"-;;;;;;;;;;; =*;;;*&;;;;;;;;;;;;;;;;;;;;;;;;;*&;;;*=*;;;;;;;;;;;;",
"-;;;;;;;;;;; =*;;;*&;;;;;;;;;;;;;;;;;;;;;;;;;*&;;;*=*;;;;;;;;;;;;",
"-;;;;;;;;;;; =*;;;;;;@@OOO              OOOOOO@@@;*=*;;;;;;;;;;;;",
"-;;;;;;;;;;; =*;;;;;@@O ==================  OOO@@@*=*;;;;;;;;;;;;",
"-;;;;;;;;;;; =*;;;;@@O =**$$$$$$$$$$$$$***=   OOO@*=*;;;;;;;;;;;;",
"-;;;;;;;;;;; =*;;;@@O =**$$$$$$$$$$$$$$$***==  OOO*=*@;;;;;;;;;;;",
"-;;;;;;;;;;; =*;;@@O =**********************==   O*=*@@@;;;;;;;;;",
"-;;;;;;;;;;; =*;@@O ===========================   *=*O@@@;;;;;;;;",
"-;;;;;;;;;;; =*@@OOOOOOOOOOOOOOOOOOOOOOOOOOOOOOOOO*=*OO@@@@;;;;;;",
"-----------------------------------------------------------------"
};
