/* XPM */
static char *crown1660767710[] = {
/* columns rows colors chars-per-pixel */
"65 65 32 1 ",
"  c #DC0000",
". c #B30000",
"X c #646464",
"o c #FFF400",
"O c #840000",
"+ c #D0C500",
"@ c #F70000",
"# c #858500",
"$ c #9D9D00",
"% c #B9AE00",
"& c #464646",
"* c #535353",
"= c #FCFCB6",
"- c #E9D900",
"; c #FCFC73",
": c #0000E5",
"> c #5A60FF",
", c #726C00",
"< c #3E3EFF",
"1 c #595300",
"2 c white",
"3 c #B3008C",
"4 c black",
"5 c black",
"6 c black",
"7 c black",
"8 c black",
"9 c black",
"0 c black",
"q c black",
"w c black",
"e c black",
/* pixels */
"22222222222222222222222222222222222222222222222222222222222222222",
"23333333333333333333333333333333333333333333333333333333333333333",
"23333333333333333333333333333333333333333333333333333333333333333",
"23333333333333333333333333333333333333333333333333333333333333333",
"23333333333333333333333333333333333333333333333333333333333333333",
"23333333333333333333333333333333333333333333333333333333333333333",
"23333333333333333333333333333333333333333333333333333333333333333",
"23333333333333333333333333333333333333333333333333333333333333333",
"23333333333333333333333333333333333333333333333333333333333333333",
"23333333333333333333333333333333333333333333333333333333333333333",
"23333333333333333333333333333333333333333333333333333333333333333",
"23333333333333333333333333333333333333333333333333333333333333333",
"23333333333333333333333333333333333333333333333333333333333333333",
"23333333333333333333333333333333333333333333333333333333333333333",
"23333333333333333333333333333333333333333333333333333333333333333",
"23333333333333333333333333333333333333333333333333333333333333333",
"23333333333333333333333333333333333333333333333333333333333333333",
"23333333333333333333333333333333333333333333333333333333333333333",
"23333333333333333333333333333333333333333333333333333333333333333",
"23333333333333333333333333333333333333333333333333333333333333333",
"23333333333333333333333333333333333333333333333333333333333333333",
"23333333333333333333333333333333333333333333333333333333333333333",
"23333333333333333333333333333333333333333333333333333333333333333",
"23333333333333333333333333333333333333333333333333333333333333333",
"23333333333333333333333333333333333333333333333333333333333333333",
"23333333333333333333333333333333333333333333333333333333333333333",
"23333333333333333333333333333333333333333333333333333333333333333",
"23333333333333333333333333333333333333333333333333333333333333333",
"23333333333333333333333333333333333333333333333333333333333333333",
"23333333333333333333333333333333333333333333333333333333333333333",
"23333333333333333333333333333333333333333333333333333333333333333",
"23333333333333333333333333333333333333333333333333333333333333333",
"23333333333333333333333333333333333333333333333333333333333333333",
"23333333333333333333333333333333333333333333333333333333333333333",
"23333333333333333333333333333333333333333333333333333333333333333",
"23333333333333333333333333333333333333333333333333333333333333333",
"23333333333333333333333333333333333333333333333333333333333333333",
"23333333333333333333333333333333333333333333333333333333333333333",
"23333333333333333333333333333333333333333333333333333333333333333",
"23333333333333333333333333333333333333333333333333333333333333333",
"23333333333333333333333333333333333333333333333333333333333333333",
"23333333333333333333333333333333333333333333333333333333333333333",
"23333333333333333333333333333333333333333333333333333333333333333",
"23333333333333333333333333333333333333333333333333333333333333333",
"23333333333333333333333333333333333333333333333333333333333333333",
"23333333333333333333333333333333333333333333333333333333333333333",
"23333333333333333333333333333333333333333333333333333333333333333",
"2333333333333333333333333333333333o=33333333333333333333333333333",
"2333333333333333333333333333333333o=33333333333333333333333333333",
"233333333333333333333333333333333ooo=3333333333333333333333333333",
"2333333333333333333333333333333333--33333333333333333333333333333",
"2333333333333333333333333333ooooo3o=3ooooo33333333333333333333333",
"233333333333333333333333333+..  .oo=o     o3333333333333333333333",
"23333333333333333333333333%.. @@  ;;  @@   o333333333333333333333",
"23333333333333333333333333$.   @@ oo  ..@  o333333333333333333333",
"23333333333333333333333333#.  .  .--  .  ..-333333333333333333333",
"23333333333333333333333333#... . .++.. @@ .+333333333333333333333",
"233333333333333333333333333#O....O++O...  +3333333333333333333333",
"233333333333333333333333333##OO..O%%OO.OO+33333333333333333333333",
"2333333333333333333333333333#,1OOO##OOO++o33333333333333333333333",
"2333333333333333333333333333#:$$$$$%%%++>o33333333333333333333333",
"2333333333333333333333333333333$:$$%%<+33333333333333333333333333",
"23333333333333333333333333333333XXXXXXXXXXXXX33333333333333333333",
"23333333333333333333333333333XXXX***&&&&&&***XXX33333333333333333",
"233333333333333333333333333333333XXXXXXXXXXX333333333333333333333"
};
