/* XPM */
static char *crucifix1660767709[] = {
/* columns rows colors chars-per-pixel */
"65 65 32 1 ",
"  c #FCFCB6",
". c #FCFC3E",
"X c #B9AE00",
"o c #646464",
"O c #00008C",
"+ c #9D9DFF",
"@ c #535353",
"# c #D0C500",
"$ c #464646",
"% c #0000D9",
"& c #E9D900",
"* c #B30000",
"= c #FF9D9D",
"- c #FCFCD7",
"; c red",
": c #FFF400",
"> c #858500",
", c None",
"< c None",
"1 c black",
"2 c black",
"3 c black",
"4 c black",
"5 c black",
"6 c black",
"7 c black",
"8 c black",
"9 c black",
"0 c black",
"q c black",
"w c black",
"e c black",
/* pixels */
",,,,,,,,,,,,,,,,,,,,,,,,,,,,,,,,,,,,,,,,,,,,,,,,,,,,,,,,,,,,,,,,,",
"<<<<<<<<<<<<<<<<<<<<<<<<<<<<<<<<<<<<<<<<<<<<<<<<<<<<<<<<<<<<<<<<,",
"<<<<<<<<<<<<<<<<<<<<<<<<<<<<<<<<<<<<<<<<<<<<<<<<<<<<<<<<<<<<<<<<,",
"<<<<<<<<<<<<<<<<<<<<<<<<<<<<<<<<<<<<<<<<<<<<<<<<<<<<<<<<<<<<<<<<,",
"<<<<<<<<<<<<<<<<<<<<<<<<<<<<<<<<<<<<<<<<<<<<<<<<<<<<<<<<<<<<<<<<,",
"<<<<<<<<<<<<<<<<<<<<<<<<<<<<<<<<<<<<<<<<<<<<<<<<<<<<<<<<<<<<<<<<,",
"<<<<<<<<<<<<<<<<<<<<<<<<<<<<<<<<<<<<<<<<<<<<<<<<<<<<<<<<<<<<<<<<,",
"<<<<<<<<<<<<<<<<<<<<<<<<<<<<<<<<<<<<<<<<<<<<<<<<<<<<<<<<<<<<<<<<,",
"<<<<<<<<<<<<<<<<<<<<<<<<<<<<<<<<<<<<<<<<<<<<<<<<<<<<<<<<<<<<<<<<,",
"<<<<<<<<<<<<<<<<<<<<<<<<<<<<<<<<<<<<<<<<<<<<<<<<<<<<<<<<<<<<<<<<,",
"<<<<<<<<<<<<<<<<<<<<<<<<<<<<<<<<<<<<<<<<<<<<<<<<<<<<<<<<<<<<<<<<,",
"<<<<<<<<<<<<<<<<<<<<<<<<<<<<<<<<<<<<<<<<<<<<<<<<<<<<<<<<<<<<<<<<,",
"<<<<<<<<<<<<<<<<<<<<<<<<<<<<<<<<<<<<<<<<<<<<<<<<<<<<<<<<<<<<<<<<,",
"<<<<<<<<<<<<<<<<<<<<<<<<<<<<<<<<<<<<<<<<<<<<<<<<<<<<<<<<<<<<<<<<,",
"<<<<<<<<<<<<<<<<<<<<<<<<<<<<<<<<<<<<<<<<<<<<<<<<<<<<<<<<<<<<<<<<,",
"<<<<<<<<<<<<<<<<<<<<<<<<<<<<<<<<<<<<<<<<<<<<<<<<<<<<<<<<<<<<<<<<,",
"<<<<<<<<<<<<<<<<<<<<<<<<<<<<<<<<<<<<<<<<<<<<<<<<<<<<<<<<<<<<<<<<,",
"<<<<<<<<<<<<<<<<<<<<<<<<<<<<<<<<<<<<<<<<<<<<<<<<<<<<<<<<<<<<<<<<,",
"<<<<<<<<<<<<<<<<<<<<<<<<<<<<<<<<<<<<<<<<<<<<<<<<<<<<<<<<<<<<<<<<,",
"<<<<<<<<<<<<<<<<<<<<<<<<<<<<<<<<<<<<<<<<<<<<<<<<<<<<<<<<<<<<<<<<,",
"<<<<<<<<<<<<<<<<<<<<<<<<<<<<<<<<<<<<<<<<<<<<<<<<<<<<<<<<<<<<<<<<,",
"<<<<<<<<<<<<<<<<<<<<<<<<<<<<<<<<<<<<<<<<<<<<<<<<<<<<<<<<<<<<<<<<,",
"<<<<<<<<<<<<<<<<<<<<<<<<<<<<<<<<<<<<<<<<<<<<<<<<<<<<<<<<<<<<<<<<,",
"<<<<<<<<<<<<<<<<<<<<<<<<<<<<<<<<<<<<<<<<<<<<<<<<<<<<<<<<<<<<<<<<,",
"<<<<<<<<<<<<<<<<<<<<<<<<<<<<<<<<<<<<<<<<<<<<<<<<<<<<<<<<<<<<<<<<,",
"<<<<<<<<<<<<<<<<<<<<<<<<<<<<<<<<<<<<<<<<<<<<<<<<<<<<<<<<<<<<<<<<,",
"<<<<<<<<<<<<<<<<<<<<<<<<<<<<<<<<<<<<<<<<<<<<<<<<<<<<<<<<<<<<<<<<,",
"<<<<<<<<<<<<<<<<<<<<<<<<<<<<<<<<<<<<<<<<<<<<<<<<<<<<<<<<<<<<<<<<,",
"<<<<<<<<<<<<<<<<<<<<<<<<<<<<<<<<<<<<<<<<<<<<<<<<<<<<<<<<<<<<<<<<,",
"<<<<<<<<<<<<<<<<<<<<<<<<<<<<<<<<<<<<<<<<<<<<<<<<<<<<<<<<<<<<<<<<,",
"<<<<<<<<<<<<<<<<<<<<<<<<<<<<<<<<<<<<<<<<<<<<<<<<<<<<<<<<<<<<<<<<,",
"<<<<<<<<<<<<<<<<<<<<<<<<<<<<<<<<<<<<<<<<<<<<<<<<<<<<<<<<<<<<<<<<,",
"<<<<<<<<<<<<<<<<<<<<<<<<<<<<<<<<<<<<<<<<<<<<<<<<<<<<<<<<<<<<<<<<,",
"<<<<<<<<<<<<<<<<<<<<<<<<<<<<<<<<<<<<<<<<<<<<<<<<<<<<<<<<<<<<<<<<,",
"<<<<<<<<<<<<<<<<<<<<<<<<<<<<<<<<<<<<<<<<<<<<<<<<<<<<<<<<<<<<<<<<,",
"<<<<<<<<<<<<<<<<<<<<<<<<<<<<<<<<<<<<<<<<<<<<<<<<<<<<<<<<<<<<<<<<,",
"<<<<<<<<<<<<<<<<<<<<<<<<<<<<<<<<<<<<<<<<<<<<<<<<<<<<<<<<<<<<<<<<,",
"<<<<<<<<<<<<<<<<<<<<<<<<<<<<<<<<<<<<<<<<<<<<<<<<<<<<<<<<<<<<<<<<,",
"<<<<<<<<<<<<<<<<<<<<<<<<<<<<<<<<<<<<<<<<<<<<<<<<<<<<<<<<<<<<<<<<,",
"<<<<<<<<<<<<<<<<<<<<<<<<<<<<<<<<<<<<<<<<<<<<<<<<<<<<<<<<<<<<<<<<,",
"<<<<<<<<<<<<<<<<<<<<<<<<<<<<<<<<<<<<<<<<<<<<<<<<<<<<<<<<<<<<<<<<,",
"<<<<<<<<<<<<<<<<<<<<<<<<<<<<<<<<<<<<<<<<<<<<<<<<<<<<<<<<<<<<<<<<,",
"<<<<<<<<<<<<<<<<<<<<<<<<<<<<<<<<<<<<<<<<<<<<<<<<<<<<<<<<<<<<<<<<,",
"<<<<<<<<<<<<<<<<<<<<<<<<<<<<<<<<<<<<<<<<<<<<<<<<<<<<<<<<<<<<<<<<,",
"<<<<<<<<<<<<<<<<<<<<<<<<<<<<<<<<<<<<<<<<<<<<<<<<<<<<<<<<<<<<<<<<,",
"<<<<<<<<<<<<<<<<<<<<<<<<<<<<<<<<<<<<<<<<<<<<<<<<<<<<<<<<<<<<<<<<,",
"<<<<<<<<<<<<<<<<<<<<<<<<<<<<<<< <<<<<<<<<<<<<<<<<<<<<<<<<<<<<<<<,",
"<<<<<<<<<<<<<<<<<<<<<<<<<<<<<< +.<<<<<<<<<<<<<<<<<<<<<<<<<<<<<<<,",
"<<<<<<<<<<<<<<<<<<<<<<<<<<<<< +%OX<<<<<<<<<<<<<<<<<<<<<<<<<<<<<<,",
"<<<<<<<<<<<<<<<<<<<<<<<<<<<<<<.OX<<<<<<<<<<<<<<<<<<<<<<<<<<<<<<<,",
"<<<<<<<<<<<<<<<<<<<<<<<<<<< <<<.<<< <<<<<<<<<<<<<<<<<<<<<<<<<<<<,",
"<<<<<<<<<<<<<<<<<<<<<<<<<< +.<-=&< +.<<<<<<<<<<<<<<<<<<<<<<<<<<<,",
"<<<<<<<<<<<<<<<<<<<<<<<<< +%O.=;*.+%OX<<<<<<<<<<<<<<<<<<<<<<<<<<,",
"<<<<<<<<<<<<<<<<<<<<<<<<<<.OX<&*><:OX<<<<<<<<<<<<<<<<<<<<<<<<<<<,",
"<<<<<<<<<<<<<<<<<<<<<<<<<<<X<<<.<<<X<<<<<<<<<<<<<<<<<<<<<<<<<<<<,",
"<<<<<<<<<<<<<<<<<<<<<<<<<<<<<<  #<<<<<<<<<<<<<<<<<<<<<<<<<<<<<<<,",
"<<<<<<<<<<<<<<<<<<<<<<<<<<<<<< .#<<<<<<<<<<<<<<<<<<<<<<<<<<<<<<<,",
"<<<<<<<<<<<<<<<<<<<<<<<<<<<<<< .#<<<<<<<<<<<<<<<<<<<<<<<<<<<<<<<,",
"<<<<<<<<<<<<<<<<<<<<<<<<<<<<<< .#<<<<<<<<<<<<<<<<<<<<<<<<<<<<<<<,",
"<<<<<<<<<<<<<<<<<<<<<<<<<<<<<< .#<<<<<<<<<<<<<<<<<<<<<<<<<<<<<<<,",
"<<<<<<<<<<<<<<<<<<<<<<<<<<<<<< +#<<<<<<<<<<<<<<<<<<<<<<<<<<<<<<<,",
"<<<<<<<<<<<<<<<<<<<<<<<<<<<<< +%OX<<<<<<<<<<<<<<<<<<<<<<<<<<<<<<,",
"<<<<<<<<<<<<<<<<<<<<<<<<<<<<<<.OX<<oo@o<<<<<<<<<<<<<<<<<<<<<<<<<,",
"<<<<<<<<<<<<<<<<<<<<<<<<<<<<<<<X$$$$@@@@@ooo<<<<<<<<<<<<<<<<<<<<,",
"<<<<<<<<<<<<<<<<<<<<<<<<<<<<<<<<<<<<<<<oo@o<<<<<<<<<<<<<<<<<<<<<,"
};
