/* XPM */
static char *empty_well1660767709[] = {
/* columns rows colors chars-per-pixel */
"65 65 32 1 ",
"  c #464646",
". c #717171",
"X c #282828",
"o c gray60",
"O c #8D8D8D",
"+ c #DDDDDD",
"@ c #C1C1C1",
"# c gray99",
"$ c gray71",
"% c gray10",
"& c gray93",
"* c black",
"= c gray49",
"- c gray82",
"; c #535353",
": c #646464",
"> c #353535",
", c #AAAAAA",
"< c white",
"1 c #B3008C",
"2 c black",
"3 c black",
"4 c black",
"5 c black",
"6 c black",
"7 c black",
"8 c black",
"9 c black",
"0 c black",
"q c black",
"w c black",
"e c black",
/* pixels */
"<<<<<<<<<<<<<<<<<<<<<<<<<<<<<<<<<<<<<<<<<<<<<<<<<<<<<<<<<<<<<<<<<",
"<1111111111111111111111111111111111111111111111111111111111111111",
"<1111111111111111111111111111111111111111111111111111111111111111",
"<1111111111111111111111111111111111111111111111111111111111111111",
"<1111111111111111111111111111111111111111111111111111111111111111",
"<1111111111111111111111111111111111111111111111111111111111111111",
"<1111111111111111111111111111111111111111111111111111111111111111",
"<1111111111111111111111111111111111111111111111111111111111111111",
"<1111111111111111111111111111111111111111111111111111111111111111",
"<1111111111111111111111111111111111111111111111111111111111111111",
"<1111111111111111111111111111111111111111111111111111111111111111",
"<1111111111111111111111111111111111111111111111111111111111111111",
"<1111111111111111111111111111111111111111111111111111111111111111",
"<1111111111111111111111111111111111111111111111111111111111111111",
"<1111111111111111111111111111111111111111111111111111111111111111",
"<1111111111111111111111111111111111111111111111111111111111111111",
"<1111111111111111111111111111111111111111111111111111111111111111",
"<1111111111111111111111111111111111111111111111111111111111111111",
"<1111111111111111111111111111111111111111111111111111111111111111",
"<1111111111111111111111111111111111111111111111111111111111111111",
"<1111111111111111111111111111111111111111111111111111111111111111",
"<1111111111111111111111111111111111111111111111111111111111111111",
"<1111111111111111111111111111111111111111111111111111111111111111",
"<1111111111111111111111111111111111111111111111111111111111111111",
"<1111111111111111111111111111111111111111111111111111111111111111",
"<1111111111111111111111111111111111111111111111111111111111111111",
"<1111111111111111111111111111111111111111111111111111111111111111",
"<1111111111111111111111111111111111111111111111111111111111111111",
"<1111111111111111111111111111111111111111111111111111111111111111",
"<1111111111111111111111111111111111111111111111111111111111111111",
"<1111111111111111111111111111111111111111111111111111111111111111",
"<1111111111111111111111111111111111111111111111111111111111111111",
"<1111111111111111111111111111111111111111111111111111111111111111",
"<1111111111111111111111111111111111111111111111111111111111111111",
"<1111111111111111111111111111111111111111111111111111111111111111",
"<1111111111111111111111111111111111111111111111111111111111111111",
"<1111111111111111111111111111111111111111111111111111111111111111",
"<1111111111111111111111111111111111111111111111111111111111111111",
"<1111111111111111111111111111111111111111111111111111111111111111",
"<1111111111111111111111111111111111111111111111111111111111111111",
"<1111111111111111111,-----1,--11-------,,111111111111111111111111",
"<111111111111+++++=-&&&---=&--=-&&&&&----=----1111111111111111111",
"<1111111111$++#--,;o,,,o==;===;===oooo,,,;=,,--@o1111111111111111",
"<111111111$,,,Oo.;>;::; >>%>>>%>>   ;::::>:===,,,,.11111111111111",
"<111111111$+&-O. >%XXXXX%**>> %**X>;;;;;>%>::;=,+@o.1111111111111",
"<111111111o+&&-O;XXXXXXXX>**XX%>>>>>>>>>**;;;>:.... 1111111111111",
"<111111111=$+&#$O--,,oOO=..:    ::..===oo,,,=,-o,>. 1111111111111",
"<1111111111.$--$:##-@o-----,,o-++++++,=+##+,=-o.:> 11111111111111",
"<111111111--.ooO;#,,,.##@@@@,=#&&----,=-,=.= ..; *; 1111111111111",
"<111111111-#,.=======......;;=-,,,,,,= ...  ;XXXX ; 1111111111111",
"<111111111--.###+,.,#-,o.:=======...::>   ;o$O.:X ;>1111111111111",
"<1111111111,.#+--,.#------o:o+--$,,,OO==.;>$OO.:X;>X1111111111111",
"<111111111,#;----,;#,,,,,,,.=+&,,OOOO===:;>$O=.;X  11111111111111",
"<111111111,-#.,,,.;;...===.:>;o====...::;;XO=: X> XX1111111111111",
"<111111111.,---..;;;>;;>>>>>>;;     XXXXXXXXXXX> ;XX1111111111111",
"<1111111111..,- ##++@@,O=;o,,,,,,,;:o$,$$,,.:; X ;X>1111111111111",
"<111111111++$;.=#+@@@@@,O=O------,=>$,,oOO=.:; X;;>X1111111111111",
"<111111111+&#o =Oo,$$@@,O;.O,,,,,=;>$$OOO==.:;>X;X*11111111111111",
"<111111111$#&+o:=     ;;; *>>>>>>>>;;;;;XXXXXXX%%% X::::::::11111",
"<111111111o+-@o:=+#-$o.>>>>;.oooO=Oo===:...;X:: >% X;;;;;;;;::111",
"<111111111=o-@O:=#+@@@@@,O. o+@@@@$,,oO:,o=:X=: >X >>>>>>>  ;;:11",
"<1111111111=oO.X=+@,,,,,,O.>O@$,ooooooO:oo=:X=: >;>%*%%XXX>> ;:11",
"<11111111111=.:X ;=oooOOO.>>;,oooOOOo=.>=:;;X; >XX%*%%%XXX>>  ;:1",
"<1111111111111     ;;;;;;>>;;         >*>>>>>>>>>>>>>>>>>>>> ;::1",
"<1111111111111111111:::::::::::::::::::::::::::::::::::::::::::11"
};
