/* XPM */
static char *food_021660767710[] = {
/* columns rows colors chars-per-pixel */
"65 65 32 1 ",
"  c #646464",
". c #D17943",
"X c #AAAAAA",
"o c gray49",
"O c #78461C",
"+ c #FF8D54",
"@ c #C1C1C1",
"# c gray60",
"$ c gray82",
"% c #FF9D5C",
"& c #8D8D8D",
"* c #535353",
"= c #985729",
"- c gray99",
"; c #353535",
": c #464646",
"> c gray93",
", c #AF6032",
"< c #DDDDDD",
"1 c #FFBD9C",
"2 c #FFA56E",
"3 c gray71",
"4 c #BC683B",
"5 c None",
"6 c None",
"7 c black",
"8 c black",
"9 c black",
"0 c black",
"q c black",
"w c black",
"e c black",
/* pixels */
"56666666666666666666666666666666666666666666666666666666666666666",
"56666666666666666666666666666666666666666666666666666666666666666",
"56666666666666666666666666666666666666666666666666666666666666666",
"56666666666666666666666666666666666666666666666666666666666666666",
"56666666666666666666666666666666666666666666666666666666666666666",
"56666666666666666666666666666666666666666666666666666666666666666",
"56666666666666666666666666666666666666666666666666666666666666666",
"56666666666666666666666666666666666666666666666666666666666666666",
"56666666666666666666666666666666666666666666666666666666666666666",
"56666666666666666666666666666666666666666666666666666666666666666",
"56666666666666666666666666666666666666666666666666666666666666666",
"56666666666666666666666666666666666666666666666666666666666666666",
"56666666666666666666666666666666666666666666666666666666666666666",
"56666666666666666666666666666666666666666666666666666666666666666",
"56666666666666666666666666666666666666666666666666666666666666666",
"56666666666666666666666666666666666666666666666666666666666666666",
"56666666666666666666666666666666666666666666666666666666666666666",
"56666666666666666666666666666666666666666666666666666666666666666",
"56666666666666666666666666666666666666666666666666666666666666666",
"56666666666666666666666666666666666666666666666666666666666666666",
"56666666666666666666666666666666666666666666666666666666666666666",
"56666666666666666666666666666666666666666666666666666666666666666",
"56666666666666666666666666666666666666666666666666666666666666666",
"56666666666666666666666666666666666666666666666666666666666666666",
"56666666666666666666666666666666666666666666666666666666666666666",
"56666666666666666666666666666666666666666666666666666666666666666",
"56666666666666666666666666666666666666666666666666666666666666666",
"56666666666666666666666666666666666666666666666666666666666666666",
"56666666666666666666666666666666666666666666666666666666666666666",
"56666666666666666666666666666666666666666666666666666666666666666",
"56666666666666666666666666666666666666666666666666666666666666666",
"56666666666666666666666666666666666666666666666666666666666666666",
"56666666666666666666666666666666666666666666666666666666666666666",
"56666666666666666666666666666666666666666666666666666666666666666",
"56666666666666666666666666666666666666666666666666666666666666666",
"56666666666666666666666666666666666666666666666666666666666666666",
"56666666666666666666666666666666666666666666666666666666666666666",
"56666666666666666666666666666666666666666666666666666666666666666",
"56666666666666666666666666666666666666666666666666666666666666666",
"56666666666666666666666666666666666666666666666666666666666666666",
"56666666666666666666666666666666666666666666666666666666666666666",
"56666666666666666666666666666666666666666666666666666666666666666",
"56666666666666666666666666666666666666666666666666666666666666666",
"56666666666666666666666666666666666666666666666666666666666666666",
"56666666666666666666666666666666666666666666666666666666666666666",
"56666666666666666666666666666666666666666666666666666666666666666",
"56666666666666666666666666666666666666666666666666666666666666666",
"56666666666666666666666666666666666666666666666666666666666666666",
"56666666666666666666666666666666666666666666666666666666666666666",
"56666666666666666666666666666666666666666666666666666666666666666",
"56666666666666666666666666666666666666666666666666666666666666666",
"56666666666666666666666666666666666666666666666666666666666666666",
"56666666666666666666666666666666666666666666666666666666666666666",
"56666666666666666666666666666666666666666666666666666666666666666",
"56666666666666666666666666666666666666666666666666666666666666666",
"56666666666666666666666666666666666666666666666666666666666666666",
"566666666666666666666666666%%6%+466666666666666666666666666666666",
"566666666666666666666666>.+.,%+O=+.@66666666666666666666666666666",
"56666666666666666666666-.+,OO+.=O+=.#6666666666666666666666666666",
"56666666666666666666666@-->1..#@@@2.O6666666666666666666666666666",
"566666666666666666666666$X@X&ooo o OO6666666666666666666666666666",
"566666666666666666666666$X<XXX#o o ;66666666666666666666666666666",
"5666666666666666666666666$3$X#& o ;    66666666666666666666666666",
"56666666666666666666666666X#&o ::;***  66666666666666666666666666",
"55555555555555555555555555555555555555555555555555555555555555555"
};
