/* XPM */
static char *key1660767710[] = {
/* columns rows colors chars-per-pixel */
"64 65 16 1 ",
"  c #535353",
". c #9D9D00",
"X c #E9D900",
"o c #726C00",
"O c #B9AE00",
"+ c #595300",
"@ c #D0C500",
"# c #858500",
"$ c #646464",
"% c #3E3E00",
"& c white",
"* c #B3008C",
"= c black",
"- c black",
"; c black",
": c black",
/* pixels */
"****************************************************************",
"****************************************************************",
"****************************************************************",
"****************************************************************",
"****************************************************************",
"****************************************************************",
"****************************************************************",
"****************************************************************",
"****************************************************************",
"****************************************************************",
"****************************************************************",
"****************************************************************",
"****************************************************************",
"****************************************************************",
"****************************************************************",
"****************************************************************",
"****************************************************************",
"****************************************************************",
"****************************************************************",
"****************************************************************",
"****************************************************************",
"****************************************************************",
"****************************************************************",
"****************************************************************",
"****************************************************************",
"****************************************************************",
"****************************************************************",
"****************************************************************",
"****************************************************************",
"****************************************************************",
"****************************************************************",
"****************************************************************",
"****************************************************************",
"****************************************************************",
"****************************************************************",
"****************************************************************",
"****************************************************************",
"****************************************************************",
"****************************************************************",
"****************************************************************",
"****************************************************************",
"****************************************************************",
"****************************************************************",
"****************************************************************",
"****************************************************************",
"****************************************************************",
"****************************************************************",
"****************************************************************",
"****************************************************************",
"****************************************************************",
"****************************************************************",
"****************************************************************",
"****************************************************************",
"**********************************.@XX@.************************",
"**********************************@@oo@@.***********************",
"******************XO@XXXXXXXXOXOXX@#**#@.***********************",
"******************#o.........o.o..@.**.X.***********************",
"********************ooo+ooo++%+%+oO@XX@Oo***********************",
"********************OXO+OXO*******#.OO.#************************",
"********************OXO+OXO********oooo*************************",
"********************+++*+++*************************************",
"****************************************************************",
"****************$$                       $$*********************",
"****************************************************************",
"&&&&&&&&&&&&&&&&&&&&&&&&&&&&&&&&&&&&&&&&&&&&&&&&&&&&&&&&&&&&&&&&"
};
