/* XPM */
static char *little_table1660767710[] = {
/* columns rows colors chars-per-pixel */
"65 65 32 1 ",
"  c gray10",
". c #282828",
"X c #FF9935",
"o c #353535",
"O c #AAAAAA",
"+ c #FF8900",
"@ c #FFAA56",
"# c #464646",
"$ c gray82",
"% c #535353",
"& c #E86000",
"* c #DDDDDD",
"= c #646464",
"- c #CE5300",
"; c #B24B00",
": c #FF6C00",
"> c gray99",
", c #653E17",
"< c #717171",
"1 c black",
"2 c gray93",
"3 c #C1C1C1",
"4 c #8D8D8D",
"5 c #814B20",
"6 c #78461C",
"7 c gray60",
"8 c gray49",
"9 c #FF7900",
"0 c gray71",
"q c white",
"w c #B3008C",
"e c black",
/* pixels */
"wwwwwwwwwwwwwwwwwwwwwwwwwwwwwwwwwwwwwwwwwwwwwwwwwwwwwwwwwwwwwwwwq",
"wwwwwwwwwwwwwwwwwwwwwwwwwwwwwwwwwwwwwwwwwwwwwwwwwwwwwwwwwwwwwwwwq",
"wwwwwwwwwwwwwwwwwwwwwwwwwwwwwwwwwwwwwwwwwwwwwwwwwwwwwwwwwwwwwwwwq",
"wwwwwwwwwwwwwwwwwwwwwwwwwwwwwwwwwwwwwwwwwwwwwwwwwwwwwwwwwwwwwwwwq",
"wwwwwwwwwwwwwwwwwwwwwwwwwwwwwwwwwwwwwwwwwwwwwwwwwwwwwwwwwwwwwwwwq",
"wwwwwwwwwwwwwwwwwwwwwwwwwwwwwwwwwwwwwwwwwwwwwwwwwwwwwwwwwwwwwwwwq",
"wwwwwwwwwwwwwwwwwwwwwwwwwwwwwwwwwwwwwwwwwwwwwwwwwwwwwwwwwwwwwwwwq",
"wwwwwwwwwwwwwwwwwwwwwwwwwwwwwwwwwwwwwwwwwwwwwwwwwwwwwwwwwwwwwwwwq",
"wwwwwwwwwwwwwwwwwwwwwwwwwwwwwwwwwwwwwwwwwwwwwwwwwwwwwwwwwwwwwwwwq",
"wwwwwwwwwwwwwwwwwwwwwwwwwwwwwwwwwwwwwwwwwwwwwwwwwwwwwwwwwwwwwwwwq",
"wwwwwwwwwwwwwwwwwwwwwwwwwwwwwwwwwwwwwwwwwwwwwwwwwwwwwwwwwwwwwwwwq",
"wwwwwwwwwwwwwwwwwwwwwwwwwwwwwwwwwwwwwwwwwwwwwwwwwwwwwwwwwwwwwwwwq",
"wwwwwwwwwwwwwwwwwwwwwwwwwwwwwwwwwwwwwwwwwwwwwwwwwwwwwwwwwwwwwwwwq",
"wwwwwwwwwwwwwwwwwwwwwwwwwwwwwwwwwwwwwwwwwwwwwwwwwwwwwwwwwwwwwwwwq",
"wwwwwwwwwwwwwwwwwwwwwwwwwwwwwwwwwwwwwwwwwwwwwwwwwwwwwwwwwwwwwwwwq",
"wwwwwwwwwwwwwwwwwwwwwwwwwwwwwwwwwwwwwwwwwwwwwwwwwwwwwwwwwwwwwwwwq",
"wwwwwwwwwwwwwwwwwwwwwwwwwwwwwwwwwwwwwwwwwwwwwwwwwwwwwwwwwwwwwwwwq",
"wwwwwwwwwwwwwwwwwwwwwwwwwwwwwwwwwwwwwwwwwwwwwwwwwwwwwwwwwwwwwwwwq",
"wwwwwwwwwwwwwwwwwwwwwwwwwwwwwwwwwwwwwwwwwwwwwwwwwwwwwwwwwwwwwwwwq",
"wwwwwwwwwwwwwwwwwwwwwwwwwwwwwwwwwwwwwwwwwwwwwwwwwwwwwwwwwwwwwwwwq",
"wwwwwwwwwwwwwwwwwwwwwwwwwwwwwwwwwwwwwwwwwwwwwwwwwwwwwwwwwwwwwwwwq",
"wwwwwwwwwwwwwwwwwwwwwwwwwwwwwwwwwwwwwwwwwwwwwwwwwwwwwwwwwwwwwwwwq",
"wwwwwwwwwwwwwwwwwwwwwwwwwwwwwwwwwwwwwwwwwwwwwwwwwwwwwwwwwwwwwwwwq",
"wwwwwwwwwwwwwwwwwwwwwwwwwwwwwwwwwwwwwwwwwwwwwwwwwwwwwwwwwwwwwwwwq",
"wwwwwwwwwwwwwwwwwwwwwwwwwwwwwwwwwwwwwwwwwwwwwwwwwwwwwwwwwwwwwwwwq",
"wwwwwwwwwwwwwwwwwwwwwwwwwwwwwwwwwwwwwwwwwwwwwwwwwwwwwwwwwwwwwwwwq",
"wwwwwwwwwwwwwwwwwwwwwwwwwwwwwwwwwwwwwwwwwwwwwwwwwwwwwwwwwwwwwwwwq",
"wwwwwwwwwwwwwwwwwwwwwwwwwwwwwwwwwwwwwwwwwwwwwwwwwwwwwwwwwwwwwwwwq",
"wwwwwwwwwwwwwwwwwwwwwwwwwwwwwwwwwwwwwwwwwwwwwwwwwwwwwwwwwwwwwwwwq",
"wwwwwwwwwwwwwwwwwwwwwwwwwwwwwwwwwwwwwwwwwwwwwwwwwwwwwwwwwwwwwwwwq",
"wwwwwwwwwwwwwwwwwwwwwwwwwwwwwwwwwwwwwwwwwwwwwwwwwwwwwwwwwwwwwwwwq",
"wwwwwwwwwwwwwwwwwwwwwwwwwwwwwwwwwwwwwwwwwwwwwwwwwwwwwwwwwwwwwwwwq",
"wwwwwwwwwwwwwwwwwwwwwwwwwwwwwwwwwwwwwwwwwwwwwwwwwwwwwwwwwwwwwwwwq",
"wwwwwwwwwwwwwwwwwwwwwwwwwwwwwwwwwwwwwwwwwwwwwwwwwwwwwwwwwwwwwwwwq",
"wwwwwwwwwwwwwwwwwwwwwwwwwwwwwwwwwwwwwwwwwwwwwwwwwwwwwwwwwwwwwwwwq",
"wwwwwwwwwwwwwwwwwwwwwwwwwwwwwwwwwwwwwwwwwwwwwwwwwwwwwwwwwwwwwwwwq",
"wwwwwwwwwwwwwwwwwwwwwwwwwwwwwwwwwwwwwwwwwwwwwwwwwwwwwwwwwwwwwwwwq",
"wwwwwwwwwwwwwwwwwwwwwwwwwwwwwwwwwwwwwwwwwwwwwwwwwwwwwwwwwwwwwwwwq",
"wwwwwwwwwwwwwwww@@@@@@@@@@@@@@@@@@@@@@@@@@@@@@@@@wwwwwwwwwwwwwwwq",
"wwwwwwwwwwwXXXXXXXXXXXXXXXXXXXXXXXXXXXXXXXXXXXXXXXXXXXwwwwwwwwwwq",
"wwwwwwwwwww::99+++++++++++++++++++++++++++++++++++9&,,wwwwwwwwwwq",
"wwwwwwwwwww::::::::&&&&&&&&-------;;;;;;;5555666,,,,,,wwwwwwwwwwq",
"wwwwwwwwwwwwwww::::&&&&&&&&-------;;;;;;;5555666,,wwwwwwwwwwwwwwq",
"wwwwwwwwwwwwwwwwwwwwwwwwwwwwooooo..  wwwwwwwwwwwwwwwwwwwwwwwwwwwq",
"wwwwwwwwwwwwwwwwwwwwwwwwwwww####oo.  wwwwwwwwwwwwwwwwwwwwwwwwwwwq",
"wwwwwwwwwwwwwwwwwwwwwwwwwwww8%###o.  wwwwwwwwwwwwwwwwwwwwwwwwwwwq",
"wwwwwwwwwwwwwwwwwwwwwwwwwwwwO4%##oo. wwwwwwwwwwwwwwwwwwwwwwwwwwwq",
"wwwwwwwwwwwwwwwwwwwwwwwwwwwwO4<%##o. wwwwwwwwwwwwwwwwwwwwwwwwwwwq",
"wwwwwwwwwwwwwwwwwwwwwwwwwwwwO34<%#o. wwwwwwwwwwwwwwwwwwwwwwwwwwwq",
"wwwwwwwwwwwwwwwwwwwwwwwwwwwwO*O4%#o. wwwwwwwwwwwwwwwwwwwwwwwwwwwq",
"wwwwwwwwwwwwwwwwwwwwwwwwwwwwO*3O<%o. wwwwwwwwwwwwwwwwwwwwwwwwwwwq",
"wwwwwwwwwwwwwwwwwwwwwwwwwwwwO$3O4%o. wwwwwwwwwwwwwwwwwwwwwwwwwwwq",
"wwwwwwwwwwwwwwwwwwwwwwwwwwwwO$23O%o. wwwwwwwwwwwwwwwwwwwwwwwwwwwq",
"wwwwwwwwwwwwwwwwwwwwwwwwwwwwO$23O=o. wwwwwwwwwwwwwwwwwwwwwwwwwwwq",
"wwwwwwwwwwwwwwwwwwwwwwwwwwwwO$2*O=#. wwwwwwwwwwwwwwwwwwwwwwwwwwwq",
"wwwwwwwwwwwwwwwwwwwwwwwwwwwwO$2*O<#. wwwwwwwwwwwwwwwwwwwwwwwwwwwq",
"wwwwwwwwwwwwwwwwwwwwwwwwwwwwO$2*O<#o wwwwwwwwwwwwwwwwwwwwwwwwwwwq",
"wwwwwwwwwwwwwwwwwwwwwwwwwwwwO$2*O<#o wwwwwwwwwwwwwwwwwwwwwwwwwwwq",
"wwwwwwwwwwwwwwwwwwwwwwwwwwwwO$2*O<#o wwwwwwwwwwwwwwwwwwwwwwwwwwwq",
"wwwwwwwwwwwwwwwwwwwwwwww7OOOO$2*O<#o oo.. %%%%%%%%%%%=======wwwwq",
"wwwwwwwwwwwwwwwwwwwww7$*>>>*O$2*O<#o ........ooooooooooooo#%%=wwq",
"wwwwwwwwwwwwwwwwwwww$>>>>>*3OOOOO<#.........            ..o##%=wq",
"wwwwwwwwwwwwwwwwwwww7$$$>*33*>$$048=##o....  111111111  .o##%=wwq",
"wwwwwwwwwwwwwwwwwwwwwww7$$3*$$$$$448=##o.             ..o#%=wwwwq",
"qqqqqqqqqqqqqqqqqqqqqqqqqqqqqqqqqqqqqqqqqqqqqqqqqqqqqqqqqqqqqqqqq"
};
