/* XPM */
static char *machine_gun1660767710[] = {
/* columns rows colors chars-per-pixel */
"65 64 32 1 ",
"  c #535353",
". c #646464",
"X c #003E3E",
"o c #353535",
"O c gray71",
"+ c gray60",
"@ c black",
"# c #464646",
"$ c gray49",
"% c #007171",
"& c gray82",
"* c #C1C1C1",
"= c #00CDCD",
"- c #009D9D",
"; c #8D8D8D",
": c #005757",
"> c #00B5B5",
", c #AAAAAA",
"< c #008585",
"1 c #DDDDDD",
"2 c white",
"3 c #B3008C",
"4 c black",
"5 c black",
"6 c black",
"7 c black",
"8 c black",
"9 c black",
"0 c black",
"q c black",
"w c black",
"e c black",
/* pixels */
"23333333333333333333333333333333333333333333333333333333333333333",
"23333333333333333333333333333333333333333333333333333333333333333",
"23333333333333333333333333333333333333333333333333333333333333333",
"23333333333333333333333333333333333333333333333333333333333333333",
"23333333333333333333333333333333333333333333333333333333333333333",
"23333333333333333333333333333333333333333333333333333333333333333",
"23333333333333333333333333333333333333333333333333333333333333333",
"23333333333333333333333333333333333333333333333333333333333333333",
"23333333333333333333333333333333333333333333333333333333333333333",
"23333333333333333333333333333333333333333333333333333333333333333",
"23333333333333333333333333333333333333333333333333333333333333333",
"23333333333333333333333333333333333333333333333333333333333333333",
"23333333333333333333333333333333333333333333333333333333333333333",
"23333333333333333333333333333333333333333333333333333333333333333",
"23333333333333333333333333333333333333333333333333333333333333333",
"23333333333333333333333333333333333333333333333333333333333333333",
"23333333333333333333333333333333333333333333333333333333333333333",
"23333333333333333333333333333333333333333333333333333333333333333",
"23333333333333333333333333333333333333333333333333333333333333333",
"23333333333333333333333333333333333333333333333333333333333333333",
"23333333333333333333333333333333333333333333333333333333333333333",
"23333333333333333333333333333333333333333333333333333333333333333",
"23333333333333333333333333333333333333333333333333333333333333333",
"23333333333333333333333333333333333333333333333333333333333333333",
"23333333333333333333333333333333333333333333333333333333333333333",
"23333333333333333333333333333333333333333333333333333333333333333",
"23333333333333333333333333333333333333333333333333333333333333333",
"23333333333333333333333333333333333333333333333333333333333333333",
"23333333333333333333333333333333333333333333333333333333333333333",
"23333333333333333333333333333333333333333333333333333333333333333",
"23333333333333333333333333333333333333333333333333333333333333333",
"23333333333333333333333333333333333333333333333333333333333333333",
"23333333333333333333333333333333333333333333333333333333333333333",
"23333333333333333333333333333333333333333333333333333333333333333",
"23333333333333333333333333333333333333333333333333333333333333333",
"23333333333333333333333333333333333333333333333333333333333333333",
"23333333333333333333333333333333333333333333333333333333333333333",
"23333333333333333333333333333333333333333333333333333333333333333",
"23333333333333333333333333333333333333333333333333333333333333333",
"23333333333333333333333333333333333333333333333333333333333333333",
"23333333333333333333333333333333333333333333333333333333333333333",
"23333333333333333333333333333333333333333333333333333333333333333",
"23333333333333333333333333333333333333333333333333333333333333333",
"23333333333333333333333333333333333333333333333333333333333333333",
"23333333333333333333333333333333333333333333333333333333333333333",
"23333333333333333333333333333333333333333333333333333333333333333",
"23333333333333333333333333333333333333333333333333333333333333333",
"23333333333333333333333333333333333+$.$+++33333333333333333333333",
"23333333333333O13333333OOOO3OOOOOOO$......;OOO,,+3333333333333333",
"2333333333333O,OOOOOOOO&&&&X&&&&&&&&************O+333333333333333",
"2333333333333$$$$$$$$$$;+++#+++++++++++++++;;;;$$$333333333333333",
"2333333333333              X                     X333333333333333",
"23333333333333333333333oooo3ooooooooooooooooo@@@X3333333333333333",
"2333333333333333333333333333-%-%-<:33XX33@XXX@ @@X333333333333333",
"2333333333333333333333333333>%=%=%X333XXXXX3X@@@@@:%3333333333333",
"2333333333333333333333333333>-=--%X3333333333X@@@@@:3333333333333",
"233333333333333333333333333>====:X333333333333X@@@@X3333333333333",
"23333333333333333333333333%%%%%%<X333333333333X@@@XX3333333333333",
"23333333333333333333333333XXXXXXXX3333333333333XXXX33333333333333",
"23333333333333333333333333333333333333333333333333333333333333333",
"23333333333333333333333333333333333333333333333333333333333333333",
"233333333333333333333333.......      ............     ..333333333",
"2333333333333333333......    ###oooo#############ooooo# ..3333333",
"23333333333333333333333333......                       ..33333333"
};
