/* XPM */
static char *oven1660767710[] = {
/* columns rows colors chars-per-pixel */
"64 65 32 1 ",
"  c #8D8D8D",
". c #282828",
"X c gray49",
"o c gray60",
"O c #AAAAAA",
"+ c #726C00",
"@ c #C50000",
"# c #920000",
"$ c #670000",
"% c red",
"& c #FF7D7D",
"* c #E9D900",
"= c #F70000",
"- c #FF5353",
"; c #353535",
": c gray10",
"> c #717171",
", c #464646",
"< c #646464",
"1 c #535353",
"2 c white",
"3 c black",
"4 c #B3008C",
"5 c black",
"6 c black",
"7 c black",
"8 c black",
"9 c black",
"0 c black",
"q c black",
"w c black",
"e c black",
/* pixels */
"2222222222222222222222222222222222222222222222222222222222222222",
"4444444444444444444444444444444444444444444444444444444444444444",
"4444444444444444444444444444444444444444444444444444444444444444",
"4444444444444444444444444444444444444444444444444444444444444444",
"4444444444444444444444444444ooo  XX44444444444444444444444444444",
"444444444444444444444444444oOOOOooX14444444444444444444444444444",
"44444444444444444444444444oOoo  X>1X1444444444444444444444444444",
"4444444444444444444444444oOo  XX>111>144444444444444444444444444",
"4444444444444444444444444oOo XX><<1,<144444444444444444444444444",
"4444444444444444444444444oO >>1,;.;,1;44444444444444444444444444",
"4444444444444444444444444 O<1 ><1;:;,;44444444444444444444444444",
"4444444444444444444444444 o1> ><1,;3;:44444444444444444444444444",
"4444444444444444444444444Xo<> ><1,;:;:44444444444444444444444444",
"44444444444444444444444444X<> ><1,;::444444444444444444444444444",
"444444444444444444444444444;,<1;.:334444444444444444444444444444",
"444444444444444444444444444<> ><1,;:4444444444444444444444444444",
"444444444444444444444444444<> ><1,;:4444444444444444444444444444",
"444444444444444444444444444<> ><1,;:4444444444444444444444444444",
"444444444444444444444444444<> ><1,;:4444444444444444444444444444",
"444444444444444444444444444;,<1;.:334444444444444444444444444444",
"444444444444444444444444444<> ><1,;:4444444444444444444444444444",
"444444444444444444444444444<> ><1,;:4444444444444444444444444444",
"444444444444444444444444444<> ><1,;:4444444444444444444444444444",
"444444444444444444444444444<> ><1,;:4444444444444444444444444444",
"444444444444444444444444444;,<1;.:334444444444444444444444444444",
"444444444444444444444444444<> ><1,;:4444444444444444444444444444",
"444444444444444444444444444<> ><1,;:4444444444444444444444444444",
"444444444444444444444444444<> ><1,;:4444444444444444444444444444",
"444444444444444444444444444<> ><1,;:4444444444444444444444444444",
"444444444444444444444444444;,<1;.:334444444444444444444444444444",
"444444444444444444444444444<> ><1,;:4444444444444444444444444444",
"444444444444444444444444444<> ><1,;:4444444444444444444444444444",
"444444444444444444444444444<> ><1,;:4444444444444444444444444444",
"444444444444444444444444444<> ><1,;:4444444444444444444444444444",
"444444444444444444444444444;,<1;.:334444444444444444444444444444",
"444444444444444444444444444<> ><1,;:4444444444444444444444444444",
"4444444444444444444XX ooooooo XX<<<<<<11,,;.44444444444444444444",
"444444444444444444<<>XX    X>X>>>><<<<<111,;.4444444444444444444",
"44444444444444444441111111111,,,,,,;;;......44444444444444444444",
"444444444444444444444.;,,,,,;;;;...::::3334444444444444444444444",
"444444444444444444444,>   X<<<11,,,;;;.::34444444444444444444444",
"44444444444444444444,>X  X><<111,,,;;;..::3444444444444444444444",
"44444444444444444444,>   X<<1XXXX1;,;;;.::3444444444444444444444",
"44444444444444444444,X  X><<X,X;1.1;;;;.::3444444444444444444444",
"4444444444444444444,>X<<<<<<111111111111:33344444444444444444444",
"4444444444444444444,> <>>>>>>>><<<<<11,,:33344444444444444444444",
"4444444444444444444,> <>3$#>3$#<3$#13$#,:33344444444444444444444",
"4444444444444444444,> <>:@<>:@<<:@11:@1,:33344444444444444444444",
"4444444444444444444,> <>.= >.% <.%<1.=1,:33344444444444444444444",
"4444444444444444444,> <>.% >.& <.&>1.%<;:33344444444444444444444",
"4444444444444444444,> <>.- >.*+<.*>1.&<;:33344444444444444444444",
"4444444444444444444,> 1>.  >.++<.+>1.+<;:33344444444444444444444",
"4444444444444444444,> 1>>>>>>><<<11,,,;;:33344444444444444444444",
"4444444444444444444,> ;....::::::::::::::33344444444444444444444",
"4444444444444444444,>  <,<;.3;;;;;.,3.3:::3344444444444444444444",
"44444444444444444444,X  1,;;11111,,;....::3444444444444444444444",
"44444444444444444444,>X X<1111111,,,,;;.::3444444444444444444444",
"44444444444444444444,>XXX><11111,,,,;;..::3444444444444444444444",
"444444444444444444444,>XXX<<1111,,,,;;.::34444444444444444444444",
"4444444444444444444XX ooooooo XX<<<<11,;;.::44444444444444444444",
"444444444444444444<<>XX    X>X>>>><11,,;;..::4444444444444444444",
"44444444444444444441111111111,,,,,,;;;..::::44444444444444444444",
"4444444444444444444444.::344444444444.:::44444444444444444444444",
"4444444444444444444444,<1.33333333333.<,:333::.;;;,,11<<44444444",
"444444444444444444444,<1.3333333333333.<,:::..;;,,,11<<<44444444"
};
