/* XPM */
static char *pillar1660767710[] = {
/* columns rows colors chars-per-pixel */
"65 65 32 1 ",
"  c #8D8D8D",
". c gray71",
"X c #353535",
"o c gray82",
"O c #717171",
"+ c #535353",
"@ c gray49",
"# c #3E3E3E",
"$ c #464646",
"% c gray36",
"& c #4B4B4B",
"* c black",
"= c #DDDDDD",
"- c #AAAAAA",
"; c #646464",
": c gray93",
"> c gray60",
", c #C1C1C1",
"< c #282828",
"1 c gray10",
"2 c gray99",
"3 c white",
"4 c #B3008C",
"5 c black",
"6 c black",
"7 c black",
"8 c black",
"9 c black",
"0 c black",
"q c black",
"w c black",
"e c black",
/* pixels */
"34444444444444444444444444----       OOOO;44444444444444444444444",
"344444444444444444444--==ooo,,,..-->>  @OO;+$++444444444444444444",
"3444444444444444444,22:::===ooo,,..->O, @O;+$#XX<4444444444444444",
"344444444444444444:2222:::222==o,,..->> @@$+$#XX1<444444444444444",
"34444444444444444=::222222:=o,,..--> @@O;;;;X#X<1<<44444444444444",
"34444444444444444==::222::ooo,,-o--> @@O;;+#$<<11<<44444444444444",
"34444444444444444,==2:22:::==oo,,..-> @O;+$#<X11<<<44444444444444",
"344444444444444444,,2::22::22==o,,--> @O;+#X<111<<444444444444444",
"34444444444444444444.::2222:=o,-.> @O;+$#<X<111144444444444444444",
"344444444444444444444.,,222:=o,.-> @O;+$#X<<11<444444444444444444",
"3444444444444444444444>,:22:=o,.-> @O+;$#X<11<4444444444444444444",
"3444444444444444444444>,:22:=o,.-> @O;+$#X<11<4444444444444444444",
"3444444444444444444444>,222:=o,.- -@O;+$#<X11<4444444444444444444",
"3444444444444444444444>,222:=o,. >-@O;+$#X<11<4444444444444444444",
"3444444444444444444444>,222:=o,.-> @O;#;#X<11<4444444444444444444",
"3444444444444444444444>,222:=o,.-> @O;+;#X<11<4444444444444444444",
"3444444444444444444444>,::=o,.-> @O;+$#$<1111<4444444444444444444",
"3444444444444444444444> -.--  @OO;;+$#X<1111114444444444444444444",
"34444444444444444444444=2=:22:=o,.-> @O+;$X1<44444444444444444444",
"3444444444444444444444,=2222=o,.-> @O;+$+X<<1X4444444444444444444",
"3444444444444444444444,=222:=oo.->@ O;+$#X<11<4444444444444444444",
"3444444444444444444444>,222:=.:.-> O@;+$#X<11<4444444444444444444",
"3444444444444444444444>,222:=,:.-> @O;+$#<X11<4444444444444444444",
"3444444444444444444444>,222:=oo.-> @O+;$#X<*1<4444444444444444444",
"3444444444444444444444>,222:=o,.-> @O;+$<$<11<4444444444444444444",
"3444444444444444444444>-222:.2,.-> @O;+$#X<11<4444444444444444444",
"3444444444444444444444>=222:=o,.->@>O;+$X#<11<4444444444444444444",
"3444444444444444444444>,222:=.=.-> @O;$+#X<11<4444444444444444444",
"3444444444444444444444>,222:=o,.- >@O;+$#<X11<4444444444444444444",
"3444444444444444444444@>=:=o,.-> @O;+$#X<111114444444444444444444",
"34444444444444444444444@>->  @@OO;;+$#X<11***44444444444444444444",
"3444444444444444444444-o22222,=o,.-> @O;+$X<<X4444444444444444444",
"3444444444444444444444>,222:=:,.-> @O;+$#X<11<4444444444444444444",
"3444444444444444444444>,222:=o,.- >@;@+$#<#*1<4444444444444444444",
"3444444444444444444444>,222:=.:.-> @O;+#$X<11<4444444444444444444",
"3444444444444444444444>,22=2=o,.-> @O;$+#X1<1<4444444444444444444",
"3444444444444444444444>,2:2:=.,-.>@ O;++#X<1114444444444444444444",
"3444444444444444444444>,222:.2,.-> @O;+$X#<11<4444444444444444444",
"3444444444444444444444>,222:2o,.-> O@;+$#X<11<4444444444444444444",
"3444444444444444444444>,22=2=o,.- >@O;+#$<X11<4444444444444444444",
"3444444444444444444444>,222:=o.=-> @O+;$#X<11<4444444444444444444",
"3444444444444444444444>,222:o:,.-> O@;+$#<X11<4444444444444444444",
"3444444444444444444444@,:2::=o,.>> @O;$+#X<11X4444444444444444444",
"34444444444444444444444-o=,,,.->O>O;+$#X<111144444444444444444444",
"3444444444444444444444-:.,o,> @O+;;+$#X<1111114444444444444444444",
"3444444444444444444444>o2:222:=o,. > @O;+$X1<<4444444444444444444",
"3444444444444444444444>,222:=o,.->@>O;+$#<#11<4444444444444444444",
"3444444444444444444444>,222o2o,>=> @O;+$#X<11<4444444444444444444",
"3444444444444444444444>,222:=o,.->@>O;$+#X<11<4444444444444444444",
"3444444444444444444444>,222:=o,.-> @O+;$#X<11<4444444444444444444",
"3444444444444444444444>,222:=o,>,> @;O+$#X<11<4444444444444444444",
"3444444444444444444444>,222:=o-=-> @O;+#+X<11<4444444444444444444",
"3444444444444444444444>,:22o2o,.-> @O;+$#X<11<4444444444444444444",
"3444444444444444444444>,:22o2o,.-> @O;$+#X<11<4444444444444444444",
"344444444444444444444.=,222:=o,.>. @O;+$#X<X11<444444444444444444",
"34444444444444444444.::2222:=o,.-> @O;+$#<X<111<<4444444444444444",
"344444444444444444,,2:222::22==o,,--> @O;+#X<111<<<#$&++%%;;44444",
"34444444444444444,==2:22:::==oo,,..-> @O;+$#<X11<<<XX#$$&++%;;444",
"34444444444444444==::222::ooo,,..-- -@@O;;+#$<<11<<XXXX#$$&+%%;44",
"34444444444444444=::222222:=o,,..--> @@O;;O;&&X<1<<XXXX#$$&+%%;44",
"344444444444444444:2222:::222==o,,..->> @@O%#%XX1<XXX##$&&+%%;444",
"3444444444444444444,22:::===ooo,.o.->> @ O;%$#XX<###$$$&+%%;44444",
"344444444444444444444--==ooo,,,..-->>  @OO;+$##$+%%%;;;;;;4444444",
"34444444444444444444444444----       OOOO;+##$+%;;444444444444444",
"33333333333333333333333333333333333333333333333333333333333333333"
};
