/* XPM */
static char *plant_021660767710[] = {
/* columns rows colors chars-per-pixel */
"65 65 64 1 ",
"  c #78461C",
". c #E8814C",
"X c #985729",
"o c #BC683B",
"O c #AF6032",
"+ c #000059",
"@ c #282828",
"# c #00009C",
"$ c #B36437",
"% c #39280A",
"& c #D17943",
"* c #0000E5",
"= c #00007F",
"- c #C9713F",
"; c #FF9D5C",
": c gray10",
"> c #FF8D54",
", c #814B20",
"< c #0000C1",
"1 c #00008C",
"2 c #0000A9",
"3 c #0000F1",
"4 c #181FFF",
"5 c #535353",
"6 c #A15C2E",
"7 c #353535",
"8 c black",
"9 c #000073",
"0 c #8F4F25",
"q c #000066",
"w c #653E17",
"e c #464646",
"r c #00003F",
"t c #5B3913",
"y c #646464",
"u c MediumBlue",
"i c #DF7D48",
"p c #9D9DFF",
"a c #5A60FF",
"s c #4C350E",
"d c #5353FF",
"f c blue",
"g c #0000B5",
"h c #0000D9",
"j c #F58950",
"k c None",
"l c None",
"z c black",
"x c black",
"c c black",
"v c black",
"b c black",
"n c black",
"m c black",
"M c black",
"N c black",
"B c black",
"V c black",
"C c black",
"Z c black",
"A c black",
"S c black",
"D c black",
"F c black",
/* pixels */
"kllllllllllllllllllllllllllllllllllllllllllllllllllllllllllllllll",
"kllllllllllllllllllllllllllllllllllllllllllllllllllllllllllllllll",
"kllllllllllllllllllllllllllllllllllllllllllllllllllllllllllllllll",
"kllllllllllllllllllllllllllllllllllllllllllllllllllllllllllllllll",
"kllllllllllllllllllllllllllllllllllllllllllllllllllllllllllllllll",
"kllllllllllllllllllllllllllllllllllllllllllllllllllllllllllllllll",
"kllllllllllllllllllllllllllllllllllllllllllllllllllllllllllllllll",
"kllllllllllllllllllllllllllllllllllllllllllllllllllllllllllllllll",
"kllllllllllllllllllllllllllllllllllllllllllllllllllllllllllllllll",
"klllllllllllllllllllllllllllllllollllllllllllllllllllllllllllllll",
"klllllllllllllllllllllllllllllll.olllllllllllllllllllllllllllllll",
"klllllllllllllllllllllllllllllll>0lllllllllllllllllllllllllllllll",
"kllllllllllllllllllllllllllllll.>0lllllllllllllllllllllllllllllll",
"kllllllllllllllllllllllllllllll.> lllllllllllllllllllllllllllllll",
"klllllllllllllllllllllllllllll.l>o%llllllllllllllllllllllllllllll",
"kllllllllllllllllllllllllllll.l6io$llllllllllllllllllllllllllllll",
"kllllllllllllllllllllllllllll..i 6Xllllllllllllllllllllllllllllll",
"klllllllllllllllllllllllllllX.Xi6 X$,llllllllllllllllllllllllllll",
"klllllllllllllllllllllllllll.o> o X$,llllllllllllllllllllllllllll",
"klllllllllllllllllllllllllll.X>>.  X,llllllllllllllllllllllllllll",
"kllllllllllllllllllllllllll.>X-X>-O ,llllllllllllllllllllllllllll",
"kllllllllllllllllllllllllll.>>O-. . ,llllllllllllllllllllllllllll",
"klllllllllllllllllllllllll.OX;-j- %X Xlllllllllllllllllllllllllll",
"klllllllllllllllllllllllll.oX.;-6 oXoXll&llllllllllllllllllllllll",
"klllllllllllllllllllllllllloOXO&0 oXo%.ll&lllllllllllllllllllllll",
"kllllllllllllllllllllllllllXX;.&6 oXoX.ll.&llllllllllllllllllllll",
"kllllllllllllllllllllllllloO&.o&O oXoXX.o .llllllllllllllllllllll",
"klllllllllllllllllllllllllo .O& OoXXo.XXo Xllllllllllllllllllllll",
"klllllllllllllllllllllllll..O&X.  %.OO.Xo .llllllllllllllllllllll",
"klllllllllllllllllllllllll..O&&O-. .&woo  lllllllllllllllllllllll",
"klllllllllllllllllllllllllo.o>;->  .&Owo  lllllllllllllllllllllll",
"klllllllllllllllllllllllllloOX;;O Oo ow X lllllllllllllllllllllll",
"kllllllllllllllllllllllllllXXXo;O O  0o X lllllllllllllllllllllll",
"kllllllllllllllllllllllllll.;Xo.O.  O0ow.  llllllllllllllllllllll",
"kllllllllllllllllllllllllll-X;..O.. O00wX  llllllllllllllllllllll",
"klllllllllllllllllllllllllll-XO.O...O0XwX%lllllllllllllllllllllll",
"kllllllllllllllllllllllll&&l-. $X. .  w  llllllllllllllllllllllll",
"kllllllllllllllllllllllll&--XO X  O..O  ,llllllllllllllllllllllll",
"kllllllllllllllllllllllll-O;;.$   O. o X,llllllllllllllllllllllll",
"klllllllllllllllllllllllllX..;. .. .o X$,llllllllllllllllllllllll",
"klllllllllllllllllllllllllXO..;.   O o $,llllllllllllllllllllllll",
"kllllllllllllllllllllllllllO6O  ..oOo $$lllllllllllllllllllllllll",
"kllllllllllllllllllllllllll.l666.Oo o $llllllllllllllllllllllllll",
"klllllllllllllllllllllllllllls O . t $$$lllllllllllllllllllllllll",
"kllllllllllllllllllllllllllllls O,tt $$llllllllllllllllllllllllll",
"kllllllllllllllllllllllllllllll.Ot,%l$l$lllllllllllllllllllllllll",
"kllllllllllllllllllllllllllllll.%,t%%llllllllllllllllllllllllllll",
"kllllllllllllllllllllllllllllu%%%%%%%+lllllllllllllllllllllllllll",
"klllllllllllllllllllllllllllldpdff<#++lllllllllllllllllllllllllll",
"kllllllllllllllllllllllllllllluu#qqrrllllllllllllllllllllllllllll",
"klllllllllllllllllllllllllllll**g##qrllllllllllllllllllllllllllll",
"kllllllllllllllllllllllllllll*pahg#=++lllllllllllllllllllllllllll",
"klllllllllllllllllllllllllll*4au2#1=q++llllllllllllllllllllllllll",
"klllllllllllllllllllllllllll*43<2#1=9++llllllllllllllllllllllllll",
"klllllllllllllllllllllllllll*43<2#1=9++llllllllllllllllllllllllll",
"klllllllllllllllllllllllllll*43<2#1=9++llllllllllllllllllllllllll",
"klllllllllllllllllllllllllll*43<2#1=9++llllllllllllllllllllllllll",
"klllllllllllllllllllllllllll*43<2#1=9++llllllllllllllllllllllllll",
"klllllllllllllllllllllllllll*43<2#1=9++llllllllllllllllllllllllll",
"klllllllllllllllllllllllllll*43<2#1=9++llllllllllllllllllllllllll",
"klllllllllllllllllllllllllll*43<2#1=9++llllllllllllllllllllllllll",
"klllllllllllllllllllllllllll*43<2#1=q++@@@@@@@@@@@@77777ee555ylll",
"klllllllllllllllllllllllllll#*3<2#1=++r88888888::::@@@@@77ee555yl",
"kllllllllllllllllllllllllllll###==qqrr:::::::::@@@@@@77eee555yyll",
"kkkkkkkkkkkkkkkkkkkkkkkkkkkkkkkkkkkkkkkkkkkkkkkkkkkkkkkkkkkkkkkkk"
};
