/* XPM */
static char *portrait1660767710[] = {
/* columns rows colors chars-per-pixel */
"65 65 64 1 ",
"  c #007DD0",
". c #008DE8",
"X c #009DFF",
"o c #646464",
"O c #FFB98F",
"+ c #FFA56E",
"@ c #FF8D54",
"# c #006CB8",
"$ c #FFC5A4",
"% c #FF9D5C",
"& c #00BDFE",
"* c #535353",
"= c #F58950",
"- c #E8814C",
"; c #FF6C00",
": c #814B20",
"> c #AF6032",
", c #FFD5BC",
"< c #FF9558",
"1 c #DF7D48",
"2 c #BC683B",
"3 c #464646",
"4 c gray49",
"5 c #D9D9FD",
"6 c #00AAFF",
"7 c #FF8900",
"8 c #E86000",
"9 c #00B1FF",
"0 c #B36437",
"q c #BF5300",
"w c #D17943",
"e c MediumBlue",
"r c #C9713F",
"t c #FFE9DC",
"y c #FFAA56",
"u c #78461C",
"i c #5B3913",
"p c #282828",
"a c #FFB17E",
"s c #FF9935",
"d c #B24B00",
"f c #8F4F25",
"g c #985729",
"h c #FFBD9C",
"j c #A15C2E",
"k c #353535",
"l c #CE5300",
"z c #FFD9C4",
"x c None",
"c c None",
"v c black",
"b c black",
"n c black",
"m c black",
"M c black",
"N c black",
"B c black",
"V c black",
"C c black",
"Z c black",
"A c black",
"S c black",
"D c black",
"F c black",
/* pixels */
"xxxxxxxxxxxxxxxxxxxxxxxxxxxxxxxxxxxxxxxxxxxxxxxxxxxxxxxxxxxxxxxxx",
"ccccccccccccccccccccccccccccccccccccccccccccccccccccccccccccccccx",
"ccccccccccccccccccccccccccccccccccccccccccccccccccccccccccccccccx",
"ccccccccccccccccccccccccccccccccccccccccccccccccccccccccccccccccx",
"ccccccccccccccccccccccccccccccccccccccccccccccccccccccccccccccccx",
"ccccccccccccccccccccccccccccccccccccccccccccccccccccccccccccccccx",
"ccccccccccccccccccccccccccccccccccccccccccccccccccccccccccccccccx",
"ccccccccccccccccccccccccccccccccccccccccccccccccccccccccccccccccx",
"ccccccccccccccccccccccccccccccccccccccccccccccccccccccccccccccccx",
"ccccccccccccccccccccccccccccccccccccccccccccccccccccccccccccccccx",
"ccccccccccccccccccccccccccccccccccccccccccccccccccccccccccccccccx",
"ccccccccccccccccccccccccccccccccccccccccccccccccccccccccccccccccx",
"ccccccccccccccccccccccccccccccccccccccccccccccccccccccccccccccccx",
"ccccccccccccccccccccccccccccccccccccccccccccccccccccccccccccccccx",
"ccccccccccccccccccccccccccccccccccccccccccccccccccccccccccccccccx",
"ccccccccccccccccccccccccccccccccccccccccccccccccccccccccccccccccx",
"ccccccccccccccccccccccccccccccccccccccccccccccccccccccccccccccccx",
"ccccccccccccccccccccccccccccccccccccccccccccccccccccccccccccccccx",
"ccccccccccccccccccccccccccccccccccccccccccccccccccccccccccccccccx",
"ccccccccccccccccccccccccccccccccccccccccccccccccccccccccccccccccx",
"ccccccccccccccccccccccccccccccccccccccccccccccccccccccccccccccccx",
"ccccccccccccccccccccccccccccccccccccccccccccccccccccccccccccccccx",
"ccccccccccccccccccccccccccccccccccccccccccccccccccccccccccccccccx",
"ccccccccccccccccccccccccccccccccccccccccccccccccccccccccccccccccx",
"ccccccccccccccccccccccccccccccccccccccccccccccccccccccccccccccccx",
"ccccccccccccccccccccccccccccccccccccccccccccccccccccccccccccccccx",
"ccccccccccccccccccccccccccccccccccccccccccccccccccccccccccccccccx",
"ccccccccccccccccccccccccccccccccccccccccccccccccccccccccccccccccx",
"ccccccccccccccccccccccccccccccccccccccccccccccccccccccccccccccccx",
"ccccccccccccccccccccccccccccccccccccccccccccccccccccccccccccccccx",
"ccccccccccccccccccccccccccccccccccccccccccccccccccccccccccccccccx",
"ccccccccccccccccccccccccccccccccccccccccccccccccccccccccccccccccx",
"ccccccccccccccccccccccccccccccccccccccccccccccccccccccccccccccccx",
"ccccccccccccccccccccccccccccccccccccccccccccccccccccccccccccccccx",
"ccccccccccccccccccccccccccccccccccccccccccccccccccccccccccccccccx",
"ccccccccccccccccccccccccccc...... ccccccccccccccccccccccccccccccx",
"ccccccccccccccccccccccccc.XXXXX...  ccccccccccccccccccccccccccccx",
"ccccccccccccccccccccccccXX&55&&XX..  cccccccccccccccccccccccccccx",
"cccccccccccccccccccccccXX&5Oys7;;8..  ccccccccccccccccccccccccccx",
"ccccccccccccccccccccccXX&5Oy7;ql;;8..  cccccccccccccccccccccccccx",
"ccccccccccccccccccccc.XX&O7;g:qid8:q..  ccccccccccccccccccccccccx",
"cccccccccccccccccccccXX9&78<O+=0>->:..  ccccccccccccccccccccccccx",
"cccccccccccccccccccc XX991-+O$$@%+1:...  cccccccccccccccccccccccx",
"cccccccccccccccccccc XX69r@up<O%*k1:...  cccccccccccccccccccccccx",
"cccccccccccccccccccc XX66%O4e4<4e4==...  cccccccccccccccccccccccx",
"cccccccccccccccccccc XXX6=,,tOz$,t+1...  cccccccccccccccccccccccx",
"cccccccccccccccccccc .XXX2O$,%@%,$%2... #cccccccccccccccccccccccx",
"cccccccccccccccccccc .XXXXOa$O+$$%@X.. # cccccccccccccccccccccccx",
"cccccccccccccccccccc ..XXXO+$@@@O@-...   cccccccccccccccccccccccx",
"ccccccccccccccccccccc...XX%h$,$O+@r..  #ccccccccccccccccccccccccx",
"ccccccccccccccccccccc ....+%++-+@>j.  # ccccccccccccccccccccccccx",
"cccccccccccccccccccccc ...@+1>>>:f2  # cccccccccccccccccccccccccx",
"ccccccccccccccccccccccc ..=@=<+<-20  #ccccccccccccccccccccccccccx",
"cccccccccccccccccccccccc  .@-www20 ##cccccccccccccccccccccccccccx",
"ccccccccccccccccccccccccc         ##ccccccccccccccccccccccccccccx",
"ccccccccccccccccccccccccccc    ###ccccccccccccccccccccccccccccccx",
"ccccccccccccccccccccccccccccccccccccccccccccccccccccccccccccccccx",
"ccccccccccccccccccccccccccccccccccccccccccccccccccccccccccccccccx",
"ccccccccccccccccccccccccccccccccccccccccccccccccccccccccccccccccx",
"ccccccccccccccccccccccccccccccccccccccccccccccccccccccccccccccccx",
"ccccccccccccccccccccccccccccccccccccccccccccccccccccccccccccccccx",
"ccccccccccccccccccccccccccccccccccccccccccccccccccccccccccccccccx",
"ccccccccccccccccccccccccccccccccooooooooooocccccccccccccccccccccx",
"cccccccccccccccccccccccccccccooo***33333***oooccccccccccccccccccx",
"cccccccccccccccccccccccccccccccccoooooooooccccccccccccccccccccccx"
};
