/* XPM */
static char *pots_021660767710[] = {
/* columns rows colors chars-per-pixel */
"65 65 32 1 ",
"  c #646464",
". c #464646",
"X c #007171",
"o c #003E3E",
"O c #005757",
"+ c #00B5B5",
"@ c #008585",
"# c #353535",
"$ c #00FCFC",
"% c #00CDCD",
"& c gray99",
"* c #009D9D",
"= c #282828",
"- c #00FCFC",
"; c gray49",
": c gray10",
"> c #00E5E5",
", c #717171",
"< c #3E3E3E",
"1 c #94FCFC",
"2 c #4B4B4B",
"3 c gray36",
"4 c #313131",
"5 c #8D8D8D",
"6 c #AAAAAA",
"7 c black",
"8 c #535353",
"9 c white",
"0 c #B3008C",
"q c black",
"w c black",
"e c black",
/* pixels */
"99999999999999999999999999999999999999999999999999999999999999999",
"0000000000000*Xo00000000000000000.8=00000008800000000000000000009",
"0000000000000*Xo00000000000000000.6=0000000 #00000000000000000009",
"0000000000000*Xo00000000000000000.6=00000605#00000000000000000009",
"0000000000000*Xo00000000000000000.,=0000055%+@X000000000000000009",
"0000000000000*Xo0000000000000000.;8=000000 X++X000000000000000009",
"000000000000XoXo0000000000000000.78=00000000X%X000000000000000009",
"00000000000@Xooo0000000000000000..8=00000000X%X000000000000000009",
"0000000000@%+Xooo000000000000000. 8=00000000X%X000000000000000009",
"000000000@%>-+Xoooo0000000000000.;8=00000000X+X000000000000000009",
"00000000@%>---+Xoooo000000000000.;8=00000000X+X000000000000000009",
"0000000@%>---&&+Xoooo0000000000;; 3#00000000X*X000000000000000009",
"000000@%>---&&&-+Xoooo0000000;; 888<=:000000X*X000000000000000009",
"00000@%>---&&&1--%Xoooo00000; 388888<=:00000X@X000000000000000009",
"0000@%>---&&&1+11>%XOooo000;,38888882#=:0000X@X000000000000000009",
"000@%>---&&&-+@@11+*@Xoo000; 88888888<4:0000XXX000000000000000009",
"000@>---&&&--+O@O+*@XOOo00;,3888888882#=:000X+X000000000000000009",
"000+---&&&---%*O@*@XOOo000;,8888888888#=:00O@+-+O0000000000000009",
"0000%-&&&---%*%+*@XOOo0000;,8888888888#=:00O@%-&-+O00000000000009",
"00000%&&---%*%+*@XOOo00000;,8888888882#=:00O*%-&-++@O000000000009",
"000000%---%*%+*@XOOo000000;,88888888824=:000O*+-++@@OO00000000009",
"0000000++%*%+*@XOOo00000000,888888888<=:000000O*+@OOO000000000009",
"000000000+%+*@XOOo000000000 3888888824=700000000OOO00000000000009",
"0000000000@@@XOOo00000000000.8888882<=:00000000000000000000000009",
"000000000000oooo0000000000000....<<#4:000000000000000000000000009",
"0000000000000000000000000000000####:00000000000000000000000000009",
"00000000000000000000000000000000000000000000000000000000000000009",
"00000000000000000000000000000000000000000000000000000000000000009",
"00000000000000000000000000000000000000000000000000000000000000009",
"00000000000000000000000000000000000000000000000000000000000000009",
"00000000000000000000000000000000000000000000000000000000000000009",
"00000000000000000000000000000000000000000000000000000000000000009",
"00000000000000000000000000000000000000000000000000000000000000009",
"00000000000000000000000000000000000000000000000000000000000000009",
"00000000000000000000000000000000000000000000000000000000000000009",
"00000000000000000000000000000000000000000000000000000000000000009",
"00000000000000000000000000000000000000000000000000000000000000009",
"00000000000000000000000000000000000000000000000000000000000000009",
"00000000000000000000000000000000000000000000000000000000000000009",
"00000000000000000000000000000000000000000000000000000000000000009",
"00000000000000000000000000000000000000000000000000000000000000009",
"00000000000000000000000000000000000000000000000000000000000000009",
"00000000000000000000000000000000000000000000000000000000000000009",
"00000000000000000000000000000000000000000000000000000000000000009",
"00000000000000000000000000000000000000000000000000000000000000009",
"00000000000000000000000000000000000000000000000000000000000000009",
"00000000000000000000000000000000000000000000000000000000000000009",
"00000000000000000000000000000000000000000000000000000000000000009",
"00000000000000000000000000000000000000000000000000000000000000009",
"00000000000000000000000000000000000000000000000000000000000000009",
"00000000000000000000000000000000000000000000000000000000000000009",
"00000000000000000000000000000000000000000000000000000000000000009",
"00000000000000000000000000000000000000000000000000000000000000009",
"00000000000000000000000000000000000000000000000000000000000000009",
"00000000000000000000000000000000000000000000000000000000000000009",
"00000000000000000000000000000000000000000000000000000000000000009",
"00000000000000000000000000000000000000000000000000000000000000009",
"00000000000000000000000000000000000000000000000000000000000000009",
"00000000000000000000000000000000000000000000000000000000000000009",
"00000000000000000000000000000000000000000000000000000000000000009",
"00000000000000000000000000000000000000000000000000000000000000009",
"00000000000000000000000000000000000000000000000000000000000000009",
"0000000000000000000                   00             00       009",
"0000000000000000    8..##########..88    8.######..8  88.###..809",
"000000000000000000   88.........88     8..........   8......88009"
};
