/* XPM */
static char *pots_011660767710[] = {
/* columns rows colors chars-per-pixel */
"64 65 64 1 ",
"  c #8F4F25",
". c #AAAAAA",
"X c #DF7D48",
"o c #646464",
"O c #8D8D8D",
"+ c gray49",
"@ c gray60",
"# c #282828",
"$ c #535353",
"% c #C1C1C1",
"& c gray82",
"* c #353535",
"= c #464646",
"- c gray10",
"; c #DDDDDD",
": c #717171",
"> c #FF7900",
", c #858500",
"< c #9D9D00",
"1 c gray71",
"2 c #E86000",
"3 c #FFF400",
"4 c #D0C500",
"5 c #FF9935",
"6 c #B24B00",
"7 c black",
"8 c #814B20",
"9 c #BF5300",
"0 c #BC683B",
"q c #F58950",
"w c #78461C",
"e c #B9AE00",
"r c #FF8D54",
"t c #E9D900",
"y c #5B3913",
"u c #C9713F",
"i c None",
"p c None",
"a c black",
"s c black",
"d c black",
"f c black",
"g c black",
"h c black",
"j c black",
"k c black",
"l c black",
"z c black",
"x c black",
"c c black",
"v c black",
"b c black",
"n c black",
"m c black",
"M c black",
"N c black",
"B c black",
"V c black",
"C c black",
"Z c black",
"A c black",
"S c black",
"D c black",
"F c black",
/* pixels */
"ppppppp:=ppppppppppppppppppppppppppppppppppppppppppppppp:=pppppp",
"pppppppOopppppppppppppppppppppppppppppppppppppppppppppppOopppppp",
"pppppp&pOoppppppppppppppppppppppppppppppppppppppppppppp&pOoppppp",
"pppppp1pOoppppppppppppppppppppppppppppppppppppppppppppp%pOoppppp",
"pppppppOopppppppppppppppppppppppppppppppppppppppppppppppOopppppp",
"pprqXXXXXXXXXXXXXXXXXXXXXXXXXXXXXXXXXXXXXXXXXXXXXXXXXXXXXXXXXX0p",
"ppquuuuuuuuuuuuuuuuuuuuuuuuuuuuuuuuuuuuuuuuuuuuuuuuuuuuuuuuuuu p",
"ppXuuuuuuuuuuuuuuuuuuuuuuuuuuuuuuuuuuuuuuuuuuuuuuuuuuuuuuuuuuuwp",
"pp0                                                          wyp",
"pppppppppp,ppppppppp,pppppppppp,pppppppppp,pppppppppp,pppppppppp",
"ppppppppp37ppppppppptppppppppp37ppppppppp3*ppppppppp4*pppppppppp",
"ppppppppp4#<pppppppo<-pppppppp4><ppppppppe*<pppppppp3*-ppppppppp",
"pppppppppp#ppppppppo*-ppppppppp>pppppppppp*ppppppppp<*-,pppppppp",
"pppppppppp#ppppppppo*-ppppppppp>ppppppppp#*pppppppppp*-ppppppppp",
"ppppppppp&$:pppppppo*-ppppppppp>ppppppppp**$ppppppppp*-ppppppppp",
"pppppppp&...oppppppo*-ppppppppp>ppppppp&&&&&ppppppppp*-ppppppppp",
"ppppppp&.@OO+oppp;;o*-$$ppppppp>pppppp&%%%%%ppppppppo*-ppppppppp",
"ppppppp&.OOO+opp;&%.@@+:$ppppp>2pppppp%%%%%%pppppppp$*-ppppppppp",
"ppppppp&.OOO+op;&%....@O:$ppp552pppppp%@@@@@pppppp&&+++=pppppppp",
"pppppppp1+++opp;%......@+$ppp5>96ppppp......ppppp;;;;;===ppppppp",
"ppppppppp+:oppp;%......@+$ppp>298ppppp.@@@@@pppp;&&&&@=##ppppppp",
"ppppppppppppppp;%......@+$pppp268ppppp.+++++pppp&%%%%+###$pppppp",
"ppppppppppppppp&%......@+$pppppppppppp.ooooopppp%....o###$pppppp",
"ppppppppppppppp&1.....@@:$ppppppppppppOooooopppp.OOOO$###$pppppp",
"pppppppppppppppp%1@@@OO:$pppppppppppppp=====pppp.....$###$pppppp",
"ppppppppppppppppp@++o$$$pppppppppppppppppppppppp@OOOOo###$pppppp",
"pppppppppppppppppppppppppppppppppppppppppppppppp@++++o###$pppppp",
"ppppppppppppppppppppppppppppppppppppppppppppppppO:ooo$*##ppppppp",
"ppppppppppppppppppppppppppppppppppppppppppppppppp+:oo$===ppppppp",
"pppppppppppppppppppppppppppppppppppppppppppppppppp+=====pppppppp",
"pppppppppppppppppppppppppppppppppppppppppppppppppppppppppppppppp",
"pppppppppppppppppppppppppppppppppppppppppppppppppppppppppppppppp",
"pppppppppppppppppppppppppppppppppppppppppppppppppppppppppppppppp",
"pppppppppppppppppppppppppppppppppppppppppppppppppppppppppppppppp",
"pppppppppppppppppppppppppppppppppppppppppppppppppppppppppppppppp",
"pppppppppppppppppppppppppppppppppppppppppppppppppppppppppppppppp",
"pppppppppppppppppppppppppppppppppppppppppppppppppppppppppppppppp",
"pppppppppppppppppppppppppppppppppppppppppppppppppppppppppppppppp",
"pppppppppppppppppppppppppppppppppppppppppppppppppppppppppppppppp",
"pppppppppppppppppppppppppppppppppppppppppppppppppppppppppppppppp",
"pppppppppppppppppppppppppppppppppppppppppppppppppppppppppppppppp",
"pppppppppppppppppppppppppppppppppppppppppppppppppppppppppppppppp",
"pppppppppppppppppppppppppppppppppppppppppppppppppppppppppppppppp",
"pppppppppppppppppppppppppppppppppppppppppppppppppppppppppppppppp",
"pppppppppppppppppppppppppppppppppppppppppppppppppppppppppppppppp",
"pppppppppppppppppppppppppppppppppppppppppppppppppppppppppppppppp",
"pppppppppppppppppppppppppppppppppppppppppppppppppppppppppppppppp",
"pppppppppppppppppppppppppppppppppppppppppppppppppppppppppppppppp",
"pppppppppppppppppppppppppppppppppppppppppppppppppppppppppppppppp",
"pppppppppppppppppppppppppppppppppppppppppppppppppppppppppppppppp",
"pppppppppppppppppppppppppppppppppppppppppppppppppppppppppppppppp",
"pppppppppppppppppppppppppppppppppppppppppppppppppppppppppppppppp",
"pppppppppppppppppppppppppppppppppppppppppppppppppppppppppppppppp",
"pppppppppppppppppppppppppppppppppppppppppppppppppppppppppppppppp",
"pppppppppppppppppppppppppppppppppppppppppppppppppppppppppppppppp",
"pppppppppppppppppppppppppppppppppppppppppppppppppppppppppppppppp",
"pppppppppppppppppppppppppppppppppppppppppppppppppppppppppppppppp",
"pppppppppppppppppppppppppppppppppppppppppppppppppppppppppppppppp",
"pppppppppppppppppppppppppppppppppppppppppppppppppppppppppppppppp",
"pppppppppppppppppppppppppppppppppppppppppppppppppppppppppppppppp",
"pppppppppppppppppppppppppppppppppppppppppppppppppppppppppppppppp",
"pppppppppppppppppppppppppppppppppppppppppppppppppppppppppppppppp",
"pppppppppppppppppppppppppppppppppppppppppppppppppppppppppppppppp",
"pppppppppppppppppppppppppppppppppppppppppppppppppppppppppppppppp",
"iiiiiiiiiiiiiiiiiiiiiiiiiiiiiiiiiiiiiiiiiiiiiiiiiiiiiiiiiiiiiiii"
};
