/* XPM */
static char *spears1660767710[] = {
/* columns rows colors chars-per-pixel */
"65 65 32 1 ",
"  c #78461C",
". c #C9713F",
"X c #8F4F25",
"o c #A15C2E",
"O c #646464",
"+ c #282828",
"@ c #DDDDDD",
"# c #653E17",
"$ c #D17943",
"% c #535353",
"& c gray71",
"* c #AAAAAA",
"= c gray49",
"- c gray99",
"; c #DF7D48",
": c #985729",
"> c #39280A",
", c #B36437",
"< c #E8814C",
"1 c #C1C1C1",
"2 c #8D8D8D",
"3 c #432C0F",
"4 c #464646",
"5 c #814B20",
"6 c #AF6032",
"7 c #BC683B",
"8 c None",
"9 c None",
"0 c black",
"q c black",
"w c black",
"e c black",
/* pixels */
"88888888888888888888888888888888888888888888888888888888888888888",
"89999999999999999999999999999999999999999999999999999999999999999",
"89999999999999999999999999999999999999999999999999999999999999999",
"89999999999999999999999999999999999999999999999999999999999999999",
"899999999999999&999999&999999&999999&999999&999999&99999999999999",
"89999999999999&-29999&-29999&-29999&-29999&-29999&-29999999999999",
"89999999999999@-*9999@-*9999@-*9999@-*9999@-*9999@-*9999999999999",
"8999999999999&@-*=99&@-*=99&@-*=99&@-*=99&@-*=99&@-*=999999999999",
"8999999999999&@@*=99&@@*=99&@@*=99&@@*=99&@@*=99&@@*=999999999999",
"89999999999999=%%9999=%%9999=%%9999=%%9999=%%9999=%%9999999999999",
"89999999999999@*%9999@*%9999@*%9999@*%9999@*%9999@*%9999999999999",
"89999999999999@1%9999@1%9999@1%9999@1%9999@1%9999@1%9999999999999",
"89999999999999675999967599996759999675999967599996759999999999999",
"89999999999999675999967599996759999675999967599996759999999999999",
"89999999999999675999967599996759999675999967599996759999999999999",
"89999999999999675999967599996759999675999967599996759999999999999",
"89999999999999675999967599996759999675999967599996759999999999999",
"89999999999999675999967599996759999675999967599996759999999999999",
"89999999999999675999967599996759999675999967599996759999999999999",
"89999999999999675999967599996759999675999967599996759999999999999",
"89999999999999675999967599996759999675999967599996759999999999999",
"89999999999999675999967599996759999675999967599996759999999999999",
"89999999999999675999967599996759999675999967599996759999999999999",
"89999999999999675999967599996759999675999967599996759999999999999",
"89999999999999675999967599996759999675999967599996759999999999999",
"89999999999999675999967599996759999675999967599996759999999999999",
"89999999999999675999967599996759999675999967599996759999999999999",
"89999999999999675999967599996759999675999967599996759999999999999",
"89999999999999675999967599996759999675999967599996759999999999999",
"89999999999999675999967599996759999675999967599996759999999999999",
"89999999999999675999967599996759999675999967599996759999999999999",
"89999999999999675999967599996759999675999967599996759999999999999",
"89999999999999675999967599996759999675999967599996759999999999999",
"89999999999999675999967599996759999675999967599996759999999999999",
"89999999999999675999967599996759999675999967599996759999999999999",
"89999999999999675999967599996759999675999967599996759999999999999",
"89999999999999675999967599996759999675999967599996759999999999999",
"89999999999999675999967599996759999675999967599996759999999999999",
"89999999999999675999967599996759999675999967599996759999999999999",
"89999999999999675999967599996759999675999967599996759999999999999",
"89999999999999675999967599996759999675999967599996759999999999999",
"89999999999999675999967599996759999675999967599996759999999999999",
"8999999<<<<<;;;;;;;;$$$$$$$$$..............................999999",
"8999999$7777777777777,,,,,,,,,,,,6666666666666666666666:::X999999",
"8999999XXXXXXXXXXXXXXXXXXXXXXXXXXXXXXXXXX                  999999",
"89999999997X#95#>99995#>99995#>99995#>99995#>99995#>9XX#999999999",
"89999999997X#95o>99995o>99995o>99995o>99995o>99995o>9XX#999999999",
"8999999999$o5967#999967#9999:7#9999:7#9999:7#9999:7#9Xo 999999999",
"8999999999$759675999967599996759999:759999:759999:759oo 999999999",
"8999999999$75967599996759999675999967599996759999:759oo 999999999",
"8999999999$759675999967599996759999675999967599996759oo 999999999",
"8999999999$7596759999675999967599996759999675999967597o 999999999",
"8999999999$7596759999675999967599996759999675999967597o 999999999",
"8999999999$7596759999675999967599996759999675999967597o 999999999",
"8999999999$7596759999675999967599996759999675999967597o 999999999",
"8999999999$7596759999675999967599996759999675999967597o 999999999",
"8999999999$7596759999675999967599996759999675999967597o 999999999",
"8999999999$7596759999675999967599996759999675999967597o 999999999",
"8999999999$7596759999675999967599996759999675999967597o 999999999",
"89999999<<<<<;;;;;;;$$$$$................................69999999",
"89999999<77777777777777777777766666666666666666666ooooooo:9999999",
"89999999$777777666666666666666666666666oooooooooooooooooo 9999999",
"89999999XXXXXXXXXXXXX                            #########9999999",
"899999999999#####OOOOOOOOOOOOOOOOOOOOOOOOOOOOOOOOO#3333OOOOOOOO99",
"89999999999XX5  #++++++++++++++++++++++++++++++++++  XX +++44%%O9"
};
