/* XPM */
static char *submachine_gun1660767710[] = {
/* columns rows colors chars-per-pixel */
"65 65 64 1 ",
"  c #464646",
". c #535353",
"X c #003E3E",
"o c #353535",
"O c gray10",
"+ c #005757",
"@ c #008585",
"# c #3E3E3E",
"$ c #646464",
"% c #00A5A5",
"& c #A1E9E9",
"* c #007575",
"= c #78DDDD",
"- c #006C6C",
"; c gray36",
": c #595300",
"> c #1FC9C9",
", c #282828",
"< c #B9AE00",
"1 c #00B1B1",
"2 c #FCFC3E",
"3 c #4B4B4B",
"4 c #00C1C1",
"5 c #009999",
"6 c #007D7D",
"7 c #00B5B5",
"8 c #D0C500",
"9 c #726C00",
"0 c #9D9D00",
"q c #717171",
"w c #008D8D",
"e c gray60",
"r c gray71",
"t c #858500",
"y c #E9D900",
"u c #007979",
"i c #C1C1C1",
"p c #AAAAAA",
"a c gray93",
"s c black",
"d c white",
"f c #B3008C",
"g c black",
"h c black",
"j c black",
"k c black",
"l c black",
"z c black",
"x c black",
"c c black",
"v c black",
"b c black",
"n c black",
"m c black",
"M c black",
"N c black",
"B c black",
"V c black",
"C c black",
"Z c black",
"A c black",
"S c black",
"D c black",
"F c black",
/* pixels */
"ddddddddddddddddddddddddddddddddddddddddddddddddddddddddddddddddd",
"ffffffffffffffffffffffffffffffffffffffffffffffffffffffffffffffffd",
"ffffffffffffffffffffffffffffffffffffffffffffffffffffffffffffffffd",
"ffffffffffffffffffffffffffffffffffffffffffffffffffffffffffffffffd",
"ffffffffffffffffffffffffffffffffffffffffffffffffffffffffffffffffd",
"ffffffffffffffffffffffffffffffffffffffffffffffffffffffffffffffffd",
"ffffffffffffffffffffffffffffffffffffffffffffffffffffffffffffffffd",
"ffffffffffffffffffffffffffffffffffffffffffffffffffffffffffffffffd",
"ffffffffffffffffffffffffffffffffffffffffffffffffffffffffffffffffd",
"ffffffffffffffffffffffffffffffffffffffffffffffffffffffffffffffffd",
"ffffffffffffffffffffffffffffffffffffffffffffffffffffffffffffffffd",
"ffffffffffffffffffffffffffffffffffffffffffffffffffffffffffffffffd",
"ffffffffffffffffffffffffffffffffffffffffffffffffffffffffffffffffd",
"ffffffffffffffffffffffffffffffffffffffffffffffffffffffffffffffffd",
"ffffffffffffffffffffffffffffffffffffffffffffffffffffffffffffffffd",
"ffffffffffffffffffffffffffffffffffffffffffffffffffffffffffffffffd",
"ffffffffffffffffffffffffffffffffffffffffffffffffffffffffffffffffd",
"ffffffffffffffffffffffffffffffffffffffffffffffffffffffffffffffffd",
"ffffffffffffffffffffffffffffffffffffffffffffffffffffffffffffffffd",
"ffffffffffffffffffffffffffffffffffffffffffffffffffffffffffffffffd",
"ffffffffffffffffffffffffffffffffffffffffffffffffffffffffffffffffd",
"ffffffffffffffffffffffffffffffffffffffffffffffffffffffffffffffffd",
"ffffffffffffffffffffffffffffffffffffffffffffffffffffffffffffffffd",
"ffffffffffffffffffffffffffffffffffffffffffffffffffffffffffffffffd",
"ffffffffffffffffffffffffffffffffffffffffffffffffffffffffffffffffd",
"ffffffffffffffffffffffffffffffffffffffffffffffffffffffffffffffffd",
"ffffffffffffffffffffffffffffffffffffffffffffffffffffffffffffffffd",
"ffffffffffffffffffffffffffffffffffffffffffffffffffffffffffffffffd",
"ffffffffffffffffffffffffffffffffffffffffffffffffffffffffffffffffd",
"ffffffffffffffffffffffffffffffffffffffffffffffffffffffffffffffffd",
"ffffffffffffffffffffffffffffffffffffffffffffffffffffffffffffffffd",
"ffffffffffffffffffffffffffffffffffffffffffffffffffffffffffffffffd",
"ffffffffffffffffffffffffffffffffffffffffffffffffffffffffffffffffd",
"ffffffffffffffffffffffffffffffffffffffffffffffffffffffffffffffffd",
"ffffffffffffffffffffffffffffffffffffffffffffffffffffffffffffffffd",
"ffffffffffffffffffffffffffffffffffffffffffffffffffffffffffffffffd",
"ffffffffffffffffffffffffffffffffffffffffffffffffffffffffffffffffd",
"ffffffffffffffffffffffffffffffffffffffffffffffffffffffffffffffffd",
"ffffffffffffffffffffffffffffffffffffffffffffffffffffffffffffffffd",
"ffffffffffffffffffffffffffffffffffffffffffffffffffffffffffffffffd",
"ffffffffffffffffffffffffffffffffffffffffffffffffffffffffffffffffd",
"ffffffffffffffffffffffffffffffffffffffffffffffffffffffffffffffffd",
"ffffffffffffffffffffffffffffffffffffffffffffffffffffffffffffffffd",
"ffffffffffffffffffffffffffffffffffffffffffffffffffffffffffffffffd",
"ffffffffffffffffffffffffffffffffffffffffffffffffffffffffffffffffd",
"fffffffffffffffffffffffffffffffffffff82222222y800fffffffffffffffd",
"ffffffffffffffffffffffffffffffffffff8<<<<<<<<t::9tffffffffffffffd",
"fffffffffffffffffffffffffffff=41%%%-::::::::::,s:9ffffffffffffffd",
"fffffffffrrfffffffffffff>>>>p======-  ooo,,,,,,====>%w@fffffffffd",
"fffffa===ee>&&&&&&&&&&&&&&&&*1111115@6*****6@57>>>>%w@@-ffffffffd",
"fffff--XXqqs@@@@@@@@@@@+5775+@@@@@6u*--------*6@@@@**-++ffffffffd",
"ffff%i444$$*%%%%%%%%%%%%****o++++++++++++++++++++++++++Xffffffffd",
"fffff+XXX  sXXXXXXXXXXXsXXXX,XXXXXXXXXXXXXXXXXXXXXXXXXXXffffffffd",
"fffffosssoosssssssssssssOOOOsOOOOOOOOOOOOOOOOOOOOOOOOOOfffffffffd",
"fffffffffssfffffffffffffffOoooooOOssssssOsfss+sssssossffffffffffd",
"fffffffffffffffffffffffffff,    OffffffffOssssssssssssofffffffffd",
"ffffffffffffffffffffffffffo     Offfffffffffffffossssssoffffffffd",
"fffffffffffffffffffffffffffo    offffffffffffffffossossoffffffffd",
"ffffffffffffffffffffffffffo      offfffffffffffffosssssoffffffffd",
"ffffffffffffffffffffffffffoOOOOOOOffffffffffffffffooooofffffffffd",
"ffffffffffffffffffffffffffffffffffffffffffffffffffffffffffffffffd",
"ffffffffffff$$$;;;.....................................;;;$fffffd",
"ffffffffff$$;...            ###########            ####### .$fffd",
"ffffffffff$$;...            ##ooooooo##            #ooooo# ..$ffd",
"fffffffffffff$$$$;;;;.......33       33.............3   .;$$$fffd"
};
