/* XPM */
static char *table_chairs1660767710[] = {
/* columns rows colors chars-per-pixel */
"65 65 64 1 ",
"  c #814B20",
". c #78461C",
"X c #CE5300",
"o c #353535",
"O c #5B3913",
"+ c #FF9935",
"@ c gray10",
"# c #4C350E",
"$ c #E86000",
"% c #FF8900",
"& c #535353",
"* c #A15C2E",
"= c #FFAA56",
"- c #653E17",
"; c #985729",
": c #646464",
"> c #432C0F",
", c #AF6032",
"< c #8F4F25",
"1 c #464646",
"2 c #DF7D48",
"3 c red",
"4 c black",
"5 c #FF7900",
"6 c #C9713F",
"7 c #A00000",
"8 c #D17943",
"9 c #BC683B",
"0 c #8D8D8D",
"q c gray82",
"w c #B36437",
"e c gray93",
"r c #39280A",
"t c #FF5C5C",
"y c #BF5300",
"u c #DDDDDD",
"i c #717171",
"p c gray60",
"a c #FF6C00",
"s c #B24B00",
"d c white",
"f c #B3008C",
"g c black",
"h c black",
"j c black",
"k c black",
"l c black",
"z c black",
"x c black",
"c c black",
"v c black",
"b c black",
"n c black",
"m c black",
"M c black",
"N c black",
"B c black",
"V c black",
"C c black",
"Z c black",
"A c black",
"S c black",
"D c black",
"F c black",
/* pixels */
"dffffffffffffffffffffffffffffffffffffffffffffffffffffffffffffffff",
"dffffffffffffffffffffffffffffffffffffffffffffffffffffffffffffffff",
"dffffffffffffffffffffffffffffffffffffffffffffffffffffffffffffffff",
"dffffffffffffffffffffffffffffffffffffffffffffffffffffffffffffffff",
"dffffffffffffffffffffffffffffffffffffffffffffffffffffffffffffffff",
"dffffffffffffffffffffffffffffffffffffffffffffffffffffffffffffffff",
"dffffffffffffffffffffffffffffffffffffffffffffffffffffffffffffffff",
"dffffffffffffffffffffffffffffffffffffffffffffffffffffffffffffffff",
"dffffffffffffffffffffffffffffffffffffffffffffffffffffffffffffffff",
"dffffffffffffffffffffffffffffffffffffffffffffffffffffffffffffffff",
"dffffffffffffffffffffffffffffffffffffffffffffffffffffffffffffffff",
"dffffffffffffffffffffffffffffffffffffffffffffffffffffffffffffffff",
"dffffffffffffffffffffffffffffffffffffffffffffffffffffffffffffffff",
"dffffffffffffffffffffffffffffffffffffffffffffffffffffffffffffffff",
"dffffffffffffffffffffffffffffffffffffffffffffffffffffffffffffffff",
"dffffffffffffffffffffffffffffffffffffffffffffffffffffffffffffffff",
"dffffffffffffffffffffffffffffffffffffffffffffffffffffffffffffffff",
"dffffffffffffffffffffffffffffffffffffffffffffffffffffffffffffffff",
"dffffffffffffffffffffffffffffffffffffffffffffffffffffffffffffffff",
"dffffffffffffffffffffffffffffffffffffffffffffffffffffffffffffffff",
"dffffffffffffffffffffffffffffffffffffffffffffffffffffffffffffffff",
"dffffffffffffffffffffffffffffffffffffffffffffffffffffffffffffffff",
"dffffffffffffffffffffffffffffffffffffffffffffffffffffffffffffffff",
"dffffffffffffffffffffffffffffffffffffffffffffffffffffffffffffffff",
"dffffffffffffffffffffffffffffffffffffffffffffffffffffffffffffffff",
"dffffffffffffffffffffffffffffffffffffffffffffffffffffffffffffffff",
"dffffffffffffffffffffffffffffffffffffffffffffffffffffffffffffffff",
"dffffffffffffffffffffffffffffffffffffffffffffffffffffffffffffffff",
"dffffffffffffffffffffffffffffffffffffffffffffffffffffffffffffffff",
"dffffffffffffffffffffffffffffffffffffffffffffffffffffffffffffffff",
"dffffffffffffffffffffffffffffffffffffffffffffffffffffffffffffffff",
"dfffffffffffffffffffffffffffffff3fff3ffffffffffffffffffffffffffff",
"dfffffffffffffffffffffffffffffff3fff3ffffffffffffffffffffffffffff",
"dffffffffa$fffffffa$ffffffffffff3fff3fffffffasfffffffasffffffffff",
"dffffffffasfffffffasffffffffffff33ft7fffffffasfffffffasffffffffff",
"dffffffffasXXXXXXX$sffffffffffff37ft7fffffffasXaaaaaaasffffffffff",
"dffffffffassssssssXsffffffffffff3eu07fffffffass$$$$$$asffffffffff",
"dffffffffasfffffffXsffffffffffffqq011fffffffasfffffffasffffffffff",
"dffffffffasffffff++============qep0&1i============++%asffffffffff",
"dffffffffasff5%+++++++++++++++++++++++++++++++++++++++5ayffffffff",
"dffffffffasffaaa55%%%%%%%%%%%%%%%%%%%%%%%%%%%%%%55aa$XXXyffffffff",
"dffffffffasffff$$$$$$XXXXXssssssssssssssssssssssssssssOffffffffff",
"dffffffffasfffffffasssssssssssssssssssssssssssssssfff Offffffffff",
"dffffffffasXXXXXXX$sfffffffffff>.###rrffffff O        Offffffffff",
"dffffffffassssssssXsffffffffffff   OOfffffff O        Offffffffff",
"dffffffffasfffffffXsfffffffffffff-->ffffffff Offfffff Offffffffff",
"dffffffffasfffffff$sfffffffffffff;->ffffffff Offfffff Offffffffff",
"dffffffffasfffffffasfffffffffffff;->ffffffff Offfffff Offffffffff",
"dffffffffaaaaaaaaaaaa$$$$ffffffff;->ffXXXX************Offffffffff",
"dffffffffaaaaaaa$XXXXXXXXXfffffffw->fa$$XXXXXX******* Offffffffff",
"dffffffffa$XXXXa..........fffffffw >fasssssssss       Offffffffff",
"dffffffffa$.fffa.f;#ffffs.fffffffw >fasfffff;Os ffffs Offffffffff",
"dffffffffaX.fffa.f;#ffffs.fffffff6 #fasfffff;Os ffffs Offffffffff",
"dffffffffaX.fffa.f;#ffffs.fffffff6 #fasfffff;Os ffffs Offffffffff",
"dffffffffaX.fffa.f;#ffffs.fffffff6 #fasfffff;Os ffffs Offffffffff",
"dfffffff$as.fffa.f;#ffffs.fffffff6 #fasfffff;Os ffffX O,fffffffff",
"dfffffff$aaaaaaa..........ffffff28*.-asssssssss       O,fffffffff",
"dfffffff$$.;fffa.*;#ffffs.f,222,*,.--.....ff;Os ffffX O;fffffffff",
"dfffffffa$.;::&a.*;#&&&&s,22,*<..29<#-----OO;Os &&&&& O;&&&&&:fff",
"dfffffffaX.ooooa.ooooooo22,<.####89<#####---OOs ooooo-OOooooo&:ff",
"dffffffffff::&&X.oooo622,<.O<oo119;.11&1###---OO@@@@@@@@@@o&::fff",
"dffffffffffffffffffff,<>.O<&&1oo88*;.@@@@@##->-O444444444o&::ffff",
"dffffffffffffffffffff<..#<@@@@@@,...>@@@@@@##-OO@@@@@@@@@@o1&:fff",
"dfffffffffffffffffffffffffffffff<###>ooooooooooooooooooo1&&::ffff",
"ddddddddddddddddddddddddddddddddddddddddddddddddddddddddddddddddd"
};
