/* XPM */
static char *trash_011660767710[] = {
/* columns rows colors chars-per-pixel */
"65 65 16 1 ",
"  c gray93",
". c gray82",
"X c #DDDDDD",
"o c #C1C1C1",
"O c #AAAAAA",
"+ c gray71",
"@ c gray99",
"# c gray60",
"$ c #8D8D8D",
"% c #F58950",
"& c #FF9558",
"* c #FF9D5C",
"= c #BC683B",
"- c #D17943",
"; c white",
": c #B3008C",
/* pixels */
";;;;;;;;;;;;;;;;;;;;;;;;;;;;;;;;;;;;;;;;;;;;;;;;;;;;;;;;;;;;;;;;;",
";::::::::::::::::::::::::::::::::::::::::::::::::::::::::::::::::",
";::::::::::::::::::::::::::::::::::::::::::::::::::::::::::::::::",
";::::::::::::::::::::::::::::::::::::::::::::::::::::::::::::::::",
";::::::::::::::::::::::::::::::::::::::::::::::::::::::::::::::::",
";::::::::::::::::::::::::::::::::::::::::::::::::::::::::::::::::",
";::::::::::::::::::::::::::::::::::::::::::::::::::::::::::::::::",
";::::::::::::::::::::::::::::::::::::::::::::::::::::::::::::::::",
";::::::::::::::::::::::::::::::::::::::::::::::::::::::::::::::::",
";::::::::::::::::::::::::::::::::::::::::::::::::::::::::::::::::",
";::::::::::::::::::::::::::::::::::::::::::::::::::::::::::::::::",
";::::::::::::::::::::::::::::::::::::::::::::::::::::::::::::::::",
";::::::::::::::::::::::::::::::::::::::::::::::::::::::::::::::::",
";::::::::::::::::::::::::::::::::::::::::::::::::::::::::::::::::",
";::::::::::::::::::::::::::::::::::::::::::::::::::::::::::::::::",
";::::::::::::::::::::::::::::::::::::::::::::::::::::::::::::::::",
";::::::::::::::::::::::::::::::::::::::::::::::::::::::::::::::::",
";::::::::::::::::::::::::::::::::::::::::::::::::::::::::::::::::",
";::::::::::::::::::::::::::::::::::::::::::::::::::::::::::::::::",
";::::::::::::::::::::::::::::::::::::::::::::::::::::::::::::::::",
";::::::::::::::::::::::::::::::::::::::::::::::::::::::::::::::::",
";::::::::::::::::::::::::::::::::::::::::::::::::::::::::::::::::",
";::::::::::::::::::::::::::::::::::::::::::::::::::::::::::::::::",
";::::::::::::::::::::::::::::::::::::::::::::::::::::::::::::::::",
";::::::::::::::::::::::::::::::::::::::::::::::::::::::::::::::::",
";::::::::::::::::::::::::::::::::::::::::::::::::::::::::::::::::",
";::::::::::::::::::::::::::::::::::::::::::::::::::::::::::::::::",
";::::::::::::::::::::::::::::::::::::::::::::::::::::::::::::::::",
";::::::::::::::::::::::::::::::::::::::::::::::::::::::::::::::::",
";::::::::::::::::::::::::::::::::::::::::::::::::::::::::::::::::",
";::::::::::::::::::::::::::::::::::::::::::::::::::::::::::::::::",
";::::::::::::::::::::::::::::::::::::::::::::::::::::::::::::::::",
";::::::::::::::::::::::::::::::::::::::::::::::::::::::::::::::::",
";::::::::::::::::::::::::::::::::::::::::::::::::::::::::::::::::",
";::::::::::::::::::::::::::::::::::::::::::::::::::::::::::::::::",
";::::::::::::::::::::::::::::::::::::::::::::::::::::::::::::::::",
";::::::::::::::::::::::::::::::::::::::::::::::::::::::::::::::::",
";::::::::::::::::::::::::::::::::::::::::::::::::::::::::::::::::",
";::::::::::::::::::::::::::::::::::::::::::::::::::::::::::::::::",
";::::::::::::::::::::::::::::::::::::::::::::::::::::::::::::::::",
";::::::::::::::::::::::::::::::::::::::::::::::::::::::::::::::::",
";::::::::::::::::::::::::::::::::::::::::::::::::::::::::::::::::",
";::::::::::::::::::::::::::::::::::::::::::::::::::::::::::::::::",
";::::::::::::::::::::::::::::::::::::::::::::::::::::::::::::::::",
";::::::::::::::::::::::::::::::::::::::::::::::::::::::::::::::::",
";::::::::::::::::::::::::::::::::::::::::::::::::::::::::::::::::",
";::::::::::::::::::::::::::::::::::::::::::::::::::::::::::::::::",
";::::::::::::::::::::::::::::::::::::::::::::::::::::::::::::::::",
";::::::::::::::::::::::::::::::::::::::::::::::::::::::::::::::::",
";::::::::::::::::::::::::::::::::::::::::::::::::::::::::::::::::",
";::::::::::::::::::::::::::::::::::::::::::::::::::::::::::::::::",
";::::::::::::::::::::::::::::::::::::::::::::::::::::::::::::::::",
";::::::::::::::::::::::::::::::::::::::::::::::::::::::::::::::::",
";::::::::::::::::::::::::::::::::::::::::::::::::::::::::::::::::",
";::::::::::::::::::::::::::::::::::::::::::::::::::::::::::::::::",
";::::::::::::::::....:::::::::::::::::::::::::::::::::::::::: +::",
";::::::::::::::.  .oOO##::ooOO::O::::::::::@::::::::@@@    XXo+::",
";::::::::::::::::++OO##:OoO:O:@  :::XX:::+@XX+:::::::XXXXXXXoo:::",
";::::::::o:: *&::::::::::O:O:@:o. :::::#@    XX+#::::+oo++++:::::",
";::::::::::::::::oXXX.X.o::::..oX o::#+        XX+##::::::::::++:",
";::o::..  @@ .::::o..ooo::       @@o:::##+.....+##::O:oXOO:O:::::",
";::::::ooo. @ .O::::::::::::......Xo%:::.:.::::::::::oX:o:::@+:::",
";:::ooOO::+OOO##::::@&%::::::::::::%:.....:::@:X:X-=:X:oX@@ +$:::",
";::::::::::::::::::::::OX  XO::XXX:X::OOO##:::::::::::::::$$$::::",
";::::::::::::::::::::::::::::::::::::::::::::::::::::::::::::::::"
};
