/* XPM */
static char *dead_guard_011660768017[] = {
/* columns rows colors chars-per-pixel */
"65 65 64 1 ",
"  c #DF7D48",
". c #AF6032",
"X c #D17943",
"o c #8F4F25",
"O c #353535",
"+ c #5B3913",
"@ c #00003F",
"# c #A15C2E",
"$ c #000066",
"% c #E8814C",
"& c #C9713F",
"* c #985729",
"= c #F58950",
"- c gray10",
"; c #BC683B",
": c #00009C",
"> c #535353",
", c #B36437",
"< c #FF8D54",
"1 c #8D8D8D",
"2 c #0000B5",
"3 c #78461C",
"4 c #FFB17E",
"5 c #646464",
"6 c gray60",
"7 c #AAAAAA",
"8 c #000073",
"9 c #464646",
"0 c #00007F",
"q c #FFB98F",
"w c #432C0F",
"e c #814B20",
"r c #00004C",
"t c #00008C",
"y c #282828",
"u c #FF9D5C",
"i c gray71",
"p c red",
"a c #4C350E",
"s c gray82",
"d c #DDDDDD",
"f c #653E17",
"g c #0000E5",
"h c #FFD9C4",
"j c gray49",
"k c #FFA56E",
"l c #39280A",
"z c #C1C1C1",
"x c #000059",
"c c #C00000",
"v c gray99",
"b c #717171",
"n c #FF9558",
"m c black",
"M c #B3008C",
"N c #B3008C",
"B c black",
"V c black",
"C c black",
"Z c black",
"A c black",
"S c black",
"D c black",
"F c black",
/* pixels */
"MMMMMMMMMMMMMMMMMMMMMMMMMMMMMMMMMMMMMMMMMMMMMMMMMMMMMMMMMMMMMMMMM",
"MNNNNNNNNNNNNNNNNNNNNNNNNNNNNNNNNNNNNNNNNNNNNNNNNNNNNNNNNNNNNNNNN",
"MNNNNNNNNNNNNNNNNNNNNNNNNNNNNNNNNNNNNNNNNNNNNNNNNNNNNNNNNNNNNNNNN",
"MNNNNNNNNNNNNNNNNNNNNNNNNNNNNNNNNNNNNNNNNNNNNNNNNNNNNNNNNNNNNNNNN",
"MNNNNNNNNNNNNNNNNNNNNNNNNNNNNNNNNNNNNNNNNNNNNNNNNNNNNNNNNNNNNNNNN",
"MNNNNNNNNNNNNNNNNNNNNNNNNNNNNNNNNNNNNNNNNNNNNNNNNNNNNNNNNNNNNNNNN",
"MNNNNNNNNNNNNNNNNNNNNNNNNNNNNNNNNNNNNNNNNNNNNNNNNNNNNNNNNNNNNNNNN",
"MNNNNNNNNNNNNNNNNNNNNNNNNNNNNNNNNNNNNNNNNNNNNNNNNNNNNNNNNNNNNNNNN",
"MNNNNNNNNNNNNNNNNNNNNNNNNNNNNNNNNNNNNNNNNNNNNNNNNNNNNNNNNNNNNNNNN",
"MNNNNNNNNNNNNNNNNNNNNNNNNNNNNNNNNNNNNNNNNNNNNNNNNNNNNNNNNNNNNNNNN",
"MNNNNNNNNNNNNNNNNNNNNNNNNNNNNNNNNNNNNNNNNNNNNNNNNNNNNNNNNNNNNNNNN",
"MNNNNNNNNNNNNNNNNNNNNNNNNNNNNNNNNNNNNNNNNNNNNNNNNNNNNNNNNNNNNNNNN",
"MNNNNNNNNNNNNNNNNNNNNNNNNNNNNNNNNNNNNNNNNNNNNNNNNNNNNNNNNNNNNNNNN",
"MNNNNNNNNNNNNNNNNNNNNNNNNNNNNNNNNNNNNNNNNNNNNNNNNNNNNNNNNNNNNNNNN",
"MNNNNNNNNNNNNNNNNNNNNNNNNNNNNNNNNNNNNNNNNNNNNNNNNNNNNNNNNNNNNNNNN",
"MNNNNNNNNNNNNNNNNNNNNNNNNNNNNNNNNNNNNNNNNNNNNNNNNNNNNNNNNNNNNNNNN",
"MNNNNNNNNNNNNNNNNNNNNNNNNNNNNNNNNNNNNNNNNNNNNNNNNNNNNNNNNNNNNNNNN",
"MNNNNNNNNNNNNNNNNNNNNNNNNNNNNNNNNNNNNNNNNNNNNNNNNNNNNNNNNNNNNNNNN",
"MNNNNNNNNNNNNNNNNNNNNNNNNi66611NNNNNNNNNNNNNNNNNNNNNNNNNNNNNNNNNN",
"MNNNNNNNNNNNNNNNNNNNNNNNis15>>>b>NNNNNNNNNNNNNNNNNNNNNNNNNNNNNNNN",
"MNNNNNNNNNNNNNNNNNNNNNNN711>iO>9O>NNNNNNNNNNNNNNNNNNNNNNNNNNNNNNN",
"MNNNNNNNNNNNNNNNNNNNNNN1dz77mm>9OONNNNNNNNNNNNNNNNNNNNNNNNNNNNNNN",
"MNNNNNNNNNNNNNNNNNNNNN1dOOOO665yyyNNNNNNNNNNNNNNNNNNNNNNNNNNNNNNN",
"MNNNNNNNNNNNNNNNNNNNNN6>-Xg a91j55yNNNNNNNNNNNNNNNNNNNNNNNNNNNNNN",
"MNNNNNNNNNNNNNNNNNNNpNNNqqqq --OO95ONNNNNNNNNNNNNNNNNNNNNNNNNNNNN",
"MNNNNNNNNNNNNNNNNNNNNNpNNhqkn9 al--NNNNNNNNNNNNNNNNNNNNNNNNNNNNNN",
"MNNNNNNNNNNNNNNNNNNNNNNNN4< .O*7mmmNNNNNNNNNNNNNNNNNNNNNNNNNNNNNN",
"MNNNNNNNNNNNNNNNNNNNNcNNN< .Omsmnnn   NNNNNNNNNNNNNNNNNNNNNNNNNNN",
"MNNNNNNNNNNNNNNNNNNNNNNNNNN=mmmnnnnnnn  NNNNNNNNNNNNNNNNNNNNNNNNN",
"MNNNNNNNNNNNNNNNNNNNNNNNNNNmmnn&,nnnnnnn ;NNNNNNNNNNNNNNNNNNNNNNN",
"MNNNNNNNNNNNNNNNNNNNNNNNNN;Onn,nn,<X%nnn%X#NNNNNNNNNNNNNNNNNNNNNN",
"MNNNNNNNNNNNNNNNNNNNNNNNNNnOn,n,,*<.*%%%nXX#NNNNNNNNNNNNNNNNNNNNN",
"MNNNNNNNNNNNNNNNNNNNNNNNN;nO. ,n *<of**%nnnX#NNNNNNNNNNNNNNNNNNNN",
"MNNNNNNNNNNNNNNNNNNNNNNNNnn.O.&n*n<.of+.n.n%#NNNNNNNNNNNNNNNNNNNN",
"MNNNNNNNNNNNNNNNNNNNNNNNNnnnOO.&nn X.o+N.%%n%#NNNNNNNNNNNNNNNNNNN",
"MNNNNNNNNNNNNNNNNNNNNNNN=n.n&OOO.n X.o+NN.%n%#NNNNNNNNNNNNNNNNNNN",
"MNNNNNNNNNNNNNNNNNNNNNNn&n. n&OOO-o..++NNN%n%#NNNNNNNNNNNNNNNNNNN",
"MNNNNNNNNNNNNNNNNNNNNNnnn.3. &n ----3++NNN%n%#NNNNNNNNNNNNNNNNNNN",
"MNNNNNNNNNNNNNNNNNNNNnn  .33*7v---mmmmNNNN***3NNNNNNNNNNNNNNNNNNN",
"MNNNNNNNNNNNNNNNNNNNNo  .33N-75*;;;*e+mNNNNuuNNNNNNNNNNNNNNNNNNNN",
"MNNNNNNNNNNNNNNNNNNN4=..3NNN*# nnnn ;;+NNNN<uNNNNNNNNNNNNNNNNNNNN",
"MNNNNNNNNNNNNNNNNNN444NNNNNNn##nnnnn ;o+NNNN<<NNNNNNNNNNNNNNNNNNN",
"MNNNNNNNNNNNNNNNNNN4 nNNNNNnnX#....X%;o+NNNNNNNNNNNNNNNNNNNNNNNNN",
"MNNNNNNNNNNNNNNNNNN=NNNNNNNn#XeXXXX*wwooNNNNNNNNNNNNNNNNNNNNNNNNN",
"MNNNNNNNNNNNNNNNNNNNNNNNNNNeXn# ===&&ow+NNNNNNNNNNNNNNNNNNNNNNNNN",
"MNNNNNNNNNNNNNNNNNNNNNNNNNNnnn# nnn=&.o+NNNNNNNNNNNNNNNNNNNNNNNNN",
"MNNNNNNNNNNNNNNNNNNNNNNNNNXnn # nnnn .o+NNNNNNNNNNNNNNNNNNNNNNNNN",
"MNNNNNNNNNNNNNNNNNNNNNNNNNXnnX# nnnn .o+NNNNNNNNNNNNNNNNNNNNNNNNN",
"MNNNNNNNNNNNNNNNNNNNNNNNNXnnnX# nnnn .+NNNNNNNNNNNNNNNNNNNNNNNNNN",
"MNNNNNNNNNNNNNNNNNNNNNNNNXnnnX# nnn=&o+NNNNNNNNNNNNNNNNNNNNNNNNNN",
"MNNNNNNNNNNNNNNNNNNNNNNNNnnn=Xo&nnn&oo+NNNNNNNNNNNNNNNNNNNNNNNNNN",
"MNNNNNNNNNNNNNNNNNNNNNNNNnnnX..&nn&n=oo+NNNNNNNNNNNNNNNNNNNNNNNNN",
"MNNNNNNNNNNNNNNNNNNNNNNNNXnnn=,onnnnnXo+NNNNNNNNNNNNNNNNNNNNNNNNN",
"MNNNNNNNNNNNNNNNNNNNNNNNNNnn=X,o&nnnnXoo+NNNNNNNNNNNNNNNNNNNNNNNN",
"MNNNNNNNNNNNNNNNNNNNNNNNNNXXXewmonnnXXoo+NNNNNNNNNNNNNNNNNNNNNNNN",
"MNNNNNNNNNNNNNNNNNNNNNNNNN::rrmmNn=XmmmmmNNNNNNNNNNNNNNNNNNNNNNNN",
"MNNNNNNNNNNNNNNNNNNNNNNNNN8:0rmmNN@$$$mmmNNNNNNNNNNNNNNNNNNNNNNNN",
"MNNNNNNNNNNNNNNNNNNNNNNNNNN0xmmmNNN$2$@mmNNNNNNNNNNNNNNNNNNNNNNNN",
"MNNNNNNNNNNNNNNNNNNNNNNNNNN8:rmNNNN$2$$mmNNNNNNNNNNNNNNNNNNNNNNNN",
"MNNNNNNNNNNNNNNNNNNNNNNNNN8@@@mNNNNNtt@mmmNNNNNNNNNNNNNNNNNNNNNNN",
"MNNNNNNNNNNNNNNNNNNNNNNNN8::0@mmNNNN@2$@@mNNNNNNNNNNNNNNNNNNNNNNN",
"MNNNNNNNNNNNNNNNNNNNNNNN8::0@@mmNNNNNtt$@mmNNNNNNNNNNNNNNNNNNNNNN",
"MNNNNNNNNNNNNNNNNNNNNNNN8:0@@mmNNNN$222$@mmNNNNNNNNNNNNNNNNNNNNNN",
"MNNNNNNNNNNNNNNNNNNNNNNN@@@@mNNNNN$22:$@mmNNNNNNNNNNNNNNNNNNNNNNN",
"MNNNNNNNNNNNNNNNNNNNNNNNNNNNNNNNNN$$$$@mmNNNNNNNNNNNNNNNNNNNNNNNN"
};
