/* XPM */
static char *dying_guard_021660768017[] = {
/* columns rows colors chars-per-pixel */
"65 65 64 1 ",
"  c #FF9558",
". c #464646",
"X c #DF7D48",
"o c #FF8D54",
"O c #BC683B",
"+ c #000073",
"@ c #E8814C",
"# c #985729",
"$ c #78461C",
"% c #FFA56E",
"& c #353535",
"* c #00003F",
"= c #C9713F",
"- c #B30000",
"; c #FFF400",
": c #D17943",
"> c gray49",
", c #8F4F25",
"< c #B36437",
"1 c #0000AD",
"2 c #282828",
"3 c #39280A",
"4 c #FFB17E",
"5 c #AF6032",
"6 c #AAAAAA",
"7 c #00009C",
"8 c #FFAA56",
"9 c gray10",
"0 c #814B20",
"q c #F70000",
"w c #FF1A1A",
"e c red",
"r c #8D8D8D",
"t c #FF8900",
"y c #535353",
"u c #5B3913",
"i c #717171",
"p c gray82",
"a c #A15C2E",
"s c #C00000",
"d c gray60",
"f c #653E17",
"g c #00008C",
"h c #646464",
"j c #4C350E",
"k c #EA0000",
"l c #C50000",
"z c #FF5C5C",
"x c red",
"c c #F58950",
"v c #C1C1C1",
"b c #750000",
"n c #DC0000",
"m c #FF9D5C",
"M c #FF5353",
"N c black",
"B c None",
"V c None",
"C c black",
"Z c black",
"A c black",
"S c black",
"D c black",
"F c black",
/* pixels */
"BBBBBBBBBBBBBBBBBBBBBBBBBBBBBBBBBBBBBBBBBBBBBBBBBBBBBBBBBBBBBBBBB",
"VVVVVVVVVVVVVVVVVVVVVVVVVVVVVVVVVVVVVVVVVVVVVVVVVVVVVVVVVVVVVVVVB",
"VVVVVVVVVVVVVVVVVVVVVVVVVVVVVVVVVVVVVVVVVVVVVVVVVVVVVVVVVVVVVVVVB",
"VVVVVVVVVVVVVVVVVVVVVVVVVVVVVVVVVVVVVVVVVVVVVVVVVVVVVVVVVVVVVVVVB",
"VVVVVVVVVVVVVVVVVVVVVVVVVVVVVVVVVVVVVVVVVVVVVVVVVVVVVVVVVVVVVVVVB",
"VVVVVVVVVVVVVVVVVVVVVVVVVVVVVVVVVVVVVVVVVVVVVVVVVVVVVVVVVVVVVVVVB",
"VVVVVVVVVVVVVVVVVVVVVVVVVVVVVVVVVVVVVVVVVVVVVVVVVVVVVVVVVVVVVVVVB",
"VVVVVVVVVVVVVVVVVVVVVVVVVVVVVVVVVVVVVVVVVVVVVVVVVVVVVVVVVVVVVVVVB",
"VVVVVVVVVVVVVVVVVVVVVVVVVVVVVVVVVVVVVVVVVVVVVVVVVVVVVVVVVVVVVVVVB",
"VVVVVVVVVVVVVVVVVVVVVVVVVVVVVVVVVVVVVVVVVVVVVVVVVVVVVVVVVVVVVVVVB",
"VVVVVVVVVVVVVVVVVVVVVVVVVVVVVVVVVVVVVVVVVVVVVVVVVVVVVVVVVVVVVVVVB",
"VVVVVVVVVVVVVVVVVVVVVVVVVVVVVVVVVVVVVVVVVVVVVVVVVVVVVVVVVVVVVVVVB",
"VVVVVVVVVVVVVVVVVVVVVVVVVVVVVVVVVVVVVVVVVVVVVVVVVVVVVVVVVVVVVVVVB",
"VVVVVVVVVVVVVVVVVVVVVVVVVVVVVVVVVVVVVVVVVVVVVVVVVVV-VVVVVwkVVVVVB",
"VVVVVVVVVVVVVVVVVVVVVVVVVVVVVVVVVVVVVVVVVVVVVVVVVVVVVVVVVVVVVVVVB",
"VVVVVVVVVVVVVVVVVVVVVVVVVVVVVVVVVVVVVVVVVVVVVVVVVVVVVVVVVVVVVVVVB",
"VVVVVVVVVVVVVVVVVVVVVVVVVVVVVVVrihy6>>&VVVVVVVVVMVVVVVxVVVVVVVVVB",
"VVVVVVVVVVVVVVVVVVVVVVVVVVVVVVrr>>p&&&y&VVVVVVVVqkVVVVVVVVVVVVVVB",
"VVVVVVVVVVVVVVVVVVVVVVVVVVVVVr6>>p&NN&&&VVVVVVVV-VVVVVqVVVVVVVVVB",
"VVVVVVVVVVVVVVVVVVVVVVVVVVVVVv6>ddNNNN&&VVVVVVVVVVVVwn-VVVVVVVVVB",
"VVVVVVVVVVVVVVVVVVVVVVVVVVVVVdi>pNNNNN&VVVVVVVVVVVVVlqVVVVVVVVVVB",
"VVVVVVVVVVVVVVVVVVVVVVVVVVVV99i69NNNN8;;;;;;VVVVVVVVVVVVVVVVVVVVB",
"VVVVVVVVVVVVVVVVVVVVVVVVVVVVVy99.NNN8;;t;%%%OVVV-qVVVVVVVVVVVVVVB",
"VVVVVVVVVVVVVVVVVVVVVVVVVVVVVy6.NNN#;ttw%%%O@VVVVVVVVVVVVVVVVVVVB",
"VVVVVVVVVVVVVVVVVVVVVVVVVVVVVV>NNNN8;=t8l%%%%OV-VVbVVVVVVVVVVVVVB",
"VVVVVVVVVVVVVVVVVVVVVVVVVVVVVVh.NNV8#$$33%%%%OVVVVVVVVVVVVVVVVVVB",
"VVVVVVVVVVVVVVVVVVVVVVVVVVVVVVVVVVV##XXX63OOOOsVVVVVVVVVVVVVVVVVB",
"VVVVVVVVVVVVVVVVVVVVVVVVVVVVVVVVVVVVX     XOO,VsVVVVVVVVVVVVVVVVB",
"VVVVVVVVVVVVVVVVVVVVVVVVVVVVVVVVVVVVX   X  ,,VVVVVVVVVVVVVVVVVVVB",
"VVVVVVVVVVVVVVVVVVVVVVVVVVVVVVVVVVVX   XXXX XVVVVVVVVVVVVVVVVVVVB",
"VVVVVVVVVVVVVVVVVVVVVVVVVVVVVVVVVVVX= XcXXX=#44VVVVVVVVVVVVVVVVVB",
"VVVVVVVVVVVVVVVVVVVVVVVVVVVVVVVVVVVX =a<<=X#44osVVVVVVVVVVVVVVVVB",
"VVVVVVVVVVVVVVVVVVVVVVVVVVVVVVVVVVVw  Xa$$N#44ooVVVVVVVVVVVVVVVVB",
"VVVVVVVVVVVVVVVVVVVVVVVVVVVVVVVVVVVxz XX#$NN$oo<VVVVVVVVVVVVVVVVB",
"VVVVVVVVVVVVVVVVVVVVVVVVVVVVVVVVVVV22222$#jN$N$<VVVVVVVVVVVVVVVVB",
"VVVVVVVVVVVVVVVVVVVVVVVVVVVVVVVVVV.====#22x--VVVVx-VVVVVVVVVVVVVB",
"VVVVVVVVVVVVVVVVVVVVVVVVVVVVVVVVVV@   o@=N>-xVVVV--VVVVVVVVVVVVVB",
"VVVVVVVVVVVVVVVVVVVVVVVVVVVVVVVVVo oooo@=5NNVVVVVVVVVVVVVVVVVVVVB",
"VVVVVVVVVVVVVVVVVVVVVVVVVVVVVVVV@ooOOOO=5,fVVV-VVVVVVVVVVVVVVVVVB",
"VVVVVVVVVVVVVVVVVVVVVVVVVVVVVVVV <<@@@@a$$f3VVVVVVVVVVVVVVVVVVVVB",
"VVVVVVVVVVVVVVVVVVVVVVVVVVVVVVVV<@@    @#$33VVVVVVVVVVVVVVVVVVVVB",
"VVVVVVVVVVVVVVVVVVVVVVVVVVVVVVVV$@o     :#0jVVVVVVVVVVVVVVVVVVVVB",
"VVVVVVVVVVVVVVVVVVVVVVVVVVVVVVVVV@o     o:#0VVVVVVVVVVVVVVVVVVVVB",
"VVVVVVVVVVVVVVVVVVVVVVVVVVVVVVVVV@:o     oO#VVVVVVVVVVVVVVVVVVVVB",
"VVVVVVVVVVVVVVVVVVVVVVVVVVVVVVVVVo5:@o::o mO0VVVVVVVVVVVVVVVVVVVB",
"VVVVVVVVVVVVVVVVVVVVVVVVVVVVVVVVooX,,5:   oO0VVVVVVVVVVVVVVVVVVVB",
"VVVVVVVVVVVVVVVVVVVVVVVVVVVVVVVVo XO5,   :@O0VVVVVVVVVVVVVVVVVVVB",
"VVVVVVVVVVVVVVVVVVVVVVVVVVVVVVV:XX O+1+  :#$uVVVVVVVVVVVVVVVVVVVB",
"VVVVVVVVVVVVVVVVVVVVVVVVVVVVVV   XX5+1+N##$uVVVVVVVVVVVVVVVVVVVVB",
"VVVVVVVVVVVVVVVVVVVVVVVVVVVVVV  oXO+7+*NNuuVVVVVVVVVVVVVVVVVVVVVB",
"VVVVVVVVVVVVVVVVVVVVVVVVVVVVV+*OXO+7++*NNNVVVVVVVVVVVVVVVVVVVVVVB",
"VVVVVVVVVVVVVVVVVVVVVVVVVVVV+g+*O+11g**NNVVVVVVVVVVVVVVVVVVVVVVVB",
"VVVVVVVVVVVVVVVVVVVVVVVVVVVV+7+*N..+**N&VVVVVVVVVVVVVVVVVVVVVVVVB",
"VVVVVVVVVVVVVVVVVVVVVVVVVVVV71+*N....*NNVVVVVVVVVVVVVVVVVVVVVVVVB",
"VVVVVVVVVVVVVVVVVVVVVVVVVV+71+*NNV....NNNVVVVVVVVVVVVVVVVVVVVVVVB",
"VVVVVVVVVVVVVVVVVVVVVVVVV+71+*NNNVV....NNVVVVVVVVVVVVVVVVVVVVVVVB",
"VVVVVVVVVVVVVVVVVVVVVVVVV..++NNNVVVV....NVVVVVVVVVVVVVVVVVVVVVVVB",
"VVVVVVVVVVVVVVVVVVVVVVVVVV.NNNNNVVVVVV...VVVVVVVVVVVVVVVVVVVVVVVB",
"VVVVVVVVVVVVVVVVVVVVVVVVVV..NNNNNVVVVVVVVVVVVVVVVVVVVVVVVVVVVVVVB",
"VVVVVVVVVVVVVVVVVVVVVVVVVVV...NNNVVVVVVVVVVVVVVVVVVVVVVVVVVVVVVVB",
"VVVVVVVVVVVVVVVVVVVVVVVVVVVVV..NNVVVVVVVVVVVVVVVVVVVVVVVVVVVVVVVB",
"VVVVVVVVVVVVVVVVVVVVVVVVVVVVVVVVVVVVVVVVVVVVVVVVVVVVVVVVVVVVVVVVB",
"VVVVVVVVVVVVVVVVVVVVVVVVVVVVVVVVVVVVVVVVVVVVVVVVVVVVVVVVVVVVVVVVB",
"VVVVVVVVVVVVVVVVVVVVVVVVVVVVVVVVVVVVVVVVVVVVVVVVVVVVVVVVVVVVVVVVB",
"VVVVVVVVVVVVVVVVVVVVVVVVVVVVVVVVVVVVVVVVVVVVVVVVVVVVVVVVVVVVVVVVB"
};
