/* XPM */
static char *dying_guard_041660768017[] = {
/* columns rows colors chars-per-pixel */
"65 65 64 1 ",
"  c #353535",
". c #FF9D5C",
"X c #814B20",
"o c #DF7D48",
"O c #AF6032",
"+ c #985729",
"@ c #840000",
"# c #B36437",
"$ c #A15C2E",
"% c #653E17",
"& c gray10",
"* c #8D8D8D",
"= c #D17943",
"- c #000059",
"; c #432C0F",
": c #535353",
"> c #B30000",
", c #A00000",
"< c #C9713F",
"1 c #8F4F25",
"2 c gray71",
"3 c red",
"4 c #39280A",
"5 c #E8814C",
"6 c #464646",
"7 c #4C350E",
"8 c #BC683B",
"9 c #717171",
"0 c #646464",
"q c #EA0000",
"w c gray60",
"e c #00007F",
"r c gray49",
"t c #0000B5",
"y c #F70000",
"u c #78461C",
"i c #FF1A1A",
"p c #C50000",
"a c #282828",
"s c #FF9558",
"d c #DC0000",
"f c gray82",
"g c #00009C",
"h c red",
"j c #F58950",
"k c #AAAAAA",
"l c #0000AD",
"z c black",
"x c #B3008C",
"c c #B3008C",
"v c black",
"b c black",
"n c black",
"m c black",
"M c black",
"N c black",
"B c black",
"V c black",
"C c black",
"Z c black",
"A c black",
"S c black",
"D c black",
"F c black",
/* pixels */
"xxxxxxxxxxxxxxxxxxxxxxxxxxxxxxxxxxxxxxxxxxxxxxxxxxxxxxxxxxxxxxxxx",
"ccccccccccccccccccccccccccccccccccccccccccccccccccccccccccccccccx",
"ccccccccccccccccccccccccccccccccccccccccccccccccccccccccccccccccx",
"ccccccccccccccccccccccccccccccccccccccccccccccccccccccccccccccccx",
"ccccccccccccccccccccccccccccccccccccccccccccccccccccccccccccccccx",
"ccccccccccccccccccccccccccccccccccccccccccccccccccccccccccccccccx",
"ccccccccccccccccccccccccccccccccccccccccccccccccccccccccccccccccx",
"ccccccccccccccccccccccccccccccccccccccccccccccccccccccccccccccccx",
"ccccccccccccccccccccccccccccccccccccccccccccccccccccccccccccccccx",
"ccccccccccccccccccccccccccccccccccccccccccccccccccccccccccccccccx",
"ccccccccccccccccccccccccccccccccccccccccccccccccccccccccccccccccx",
"ccccccccccccccccccccccccccccccccccccccccccccccccccccccccccccccccx",
"ccccccccccccccccccccccccccccccccccccccccccccccccccccccccccccccccx",
"ccccccccccccccccccccccccccccccccccccccccccccccccccccccccccccccccx",
"ccccccccccccccccccccccccccccccccccccccccccccccccccccccccccccccccx",
"ccccccccccccccccccccccccccccccccccccccccccccccccccccccccccccccccx",
"ccccccccccccccccccccccccccccccccccccccccccccccccccccccccccccccccx",
"ccccccccccccccccccccccccccccccccccccccccccccccccccccccccccccccccx",
"ccccccccccccccccccccccccccccccccccccccccccccccccccccccccccccccccx",
"ccccccccccccccccccccccccccccccccccccccccccccccccccccccccccccccccx",
"ccccccccccccccccccccccccccccccccccccccccccccccccccccccccccccccccx",
"ccccccccccccccccccccccccccccccccccccccccccccccccccccccccccccccccx",
"ccccccccccccccccccccccccccccccccccccccccccccccccccccccccccccccccx",
"ccccccccccccccccccccccccccccccccccccccccccccccccccccccccccccccccx",
"ccccccccccccccccccccccccccccccccccccccccccccccccccccccccccccccccx",
"ccccccccccccccccccccccccccccccccccccccccccccccccccccccccccccccccx",
"ccccccccccccccccccccccccccccccccccccccccccccccccccccccccccccccccx",
"ccccccccccccccccccccccccccccccccccccccccccccccccccccccccccccccccx",
"ccccccccccccccccccccccccccccccccccccccccccccccccccccccccccccccccx",
"ccccccccccccccccccccccccccccccccccccccccccccccccccccccc,ccccccccx",
"ccccccccccccccccccccccccccccccccccccccccccccccccccccccccccccccccx",
"ccccccccccccccccccccccccccccccccccccccccccccccccccccccccccccccccx",
"ccccccccccccccccccccccccccccccccccccccccccccccccccccccccccccccccx",
"ccccccccccccccccccccccccccccccccccccccccccccccccccccccccccccccccx",
"cccccccccccccccccccccccccccccccccccccc&cccccccccccccccccccccccccx",
"ccccccccccccccccccccccccccccc2w**0::ccc&ccccccccccciccc,ccccccccx",
"cccccccccccccccccccccccccccc2f2r0:66 c&cccccccccccccccccchqcccccx",
"ccccccccccccccccccccccccccc2&*r0:69**9:cccccccccccccc,iccq,cccccx",
"cccccccccccccccccccccccccccw*&0:6*96zz  ccccccccccccccchccccycccx",
"ccccccccccccccccccccccccccccw&9**zzzzzz ccccccccccci,cccccccccccx",
"cccccccccccccccccccccccccccw2k&zzzzzzcccccccccccccccccphccccccccx",
"ccccccccccccccccccccccccccc2 zzzzz&ccccccccccccccccchchpcccccch>x",
"ccccccccccccccccccccccccccr zzzzzccccccccccOOOOO%ccccccccccccc>cx",
"ccccccccccccccccccccccccccc zzzcccccccccco......oO..occccccyccccx",
"ccccccccccccccccccccccccccccccccccccccco.........o%...occcccccccx",
"cccccccccccccccccccccccccccccccccccccco..XX====...Oa=...ccccccccx",
"ccccccccccccccccccccccccccccccccccccco8-tle-...=..<zo==OOcccccccx",
"cccccccccccccccccccccccccccccccccccco.   :g--...X.<zo=8+8+ccccccx",
"cccccccccccccccccccccccccccccccccccc..     zz#..X#Xz##X4+O+cccccx",
"ccccccccccccccccccccccccccccccccco..<<     zzX##X#X&1X47XO+cqcccx",
"cccccccccccccccccccccccccccc-ette...5XX    zzXXX%%a@@@4%X+O+,cccx",
"ccccccccccccccccccccccccccc    ---55588     z%%%%7@@44%1X$O+ccccx",
"ccccccccccccccccccccccccccc     zzz5$+XX    z;;;;@@#1ccc$$++Xcccx",
"ccccccccccccccccccccccccccc     zzz$XX77    zc@@@c@cccccc$$+Xcccx",
"cccccccccccccccccccccccccccc    zzz;;;;X7   cc@c@ccccccccc$$XXccx",
"cccccccccccccccccccccccccccc     zcccc.5#Xcccc>c>c>ccccccc$$1Xccx",
"cccccccccccccccccccccccccccc     zccccc#ucccccyc>cc,ccccccuu4cccx",
"ccccccccccccccccccccccccccccc    zcccccj+<cccccc>ccdccccccoOXcccx",
"cccccccccccccccccccccccccccccc  zcccccco#+ccccccqcccccccccso1cccx",
"cccccccccccccccccccccccccccccccccccccccc<#cccccchccccccccso1ccccx",
"ccccccccccccccccccccccccccccccccccccccccccccccccccccccccccccccccx",
"ccccccccccccccccccccccccccccccccccccccccccccccccccccccccccccccccx",
"ccccccccccccccccccccccccccccccccccccccccccccccccccccccccccccccccx",
"ccccccccccccccccccccccccccccccccccccccccccccccccccccccccccccccccx",
"ccccccccccccccccccccccccccccccccccccccccccccccccccccccccccccccccx"
};
