/* XPM */
static char *dying_guard_031660768017[] = {
/* columns rows colors chars-per-pixel */
"65 65 64 1 ",
"  c #D17943",
". c #FF9558",
"X c gray10",
"o c #814B20",
"O c #78461C",
"+ c #A15C2E",
"@ c #FF8D54",
"# c #BC683B",
"$ c #C9713F",
"% c #E8814C",
"& c #464646",
"* c #5B3913",
"= c gray49",
"- c #FF9D5C",
"; c #653E17",
": c gray60",
"> c #646464",
", c #8F4F25",
"< c #FFAA56",
"1 c #4C350E",
"2 c #920000",
"3 c #0000AD",
"4 c #B36437",
"5 c #00004C",
"6 c #AF6032",
"7 c #DF7D48",
"8 c red",
"9 c #000073",
"0 c #717171",
"q c #CE0000",
"w c #FF5C5C",
"e c #00003F",
"r c #FFF400",
"t c #FFA56E",
"y c gray71",
"u c #535353",
"i c #B30000",
"p c #985729",
"a c #FF9935",
"s c #8D8D8D",
"d c gray82",
"f c #A00000",
"g c #E86000",
"h c #FF1A1A",
"j c #0000B5",
"k c #670000",
"l c #F58950",
"z c #C50000",
"x c #C00000",
"c c red",
"v c #353535",
"b c black",
"n c None",
"m c None",
"M c black",
"N c black",
"B c black",
"V c black",
"C c black",
"Z c black",
"A c black",
"S c black",
"D c black",
"F c black",
/* pixels */
"nnnnnnnnnnnnnnnnnnnnnnnnnnnnnnnnnnnnnnnnnnnnnnnnnnnnnnnnnnnnnnnnn",
"mmmmmmmmmmmmmmmmmmmmmmmmmmmmmmmmmmmmmmmmmmmmmmmmmmmmmmmmmmmmmmmmn",
"mmmmmmmmmmmmmmmmmmmmmmmmmmmmmmmmmmmmmmmmmmmmmmmmmmmmmmmmmmmmmmmmn",
"mmmmmmmmmmmmmmmmmmmmmmmmmmmmmmmmmmmmmmmmmmmmmmmmmmmmmmmmmmmmmmmmn",
"mmmmmmmmmmmmmmmmmmmmmmmmmmmmmmmmmmmmmmmmmmmmmmmmmmmmmmmmmmmmmmmmn",
"mmmmmmmmmmmmmmmmmmmmmmmmmmmmmmmmmmmmmmmmmmmmmmmmmmmmmmmmmmmmmmmmn",
"mmmmmmmmmmmmmmmmmmmmmmmmmmmmmmmmmmmmmmmmmmmmmmmmmmmmmmmmmmmmmmmmn",
"mmmmmmmmmmmmmmmmmmmmmmmmmmmmmmmmmmmmmmmmmmmmmmmmmmmmmmmmmmmmmmmmn",
"mmmmmmmmmmmmmmmmmmmmmmmmmmmmmmmmmmmmmmmmmmmmmmmmmmmmmmmmmmmmmmmmn",
"mmmmmmmmmmmmmmmmmmmmmmmmmmmmmmmmmmmmmmmmmmmmmmmmmmmmmmmmmmmmmmmmn",
"mmmmmmmmmmmmmmmmmmmmmmmmmmmmmmmmmmmmmmmmmmmmmmmmmmmmmmmmmmmmmmmmn",
"mmmmmmmmmmmmmmmmmmmmmmmmmmmmmmmmmmmmmmmmmmmmmmmmmmmmmmmmmmmmmmmmn",
"mmmmmmmmmmmmmmmmmmmmmmmmmmmmmmmmmmmmmmmmmmmmmmmmmmmmmmmmmmmmmmmmn",
"mmmmmmmmmmmmmmmmmmmmmmmmmmmmmmmmmmmmmmmmmmmmmmmmmmmmmmmmmmmmmmmmn",
"mmmmmmmmmmmmmmmmmmmmmmmmmmmmmmmmmmmmmmmmmmmmmmmmmmmmmmmmmmmmmmmmn",
"mmmmmmmmmmmmmmmmmmmmmmmmmmmmmmmmmmmmmmmmmmmmmmmmmmmmmmmmmmmmmmmmn",
"mmmmmmmmmmmmmmmmmmmmmmmmmmmmmmmmmmmmmmmmmmmmmmmmmmmmmmmmmmmmmmmmn",
"mmmmmmmmmmmmmmmmmmmmmmmmmmmmmmmmmmmmmmmmmmmmmmmmmmmmmmmmmmmmmmmmn",
"mmmmmmmmmmmmmmmmmmmmmmmmmmmmmmmmmmmmmmmmmmmmmmmmmmmmmmmmmmzmmmmmn",
"mmmmmmmmmmmmmmmmmmmmmmmmmmmmmmmmmmmmmmmmmmmmmmmmmmmmmmmmmmmmmmmmn",
"mmmmmmmmmmmmmmmmmmmmmmmmmmmmmmmmmmmmmmmmmmmmmmmmmmmmmmmmmmmmmmmmn",
"mmmmmmmmmmmmmmmmmmmmmmmmmmmmmmmmmmmmmmmmmmmmmmmmmmmmmhqmcmmmmmmmn",
"mmmmmmmmmmmmmmmmmmmmmmmmmmmmmmmmmmmmmmmmmmmmmmmmmmmmmqkmmmmmmmmmn",
"mmmmmmmmmmmmmmmmmmmmmmmmmmmmmmmmmmmmmmmmmmmmmmmmmmmmmmmmcmmmmmmmn",
"mmmmmmmmmmmmmmmmmmmmmmmmmmmmmmmmmmmmmmmmmmmmmmmmmmmmcqmmmmmmmmmmn",
"mmmmmmmmmmmmmmmmmmmmmmmmmmmm===uum==>mmmmmmmmmmmmmmmmmmmmmmmc2mmn",
"mmmmmmmmmmmmmmmmmmmmmmmmmmm::=>>>=>vv>mmmmmm<<<<agmmfcmmmmmm2mmmn",
"mmmmmmmmmmmmmmmmmmmmmmmmmm:d:=>s:&bbXXmmmmm<rrr<<agfmmmmmmmmmmhmn",
"mmmmmmmmmmmmmmmmmmmmmmmmmm::=>sd&bbbXXmmmm$o&&&o6$%mmmmmmmmmmmqmn",
"mmmmmmmmmmmmmmmmmmmmmmmmmm::0>ybbbbXXmm$X&&&6........  mmmmmmmmmn",
"mmmmmmmmmmmmmmmmmmmmmmmmmm=X0==bbbXmmmXX&6........  ... mmmmmmmmn",
"mmmmmmmmmmmmmmmmmmmmmmmmmmm0XXXbbbXmmX &6.www...  +o;#%.%mmmmmmmn",
"mmmmmmmmmmmmmmmmmmmmmmmmmmmXy&bbbXmXX &vvvvvvvv+ #+;,##%. mmmmmmn",
"mmmmmmmmmmmmmmmmmmmmmmmmmmmy&bbbXmmm vv+     +,vv;o;o,+#%%#mmmmmn",
"mmmmmmmmmmmmmmmmmmmmmmmmmmm0XXXXmmm$v  .O$....  XX;1mm,+###mmmmmn",
"mmmmmmmmmmmmmmmmmmmmmmmmmmmmmmmmmmmm ..O1OOOOOO.oXX1mmm,+##+mmmmn",
"mmmmmmmmmmmmmmmmmmmmmmmmmmmmmmmmmmm  OO$  $7%%$O4obxmmmm++++mmmmn",
"mmmmmmmmmmmmmmmmmmmmmmmmmmmmmmmmmmm O$@@@$$7@@% O4;1m2mm,,OOmmmmn",
"mmmmmmmmmmmmmmmmmmmmmmmmmmmmmmmmmmm v@@@7,47@@.% O;1mmmmOO$$mmmmn",
"mmmmmmmmmmmmmmmmmmmmmmmmmmmmmmmmmmmm$.@@ oo4@@@@ o11mimmm%t%mmmmn",
"mmmmmmmmmmmmmmmmmmmmmmmmmmmmmmmmmmmml--. ooo  # #o;2immmmmt%mmmmn",
"mmmmmmmmmmmmmmmmmmmmmmmmmmmmmmmmmmmm--- +oo.--.##o;22mmmmt%mmmmmn",
"mmmmmmmmmmmmmmmmmmmmmmmmmmmmmmmmmmmm-  ++o3j3.$.po*m2mmmmmmmmmmmn",
"mmmmmmmmmmmmmmmmmmmmmmmmmmmmmmmmmmm.-- +vvv3954po;*mmmmmmmmmmmmmn",
"mmmmmmmmmmmmmmmmmmmmmmmmmmmmmmmmmm..-- vvvvv5bbo***mmmmmmmmmmmmmn",
"mmmmmmmmmmmmmmmmmmmmmmmmmmmmmmmmm.   4ovvvvvebb***mmmmmmmmmmmmmmn",
"mmmmmmmmmmmmmmmmmmmmmmmmmmmmmmmm3j39oooovvvvvbb*mmmmmmmmmmmmmmmmn",
"mmmmmmmmmmmmmmmmmmmmmmmmmmmmmmvvv395eb**vvvvvbbmmmmmmmmmmmmmmmmmn",
"mmmmmmmmmmmmmmmmmmmmmmmmmmmmmvvvv95ebb**mvvvvvbmmmmmmmmmmmmmmmmmn",
"mmmmmmmmmmmmmmmmmmmmmmmmmmmmmvvvv5bbbbmmmmvvvvbmmmmmmmmmmmmmmmmmn",
"mmmmmmmmmmmmmmmmmmmmmmmmmmmmmvvvvbbbbmmmmmvvvvbmmmmmmmmmmmmmmmmmn",
"mmmmmmmmmmmmmmmmmmmmmmmmmmmmmmvvvvbbmmmmmmmvvvmmmmmmmmmmmmmmmmmmn",
"mmmmmmmmmmmmmmmmmmmmmmmmmmmmmmvvvvbbmmmmmmmmmmmmmmmmmmmmmmmmmmmmn",
"mmmmmmmmmmmmmmmmmmmmmmmmmmmmmmvvvvvbmmmmmmmmmmmmmmmmmmmmmmmmmmmmn",
"mmmmmmmmmmmmmmmmmmmmmmmmmmmmmmmvvvvbmmmmmmmmmmmmmmmmmmmmmmmmmmmmn",
"mmmmmmmmmmmmmmmmmmmmmmmmmmmmmmmmvvvmmmmmmmmmmmmmmmmmmmmmmmmmmmmmn",
"mmmmmmmmmmmmmmmmmmmmmmmmmmmmmmmmmmmmmmmmmmmmmmmmmmmmmmmmmmmmmmmmn",
"mmmmmmmmmmmmmmmmmmmmmmmmmmmmmmmmmmmmmmmmmmmmmmmmmmmmmmmmmmmmmmmmn",
"mmmmmmmmmmmmmmmmmmmmmmmmmmmmmmmmmmmmmmmmmmmmmmmmmmmmmmmmmmmmmmmmn",
"mmmmmmmmmmmmmmmmmmmmmmmmmmmmmmmmmmmmmmmmmmmmmmmmmmmmmmmmmmmmmmmmn",
"mmmmmmmmmmmmmmmmmmmmmmmmmmmmmmmmmmmmmmmmmmmmmmmmmmmmmmmmmmmmmmmmn",
"mmmmmmmmmmmmmmmmmmmmmmmmmmmmmmmmmmmmmmmmmmmmmmmmmmmmmmmmmmmmmmmmn",
"mmmmmmmmmmmmmmmmmmmmmmmmmmmmmmmmmmmmmmmmmmmmmmmmmmmmmmmmmmmmmmmmn",
"mmmmmmmmmmmmmmmmmmmmmmmmmmmmmmmmmmmmmmmmmmmmmmmmmmmmmmmmmmmmmmmmn",
"mmmmmmmmmmmmmmmmmmmmmmmmmmmmmmmmmmmmmmmmmmmmmmmmmmmmmmmmmmmmmmmmn"
};
