/* XPM */
static char *front_running_guard_031660768017[] = {
/* columns rows colors chars-per-pixel */
"65 64 64 1 ",
"  c black",
". c gray10",
"X c #814B20",
"o c #FF8D54",
"O c #DF7D48",
"+ c #F58950",
"@ c #A15C2E",
"# c #B36437",
"$ c #353535",
"% c #E8814C",
"& c #C9713F",
"* c #D17943",
"= c #78461C",
"- c #985729",
"; c #653E17",
": c #8F4F25",
"> c #5B3913",
", c #BC683B",
"< c #AF6032",
"1 c #432C0F",
"2 c #535353",
"3 c gray49",
"4 c #4C350E",
"5 c #717171",
"6 c #000073",
"7 c #00003F",
"8 c #282828",
"9 c #464646",
"0 c #FF9558",
"q c #FF9D5C",
"w c #FFB17E",
"e c #0000AD",
"r c #000066",
"t c #261A03",
"y c #8D8D8D",
"u c #646464",
"i c #FFA56E",
"p c #C1C1C1",
"a c #00008C",
"s c gray82",
"d c #AAAAAA",
"f c blue",
"g c #FFBD9C",
"h c #FFB98F",
"j c #00009C",
"k c #00007F",
"l c gray71",
"z c #0000A9",
"x c #000059",
"c c #00004C",
"v c #0000D9",
"b c white",
"n c #B3008C",
"m c black",
"M c black",
"N c black",
"B c black",
"V c black",
"C c black",
"Z c black",
"A c black",
"S c black",
"D c black",
"F c black",
/* pixels */
"nnnnnnnnnnnnnnnnnnnnnnnnnnnnnnnnnnnnnnnnnnnnnnnnnnnnnnnnnnnnnnnnb",
"nnnnnnnnnnnnnnnnnnnnnnnnnnnnnnnnnnnnnnnnnnnnnnnnnnnnnnnnnnnnnnnnb",
"nnnnnnnnnnnnnnnnnnnnnnnnnnnnnnnnnnnnnnnnnnnnnnnnnnnnnnnnnnnnnnnnb",
"nnnnnnnnnnnnnnnnnnnnnnnnnnnnnnnnnnnnnnnnnnnnnnnnnnnnnnnnnnnnnnnnb",
"nnnnnnnnnnnnnnnnnnnnnnnnnnnnnnnnnnnnnnnnnnnnnnnnnnnnnnnnnnnnnnnnb",
"nnnnnnnnnnnnnnnnnnnnnnnnnnnnnnnnnnnnnnnnnnnnnnnnnnnnnnnnnnnnnnnnb",
"nnnnnnnnnnnnnnnnnnnnnnnnnnnnnnnnnnnnnnnnnnnnnnnnnnnnnnnnnnnnnnnnb",
"nnnnnnnnnnnnnnnnnnnnnnnnnnnnnnnnnnnnnnnnnnnnnnnnnnnnnnnnnnnnnnnnb",
"nnnnnnnnnnnnnnnnnnnnnnnnnnnnnnnnnnnnnnnnnnnnnnnnnnnnnnnnnnnnnnnnb",
"nnnnnnnnnnnnnnnnnnnnnnnnnnnnnnnnnnnnnnnnnnnnnnnnnnnnnnnnnnnnnnnnb",
"nnnnnnnnnnnnnnnnnnnnnnnnnnnnnnnnnnnnnnnnnnnnnnnnnnnnnnnnnnnnnnnnb",
"nnnnnnnnnnnnnnnnnnnnnnnnnnnnnnnnnnnnnnnnnnnnnnnnnnnnnnnnnnnnnnnnb",
"nnnnnnnnnnnnnnnnnnnnnnnnnnnnnnnnnnnnnnnnnnnnnnnnnnnnnnnnnnnnnnnnb",
"nnnnnnnnnnnnnnnnnnnnnnnnnnnnnnnnnnnnnnnnnnnnnnnnnnnnnnnnnnnnnnnnb",
"nnnnnnnnnnnnnnnnnnnnnnnnnnnnnnnnnnnnnnnnnnnnnnnnnnnnnnnnnnnnnnnnb",
"nnnnnnnnnnnnnnnnnnnnnnnnnnnnnnnnnnnnnnnnnnnnnnnnnnnnnnnnnnnnnnnnb",
"nnnnnnnnnnnnnnnnnnnnnnnnnnnnnnnnnnnnnnnnnnnnnnnnnnnnnnnnnnnnnnnnb",
"nnnnnnnnnnnnnnnnnnnnnnnnnnnnnnnnnnnnnnnnnnnnnnnnnnnnnnnnnnnnnnnnb",
"nnnnnnnnnnnnnnnnnnnnnnnnnnnnn3dy32$nnnnnnnnnnnnnnnnnnnnnnnnnnnnnb",
"nnnnnnnnnnnnnnnnnnnnnnnnnnnn3du52988nnnnnnnnnnnnnnnnnnnnnnnnnnnnb",
"nnnnnnnnnnnnnnnnnnnnnnnnnnnny35529$8nnnnnnnnnnnnnnnnnnnnnnnnnnnnb",
"nnnnnnnnnnnnnnnnnnnnnnnnnnn3y35522988nnnnnnnnnnnnnnnnnnnnnnnnnnnb",
"nnnnnnnnnnnnnnnnnnnnnnnnnn33pspdy522$$nnnnnnnnnnnnnnnnnnnnnnnnnnb",
"nnnnnnnnnnnnnnnnnnnnnnnnnn39 #f#:f: .$nnnnnnnnnnnnnnnnnnnnnnnnnnb",
"nnnnnnnnnnnnnnnnnnnnnnnnnn8.Xig%&giX.8nnnnnnnnnnnnnnnnnnnnnnnnnnb",
"nnnnnnnnnnnnnnnnnnnnnnnnnnn.4+q00q+4.nnnnnnnnnnnnnnnnnnnnnnnnnnnb",
"nnnnnnnnnnnnnnnnnnnnnnnnnnnn4*+O&+*4nnnnnnnnnnnnnnnnnnnnnnnnnnnnb",
"nnnnnnnnnnnnnnnnnnnnnnnnnnn  <qwwq4  nnnnnnnnnnnnnnnnnnnnnnnnnnnb",
"nnnnnnnnnnnnnnnnnnnnnnnnnnu   =###   nnnnnnnnnnnnnnnnnnnnnnnnnnnb",
"nnnnnnnnnnnnnnnnnnnnnnnnnOu$5s    s5 @nnnnnnnnnnnnnnnnnnnnnnnnnnb",
"nnnnnnnnnnnnnnnnnnnnnnnnOO9u> 9-;$  &+#nnnnnnnnnnnnnnnnnnnnnnnnnb",
"nnnnnnnnnnnnnnnnnnnnnnn#%*9$@&o*+&&++%%#nnnnnnnnnnnnnnnnnnnnnnnnb",
"nnnnnnnnnnnnnnnnnnnnnnn#o@&$$@&*#@@&o%**Xnnnnnnnnnnnnnnnnnnnnnnnb",
"nnnnnnnnnnnnnnnnnnnnnnn#*@<,..@*#*%-&#*%Xnnnnnnnnnnnnnnnnnnnnnnnb",
"nnnnnnnnnnnnnnnnnnnnnnn*,=<+X..$@X<<#4*%>nnnnnnnnnnnnnnnnnnnnnnnb",
"nnnnnnnnnnnnnnnnnnnnnnn*%,<*+X1 .+wh%X*%-nnnnnnnnnnnnnnnnnnnnnnnb",
"nnnnnnnnnnnnnnnnnnnnnnnO%,=,OO=11w0++&&<*nnnnnnnnnnnnnnnnnnnnnnnb",
"nnnnnnnnnnnnnnnnnnnnnnn%%;4#O:%=@w0++&&&=nnnnnnnnnnnnnnnnnnnnnnnb",
"nnnnnnnnnnnnnnnnnnnnnnnni#$252pl$1%&t---=nnnnnnnnnnnnnnnnnnnnnnnb",
"nnnnnnnnnnnnnnnnnnnnnnnnhO$25233$$$$=XXX=nnnnnnnnnnnnnnnnnnnnnnnb",
"nnnnnnnnnnnnnnnnnnnnnnnnnn;=::::>::;;===nnnnnnnnnnnnnnnnnnnnnnnnb",
"nnnnnnnnnnnnnnnnnnnnnnnnn:&%%%*,X#@-X>tnnnnnnnnnnnnnnnnnnnnnnnnnb",
"nnnnnnnnnnnnnnnnnnnnnnnnn@%q0+%,-#@-X;>nnnnnnnnnnnnnnnnnnnnnnnnnb",
"nnnnnnnnnnnnnnnnnnnnnnnnn&oq0+%,<X@-X;4nnnnnnnnnnnnnnnnnnnnnnnnnb",
"nnnnnnnnnnnnnnnnnnnnnnnnn&#@@@@@#X@-X;1nnnnnnnnnnnnnnnnnnnnnnnnnb",
"nnnnnnnnnnnnnnnnnnnnnnnnn#&*++O#=t;;>11nnnnnnnnnnnnnnnnnnnnnnnnnb",
"nnnnnnnnnnnnnnnnnnnnnnnnn@+ooo+O-;==>41nnnnnnnnnnnnnnnnnnnnnnnnnb",
"nnnnnnnnnnnnnnnnnnnnnnnnn@+ooooO-;:X=>nnnnnnnnnnnnnnnnnnnnnnnnnnb",
"nnnnnnnnnnnnnnnnnnnnnnnnnn+ooooO@;:XX;nnnnnnnnnnnnnnnnnnnnnnnnnnb",
"nnnnnnnnnnnnnnnnnnnnnnnnn,ooooo&&X-XX;nnnnnnnnnnnnnnnnnnnnnnnnnnb",
"nnnnnnnnnnnnnnnnnnnnnnnnn*o,ooo+--<X>X;nnnnnnnnnnnnnnnnnnnnnnnnnb",
"nnnnnnnnnnnnnnnnnnnnnnnnno,OOOO<OX>>>1;nnnnnnnnnnnnnnnnnnnnnnnnnb",
"nnnnnnnnnnnnnnnnnnnnnnnnn::OOOO,X1>41.nnnnnnnnnnnnnnnnnnnnnnnnnnb",
"nnnnnnnnnnnnnnnnnnnnnnnnnn:<OOO,=.... nnnnnnnnnnnnnnnnnnnnnnnnnnb",
"nnnnnnnnnnnnnnnnnnnnnnnnnn::---=t    nnnnnnnnnnnnnnnnnnnnnnnnnnnb",
"nnnnnnnnnnnnnnnnnnnnnnnnnnn .... 777.nnnnnnnnnnnnnnnnnnnnnnnnnnnb",
"nnnnnnnnnnnnnnnnnnnnnnnnnnn6e6.  7kr.nnnnnnnnnnnnnnnnnnnnnnnnnnnb",
"nnnnnnnnnnnnnnnnnnnnnnnnnnn6e6.  .jr.nnnnnnnnnnnnnnnnnnnnnnnnnnnb",
"nnnnnnnnnnnnnnnnnnnnnnnnnnn6e6.  .ajrnnnnnnnnnnnnnnnnnnnnnnnnnnnb",
"nnnnnnnnnnnnnnnnnnnnnnnnnnnne6. n ...nnnnnnnnnnnnnnnnnnnnnnnnnnnb",
"nnnnnnnnnnnnnnnnnnnnnnnnnnnn 6. nnnnnnnnnnnnnnnnnnnnnnnnnnnnnnnnb",
"nnnnnnnnnnnnnnnnnnnnnnnnnnnc6vk7 nnnnnnnnnnnnnnnnnnnnnnnnnnnnnnnb",
"nnnnnnnnnnnnnnnnnnnnnnnnnn$razax.$nnnnnnnnnnnnnnnnnnnnnnnnnnnnnnb",
"nnnnnnnnnnnnnnnnnnnnnnnnnn$777...$nnnnnnnnnnnnnnnnnnnnnnnnnnnnnnb"
};
