/* XPM */
static char *front_running_guard_011660768017[] = {
/* columns rows colors chars-per-pixel */
"65 65 64 1 ",
"  c black",
". c #78461C",
"X c gray10",
"o c #BC683B",
"O c #985729",
"+ c #E8814C",
"@ c #C9713F",
"# c #AF6032",
"$ c #FF9D5C",
"% c #F58950",
"& c #B36437",
"* c #4C350E",
"= c #653E17",
"- c #DF7D48",
"; c #432C0F",
": c #5B3913",
"> c #8F4F25",
", c #814B20",
"< c #D17943",
"1 c #00003F",
"2 c #A15C2E",
"3 c #353535",
"4 c #000066",
"5 c #282828",
"6 c #717171",
"7 c #AAAAAA",
"8 c #FF8D54",
"9 c #464646",
"0 c #0000AD",
"q c #535353",
"w c #000073",
"e c #8D8D8D",
"r c #646464",
"t c #261A03",
"y c #39280A",
"u c #FFA56E",
"i c #00008C",
"p c gray49",
"a c #C1C1C1",
"s c #FFB17E",
"d c #FF9558",
"f c gray82",
"g c blue",
"h c #FFB98F",
"j c #00007F",
"k c #FFBD9C",
"l c MediumBlue",
"z c #0000D9",
"x c #0000A9",
"c c white",
"v c #B3008C",
"b c black",
"n c black",
"m c black",
"M c black",
"N c black",
"B c black",
"V c black",
"C c black",
"Z c black",
"A c black",
"S c black",
"D c black",
"F c black",
/* pixels */
"vvvvvvvvvvvvvvvvvvvvvvvvvvvvvvvvvvvvvvvvvvvvvvvvvvvvvvvvvvvvvvvvc",
"vvvvvvvvvvvvvvvvvvvvvvvvvvvvvvvvvvvvvvvvvvvvvvvvvvvvvvvvvvvvvvvvc",
"vvvvvvvvvvvvvvvvvvvvvvvvvvvvvvvvvvvvvvvvvvvvvvvvvvvvvvvvvvvvvvvvc",
"vvvvvvvvvvvvvvvvvvvvvvvvvvvvvvvvvvvvvvvvvvvvvvvvvvvvvvvvvvvvvvvvc",
"vvvvvvvvvvvvvvvvvvvvvvvvvvvvvvvvvvvvvvvvvvvvvvvvvvvvvvvvvvvvvvvvc",
"vvvvvvvvvvvvvvvvvvvvvvvvvvvvvvvvvvvvvvvvvvvvvvvvvvvvvvvvvvvvvvvvc",
"vvvvvvvvvvvvvvvvvvvvvvvvvvvvvvvvvvvvvvvvvvvvvvvvvvvvvvvvvvvvvvvvc",
"vvvvvvvvvvvvvvvvvvvvvvvvvvvvvvvvvvvvvvvvvvvvvvvvvvvvvvvvvvvvvvvvc",
"vvvvvvvvvvvvvvvvvvvvvvvvvvvvvvvvvvvvvvvvvvvvvvvvvvvvvvvvvvvvvvvvc",
"vvvvvvvvvvvvvvvvvvvvvvvvvvvvvvvvvvvvvvvvvvvvvvvvvvvvvvvvvvvvvvvvc",
"vvvvvvvvvvvvvvvvvvvvvvvvvvvvvvvvvvvvvvvvvvvvvvvvvvvvvvvvvvvvvvvvc",
"vvvvvvvvvvvvvvvvvvvvvvvvvvvvvvvvvvvvvvvvvvvvvvvvvvvvvvvvvvvvvvvvc",
"vvvvvvvvvvvvvvvvvvvvvvvvvvvvvvvvvvvvvvvvvvvvvvvvvvvvvvvvvvvvvvvvc",
"vvvvvvvvvvvvvvvvvvvvvvvvvvvvvvvvvvvvvvvvvvvvvvvvvvvvvvvvvvvvvvvvc",
"vvvvvvvvvvvvvvvvvvvvvvvvvvvvvvvvvvvvvvvvvvvvvvvvvvvvvvvvvvvvvvvvc",
"vvvvvvvvvvvvvvvvvvvvvvvvvvvvvvvvvvvvvvvvvvvvvvvvvvvvvvvvvvvvvvvvc",
"vvvvvvvvvvvvvvvvvvvvvvvvvvvvvvvvvvvvvvvvvvvvvvvvvvvvvvvvvvvvvvvvc",
"vvvvvvvvvvvvvvvvvvvvvvvvvvvvvvvvvvvvvvvvvvvvvvvvvvvvvvvvvvvvvvvvc",
"vvvvvvvvvvvvvvvvvvvvvvvvvvvvv77epq3vvvvvvvvvvvvvvvvvvvvvvvvvvvvvc",
"vvvvvvvvvvvvvvvvvvvvvvvvvvvv7fr6q935vvvvvvvvvvvvvvvvvvvvvvvvvvvvc",
"vvvvvvvvvvvvvvvvvvvvvvvvvvvvee666935vvvvvvvvvvvvvvvvvvvvvvvvvvvvc",
"vvvvvvvvvvvvvvvvvvvvvvvvvvvpee666q935vvvvvvvvvvvvvvvvvvvvvvvvvvvc",
"vvvvvvvvvvvvvvvvvvvvvvvvvvpaaf777e6q93vvvvvvvvvvvvvvvvvvvvvvvvvvc",
"vvvvvvvvvvvvvvvvvvvvvvvvvvpX9&g&&gO X3vvvvvvvvvvvvvvvvvvvvvvvvvvc",
"vvvvvvvvvvvvvvvvvvvvvvvvvv9X#uk+&$$#XXvvvvvvvvvvvvvvvvvvvvvvvvvvc",
"vvvvvvvvvvvvvvvvvvvvvvvvvvvv*$$dd%%*vvvvvvvvvvvvvvvvvvvvvvvvvvvvc",
"vvvvvvvvvvvvvvvvvvvvvvvvvvvv*-%&&-@*vvvvvvvvvvvvvvvvvvvvvvvvvvvvc",
"vvvvvvvvvvvvvvvvvvvvvvvvvvv  #$ss%#  vvvvvvvvvvvvvvvvvvvvvvvvvvvc",
"vvvvvvvvvvvvvvvvvvvvvvvvvvr qq ;@35qr .vvvvvvvvvvvvvvvvvvvvvvvvvc",
"vvvvvvvvvvvvvvvvvvvvvvvvvvr36a7   77X2<2vvvvvvvvvvvvvvvvvvvvvvvvc",
"vvvvvvvvvvvvvvvvvvvvvvvvv<8r:3XOtO X@<oo2vvvvvvvvvvvvvvvvvvvvvvvc",
"vvvvvvvvvvvvvvvvvvvvvvvv#8+3r988Oo%%<o&oovvvvvvvvvvvvvvvvvvvvvvvc",
"vvvvvvvvvvvvvvvvvvvvvvvv<%$++X9+@.o##OO*&,vvvvvvvvvvvvvvvvvvvvvvc",
"vvvvvvvvvvvvvvvvvvvvvvvv+$$<*5X5O.O,@+O*,,vvvvvvvvvvvvvvvvvvvvvvc",
"vvvvvvvvvvvvvvvvvvvvvvvv+$%o*#553;.=,#*ty=vvvvvvvvvvvvvvvvvvvvvvc",
"vvvvvvvvvvvvvvvvvvvvvvvv+8$&&=>,.5:.O*,t==vvvvvvvvvvvvvvvvvvvvvvc",
"vvvvvvvvvvvvvvvvvvvvvvvv$$<$8@-$@: X:.;=OOvvvvvvvvvvvvvvvvvvvvvvc",
"vvvvvvvvvvvvvvvvvvvvvvvv8$$$$$shh#X  t;=oovvvvvvvvvvvvvvvvvvvvvvc",
"vvvvvvvvvvvvvvvvvvvvvvvv++8d$ouu%o     y+.vvvvvvvvvvvvvvvvvvvvvvc",
"vvvvvvvvvvvvvvvvvvvvvvvvv@@@@@%u%o     y+vvvvvvvvvvvvvvvvvvvvvvvc",
"vvvvvvvvvvvvvvvvvvvvvvvvvvv##>>>>:=**ty.vvvvvvvvvvvvvvvvvvvvvvvvc",
"vvvvvvvvvvvvvvvvvvvvvvvvvv@#O,,>:&oo&O:.vvvvvvvvvvvvvvvvvvvvvvvvc",
"vvvvvvvvvvvvvvvvvvvvvvvvvv@<o#,>:&oo+&O;vvvvvvvvvvvvvvvvvvvvvvvvc",
"vvvvvvvvvvvvvvvvvvvvvvvvvv@<@#O,2oo++@O;vvvvvvvvvvvvvvvvvvvvvvvvc",
"vvvvvvvvvvvvvvvvvvvvvvvvvv,<@##:&......;vvvvvvvvvvvvvvvvvvvvvvvvc",
"vvvvvvvvvvvvvvvvvvvvvvvvvv&,===*.2---2=;vvvvvvvvvvvvvvvvvvvvvvvvc",
"vvvvvvvvvvvvvvvvvvvvvvvvvv@<##O=O-%%%22*vvvvvvvvvvvvvvvvvvvvvvvvc",
"vvvvvvvvvvvvvvvvvvvvvvvvvvo@#OO=O-%%%-2*vvvvvvvvvvvvvvvvvvvvvvvvc",
"vvvvvvvvvvvvvvvvvvvvvvvvvvv>&OO=2-%%%-.vvvvvvvvvvvvvvvvvvvvvvvvvc",
"vvvvvvvvvvvvvvvvvvvvvvvvvv=&.>>.=-++++.vvvvvvvvvvvvvvvvvvvvvvvvvc",
"vvvvvvvvvvvvvvvvvvvvvvvvvv=....:O+++<+.vvvvvvvvvvvvvvvvvvvvvvvvvc",
"vvvvvvvvvvvvvvvvvvvvvvvvvv=;:::*+&--o2@*vvvvvvvvvvvvvvvvvvvvvvvvc",
"vvvvvvvvvvvvvvvvvvvvvvvvvvvX;;;*:o--o>.*vvvvvvvvvvvvvvvvvvvvvvvvc",
"vvvvvvvvvvvvvvvvvvvvvvvvvvvvXXX;.o@@o>;vvvvvvvvvvvvvvvvvvvvvvvvvc",
"vvvvvvvvvvvvvvvvvvvvvvvvvvvv   X:.O>>.;vvvvvvvvvvvvvvvvvvvvvvvvvc",
"vvvvvvvvvvvvvvvvvvvvvvvvvvvv4j11 XXXX vvvvvvvvvvvvvvvvvvvvvvvvvvc",
"vvvvvvvvvvvvvvvvvvvvvvvvvvvv4011 X0wX vvvvvvvvvvvvvvvvvvvvvvvvvvc",
"vvvvvvvvvvvvvvvvvvvvvvvvvvvv0l1X 00wX vvvvvvvvvvvvvvvvvvvvvvvvvvc",
"vvvvvvvvvvvvvvvvvvvvvvvvvvvv411Xv1iwX vvvvvvvvvvvvvvvvvvvvvvvvvvc",
"vvvvvvvvvvvvvvvvvvvvvvvvvvvvvvvvv 0wX vvvvvvvvvvvvvvvvvvvvvvvvvvc",
"vvvvvvvvvvvvvvvvvvvvvvvvvvvvvvvvv40w vvvvvvvvvvvvvvvvvvvvvvvvvvvc",
"vvvvvvvvvvvvvvvvvvvvvvvvvvvvvvvv140zw vvvvvvvvvvvvvvvvvvvvvvvvvvc",
"vvvvvvvvvvvvvvvvvvvvvvvvvvvvvvv14iixi vvvvvvvvvvvvvvvvvvvvvvvvvvc",
"vvvvvvvvvvvvvvvvvvvvvvvvvvvvvvv144441 vvvvvvvvvvvvvvvvvvvvvvvvvvc",
"ccccccccccccccccccccccccccccccccccccccccccccccccccccccccccccccccc"
};
