/* XPM */
static char *front_idle_guard_011660768017[] = {
/* columns rows colors chars-per-pixel */
"65 65 64 1 ",
"  c gray10",
". c #261A03",
"X c #E8814C",
"o c #78461C",
"O c #BC683B",
"+ c #4C350E",
"@ c #8F4F25",
"# c #AF6032",
"$ c #A15C2E",
"% c #F58950",
"& c #FF8D54",
"* c #D17943",
"= c #5B3913",
"- c #B36437",
"; c #353535",
": c #C9713F",
"> c #814B20",
", c #985729",
"< c #653E17",
"1 c #717171",
"2 c #000073",
"3 c #0000AD",
"4 c #39280A",
"5 c #535353",
"6 c #00004C",
"7 c #DF7D48",
"8 c #432C0F",
"9 c gray49",
"0 c #464646",
"q c #AAAAAA",
"w c #FF9558",
"e c #FFA56E",
"r c #282828",
"t c #646464",
"y c #FF9D5C",
"u c #8D8D8D",
"i c gray82",
"p c #FFB98F",
"a c #00003F",
"s c #FFBD9C",
"d c #FFB17E",
"f c #C1C1C1",
"g c #000066",
"h c blue",
"j c #00008C",
"k c #DDDDDD",
"l c #0000D9",
"z c gray60",
"x c gray71",
"c c gray99",
"v c #0000F1",
"b c MediumBlue",
"n c #0000A9",
"m c black",
"M c #B3008C",
"N c #B3008C",
"B c black",
"V c black",
"C c black",
"Z c black",
"A c black",
"S c black",
"D c black",
"F c black",
/* pixels */
"NNNNNNNNNNNNNNNNNNNNNNNNNNNNNNNNNNNNNNNNNNNNNNNNNNNNNNNNNNNNNNNNM",
"NNNNNNNNNNNNNNNNNNNNNNNNNNNNNNNNNNNNNNNNNNNNNNNNNNNNNNNNNNNNNNNNM",
"NNNNNNNNNNNNNNNNNNNNNNNNNNNNNNNNNNNNNNNNNNNNNNNNNNNNNNNNNNNNNNNNM",
"NNNNNNNNNNNNNNNNNNNNNNNNNNNNNNNNNNNNNNNNNNNNNNNNNNNNNNNNNNNNNNNNM",
"NNNNNNNNNNNNNNNNNNNNNNNNNNNNNNNNNNNNNNNNNNNNNNNNNNNNNNNNNNNNNNNNM",
"NNNNNNNNNNNNNNNNNNNNNNNNNNNNNNNNNNNNNNNNNNNNNNNNNNNNNNNNNNNNNNNNM",
"NNNNNNNNNNNNNNNNNNNNNNNNNNNNNNNNNNNNNNNNNNNNNNNNNNNNNNNNNNNNNNNNM",
"NNNNNNNNNNNNNNNNNNNNNNNNNNNNNNNNNNNNNNNNNNNNNNNNNNNNNNNNNNNNNNNNM",
"NNNNNNNNNNNNNNNNNNNNNNNNNNNNNNNNNNNNNNNNNNNNNNNNNNNNNNNNNNNNNNNNM",
"NNNNNNNNNNNNNNNNNNNNNNNNNNNNNNNNNNNNNNNNNNNNNNNNNNNNNNNNNNNNNNNNM",
"NNNNNNNNNNNNNNNNNNNNNNNNNNNNNNNNNNNNNNNNNNNNNNNNNNNNNNNNNNNNNNNNM",
"NNNNNNNNNNNNNNNNNNNNNNNNNNNNNNNNNNNNNNNNNNNNNNNNNNNNNNNNNNNNNNNNM",
"NNNNNNNNNNNNNNNNNNNNNNNNNNNNNNNNNNNNNNNNNNNNNNNNNNNNNNNNNNNNNNNNM",
"NNNNNNNNNNNNNNNNNNNNNNNNNNNNNNNNNNNNNNNNNNNNNNNNNNNNNNNNNNNNNNNNM",
"NNNNNNNNNNNNNNNNNNNNNNNNNNNNNNNNNNNNNNNNNNNNNNNNNNNNNNNNNNNNNNNNM",
"NNNNNNNNNNNNNNNNNNNNNNNNNNNNNNNNNNNNNNNNNNNNNNNNNNNNNNNNNNNNNNNNM",
"NNNNNNNNNNNNNNNNNNNNNNNNNNNNNqqu95;NNNNNNNNNNNNNNNNNNNNNNNNNNNNNM",
"NNNNNNNNNNNNNNNNNNNNNNNNNNNNqqt150rrNNNNNNNNNNNNNNNNNNNNNNNNNNNNM",
"NNNNNNNNNNNNNNNNNNNNNNNNNNNNu91150;rNNNNNNNNNNNNNNNNNNNNNNNNNNNNM",
"NNNNNNNNNNNNNNNNNNNNNNNNNNN;u911550rrNNNNNNNNNNNNNNNNNNNNNNNNNNNM",
"NNNNNNNNNNNNNNNNNNNNNNNNNNN9fifqu155 NNNNNNNNNNNNNNNNNNNNNNNNNNNM",
"NNNNNNNNNNNNNNNNNNNNNNNNNN90mOhw*hOm  NNNNNNNNNNNNNNNNNNNNNNNNNNM",
"NNNNNNNNNNNNNNNNNNNNNNNNNNm >esX:se>  NNNNNNNNNNNNNNNNNNNNNNNNNNM",
"NNNNNNNNNNNNNNNNNNNNNNNNNNN +%ywwy%+ NNNNNNNNNNNNNNNNNNNNNNNNNNNM",
"NNNNNNNNNNNNNNNNNNNNNNNNNNNN+*%7:%*+NNNNNNNNNNNNNNNNNNNNNNNNNNNNM",
"NNNNNNNNNNNNNNNNNNNNNNNNNNNNm#yddy+mNNNNNNNNNNNNNNNNNNNNNNNNNNNNM",
"NNNNNNNNNNNNNNNNNNNNNNNNNNNmmmo---mmmNNNNNNNNNNNNNNNNNNNNNNNNNNNM",
"NNNNNNNNNNNNNNNNNNNNNNNNNNtmc1m8:m1immoNNNNNNNNNNNNNNNNNNNNNNNNNM",
"NNNNNNNNNNNNNNNNNNNNNNNNOOt;1immmmi1$$OO,NNNNNNNNNNNNNNNNNNNNNNNM",
"NNNNNNNNNNNNNNNNNNNNNNN>%&:t=m0,.,m$:%%%O,NNNNNNNNNNNNNNNNNNNNNNM",
"NNNNNNNNNNNNNNNNNNNNNNNO&:X;t$&&#%%%%X-O*>NNNNNNNNNNNNNNNNNNNNNNM",
"NNNNNNNNNNNNNNNNNNNNNNN%&>::;;$X#X$$@>-+-*>NNNNNNNNNNNNNNNNNNNNNM",
"NNNNNNNNNNNNNNNNNNNNNNX&-+@7$ ;$=X$XX>>+#X>NNNNNNNNNNNNNNNNNNNNNM",
"NNNNNNNNNNNNNNNNNNNNNNX&, +-&$ ;;$>##+>.#X=NNNNNNNNNNNNNNNNNNNNNM",
"NNNNNNNNNNNNNNNNNNNNNN&&Xo.o7%$m ;$>+>..XX,NNNNNNNNNNNNNNNNNNNNNM",
"NNNNNNNNNNNNNNNNNNNNN*&&#o.=7%<$mm ;$>..<#*NNNNNNNNNNNNNNNNNNNNNM",
"NNNNNNNNNNNNNNNNNNNNN-&-....@-<X=Ommm..4XX*NNNNNNNNNNNNNNNNNNNNNM",
"NNNNNNNNNNNNNNNNNNNNN-&&&..;15;kxz ;  m44#*NNNNNNNNNNNNNNNNNNNNNM",
"NNNNNNNNNNNNNNNNNNNNN*X,-=.;15;990 ;  m4#<#NNNNNNNNNNNNNNNNNNNNNM",
"NNNNNNNNNNNNNNNNNNNNNNXX-=..+@@@=@<++.4oXX#NNNNNNNNNNNNNNNNNNNNNM",
"NNNNNNNNNNNNNNNNNNNNNNXX,..$:XXO=-OO$=.o#XXNNNNNNNNNNNNNNNNNNNNNM",
"NNNNNNNNNNNNNNNNNNNNNNX#4.$:XXXO=-OO$o8.4ooNNNNNNNNNNNNNNNNNNNNNM",
"NNNNNNNNNNNNNNNNNNNNNNNe7.$XXXXO=-OO$@8.7eNNNNNNNNNNNNNNNNNNNNNNM",
"NNNNNNNNNNNNNNNNNNNNNNNppm$XX7XO=-OO$@8.pXNNNNNNNNNNNNNNNNNNNNNNM",
"NNNNNNNNNNNNNNNNNNNNNNNe@.<<<<<.m.......@7NNNNNNNNNNNNNNNNNNNNNNM",
"NNNNNNNNNNNNNNNNNNNNNNNN%+:X:@+.m+@@@o++7NNNNNNNNNNNNNNNNNNNNNNNM",
"NNNNNNNNNNNNNNNNNNNNNNNNN4*X:,o4m+*O@@o+NNNNNNNNNNNNNNNNNNNNNNNNM",
"NNNNNNNNNNNNNNNNNNNNNNNNN,*X:#o4mo*OO@o+NNNNNNNNNNNNNNNNNNNNNNNNM",
"NNNNNNNNNNNNNNNNNNNNNNNNN,&X:#o.m+@%O@o+NNNNNNNNNNNNNNNNNNNNNNNNM",
"NNNNNNNNNNNNNNNNNNNNNNNNN,&X%:#om+o%O@o+NNNNNNNNNNNNNNNNNNNNNNNNM",
"NNNNNNNNNNNNNNNNNNNNNNNNN,&w:<#. o#*%@=+NNNNNNNNNNNNNNNNNNNNNNNNM",
"NNNNNNNNNNNNNNNNNNNNNNNNN>#&X%o..#&w%-8oNNNNNNNNNNNNNNNNNNNNNNNNM",
"NNNNNNNNNNNNNNNNNNNNNNNNNo*X#@#=..#,o=<8NNNNNNNNNNNNNNNNNNNNNNNNM",
"NNNNNNNNNNNNNNNNNNNNNNNNNo***:=..o*%O@.8NNNNNNNNNNNNNNNNNNNNNNNNM",
"NNNNNNNNNNNNNNNNNNNNNNNNNN=@@=....o,<8.8NNNNNNNNNNNNNNNNNNNNNNNNM",
"NNNNNNNNNNNNNNNNNNNNNNNNNN mmmmmNmmmmmmNNNNNNNNNNNNNNNNNNNNNNNNNM",
"NNNNNNNNNNNNNNNNNNNNNNNNNN 266mmNm    mNNNNNNNNNNNNNNNNNNNNNNNNNM",
"NNNNNNNNNNNNNNNNNNNNNNNNNN 326 mNm32  mNNNNNNNNNNNNNNNNNNNNNNNNNM",
"NNNNNNNNNNNNNNNNNNNNNNNNNN 226 mNma36 mNNNNNNNNNNNNNNNNNNNNNNNNNM",
"NNNNNNNNNNNNNNNNNNNNNNNNNN 326 NNNm36 mNNNNNNNNNNNNNNNNNNNNNNNNNM",
"NNNNNNNNNNNNNNNNNNNNNNNNNNN 36 NNNm32mNNNNNNNNNNNNNNNNNNNNNNNNNNM",
"NNNNNNNNNNNNNNNNNNNNNNNNNN 3v2 mNma3l2mNNNNNNNNNNNNNNNNNNNNNNNNNM",
"NNNNNNNNNNNNNNNNNNNNNNNNN 3bj2 mNmg6ngamNNNNNNNNNNNNNNNNNNNNNNNNM",
"NNNNNNNNNNNNNNNNNNNNNNNNN     mNNN     mNNNNNNNNNNNNNNNNNNNNNNNNM",
"MMMMMMMMMMMMMMMMMMMMMMMMMMMMMMMMMMMMMMMMMMMMMMMMMMMMMMMMMMMMMMMMM"
};
