/* XPM */
static char *left_running_guard_051660768017[] = {
/* columns rows colors chars-per-pixel */
"65 65 64 1 ",
"  c #814B20",
". c #FF9558",
"X c #353535",
"o c #D17943",
"O c #4C350E",
"+ c #B36437",
"@ c #C9713F",
"# c #F58950",
"$ c #BC683B",
"% c #8F4F25",
"& c gray10",
"* c #FFA56E",
"= c #78461C",
"- c #5B3913",
"; c #464646",
": c #AF6032",
"> c #00003F",
", c #DF7D48",
"< c #282828",
"1 c #717171",
"2 c #A15C2E",
"3 c #985729",
"4 c #535353",
"5 c #FFB17E",
"6 c #39280A",
"7 c #653E17",
"8 c #261A03",
"9 c #E8814C",
"0 c #00007F",
"q c gray49",
"w c #FF9D5C",
"e c #00004C",
"r c #AAAAAA",
"t c #432C0F",
"y c #8D8D8D",
"u c #646464",
"i c #0000AD",
"p c #00008C",
"a c #FF8D54",
"s c #FFB98F",
"d c #C1C1C1",
"f c #0000C1",
"g c gray71",
"h c #DDDDDD",
"j c #000073",
"k c gray60",
"l c gray99",
"z c black",
"x c None",
"c c None",
"v c black",
"b c black",
"n c black",
"m c black",
"M c black",
"N c black",
"B c black",
"V c black",
"C c black",
"Z c black",
"A c black",
"S c black",
"D c black",
"F c black",
/* pixels */
"xxxxxxxxxxxxxxxxxxxxxxxxxxxxxxxxxxxxxxxxxxxxxxxxxxxxxxxxxxxxxxxxx",
"ccccccccccccccccccccccccccccccccccccccccccccccccccccccccccccccccx",
"ccccccccccccccccccccccccccccccccccccccccccccccccccccccccccccccccx",
"ccccccccccccccccccccccccccccccccccccccccccccccccccccccccccccccccx",
"ccccccccccccccccccccccccccccccccccccccccccccccccccccccccccccccccx",
"ccccccccccccccccccccccccccccccccccccccccccccccccccccccccccccccccx",
"ccccccccccccccccccccccccccccccccccccccccccccccccccccccccccccccccx",
"ccccccccccccccccccccccccccccccccccccccccccccccccccccccccccccccccx",
"ccccccccccccccccccccccccccccccccccccccccccccccccccccccccccccccccx",
"ccccccccccccccccccccccccccccccccccccccccccccccccccccccccccccccccx",
"ccccccccccccccccccccccccccccccccccccccccccccccccccccccccccccccccx",
"ccccccccccccccccccccccccccccccccccccccccccccccccccccccccccccccccx",
"ccccccccccccccccccccccccccccccccccccccccccccccccccccccccccccccccx",
"ccccccccccccccccccccccccccccccccccccccccccccccccccccccccccccccccx",
"ccccccccccccccccccccccccccccccccccccccccccccccccccccccccccccccccx",
"ccccccccccccccccccccccccccccccccccccccccccccccccccccccccccccccccx",
"ccccccccccccccccccccccccccccccccccccccccccccccccccccccccccccccccx",
"ccccccccccccccccccccccccccccccccccccccccccccccccccccccccccccccccx",
"ccccccccccccccccccccccccccrqq1u4;cccccccccccccccccccccccccccccccx",
"cccccccccccccccccccccccccryq4;;;<;ccccccccccccccccccccccccccccccx",
"ccccccccccccccccccccccccc1q44;;;X<ccccccccccccccccccccccccccccccx",
"cccccccccccccccccccccccc1111;;u&X<ccccccccccccccccccccccccccccccx",
"cccccccccccccccccccccccyddrkq1<<X<;cccccccccccccccccccccccccccccx",
"ccccccccccccccccccccccccXi+pi;114;<cccccccccccccccccccccccccccccx",
"ccccccccccccccccccccccccX,s55:;XXXXXccccccccccccccccccccccccccccx",
"ccccccccccccccccccccccccc+ww9:zOOcccccccccccccccccccccccccccccccx",
"ccccccccccccccccccccccccc%,$w:&%Occcccccccccccccccccccccccccccccx",
"ccccccccccccccccccccccccc+*,4&%+Ozzcccccccccccccccccccccccccccccx",
"cccccccccccccccccccccccccczz5*,4gzzzccccccccccccccccccccccccccccx",
"ccccccccccccccccccccccccc &z5,zl4z   Occccccccccccccccccccccccccx",
"cccccccccccccccccccccccc @Xz-zoz8 ..o+Occcccccccccccccccccccccccx",
"cccccccccccccccccccccccc@OX% ##....:+++Occccccccccccccccccccccccx",
"ccccccccccccccccccccccc=3.%X @$$$.2o+++ Occcccccccccccccccccccccx",
"ccccccccccccccccccccccc=$.:X $..$.-3oo + cccccccccccccccccccccccx",
"ccccccccccccccccccccccc=::#XX$oo:o3-3 o++ ccccccccccccccccccccccx",
"ccccccccccccccccccccccc=o2#%X@$:o$3-OO +  ccccccccccccccccccccccx",
"ccccccccccccccccccccccc=o ooXX@oo:3--3#o+ ccccccccccccccccccccccx",
"ccccccccccccccccccccccc=oOoo X<<:3=--@##+6ccccccccccccccccccccccx",
"ccccccccccccccccccccc@..8 XXhyX&&&&&%##+-cccccccccccccccccccccccx",
"ccccccccccccccccccccc@.@.tXXruX&&&&&$$=%6cccccccccccccccccccccccx",
"ccccccccccccccccccccc@.@ 882o o: %=sa#:-6cccccccccccccccccccccccx",
"ccccccccccccccccccccccccccc2#2,,@@%.##+6ccccccccccccccccccccccccx",
"ccccccccccccccccccccccccccc9#2,,@@@,#+-7ccccccccccccccccccccccccx",
"cccccccccccccccccccccccccccw#2o    =---7ccccccccccccccccccccccccx",
"ccccccccccccccccccccccccccc%%$2999+  % 7ccccccccccccccccccccccccx",
"cccccccccccccccccccccccccccc#$....oo#  7ccccccccccccccccccccccccx",
"cccccccccccccccccccccccccccc%**..9o+7 7cccccccccccccccccccccccccx",
"cccccccccccccccccccccccccccc***...o+=OOcccccccccccccccccccccccccx",
"cccccccccccccccccccccccccccc*5*..o+=6Occccccccccccccccccccccccccx",
"ccccccccccccccccccccccccccc***9**==O6Occccccccccccccccccccccccccx",
"ccccccccccccccccccccccccccc55**@OOOO6cccccccccccccccccccccccccccx",
"ccccccccccccccccccccccccccca##@*2  87cccccccccccccccccccccccccccx",
"ccccccccccccccccccccccccccc,$$@@$O$%-cccccccccccccccccccccccccccx",
"cccccccccccccccccccccccccccc@$=%%Ozz8tccccccccccccccccccccccccccx",
"ccccccccccccccccccccccccccccc=%%Ozzz8zccccccccccccccccccccccccccx",
"cccccccccccccccccccccccccccccczzzzzzzztcccccccccccccccccccccccccx",
"cccccccccccccccccccccccccccccccz>>zzzzzzccccccccccccccccccccccccx",
"ccccccccccccccccccccccccccccccccOeezzzzzzcccccccccccccccccccccccx",
"cccccccccccccccccccccccccccccccccczzezzzzcccccccccccccccccccccccx",
"ccccccccccccccccccccccccccccccccccz0zzzzccccccccccccccccccccccccx",
"cccccccccccccccccccccccccccccccccffpzzzzccccccccccccccccccccccccx",
"cccccccccccccccccccccccccccccccc>000zzzzzcccccccccccccccccccccccx",
"cccccccccccccccccccccccccccccccc>>ez>>&zzcccccccccccccccccccccccx",
"cccccccccccccccccccccccccccccccj0>>>&&zzccccccccccccccccccccccccx",
"ccccccccccccccccccccccccccccccc<>>&zzXXXccccccccccccccccccccccccx"
};
