/* XPM */
static char *left_walking_guard_021660768017[] = {
/* columns rows colors chars-per-pixel */
"65 65 64 1 ",
"  c #8F4F25",
". c #5B3913",
"X c #432C0F",
"o c #653E17",
"O c #FF9D5C",
"+ c #78461C",
"@ c #00004C",
"# c #814B20",
"$ c #B36437",
"% c gray10",
"& c #AAAAAA",
"* c #D17943",
"= c #DF7D48",
"- c #4C350E",
"; c #FF9558",
": c #0000AD",
"> c #BC683B",
", c #282828",
"< c #AF6032",
"1 c #F58950",
"2 c #FFB98F",
"3 c #464646",
"4 c #C9713F",
"5 c #535353",
"6 c gray49",
"7 c #A15C2E",
"8 c #FFB17E",
"9 c #000073",
"0 c #985729",
"q c #717171",
"w c #FFA56E",
"e c #646464",
"r c #353535",
"t c #8D8D8D",
"y c #00003F",
"u c #FF8D54",
"i c #00007F",
"p c #39280A",
"a c #E8814C",
"s c #DDDDDD",
"d c #0000A9",
"f c #00009C",
"g c #C1C1C1",
"h c gray82",
"j c #000066",
"k c black",
"l c white",
"z c #B3008C",
"x c black",
"c c black",
"v c black",
"b c black",
"n c black",
"m c black",
"M c black",
"N c black",
"B c black",
"V c black",
"C c black",
"Z c black",
"A c black",
"S c black",
"D c black",
"F c black",
/* pixels */
"zzzzzzzzzzzzzzzzzzzzzzzzzzzzzzzzzzzzzzzzzzzzzzzzzzzzzzzzzzzzzzzzl",
"zzzzzzzzzzzzzzzzzzzzzzzzzzzzzzzzzzzzzzzzzzzzzzzzzzzzzzzzzzzzzzzzl",
"zzzzzzzzzzzzzzzzzzzzzzzzzzzzzzzzzzzzzzzzzzzzzzzzzzzzzzzzzzzzzzzzl",
"zzzzzzzzzzzzzzzzzzzzzzzzzzzzzzzzzzzzzzzzzzzzzzzzzzzzzzzzzzzzzzzzl",
"zzzzzzzzzzzzzzzzzzzzzzzzzzzzzzzzzzzzzzzzzzzzzzzzzzzzzzzzzzzzzzzzl",
"zzzzzzzzzzzzzzzzzzzzzzzzzzzzzzzzzzzzzzzzzzzzzzzzzzzzzzzzzzzzzzzzl",
"zzzzzzzzzzzzzzzzzzzzzzzzzzzzzzzzzzzzzzzzzzzzzzzzzzzzzzzzzzzzzzzzl",
"zzzzzzzzzzzzzzzzzzzzzzzzzzzzzzzzzzzzzzzzzzzzzzzzzzzzzzzzzzzzzzzzl",
"zzzzzzzzzzzzzzzzzzzzzzzzzzzzzzzzzzzzzzzzzzzzzzzzzzzzzzzzzzzzzzzzl",
"zzzzzzzzzzzzzzzzzzzzzzzzzzzzzzzzzzzzzzzzzzzzzzzzzzzzzzzzzzzzzzzzl",
"zzzzzzzzzzzzzzzzzzzzzzzzzzzzzzzzzzzzzzzzzzzzzzzzzzzzzzzzzzzzzzzzl",
"zzzzzzzzzzzzzzzzzzzzzzzzzzzzzzzzzzzzzzzzzzzzzzzzzzzzzzzzzzzzzzzzl",
"zzzzzzzzzzzzzzzzzzzzzzzzzzzzzzzzzzzzzzzzzzzzzzzzzzzzzzzzzzzzzzzzl",
"zzzzzzzzzzzzzzzzzzzzzzzzzzzzzzzzzzzzzzzzzzzzzzzzzzzzzzzzzzzzzzzzl",
"zzzzzzzzzzzzzzzzzzzzzzzzzzzzzzzzzzzzzzzzzzzzzzzzzzzzzzzzzzzzzzzzl",
"zzzzzzzzzzzzzzzzzzzzzzzzzzzzzzzzzzzzzzzzzzzzzzzzzzzzzzzzzzzzzzzzl",
"zzzzzzzzzzzzzzzzzzzzzzzzzz&&&66qqzzzzzzzzzzzzzzzzzzzzzzzzzzzzzzzl",
"zzzzzzzzzzzzzzzzzzzzzzzzz&h&qqe555zzzzzzzzzzzzzzzzzzzzzzzzzzzzzzl",
"zzzzzzzzzzzzzzzzzzzzzzzzz&&65553rr3zzzzzzzzzzzzzzzzzzzzzzzzzzzzzl",
"zzzzzzzzzzzzzzzzzzzzzzzzz&6e&,533r,zzzzzzzzzzzzzzzzzzzzzzzzzzzzzl",
"zzzzzzzzzzzzzzzzzzzzzzzzss&3k,533r,zzzzzzzzzzzzzzzzzzzzzzzzzzzzzl",
"zzzzzzzzzzzzzzzzzzzzzzzzzz<&&&tt6e3,zzzzzzzzzzzzzzzzzzzzzzzzzzzzl",
"zzzzzzzzzzzzzzzzzzzzzzzzzz2<&&&t66e3,zzzzzzzzzzzzzzzzzzzzzzzzzzzl",
"zzzzzzzzzzzzzzzzzzzzzzzzzz222kkkkkzzzzzzzzzzzzzzzzzzzzzzzzzzzzzzl",
"zzzzzzzzzzzzzzzzzzzzzzzzzz222k<+++zzzzzzzzzzzzzzzzzzzzzzzzzzzzzzl",
"zzzzzzzzzzzzzzzzzzzzzzzzzzwwk8*>< zzzzzzzzzzzzzzzzzzzzzzzzzzzzzzl",
"zzzzzzzzzzzzzzzzzzzzzzzzzzzz,,,kkkkzzzzzzzzzzzzzzzzzzzzzzzzzzzzzl",
"zzzzzzzzzzzzzzzzzzzzzzzzzzztg,,kkkk zzzzzzzzzzzzzzzzzzzzzzzzzzzzl",
"zzzzzzzzzzzzzzzzzzzzzzzzzzOO14<<$#.k+zzzzzzzzzzzzzzzzzzzzzzzzzzzl",
"zzzzzzzzzzzzzzzzzzzzzzzzzOO11aaa4$Xk.zzzzzzzzzzzzzzzzzzzzzzzzzzzl",
"zzzzzzzzzzzzzzzzzzzzzzzzzOO1=444>$Xk.zzzzzzzzzzzzzzzzzzzzzzzzzzzl",
"zzzzzzzzzzzzzzzzzzzzzzzzz1O14#1>>.kk.zzzzzzzzzzzzzzzzzzzzzzzzzzzl",
"zzzzzzzzzzzzzzzzzzzzzzzzzuO=4 #$$XkX.zzzzzzzzzzzzzzzzzzzzzzzzzzzl",
"zzzzzzzzzzzzzzzzzzzzzzzzz$1=4$.$+kXX.zzzzzzzzzzzzzzzzzzzzzzzzzzzl",
"zzzzzzzzzzzzzzzzzzzzzzzzz u$$.++kkX..zzzzzzzzzzzzzzzzzzzzzzzzzzzl",
"zzzzzzzzzzzzzzzzzzzzzzzzzz*>* +kkX..#zzzzzzzzzzzzzzzzzzzzzzzzzzzl",
"zzzzzzzzzzzzzzzzzzzzzzzzzz ;*$ kX...zzzzzzzzzzzzzzzzzzzzzzzzzzzzl",
"zzzzzzzzzzzzzzzzzzzzzzzzzz;**$ kkkkkzzzzzzzzzzzzzzzzzzzzzzzzzzzzl",
"zzzzzzzzzzzzzzzzzzzzzzzzz2$ ;$ kkkkkzzzzzzzzzzzzzzzzzzzzzzzzzzzzl",
"zzzzzzzzzzzzzzzzzzzzzzzzzO1;>  ooo-o zzzzzzzzzzzzzzzzzzzzzzzzzzzl",
"zzzzzzzzzzzzzzzzzzzzzzzzzz ;* 7###o# zzzzzzzzzzzzzzzzzzzzzzzzzzzl",
"zzzzzzzzzzzzzzzzzzzzzzzzzz2$$$.###.#  zzzzzzzzzzzzzzzzzzzzzzzzzzl",
"zzzzzzzzzzzzzzzzzzzzzzzzzO8w;=.###p#  zzzzzzzzzzzzzzzzzzzzzzzzzzl",
"zzzzzzzzzzzzzzzzzzzzzzzzzO0wO0p###po  zzzzzzzzzzzzzzzzzzzzzzzzzzl",
"zzzzzzzzzzzzzzzzzzzzzzzzO;*;* oXXXXXo#zzzzzzzzzzzzzzzzzzzzzzzzzzl",
"zzzzzzzzzzzzzzzzzzzzzzzzO;;0 oo.XXX-ozzzzzzzzzzzzzzzzzzzzzzzzzzzl",
"zzzzzzzzzzzzzzzzzzzzzzz=OO;;* +.XX.oozzzzzzzzzzzzzzzzzzzzzzzzzzzl",
"zzzzzzzzzzzzzzzzzzzzzzzOO8u*> +.o..-oozzzzzzzzzzzzzzzzzzzzzzzzzzl",
"zzzzzzzzzzzzzzzzzzzzzz=88O4=  .. +.-oozzzzzzzzzzzzzzzzzzzzzzzzzzl",
"zzzzzzzzzzzzzzzzzzzzzz=8>==< +.0 +..oozzzzzzzzzzzzzzzzzzzzzzzzzzl",
"zzzzzzzzzzzzzzzzzzzzzzOO1><<+.$$77XXXozzzzzzzzzzzzzzzzzzzzzzzzzzl",
"zzzzzzzzzzzzzzzzzzzzz=OOO=>++z$*> 7XXXozzzzzzzzzzzzzzzzzzzzzzzzzl",
"zzzzzzzzzzzzzzzzzzzzz=;O=>+--zz* *Xo+ +ozzzzzzzzzzzzzzzzzzzzzzzzl",
"zzzzzzzzzzzzzzzzzzzzz+=<<0#7zzzz*77+---ozzzzzzzzzzzzzzzzzzzzzzzzl",
"zzzzzzzzzzzzzzzzzzzzz::----zzzzz*++-kkk@zzzzzzzzzzzzzzzzzzzzzzzzl",
"zzzzzzzzzzzzzzzzzzzzz::@kk%zzzzzz+-kkkk@zzzzzzzzzzzzzzzzzzzzzzzzl",
"zzzzzzzzzzzzzzzzzzzzz::@kkzzzzzzzzkkkkkk@zzzzzzzzzzzzzzzzzzzzzzzl",
"zzzzzzzzzzzzzzzzzzzzz::fk%zzzzzzzzz@9kkk@zzzzzzzzzzzzzzzzzzzzzzzl",
"zzzzzzzzzzzzzzzzzzzzzi@k%kzzzzzzzzzz@k@kkkkzzzzzzzzzzzzzzzzzzzzzl",
"zzzzzzzzzzzzzzzzzz99:i@kkzzzzzzzzzzzz@9kk%%zzzzzzzzzzzzzzzzzzzzzl",
"zzzzzzzzzzzzzzzzz9d:d@@kkzzzzzzzzzzzzz@kk%%zzzzzzzzzzzzzzzzzzzzzl",
"zzzzzzzzzzzzzzzzzzyji@@kkzzzzzzzzzzz:@kk%%%zzzzzzzzzzzzzzzzzzzzzl",
"zzzzzzzzzzzzzzzzzzzzyy%%%zzzzzzzzzz@::9k%%zzzzzzzzzzzzzzzzzzzzzzl",
"zzzzzzzzzzzzzzzzzzzzzzzzzzzzzzzzzzzz@@@%%%zzzzzzzzzzzzzzzzzzzzzzl",
"lllllllllllllllllllllllllllllllllllllllllllllllllllllllllllllllll"
};
