/* XPM */
static char *left_idle_guard_021660768017[] = {
/* columns rows colors chars-per-pixel */
"65 65 64 1 ",
"  c #F58950",
". c #39280A",
"X c #5B3913",
"o c #AF6032",
"O c #814B20",
"+ c #C9713F",
"@ c #D17943",
"# c #535353",
"$ c #282828",
"% c gray10",
"& c #FF9558",
"* c #FF8D54",
"= c #00007F",
"- c #B36437",
"; c #000066",
": c #4C350E",
"> c #653E17",
", c #646464",
"< c #FFA56E",
"1 c #0000AD",
"2 c #8D8D8D",
"3 c #00003F",
"4 c #353535",
"5 c #A15C2E",
"6 c #FFB98F",
"7 c #464646",
"8 c #AAAAAA",
"9 c gray49",
"0 c #DF7D48",
"q c #717171",
"w c gray60",
"e c #985729",
"r c #FFB17E",
"t c #78461C",
"y c #8F4F25",
"u c gray82",
"i c #E8814C",
"p c #00004C",
"a c #000073",
"s c #DDDDDD",
"d c #0000C1",
"f c #C1C1C1",
"g c #BC683B",
"h c #0000B5",
"j c gray71",
"k c gray99",
"l c black",
"z c None",
"x c None",
"c c black",
"v c black",
"b c black",
"n c black",
"m c black",
"M c black",
"N c black",
"B c black",
"V c black",
"C c black",
"Z c black",
"A c black",
"S c black",
"D c black",
"F c black",
/* pixels */
"xxxxxxxxxxxxxxxxxxxxxxxxxxxxxxxxxxxxxxxxxxxxxxxxxxxxxxxxxxxxxxxxz",
"xxxxxxxxxxxxxxxxxxxxxxxxxxxxxxxxxxxxxxxxxxxxxxxxxxxxxxxxxxxxxxxxz",
"xxxxxxxxxxxxxxxxxxxxxxxxxxxxxxxxxxxxxxxxxxxxxxxxxxxxxxxxxxxxxxxxz",
"xxxxxxxxxxxxxxxxxxxxxxxxxxxxxxxxxxxxxxxxxxxxxxxxxxxxxxxxxxxxxxxxz",
"xxxxxxxxxxxxxxxxxxxxxxxxxxxxxxxxxxxxxxxxxxxxxxxxxxxxxxxxxxxxxxxxz",
"xxxxxxxxxxxxxxxxxxxxxxxxxxxxxxxxxxxxxxxxxxxxxxxxxxxxxxxxxxxxxxxxz",
"xxxxxxxxxxxxxxxxxxxxxxxxxxxxxxxxxxxxxxxxxxxxxxxxxxxxxxxxxxxxxxxxz",
"xxxxxxxxxxxxxxxxxxxxxxxxxxxxxxxxxxxxxxxxxxxxxxxxxxxxxxxxxxxxxxxxz",
"xxxxxxxxxxxxxxxxxxxxxxxxxxxxxxxxxxxxxxxxxxxxxxxxxxxxxxxxxxxxxxxxz",
"xxxxxxxxxxxxxxxxxxxxxxxxxxxxxxxxxxxxxxxxxxxxxxxxxxxxxxxxxxxxxxxxz",
"xxxxxxxxxxxxxxxxxxxxxxxxxxxxxxxxxxxxxxxxxxxxxxxxxxxxxxxxxxxxxxxxz",
"xxxxxxxxxxxxxxxxxxxxxxxxxxxxxxxxxxxxxxxxxxxxxxxxxxxxxxxxxxxxxxxxz",
"xxxxxxxxxxxxxxxxxxxxxxxxxxxxxxxxxxxxxxxxxxxxxxxxxxxxxxxxxxxxxxxxz",
"xxxxxxxxxxxxxxxxxxxxxxxxxxxxxxxxxxxxxxxxxxxxxxxxxxxxxxxxxxxxxxxxz",
"xxxxxxxxxxxxxxxxxxxxxxxxxxxxxxxxxxxxxxxxxxxxxxxxxxxxxxxxxxxxxxxxz",
"xxxxxxxxxxxxxxxxxxxxxxxxxxxxxxxxxxxxxxxxxxxxxxxxxxxxxxxxxxxxxxxxz",
"xxxxxxxxxxxxxxxxxxxxxxxxxxxxxxjwww22qxxxxxxxxxxxxxxxxxxxxxxxxxxxz",
"xxxxxxxxxxxxxxxxxxxxxxxxxxxxx8u2,###7#xxxxxxxxxxxxxxxxxxxxxxxxxxz",
"xxxxxxxxxxxxxxxxxxxxxxxxxxxxx82,####74#xxxxxxxxxxxxxxxxxxxxxxxxxz",
"xxxxxxxxxxxxxxxxxxxxxxxxxxxxx99,#2l#744xxxxxxxxxxxxxxxxxxxxxxxxxz",
"xxxxxxxxxxxxxxxxxxxxxxxxxxxwssf89ll#$$$xxxxxxxxxxxxxxxxxxxxxxxxxz",
"xxxxxxxxxxxxxxxxxxxxxxxxxxxxxxo1:9qq#7$$xxxxxxxxxxxxxxxxxxxxxxxxz",
"xxxxxxxxxxxxxxxxxxxxxxxxxxxxx66&o:#q,#744xxxxxxxxxxxxxxxxxxxxxxxz",
"xxxxxxxxxxxxxxxxxxxxxxxxxxxxxx66&olX:.xxxxxxxxxxxxxxxxxxxxxxxxxxz",
"xxxxxxxxxxxxxxxxxxxxxxxxxxxxxx 6&l-e:.xxxxxxxxxxxxxxxxxxxxxxxxxxz",
"xxxxxxxxxxxxxxxxxxxxxxxxxxxxxx<<l@-e:.xxxxxxxxxxxxxxxxxxxxxxxxxxz",
"xxxxxxxxxxxxxxxxxxxxxxxxxxxxxxxl&OOllllxxxxxxxxxxxxxxxxxxxxxxxxxz",
"xxxxxxxxxxxxxxxxxxxxxxxxxxxxxxxllllllllxxxxxxxxxxxxxxxxxxxxxxxxxz",
"xxxxxxxxxxxxxxxxxxxxxxxxxxxxxx$,ulOOOX.xxxxxxxxxxxxxxxxxxxxxxxxxz",
"xxxxxxxxxxxxxxxxxxxxxxxxxxxxxx$u,****oX.xxxxxxxxxxxxxxxxxxxxxxxxz",
"xxxxxxxxxxxxxxxxxxxxxxxxxxxxx$ l** +OXy.xxxxxxxxxxxxxxxxxxxxxxxxz",
"xxxxxxxxxxxxxxxxxxxxxxxxxxxxx$@**0 ooXX.xxxxxxxxxxxxxxxxxxxxxxxxz",
"xxxxxxxxxxxxxxxxxxxxxxxxxxxxx$t* - +oOX.xxxxxxxxxxxxxxxxxxxxxxxxz",
"xxxxxxxxxxxxxxxxxxxxxxxxxxxxx@$@-@ +oOX.xxxxxxxxxxxxxxxxxxxxxxxxz",
"xxxxxxxxxxxxxxxxxxxxxxxxxxxxxx$t05 i+oXxxxxxxxxxxxxxxxxxxxxxxxxxz",
"xxxxxxxxxxxxxxxxxxxxxxxxxxxxxx@$$O++io>xxxxxxxxxxxxxxxxxxxxxxxxxz",
"xxxxxxxxxxxxxxxxxxxxxxxxxxxxxx5t$lXOoo>xxxxxxxxxxxxxxxxxxxxxxxxxz",
"xxxxxxxxxxxxxxxxxxxxxxxxxxxxxxxkl+  +oXxxxxxxxxxxxxxxxxxxxxxxxxxz",
"xxxxxxxxxxxxxxxxxxxxxxxxxxxxxxx8l+ +oOlxxxxxxxxxxxxxxxxxxxxxxxxxz",
"xxxxxxxxxxxxxxxxxxxxxxxxxxxxxx0 *+ +o.X.xxxxxxxxxxxxxxxxxxxxxxxxz",
"xxxxxxxxxxxxxxxxxxxxxxxxxxxxxx  *+ oO.X.xxxxxxxxxxxxxxxxxxxxxxxxz",
"xxxxxxxxxxxxxxxxxxxxxxxxxxxxxx rro:::XX.xxxxxxxxxxxxxxxxxxxxxxxxz",
"xxxxxxxxxxxxxxxxxxxxxxxxxxxxxx r<<--XXX.xxxxxxxxxxxxxxxxxxxxxxxxz",
"xxxxxxxxxxxxxxxxxxxxxxxxxxxxxxX5<<0yXXX.xxxxxxxxxxxxxxxxxxxxxxxxz",
"xxxxxxxxxxxxxxxxxxxxxxxxxxxxxx+ &&yllllxxxxxxxxxxxxxxxxxxxxxxxxxz",
"xxxxxxxxxxxxxxxxxxxxxxxxxxxxxx+@->..XX.xxxxxxxxxxxxxxxxxxxxxxxxxz",
"xxxxxxxxxxxxxxxxxxxxxxxxxxxxxxx& @o-O>.xxxxxxxxxxxxxxxxxxxxxxxxxz",
"xxxxxxxxxxxxxxxxxxxxxxxxxxxxxxx&   @O>.xxxxxxxxxxxxxxxxxxxxxxxxxz",
"xxxxxxxxxxxxxxxxxxxxxxxxxxxxxxx& @5>+>.xxxxxxxxxxxxxxxxxxxxxxxxxz",
"xxxxxxxxxxxxxxxxxxxxxxxxxxxxxxx+ @geX.xxxxxxxxxxxxxxxxxxxxxxxxxxz",
"xxxxxxxxxxxxxxxxxxxxxxxxxxxxxxxx+ @-O.xxxxxxxxxxxxxxxxxxxxxxxxxxz",
"xxxxxxxxxxxxxxxxxxxxxxxxxxxxxxx&@5OX..xxxxxxxxxxxxxxxxxxxxxxxxxxz",
"xxxxxxxxxxxxxxxxxxxxxxxxxxxxxxx&   @OO.xxxxxxxxxxxxxxxxxxxxxxxxxz",
"xxxxxxxxxxxxxxxxxxxxxxxxxxxxxxx+   oOO.xxxxxxxxxxxxxxxxxxxxxxxxxz",
"xxxxxxxxxxxxxxxxxxxxxxxxxxxxxxxx@@ooXX.xxxxxxxxxxxxxxxxxxxxxxxxxz",
"xxxxxxxxxxxxxxxxxxxxxxxxxxxxxxxxaa%%%lxxxxxxxxxxxxxxxxxxxxxxxxxxz",
"xxxxxxxxxxxxxxxxxxxxxxxxxxxxxxxx=133%lxxxxxxxxxxxxxxxxxxxxxxxxxxz",
"xxxxxxxxxxxxxxxxxxxxxxxxxxxxxxxx=1;3%lxxxxxxxxxxxxxxxxxxxxxxxxxxz",
"xxxxxxxxxxxxxxxxxxxxxxxxxxxxxxxxh1;pllxxxxxxxxxxxxxxxxxxxxxxxxxxz",
"xxxxxxxxxxxxxxxxxxxxxxxxxxxxxxxxx1%lpxxxxxxxxxxxxxxxxxxxxxxxxxxxz",
"xxxxxxxxxxxxxxxxxxxxxxxxxxxxxxxx=;;%lxxxxxxxxxxxxxxxxxxxxxxxxxxxz",
"xxxxxxxxxxxxxxxxxxxxxxxxxxxxxx==d=;3%lxxxxxxxxxxxxxxxxxxxxxxxxxxz",
"xxxxxxxxxxxxxxxxxxxxxxxxxxxx==1==;;;3lxxxxxxxxxxxxxxxxxxxxxxxxxxz",
"xxxxxxxxxxxxxxxxxxxxxxxxxxxx%%%%llllllxxxxxxxxxxxxxxxxxxxxxxxxxxz",
"zzzzzzzzzzzzzzzzzzzzzzzzzzzzzzzzzzzzzzzzzzzzzzzzzzzzzzzzzzzzzzzzz"
};
