/* XPM */
static char *left_walking_guard_081660768017[] = {
/* columns rows colors chars-per-pixel */
"65 65 64 1 ",
"  c #814B20",
". c #5B3913",
"X c #432C0F",
"o c #FF8D54",
"O c gray10",
"+ c #F58950",
"@ c #985729",
"# c #653E17",
"$ c #261A03",
"% c #78461C",
"& c #282828",
"* c #AAAAAA",
"= c #B36437",
"- c #00003F",
"; c #FF9D5C",
": c #4C350E",
"> c #353535",
", c gray49",
"< c #BC683B",
"1 c #535353",
"2 c #464646",
"3 c #D17943",
"4 c #A15C2E",
"5 c #39280A",
"6 c #000066",
"7 c #FF9558",
"8 c #00004C",
"9 c #AF6032",
"0 c #0000AD",
"q c #FFB98F",
"w c #717171",
"e c #E8814C",
"r c #DF7D48",
"t c #8D8D8D",
"y c #8F4F25",
"u c #646464",
"i c #0000A9",
"p c gray60",
"a c #C1C1C1",
"s c #C9713F",
"d c #00007F",
"f c #DDDDDD",
"g c #FFA56E",
"h c #FFB17E",
"j c #00009C",
"k c black",
"l c white",
"z c #B3008C",
"x c black",
"c c black",
"v c black",
"b c black",
"n c black",
"m c black",
"M c black",
"N c black",
"B c black",
"V c black",
"C c black",
"Z c black",
"A c black",
"S c black",
"D c black",
"F c black",
/* pixels */
"lllllllllllllllllllllllllllllllllllllllllllllllllllllllllllllllll",
"zzzzzzzzzzzzzzzzzzzzzzzzzzzzzzzzzzzzzzzzzzzzzzzzzzzzzzzzzzzzzzzzl",
"zzzzzzzzzzzzzzzzzzzzzzzzzzzzzzzzzzzzzzzzzzzzzzzzzzzzzzzzzzzzzzzzl",
"zzzzzzzzzzzzzzzzzzzzzzzzzzzzzzzzzzzzzzzzzzzzzzzzzzzzzzzzzzzzzzzzl",
"zzzzzzzzzzzzzzzzzzzzzzzzzzzzzzzzzzzzzzzzzzzzzzzzzzzzzzzzzzzzzzzzl",
"zzzzzzzzzzzzzzzzzzzzzzzzzzzzzzzzzzzzzzzzzzzzzzzzzzzzzzzzzzzzzzzzl",
"zzzzzzzzzzzzzzzzzzzzzzzzzzzzzzzzzzzzzzzzzzzzzzzzzzzzzzzzzzzzzzzzl",
"zzzzzzzzzzzzzzzzzzzzzzzzzzzzzzzzzzzzzzzzzzzzzzzzzzzzzzzzzzzzzzzzl",
"zzzzzzzzzzzzzzzzzzzzzzzzzzzzzzzzzzzzzzzzzzzzzzzzzzzzzzzzzzzzzzzzl",
"zzzzzzzzzzzzzzzzzzzzzzzzzzzzzzzzzzzzzzzzzzzzzzzzzzzzzzzzzzzzzzzzl",
"zzzzzzzzzzzzzzzzzzzzzzzzzzzzzzzzzzzzzzzzzzzzzzzzzzzzzzzzzzzzzzzzl",
"zzzzzzzzzzzzzzzzzzzzzzzzzzzzzzzzzzzzzzzzzzzzzzzzzzzzzzzzzzzzzzzzl",
"zzzzzzzzzzzzzzzzzzzzzzzzzzzzzzzzzzzzzzzzzzzzzzzzzzzzzzzzzzzzzzzzl",
"zzzzzzzzzzzzzzzzzzzzzzzzzzzzzzzzzzzzzzzzzzzzzzzzzzzzzzzzzzzzzzzzl",
"zzzzzzzzzzzzzzzzzzzzzzzzzzzzzzzzzzzzzzzzzzzzzzzzzzzzzzzzzzzzzzzzl",
"zzzzzzzzzzzzzzzzzzzzzzzzzzzzzzzzzzzzzzzzzzzzzzzzzzzzzzzzzzzzzzzzl",
"zzzzzzzzzzzzzzzzzzzzzzzzzzzzzzzzzzzzzzzzzzzzzzzzzzzzzzzzzzzzzzzzl",
"zzzzzzzzzzzzzzzzzzzzzzzzzz***,,wwzzzzzzzzzzzzzzzzzzzzzzzzzzzzzzzl",
"zzzzzzzzzzzzzzzzzzzzzzzzz*a,wwu111zzzzzzzzzzzzzzzzzzzzzzzzzzzzzzl",
"zzzzzzzzzzzzzzzzzzzzzzzzz*,11122>>2zzzzzzzzzzzzzzzzzzzzzzzzzzzzzl",
"zzzzzzzzzzzzzzzzzzzzzzzzz,,*k122>>&zzzzzzzzzzzzzzzzzzzzzzzzzzzzzl",
"zzzzzzzzzzzzzzzzzzzzzzzzfa*kk12>>>&zzzzzzzzzzzzzzzzzzzzzzzzzzzzzl",
"zzzzzzzzzzzzzzzzzzzzzzzzzzt**pt,u2>&zzzzzzzzzzzzzzzzzzzzzzzzzzzzl",
"zzzzzzzzzzzzzzzzzzzzzzzzzz9**pt,,u2>&zzzzzzzzzzzzzzzzzzzzzzzzzzzl",
"zzzzzzzzzzzzzzzzzzzzzzzzzzqqkkkkkkzzzzzzzzzzzzzzzzzzzzzzzzzzzzzzl",
"zzzzzzzzzzzzzzzzzzzzzzzzzzqqk9   %zzzzzzzzzzzzzzzzzzzzzzzzzzzzzzl",
"zzzzzzzzzzzzzzzzzzzzzzzzzzgkh73<@%zzzzzzzzzzzzzzzzzzzzzzzzzzzzzzl",
"zzzzzzzzzzzzzzzzzzzzzzzzzzzz&&&kkkkzzzzzzzzzzzzzzzzzzzzzzzzzzzzzl",
"zzzzzzzzzzzzzzzzzzzzzzzzzzzf&&&kkkk:zzzzzzzzzzzzzzzzzzzzzzzzzzzzl",
"zzzzzzzzzzzzzzzzzzzzzzzzz;;++s99..k&kzzzzzzzzzzzzzzzzzzzzzzzzzzzl",
"zzzzzzzzzzzzzzzzzzzzzzzz;;3eeees  kk.9zzzzzzzzzzzzzzzzzzzzzzzzzzl",
"zzzzzzzzzzzzzzzzzzzzzzz;;+ ===== Xkk. zzzzzzzzzzzzzzzzzzzzzzzzzzl",
"zzzzzzzzzzzzzzzzzzzzzzz;+<. ==== $k..:zzzzzzzzzzzzzzzzzzzzzzzzzzl",
"zzzzzzzzzzzzzzzzzzzzzzz;++@. 444XkXX.:zzzzzzzzzzzzzzzzzzzzzzzzzzl",
"zzzzzzzzzzzzzzzzzzzzzzz;++@. 44%kk..$.zzzzzzzzzzzzzzzzzzzzzzzzzzl",
"zzzzzzzzzzzzzzzzzzzzzzz+++..  %kk ..$:zzzzzzzzzzzzzzzzzzzzzzzzzzl",
"zzzzzzzzzzzzzzzzzzzzzzzz+.@.  kk ...$:zzzzzzzzzzzzzzzzzzzzzzzzzzl",
"zzzzzzzzzzzzzzzzzzzzzzz+<<@.:kk  ..$.:zzzzzzzzzzzzzzzzzzzzzzzzzzl",
"zzzzzzzzzzzzzzzzzzzzzzzz+34.kkkkkkkk.:zzzzzzzzzzzzzzzzzzzzzzzzzzl",
"zzzzzzzzzzzzzzzzzzzzzzz++3.Okkkkkkkk##zzzzzzzzzzzzzzzzzzzzzzzzzzl",
"zzzzzzzzzzzzzzzzzzzzzzz++3.X#####:###%zzzzzzzzzzzzzzzzzzzzzzzzzzl",
"zzzzzzzzzzzzzzzzzzzzzzz+34.X#    #  #zzzzzzzzzzzzzzzzzzzzzzzzzzzl",
"zzzzzzzzzzzzzzzzzzzzzzzyy.X.     .  #zzzzzzzzzzzzzzzzzzzzzzzzzzzl",
"zzzzzzzzzzzzzzzzzzzzzzzq==.#     5  Xzzzzzzzzzzzzzzzzzzzzzzzzzzzl",
"zzzzzzzzzzzzzzzzzzzzzzz773.#     5  Xzzzzzzzzzzzzzzzzzzzzzzzzzzzl",
"zzzzzzzzzzzzzzzzzzzzzzz77@...5555$5#Xzzzzzzzzzzzzzzzzzzzzzzzzzzzl",
"zzzzzzzzzzzzzzzzzzzzzzzz73@@@y%X$$$$zzzzzzzzzzzzzzzzzzzzzzzzzzzzl",
"zzzzzzzzzzzzzzzzzzzzzzzzooo@@@%%#XX$zzzzzzzzzzzzzzzzzzzzzzzzzzzzl",
"zzzzzzzzzzzzzzzzzzzzzzzzoooo<<%%XXX$zzzzzzzzzzzzzzzzzzzzzzzzzzzzl",
"zzzzzzzzzzzzzzzzzzzzzzzoooo<<@%XXXXXzzzzzzzzzzzzzzzzzzzzzzzzzzzzl",
"zzzzzzzzzzzzzzzzzzzzzzzooorr@%XX.XXXzzzzzzzzzzzzzzzzzzzzzzzzzzzzl",
"zzzzzzzzzzzzzzzzzzzzzzzooooor;@..XXXzzzzzzzzzzzzzzzzzzzzzzzzzzzzl",
"zzzzzzzzzzzzzzzzzzzzzzzoooo@kkkkXXXXzzzzzzzzzzzzzzzzzzzzzzzzzzzzl",
"zzzzzzzzzzzzzzzzzzzzzzzzoo@-kkkkkXXzzzzzzzzzzzzzzzzzzzzzzzzzzzzzl",
"zzzzzzzzzzzzzzzzzzzzzzzzzr@--kkkkXXzzzzzzzzzzzzzzzzzzzzzzzzzzzzzl",
"zzzzzzzzzzzzzzzzzzzzzzzzzzz-6-kkkkXXzzzzzzzzzzzzzzzzzzzzzzzzzzzzl",
"zzzzzzzzzzzzzzzzzzzzzzzzzzzz-6kkOOOXzzzzzzzzzzzzzzzzzzzzzzzzzzzzl",
"zzzzzzzzzzzzzzzzzzzzzzzzzzzzzk-kOOOXzzzzzzzzzzzzzzzzzzzzzzzzzzzzl",
"zzzzzzzzzzzzzzzzzzzzzzzzzzzz06kOOOOXzzzzzzzzzzzzzzzzzzzzzzzzzzzzl",
"zzzzzzzzzzzzzzzzzzzzzzzzzzz06kOOOOkkzzzzzzzzzzzzzzzzzzzzzzzzzzzzl",
"zzzzzzzzzzzzzzzzzzzzzzzzzzzj6OOOOkkkzzzzzzzzzzzzzzzzzzzzzzzzzzzzl",
"zzzzzzzzzzzzzzzzzzzzzzzzzzz8kOO88kkkzzzzzzzzzzzzzzzzzzzzzzzzzzzzl",
"zzzzzzzzzzzzzzzzzzzzzzzzzzzzz00088kkkzzzzzzzzzzzzzzzzzzzzzzzzzzzl",
"zzzzzzzzzzzzzzzzzzzzzzzzzzzz6ddii8kkkzzzzzzzzzzzzzzzzzzzzzzzzzzzl",
"zzzzzzzzzzzzzzzzzzzzzzzzzzzzzz----kkkzzzzzzzzzzzzzzzzzzzzzzzzzzzl"
};
