/* XPM */
static char *left_running_guard_021660768017[] = {
/* columns rows colors chars-per-pixel */
"65 65 64 1 ",
"  c black",
". c #814B20",
"X c #C9713F",
"o c #8F4F25",
"O c #353535",
"+ c #4C350E",
"@ c #B36437",
"# c gray10",
"$ c #BC683B",
"% c #D17943",
"& c #FF9558",
"* c #FFA56E",
"= c #DF7D48",
"- c #F58950",
"; c #AF6032",
": c #985729",
"> c #A15C2E",
", c #5B3913",
"< c #464646",
"1 c #432C0F",
"2 c #78461C",
"3 c #282828",
"4 c #717171",
"5 c #535353",
"6 c #E8814C",
"7 c #FFB17E",
"8 c #FF8D54",
"9 c #653E17",
"0 c #00004C",
"q c #39280A",
"w c gray49",
"e c #000073",
"r c #0000C1",
"t c #261A03",
"y c #AAAAAA",
"u c #FF9D5C",
"i c #0000AD",
"p c #00007F",
"a c #000066",
"s c #8D8D8D",
"d c #C1C1C1",
"f c #646464",
"g c #00008C",
"h c #FFB98F",
"j c #0000E5",
"k c #00003F",
"l c gray99",
"z c gray60",
"x c #DDDDDD",
"c c gray71",
"v c None",
"b c None",
"n c black",
"m c black",
"M c black",
"N c black",
"B c black",
"V c black",
"C c black",
"Z c black",
"A c black",
"S c black",
"D c black",
"F c black",
/* pixels */
"bbbbbbbbbbbbbbbbbbbbbbbbbbbbbbbbbbbbbbbbbbbbbbbbbbbbbbbbbbbbbbbbv",
"bbbbbbbbbbbbbbbbbbbbbbbbbbbbbbbbbbbbbbbbbbbbbbbbbbbbbbbbbbbbbbbbv",
"bbbbbbbbbbbbbbbbbbbbbbbbbbbbbbbbbbbbbbbbbbbbbbbbbbbbbbbbbbbbbbbbv",
"bbbbbbbbbbbbbbbbbbbbbbbbbbbbbbbbbbbbbbbbbbbbbbbbbbbbbbbbbbbbbbbbv",
"bbbbbbbbbbbbbbbbbbbbbbbbbbbbbbbbbbbbbbbbbbbbbbbbbbbbbbbbbbbbbbbbv",
"bbbbbbbbbbbbbbbbbbbbbbbbbbbbbbbbbbbbbbbbbbbbbbbbbbbbbbbbbbbbbbbbv",
"bbbbbbbbbbbbbbbbbbbbbbbbbbbbbbbbbbbbbbbbbbbbbbbbbbbbbbbbbbbbbbbbv",
"bbbbbbbbbbbbbbbbbbbbbbbbbbbbbbbbbbbbbbbbbbbbbbbbbbbbbbbbbbbbbbbbv",
"bbbbbbbbbbbbbbbbbbbbbbbbbbbbbbbbbbbbbbbbbbbbbbbbbbbbbbbbbbbbbbbbv",
"bbbbbbbbbbbbbbbbbbbbbbbbbbbbbbbbbbbbbbbbbbbbbbbbbbbbbbbbbbbbbbbbv",
"bbbbbbbbbbbbbbbbbbbbbbbbbbbbbbbbbbbbbbbbbbbbbbbbbbbbbbbbbbbbbbbbv",
"bbbbbbbbbbbbbbbbbbbbbbbbbbbbbbbbbbbbbbbbbbbbbbbbbbbbbbbbbbbbbbbbv",
"bbbbbbbbbbbbbbbbbbbbbbbbbbbbbbbbbbbbbbbbbbbbbbbbbbbbbbbbbbbbbbbbv",
"bbbbbbbbbbbbbbbbbbbbbbbbbbbbbbbbbbbbbbbbbbbbbbbbbbbbbbbbbbbbbbbbv",
"bbbbbbbbbbbbbbbbbbbbbbbbbbbbbbbbbbbbbbbbbbbbbbbbbbbbbbbbbbbbbbbbv",
"bbbbbbbbbbbbbbbbbbbbbbbbbbbbbbbbbbbbbbbbbbbbbbbbbbbbbbbbbbbbbbbbv",
"bbbbbbbbbbbbbbbbbbbbbbbbbbyww4f5<bbbbbbbbbbbbbbbbbbbbbbbbbbbbbbbv",
"bbbbbbbbbbbbbbbbbbbbbbbbbysw5<<<3<bbbbbbbbbbbbbbbbbbbbbbbbbbbbbbv",
"bbbbbbbbbbbbbbbbbbbbbbbbb4w55<<<O3bbbbbbbbbbbbbbbbbbbbbbbbbbbbbbv",
"bbbbbbbbbbbbbbbbbbbbbbbb4444<<##O3bbbbbbbbbbbbbbbbbbbbbbbbbbbbbbv",
"bbbbbbbbbbbbbbbbbbbbbbbsddyzw433O3<bbbbbbbbbbbbbbbbbbbbbbbbbbbbbv",
"bbbbbbbbbbbbbbbbbbbbbbbbOi@gi<445<3bbbbbbbbbbbbbbbbbbbbbbbbbbbbbv",
"bbbbbbbbbbbbbbbbbbbbbbbbO=h77;<OOOOObbbbbbbbbbbbbbbbbbbbbbbbbbbbv",
"bbbbbbbbbbbbbbbbbbbbbbbbb@uu6; ++bbbbbbbbbbbbbbbbbbbbbbbbbbbbbbbv",
"bbbbbbbbbbbbbbbbbbbbbbbbbo=$u;#o+bbbbbbbbbbbbbbbbbbbbbbbbbbbbbbbv",
"bbbbbbbbbbbbbbbbbbbbbbbbb@*=5#o@o+bbbbbbbbbbbbbbbbbbbbbbbbbbbbbbv",
"bbbbbbbbbbbbbbbbbbbbbbbbbbb oo8=   bbbbbbbbbbbbbbbbbbbbbbbbbbbbbv",
"bbbbbbbbbbbbbbbbbbbbbbbbbb  7*=5c   bbbbbbbbbbbbbbbbbbbbbbbbbbbbv",
"bbbbbbbbbbbbbbbbbbbbbbbbb.# 7= l5 ...+bbbbbbbbbbbbbbbbbbbbbbbbbbv",
"bbbbbbbbbbbbbbbbbbbbbbbb.XO , % t.&&%@+bbbbbbbbbbbbbbbbbbbbbbbbbv",
"bbbbbbbbbbbbbbbbbbbbbbbbX+Oo.--&&&&;@@@+bbbbbbbbbbbbbbbbbbbbbbbbv",
"bbbbbbbbbbbbbbbbbbbbbbbb:&oO.X>::&>%@@@.+bbbbbbbbbbbbbbbbbbbbbbbv",
"bbbbbbbbbbbbbbbbbbbbbbbb$&;O.>&&:&,:%%.@.bbbbbbbbbbbbbbbbbbbbbbbv",
"bbbbbbbbbbbbbbbbbbbbbbbb;;-OO:@@:%2,:.%@@.bbbbbbbbbbbbbbbbbbbbbbv",
"bbbbbbbbbbbbbbbbbbbbbbbbb>-oOX::%.2,++.@..bbbbbbbbbbbbbbbbbbbbbbv",
"bbbbbbbbbbbbbbbbbbbbbbbbb.%%OOX%%.2,,:-%@.bbbbbbbbbbbbbbbbbbbbbbv",
"bbbbbbbbbbbbbbbbbbbbbbb2%+%%.O33..2,,X--@qbbbbbbbbbbbbbbbbbbbbbbv",
"bbbbbbbbbbbbbbbbbbbbbX&&t.OOxsO#####o--@,bbbbbbbbbbbbbbbbbbbbbbbv",
"bbbbbbbbbbbbbbbbbbbbbX&X&1OOyfO#####$$2oqbbbbbbbbbbbbbbbbbbbbbbbv",
"bbbbbbbbbbbbbbbbbbbbbX&Xbbt>%.%;.o2h8@;,bbbbbbbbbbbbbbbbbbbbbbbbv",
"bbbbbbbbbbbbbbbbbbbbbbbbbb9>->==XXo&$$;qbbbbbbbbbbbbbbbbbbbbbbbbv",
"bbbbbbbbbbbbbbbbbbbbbbbbbb>6->==XXX=;;,bbbbbbbbbbbbbbbbbbbbbbbbbv",
"bbbbbbbbbbbbbbbbbbbbbbbbbb6u->===XX2,,bbbbbbbbbbbbbbbbbbbbbbbbbbv",
"bbbbbbbbbbbbbbbbbbbbbbbbbbooo..:=XX::,,bbbbbbbbbbbbbbbbbbbbbbbbbv",
"bbbbbbbbbbbbbbbbbbbbbbbbbb@===;@1111111bbbbbbbbbbbbbbbbbbbbbbbbbv",
"bbbbbbbbbbbbbbbbbbbbbbbbb6***&XXXX;$::9bbbbbbbbbbbbbbbbbbbbbbbbbv",
"bbbbbbbbbbbbbbbbbbbbbbbbb****&XX88-$$oqbbbbbbbbbbbbbbbbbbbbbbbbbv",
"bbbbbbbbbbbbbbbbbbbbbbbb6**7*&>X-8-%$oqbbbbbbbbbbbbbbbbbbbbbbbbbv",
"bbbbbbbbbbbbbbbbbbbbbbbb****66>+%-86$o+bbbbbbbbbbbbbbbbbbbbbbbbbv",
"bbbbbbbbbbbbbbbbbbbbbbbb*77**X++XX%%>.+bbbbbbbbbbbbbbbbbbbbbbbbbv",
"bbbbbbbbbbbbbbbbbbbbbbbb*8=XX*>$$;;-99tbbbbbbbbbbbbbbbbbbbbbbbbbv",
"bbbbbbbbbbbbbbbbbbbbbbbbb=$$XX$+$$$$-@bbbbbbbbbbbbbbbbbbbbbbbbbbv",
"bbbbbbbbbbbbbbbbbbbbbbbbbb2$2oo+$.oo9oo+bbbbbbbbbbbbbbbbbbbbbbbbv",
"bbbbbbbbbbbbbbbbbbbbbbbbbbbboo++ .oo>911bbbbbbbbbbbbbbbbbbbbbbbbv",
"bbbbbbbbbbbbbbbbbbbbbbbbbbbbbbb  +..29+1bbbbbbbbbbbbbbbbbbbbbbbbv",
"bbbbbbbbbbbbbbbbbbbbbbbbbbbbbbbbb####   bbbbbbbbbbbbbbbbbbbbbbbbv",
"bbbbbbbbbbbbbbbbbbbbbbbbbbbbbbbbbb00    bbbbbbbbbbbbbbbbbbbbbbbbv",
"bbbbbbbbbbbbbbbbbbbbbbbbbbbbbbbbbbe00   bbbbbbbbbbbbbbbbbbbbbbbbv",
"bbbbbbbbbbbbbbbbbbbbbbbbbbbbbbbbbbbgpe  bbbbbbbbbbbbbbbbbbbbbbbbv",
"bbbbbbbbbbbbbbbbbbbbbbbbbbbbbbbbbbbkr   bbbbbbbbbbbbbbbbbbbbbbbbv",
"bbbbbbbbbbbbbbbbbbbbbbbbbbbbbbbbbbb3ep0  bbbbbbbbbbbbbbbbbbbbbbbv",
"bbbbbbbbbbbbbbbbbbbbbbbbbbbbbbbbbb1rjie# bbbbbbbbbbbbbbbbbbbbbbbv",
"bbbbbbbbbbbbbbbbbbbbbbbbbbbbbbbberraa##  bbbbbbbbbbbbbbbbbbbbbbbv",
"bbbbbbbbbbbbbbbbbbbbbbbbbbbbbbbb3ap#  OOObbbbbbbbbbbbbbbbbbbbbbbv",
"vvvvvvvvvvvvvvvvvvvvvvvvvvvvvvvvvvvvvvvvvvvvvvvvvvvvvvvvvvvvvvvvv"
};
