/* XPM */
static char *left_running_guard_011660768017[] = {
/* columns rows colors chars-per-pixel */
"65 65 64 1 ",
"  c #D17943",
". c #814B20",
"X c #00003F",
"o c #FF8D54",
"O c #FFA56E",
"+ c gray10",
"@ c #653E17",
"# c #FF9558",
"$ c #A15C2E",
"% c #C9713F",
"& c #8F4F25",
"* c #AF6032",
"= c #464646",
"- c #985729",
"; c #353535",
": c #78461C",
"> c #F58950",
", c #5B3913",
"< c #FF9D5C",
"1 c #DF7D48",
"2 c #B36437",
"3 c #4C350E",
"4 c #282828",
"5 c #BC683B",
"6 c #00007F",
"7 c #535353",
"8 c #0000AD",
"9 c #432C0F",
"0 c #646464",
"q c gray49",
"w c #E8814C",
"e c #39280A",
"r c #AAAAAA",
"t c #000059",
"y c #717171",
"u c #000073",
"i c #000066",
"p c #FFB17E",
"a c #00008C",
"s c #FFB98F",
"d c gray82",
"f c #C1C1C1",
"g c gray60",
"h c #8D8D8D",
"j c #0000B5",
"k c #261A03",
"l c gray71",
"z c black",
"x c white",
"c c #B3008C",
"v c black",
"b c black",
"n c black",
"m c black",
"M c black",
"N c black",
"B c black",
"V c black",
"C c black",
"Z c black",
"A c black",
"S c black",
"D c black",
"F c black",
/* pixels */
"ccccccccccccccccccccccccccccccccccccccccccccccccccccccccccccccccx",
"ccccccccccccccccccccccccccccccccccccccccccccccccccccccccccccccccx",
"ccccccccccccccccccccccccccccccccccccccccccccccccccccccccccccccccx",
"ccccccccccccccccccccccccccccccccccccccccccccccccccccccccccccccccx",
"ccccccccccccccccccccccccccccccccccccccccccccccccccccccccccccccccx",
"ccccccccccccccccccccccccccccccccccccccccccccccccccccccccccccccccx",
"ccccccccccccccccccccccccccccccccccccccccccccccccccccccccccccccccx",
"ccccccccccccccccccccccccccccccccccccccccccccccccccccccccccccccccx",
"ccccccccccccccccccccccccccccccccccccccccccccccccccccccccccccccccx",
"ccccccccccccccccccccccccccccccccccccccccccccccccccccccccccccccccx",
"ccccccccccccccccccccccccccccccccccccccccccccccccccccccccccccccccx",
"ccccccccccccccccccccccccccccccccccccccccccccccccccccccccccccccccx",
"ccccccccccccccccccccccccccccccccccccccccccccccccccccccccccccccccx",
"ccccccccccccccccccccccccccccccccccccccccccccccccccccccccccccccccx",
"ccccccccccccccccccccccccccccccccccccccccccccccccccccccccccccccccx",
"ccccccccccccccccccccccccccccccccccccccccccccccccccccccccccccccccx",
"ccccccccccccccccccccccccccccccccccccccccccccccccccccccccccccccccx",
"ccccccccccccccccccccccccccrqqy07=cccccccccccccccccccccccccccccccx",
"cccccccccccccccccccccccccrq00===4=ccccccccccccccccccccccccccccccx",
"cccccccccccccccccccccccccq007===;4ccccccccccccccccccccccccccccccx",
"ccccccccccccccccccccccccyhy07==++;ccccccccccccccccccccccccccccccx",
"cccccccccccccccccccccccgffrrgqy4+;=cccccccccccccccccccccccccccccx",
"cccccccccccccccccccccccc;8<5a8=y77=cccccccccccccccccccccccccccccx",
"ccccccccccccccccccccccccc1o<p1*====;ccccccccccccccccccccccccccccx",
"ccccccccccccccccccccccccc21<<w*z3cccccccccccccccccccccccccccccccx",
"ccccccccccccccccccccccccc&551<*+3cccccccccccccccccccccccccccccccx",
"ccccccccccccccccccccccccc%1O#7+&3zzcccccccccccccccccccccccccccccx",
"cccccccccccccccccccccccccc+zpO17q7zzccccccccccccccccccccccccccccx",
"ccccccccccccccccccccccccc.+zp1&qdz+..3ccccccccccccccccccccccccccx",
"ccccccccccccccccccccccccc%4z,z+zk*##  &@ccccccccccccccccccccccccx",
"cccccccccccccccccccccccc%*;@z>>#####  2-@cccccccccccccccccccccccx",
"ccccccccccccccccccccccc%%#.4$>>$$&  % %$$,ccccccccccccccccccccccx",
"ccccccccccccccccccccccc%5#>4;>>5#%.@@--.$,ccccccccccccccccccccccx",
"cccccccccccccccccccccc%::#>.4;>22%...@@-..,cccccccccccccccccccccx",
"cccccccccccccccccccccso%:$>%:4;>9@ ..c--..,cccccccccccccccccccccx",
"ccccccccccccccccccccs<<-:.  *:4;  $..c--.@3cccccccccccccccccccccx",
"cccccccccccccccccccc<<o 33$ %*:44;.@@c--&@3cccccccccccccccccccccx",
"cccccccccccccccccccccw $3.+;ld7+++zzcc&:3@9cccccccccccccccccccccx",
"cccccccccccccccccccccccccc+;r0=+++zzcc2O2eecccccccccccccccccccccx",
"cccccccccccccccccccccccccc$$& $*.@@,,cs#1*ccccccccccccccccccccccx",
"cccccccccccccccccccccccccc$%&    $$@,:111*ccccccccccccccccccccccx",
"cccccccccccccccccccccccccc&%2>oo  $$@:***cccccccccccccccccccccccx",
"cccccccccccccccccccccccccc&%2>oooo  $@:cccccccccccccccccccccccccx",
"cccccccccccccccccccccccccc&&   5*$&$@:ccccccccccccccccccccccccccx",
"ccccccccccccccccccccccccccc9 ooooo$993ccccccccccccccccccccccccccx",
"ccccccccccccccccccccccccccc*o#ooo  &eeccccccccccccccccccccccccccx",
"ccccccccccccccccccccccccccc%#OO<  5&ezccccccccccccccccccccccccccx",
"cccccccccccccccccccccccccccwOOO<o &,ecccccccccccccccccccccccccccx",
"cccccccccccccccccccccccccc #OOOoOw&,9cccccccccccccccccccccccccccx",
"ccccccccccccccccccccccccccwOOOOO%5,.@@ccccccccccccccccccccccccccx",
"ccccccccccccccccccccccccc #OOO%#w,$..9@cccccccccccccccccccccccccx",
"ccccccccccccccccccccccccc #OOOO::-5 -.@@9cccccccccccccccccccccccx",
"ccccccccccccccccccccccccc ##o%oO--5o2-.9zzccccccccccccccccccccccx",
"ccccccccccccccccccccccccc ##oo.o:c- 22+++zzcccccccccccccccccccccx",
"ccccccccccccccccccccccccc& ***&::cccXuuX+z+cccccccccccccccccccccx",
"ccccccccccccccccccccccccccXuiXzzccccccutX+zzzcccccccccccccccccccx",
"ccccccccccccccccccccccccccX8iXzzccccccccXX+zzcccccccccccccccccccx",
"cccccccccccccccccccccccccciaXXzzcccccccc8X6zzcccccccccccccccccccx",
"ccccccccccccccccccccccccccX8aXzzcccccccc66zzzcccccccccccccccccccx",
"ccccccccccccccccccccccccccX8XXzzcccccc86ttzzccccccccccccccccccccx",
"cccccccccccccccccccccccccc86XzzcccccccttXXzzccccccccccccccccccccx",
"ccccccccccccccccccccccccX8j6Xzzzccccccccccccccccccccccccccccccccx",
"ccccccccccccccccccccccX6666Xzzzzccccccccccccccccccccccccccccccccx",
"ccccccccccccccccccccccXXXXXz;;;;ccccccccccccccccccccccccccccccccx",
"xxxxxxxxxxxxxxxxxxxxxxxxxxxxxxxxxxxxxxxxxxxxxxxxxxxxxxxxxxxxxxxxx"
};
