/* XPM */
static char *left_walking_guard_051660768017[] = {
/* columns rows colors chars-per-pixel */
"65 64 64 1 ",
"  c #D17943",
". c #FF9558",
"X c #5B3913",
"o c #FFA56E",
"O c #39280A",
"+ c #8F4F25",
"@ c #B36437",
"# c gray10",
"$ c #F58950",
"% c #814B20",
"& c #653E17",
"* c #FF9D5C",
"= c #00007F",
"- c #AF6032",
"; c #000066",
": c #282828",
"> c #0000AD",
", c #00003F",
"< c #535353",
"1 c #464646",
"2 c #E8814C",
"3 c #BC683B",
"4 c #C9713F",
"5 c #00004C",
"6 c gray49",
"7 c #FF8D54",
"8 c #353535",
"9 c #78461C",
"0 c #8D8D8D",
"q c #4C350E",
"w c #646464",
"e c #DF7D48",
"r c #FFB17E",
"t c gray60",
"y c #985729",
"u c #0000C1",
"i c #A15C2E",
"p c #FFB98F",
"a c #AAAAAA",
"s c #0000B5",
"d c #261A03",
"f c #717171",
"g c #DDDDDD",
"h c gray71",
"j c #432C0F",
"k c gray82",
"l c #C1C1C1",
"z c white",
"x c black",
"c c #B3008C",
"v c black",
"b c black",
"n c black",
"m c black",
"M c black",
"N c black",
"B c black",
"V c black",
"C c black",
"Z c black",
"A c black",
"S c black",
"D c black",
"F c black",
/* pixels */
"ccccccccccccccccccccccccccccccccccccccccccccccccccccccccccccccccz",
"ccccccccccccccccccccccccccccccccccccccccccccccccccccccccccccccccz",
"ccccccccccccccccccccccccccccccccccccccccccccccccccccccccccccccccz",
"ccccccccccccccccccccccccccccccccccccccccccccccccccccccccccccccccz",
"ccccccccccccccccccccccccccccccccccccccccccccccccccccccccccccccccz",
"ccccccccccccccccccccccccccccccccccccccccccccccccccccccccccccccccz",
"ccccccccccccccccccccccccccccccccccccccccccccccccccccccccccccccccz",
"ccccccccccccccccccccccccccccccccccccccccccccccccccccccccccccccccz",
"ccccccccccccccccccccccccccccccccccccccccccccccccccccccccccccccccz",
"ccccccccccccccccccccccccccccccccccccccccccccccccccccccccccccccccz",
"ccccccccccccccccccccccccccccccccccccccccccccccccccccccccccccccccz",
"ccccccccccccccccccccccccccccccccccccccccccccccccccccccccccccccccz",
"ccccccccccccccccccccccccccccccccccccccccccccccccccccccccccccccccz",
"ccccccccccccccccccccccccccccccccccccccccccccccccccccccccccccccccz",
"ccccccccccccccccccccccccccccccccccccccccccccccccccccccccccccccccz",
"ccccccccccccccccccccccccccccccccccccccccccccccccccccccccccccccccz",
"ccccccccccccccccccccccccccccchttt00fccccccccccccccccccccccccccccz",
"ccccccccccccccccccccccccccccak0w<<11<cccccccccccccccccccccccccccz",
"cccccccccccccccccccccccccccca0w<<<118<ccccccccccccccccccccccccccz",
"cccccccccccccccccccccccccccc66whx<1188ccccccccccccccccccccccccccz",
"ccccccccccccccccccccccccccgglt6xx<::::ccccccccccccccccccccccccccz",
"ccccccccccccccccccccccccccccc>+66f<1:::cccccccccccccccccccccccccz",
"ccccccccccccccccccccccccccccep.-q6f<1888ccccccccccccccccccccccccz",
"cccccccccccccccccccccccccccccp..xxXqOcccccccccccccccccccccccccccz",
"cccccccccccccccccccccccccccccp..x@yqOcccccccccccccccccccccccccccz",
"cccccccccccccccccccccccccccccoox @yqOcccccccccccccccccccccccccccz",
"ccccccccccccccccccccccccccccccx.%%xxxxccccccccccccccccccccccccccz",
"ccccccccccccccccccccccccccccccxxxxxxxxccccccccccccccccccccccccccz",
"ccccccccccccccccccccccccccccc:wax%%%XOccccccccccccccccccccccccccz",
"ccccccccccccccccccccccccccccc:6xooo7-XOcccccccccccccccccccccccccz",
"cccccccccccccccccccccccccccc:1xoo$4-X+Occcccccccccccccccccccccccz",
"cccccccccccccccccccccccccccc+17@o..$ X&&ccccccccccccccccccccccccz",
"cccccccccccccccccccccccccccc717@....--+&&cccccccccccccccccccccccz",
"cccccccccccccccccccccccccccc7+:..22 3-+&&cccccccccccccccccccccccz",
"ccccccccccccccccccccccccccccco@..2 -++X+&&ccccccccccccccccccccccz",
"ccccccccccccccccccccccccccccc@.72@@-&XX-&&ccccccccccccccccccccccz",
"ccccccccccccccccccccccccccc$o r.e@+j+XX++&ccccccccccccccccccccccz",
"ccccccccccccccccccccccccrr *..2**+xxxxx +&ccccccccccccccccccccccz",
"ccccccccccccccccccccccc3..@*****+xxxxxx +&ccccccccccccccccccccccz",
"ccccccccccccccccccccccc3..4   +++4i+9XXO+&ccccccccccccccccccccccz",
"cccccccccccccccccccccccc3  +++**$$4-+9XO&cccccccccccccccccccccccz",
"cccccccccccccccccccccccccccc$r$**$4-+9XO@cccccccccccccccccccccccz",
"cccccccccccccccccccccccccccc$*e**$4-+9XOccccccccccccccccccccccccz",
"cccccccccccccccccccccccccccc**4**y%XdddOccccccccccccccccccccccccz",
"ccccccccccccccccccccccccccc .@@@&&%%XXXXccccccccccccccccccccccccz",
"ccccccccccccccccccccccccccc ..3oo$4@@XOOccccccccccccccccccccccccz",
"cccccccccccccccccccccccccc  .. oo$$@@%%Occccccccccccccccccccccccz",
"cccccccccccccccccccccccccc ...2ioo$$@%%XOcccccccccccccccccccccccz",
"cccccccccccccccccccccccccc .22  oo$$@@%XOcccccccccccccccccccccccz",
"ccccccccccccccccccccccccc .2 3yX&ooo$$@XXcccccccccccccccccccccccz",
"ccccccccccccccccccccccccc...2 @%Ooo 4@+@XOccccccccccccccccccccccz",
"ccccccccccccccccccccccccc. ..eOOOOo 3+$@OXOcccccccccccccccccccccz",
"cccccccccccccccccccccccc oo+  %%Ocoo$$ O &OOccccccccccccccccccccz",
"cccccccccccccccccccccccc oo$-%%Occco    9Xxxccccccccccccccccccccz",
"cccccccccccccccccccccccc%  --XXOcccc3i%%XOxxxcccccccccccccccccccz",
"ccccccccccccccccccccccccc>>###xcccccc3%X##xxxcccccccccccccccccccz",
"ccccccccccccccccccccccccc>>,,#xcccccccc##,xxxxccccccccccccccccccz",
"ccccccccccccccccccccccccs>=;,#ccccccccc=,x,#xxxxccccccccccccccccz",
"ccccccccccccccccccccccccs>;5xxcccccccccc>;5x5##xxcccccccccccccccz",
"ccccccccccccccccccccccccs>#x5ccccccccccccc555;,#xcccccccccccccccz",
"cccccccccccccccccccccccc=;;#xcccccccccccccc=;5;,xcccccccccccccccz",
"cccccccccccccccccccccc==u=;,#xcccccccccccc==uu;xccccccccccccccccz",
"cccccccccccccccccccc==>==;;;,xcccccccccc==>==;,xccccccccccccccccz",
"cccccccccccccccccccc####xxxxxxcccccccccc####xxxcccccccccccccccccz"
};
