/* XPM */
static char *right_walking_guard_071660768017[] = {
/* columns rows colors chars-per-pixel */
"65 65 64 1 ",
"  c #DF7D48",
". c #FF9558",
"X c #282828",
"o c #A15C2E",
"O c #814B20",
"+ c gray10",
"@ c #353535",
"# c #AF6032",
"$ c #5B3913",
"% c #D17943",
"& c #C9713F",
"* c #432C0F",
"= c #B36437",
"- c #BC683B",
"; c #653E17",
": c #78461C",
"> c #8F4F25",
", c #464646",
"< c #000066",
"1 c #4C350E",
"2 c #535353",
"3 c #E8814C",
"4 c #F58950",
"5 c #00003F",
"6 c #FF8D54",
"7 c #0000AD",
"8 c #8D8D8D",
"9 c #717171",
"0 c gray60",
"q c #646464",
"w c #985729",
"e c gray49",
"r c #FFA56E",
"t c #C1C1C1",
"y c #AAAAAA",
"u c blue",
"i c #00008C",
"p c gray71",
"a c black",
"s c None",
"d c None",
"f c black",
"g c black",
"h c black",
"j c black",
"k c black",
"l c black",
"z c black",
"x c black",
"c c black",
"v c black",
"b c black",
"n c black",
"m c black",
"M c black",
"N c black",
"B c black",
"V c black",
"C c black",
"Z c black",
"A c black",
"S c black",
"D c black",
"F c black",
/* pixels */
"sssssssssssssssssssssssssssssssssssssssssssssssssssssssssssssssss",
"sdddddddddddddddddddddddddddddddddddddddddddddddddddddddddddddddd",
"sdddddddddddddddddddddddddddddddddddddddddddddddddddddddddddddddd",
"sdddddddddddddddddddddddddddddddddddddddddddddddddddddddddddddddd",
"sdddddddddddddddddddddddddddddddddddddddddddddddddddddddddddddddd",
"sdddddddddddddddddddddddddddddddddddddddddddddddddddddddddddddddd",
"sdddddddddddddddddddddddddddddddddddddddddddddddddddddddddddddddd",
"sdddddddddddddddddddddddddddddddddddddddddddddddddddddddddddddddd",
"sdddddddddddddddddddddddddddddddddddddddddddddddddddddddddddddddd",
"sdddddddddddddddddddddddddddddddddddddddddddddddddddddddddddddddd",
"sdddddddddddddddddddddddddddddddddddddddddddddddddddddddddddddddd",
"sdddddddddddddddddddddddddddddddddddddddddddddddddddddddddddddddd",
"sdddddddddddddddddddddddddddddddddddddddddddddddddddddddddddddddd",
"sdddddddddddddddddddddddddddddddddddddddddddddddddddddddddddddddd",
"sdddddddddddddddddddddddddddddddddddddddddddddddddddddddddddddddd",
"sdddddddddddddddddddddddddddddddddddddddddddddddddddddddddddddddd",
"sdddddddddddddddddddddddddddddddddddddddddddddddddddddddddddddddd",
"sdddddddddddddddddddddddddddddddd0888922ddddddddddddddddddddddddd",
"sddddddddddddddddddddddddddddddd0p89q,,,2dddddddddddddddddddddddd",
"sdddddddddddddddddddddddddddddd08892,@@@,dddddddddddddddddddddddd",
"sdddddddddddddddddddddddddddddd0e992,@@@,dddddddddddddddddddddddd",
"sdddddddddddddddddddddddddddddd09q22@XXX@@ddddddddddddddddddddddd",
"sdddddddddddddddddddddddddddddty8eq2,XXXddddddddddddddddddddddddd",
"sddddddddddddddddddddddddddddty8eq2,XXX>ddddddddddddddddddddddddd",
"sddddddddddddddddddddddddddddddd;;;1*a>&ddddddddddddddddddddddddd",
"sddddddddddddddddddddddddddddddd####>a>&ddddddddddddddddddddddddd",
"sddddddddddddddddddddddddddddddd...3%>a>ddddddddddddddddddddddddd",
"sdddddddddddddddddddddddddddddd,@@@X++adddddddddddddddddddddddddd",
"sdddddddddddddddddddddddddddddd,@@@X++qaddddddddddddddddddddddddd",
"sdddddddddddddddddddddddddddd%....3%=XXX>dddddddddddddddddddddddd",
"sddddddddddddddddddddddddddd%..r.r.XXX..-oddddddddddddddddddddddd",
"sdddddddddddddddddddddddddd%.3..42XXX.%33oodddddddddddddddddddddd",
"sdddddddddddddddddddddddddd%#...2XXO.=33-oodddddddddddddddddddddd",
"sdddddddddddddddddddddddddd.O .2XXO..O=3-oOdddddddddddddddddddddd",
"sdddddddddddddddddddddddddd.#O XXO  OO  -o$dddddddddddddddddddddd",
"sdddddddddddddddddddddddddd.#OOX$   =O 4o$$dddddddddddddddddddddd",
"sdddddddddddddddddddddddddd.#OXO     $ 4 O$dddddddddddddddddddddd",
"sdddddddddddddddddddddddddd&#1Xw   w $ -$oOdddddddddddddddddddddd",
"sdddddddddddddddddddddddddd&#1,@@@X+aa  -$ddddddddddddddddddddddd",
"sdddddddddddddddddddddddddd& 1,@@@X+aa%%-O$dddddddddddddddddddddd",
"sddddddddddddddddddddddddddw&>==;=>>;1##-O$dddddddddddddddddddddd",
"sdddddddddddddddddddddddddddd==4% 4%o1:##o$dddddddddddddddddddddd",
"sdddddddddddddddddddddddddddd=4.%.4%%o:##o:dddddddddddddddddddddd",
"sdddddddddddddddddddddddddddd=4.=.4%%o$##O>dddddddddddddddddddddd",
"sdddddddddddddddddddddddddddd=4.>.4%%oO$$> dddddddddddddddddddddd",
"sdddddddddddddddddddddddddddd-o:1*;;;;*$:. dddddddddddddddddddddd",
"sdddddddddddddddddddddddddddd-&:;&-33=;$: wdddddddddddddddddddddd",
"sdddddddddddddddddddddddddddd-&:oo3 &oo:**ddddddddddddddddddddddd",
"sddddddddddddddddddddddddddddd oOo3  &oO;**dddddddddddddddddddddd",
"sddddddddddddddddddddddddddddd #Oooo  =o;**dddddddddddddddddddddd",
"sddddddddddddddddddddddddddddd-&O$o::::1o1*dddddddddddddddddddddd",
"sddddddddddddddddddddddddddddd-6O$6666#&11*dddddddddddddddddddddd",
"sddddddddddddddddddddddddddddd-&O#6O*&&&;1ddddddddddddddddddddddd",
"sddddddddddddddddddddddddddddd66O77i5=:&**ddddddddddddddddddddddd",
"sddddddddddddddddddddddddddddd6w577<5a$**dddddddddddddddddddddddd",
"sdddddddddddddddddddddddddddddd77<<5aa$*ddddddddddddddddddddddddd",
"sddddddddddddddddddddddddddddd<<<75+aaadddddddddddddddddddddddddd",
"sddddddddddddddddddddddddddddd++<<5+adddddddddddddddddddddddddddd",
"sddddddddddddddddddddddddddddaa++5aaddddddddddddddddddddddddddddd",
"sddddddddddddddddddddddddddddaa+++aaadddddddddddddddddddddddddddd",
"sddddddddddddddddddddddddddddaaa+++aadddddddddddddddddddddddddddd",
"sddddddddddddddddddddddddddddd7+aa++aaddddddddddddddddddddddddddd",
"sddddddddddddddddddddddddddddu<5aa++aaddddddddddddddddddddddddddd",
"sdddddddddddddddddddddddddddd7<5aaaaadddddddddddddddddddddddddddd",
"sdddddddddddddddddddddddddddd<<5aaaaaaddddddddddddddddddddddddddd"
};
