/* XPM */
static char *right_walking_guard_051660768017[] = {
/* columns rows colors chars-per-pixel */
"65 64 64 1 ",
"  c #DF7D48",
". c #4C350E",
"X c #814B20",
"o c #282828",
"O c #FF9558",
"+ c #C9713F",
"@ c #353535",
"# c #FF9D5C",
"$ c #8F4F25",
"% c #5B3913",
"& c gray10",
"* c #BC683B",
"= c #A15C2E",
"- c #B36437",
"; c #AF6032",
": c #D17943",
"> c #00003F",
", c #653E17",
"< c #E8814C",
"1 c #464646",
"2 c #985729",
"3 c #00004C",
"4 c #535353",
"5 c #78461C",
"6 c #0000AD",
"7 c #F58950",
"8 c #8D8D8D",
"9 c #000066",
"0 c #717171",
"q c #AAAAAA",
"w c #FFA56E",
"e c #00008C",
"r c #432C0F",
"t c #646464",
"y c #00007F",
"u c gray49",
"i c #000073",
"p c gray60",
"a c #C1C1C1",
"s c #FF8D54",
"d c white",
"f c black",
"g c #B3008C",
"h c black",
"j c black",
"k c black",
"l c black",
"z c black",
"x c black",
"c c black",
"v c black",
"b c black",
"n c black",
"m c black",
"M c black",
"N c black",
"B c black",
"V c black",
"C c black",
"Z c black",
"A c black",
"S c black",
"D c black",
"F c black",
/* pixels */
"dgggggggggggggggggggggggggggggggggggggggggggggggggggggggggggggggg",
"dgggggggggggggggggggggggggggggggggggggggggggggggggggggggggggggggg",
"dgggggggggggggggggggggggggggggggggggggggggggggggggggggggggggggggg",
"dgggggggggggggggggggggggggggggggggggggggggggggggggggggggggggggggg",
"dgggggggggggggggggggggggggggggggggggggggggggggggggggggggggggggggg",
"dgggggggggggggggggggggggggggggggggggggggggggggggggggggggggggggggg",
"dgggggggggggggggggggggggggggggggggggggggggggggggggggggggggggggggg",
"dgggggggggggggggggggggggggggggggggggggggggggggggggggggggggggggggg",
"dgggggggggggggggggggggggggggggggggggggggggggggggggggggggggggggggg",
"dgggggggggggggggggggggggggggggggggggggggggggggggggggggggggggggggg",
"dgggggggggggggggggggggggggggggggggggggggggggggggggggggggggggggggg",
"dgggggggggggggggggggggggggggggggggggggggggggggggggggggggggggggggg",
"dgggggggggggggggggggggggggggggggggggggggggggggggggggggggggggggggg",
"dgggggggggggggggggggggggggggggggggggggggggggggggggggggggggggggggg",
"dgggggggggggggggggggggggggggggggggggggggggggggggggggggggggggggggg",
"dgggggggggggggggggggggggggggggggggggggggggggggggggggggggggggggggg",
"dggggggggggggggggggggggggggggggggqq88044ggggggggggggggggggggggggg",
"dgggggggggggggggggggggggggggggggqp80t1114gggggggggggggggggggggggg",
"dggggggggggggggggggggggggggggggq88041@@@1gggggggggggggggggggggggg",
"dggggggggggggggggggggggggggggggqu004@@o@1gggggggggggggggggggggggg",
"dggggggggggggggggggggggggggggggp044@@ooo@@ggggggggggggggggggggggg",
"dggggggggggggggggggggggggggggga8ut41@oooXgggggggggggggggggggggggg",
"dgggggggggggggggggggggggggggga8ut41@ooo$Xgggggggggggggggggggggggg",
"dggggggggggggggggggggggggggggggg,,,.rf$+=gggggggggggggggggggggggg",
"dggggggggggggggggggggggggggggggg;;;;$f$+=gggggggggggggggggggggggg",
"dgggggggggggggggggggggggggggggggOOO<:$f$ggggggggggggggggggggggggg",
"dgggggggggggggggggggggggggggggg1@@@o&&fgggggggggggggggggggggggggg",
"dgggggggggggggggggggggggggggggg1@@@o&&tfggggggggggggggggggggggggg",
"dgggggggggggggggggggggggggggg: OOO<:-ooo$gggggggggggggggggggggggg",
"dggggggggggggggggggggggggggg:OOwOwOooo +*=ggggggggggggggggggggggg",
"dgggggggggggggggggggggggggg:O<OO7Oooo :<+==gggggggggggggggggggggg",
"dgggggggggggggggggggggggggg:;OOO7ooX+-<<*==gggggggggggggggggggggg",
"dgggggggggggggggggggggggggOOX O ooX++X-<*=Xgggggggggggggggggggggg",
"dgggggggggggggggggggggggggOO;X ooX +X-X +*=%ggggggggggggggggggggg",
"dgggggggggggggggggggggggg#O+;XXo%  +--X 7=%%ggggggggggggggggggggg",
"dggggggggggggggggggggggggww+$Xof   ++-% ++X%ggggggggggggggggggggg",
"dggggggggggggggggggggggggOO<$.o2   2+-X%+*%=Xgggggggggggggggggggg",
"dggggggggggggggggggggggggOO$$.1@@@o&ffff++*2%gggggggggggggggggggg",
"dgggggggggggggggggggggggg O+$.1@@@o&ffff2+*X%%ggggggggggggggggggg",
"dgggggggggggggggggggggggg  *5$--,-$$,%%.%22XX%ggggggggggggggggggg",
"dggggggggggggggggggggggggg *5-:7: 7:*=XX%XXXX+ggggggggggggggggggg",
"dggggggggggggggggggggggggg *5:=###7:**XXg%XXX+ggggggggggggggggggg",
"dgggggggggggggggggggggggggg*=:=###7::*;Xgg%%++ggggggggggggggggggg",
"dgggggggggggggggggggggggggggg:=$$%$-**;Xggggggggggggggggggggggggg",
"dgggggggggggggggggggggggggggg;X;;;-$X,rrggggggggggggggggggggggggg",
"dgggggggggggggggggggggggggggggg ##  -r..ggggggggggggggggggggggggg",
"dgggggggggggggggggggggggggggggg###  -..,ggggggggggggggggggggggggg",
"dggggggggggggggggggggggggggggg<### ;2....gggggggggggggggggggggggg",
"dggggggggggggggggggggggggggggg ##s -5..=.gggggggggggggggggggggggg",
"dggggggggggggggggggggggggggggg <<;2$,..,.gggggggggggggggggggggggg",
"dgggggggggggggggggggggggggggg ###<55,.,2$.ggggggggggggggggggggggg",
"dgggggggggggggggggggggggggggg <<;-=5..;$,.ggggggggggggggggggggggg",
"dggggggggggggggggggggggggggg ###<.,,...5.fggggggggggggggggggggggg",
"dggggggggggggggggggggggggggg   *2:...fffffggggggggggggggggggggggg",
"dggggggggggggggggggggggggggg36i3....>9ffffggggggggggggggggggggggg",
"dggggggggggggggggggggggggggge6i3f,.g>9>fffggggggggggggggggggggggg",
"dgggggggggggggggggggggggggg36333ff.gge>fffggggggggggggggggggggggg",
"dgggggggggggggggggggggggggge6e3ffgggg>9fffggggggggggggggggggggggg",
"dgggggggggggggggggggggggg666y3ifgggggg9>ff>>fgggggggggggggggggggg",
"dgggggggggggggggggggggggg&&>6>fggggggg9yffffffggggggggggggggggggg",
"dgggggggggggggggggggggggg&&f>>gggggggg9yfffffgggggggggggggggggggg",
"dgggggggggggggggggggggggg&&&ff>>gggggg>>>ffgggggggggggggggggggggg",
"dgggggggggggggggggggggggg&&&fffffgggggggggggggggggggggggggggggggg",
"dggggggggggggggggggggggggg&&&fffggggggggggggggggggggggggggggggggg"
};
