/* XPM */
static char *right_idle_guard_021660768017[] = {
/* columns rows colors chars-per-pixel */
"65 65 64 1 ",
"  c #5B3913",
". c #E8814C",
"X c #FF9D5C",
"o c #282828",
"O c #FF8D54",
"+ c #C9713F",
"@ c #39280A",
"# c #F58950",
"$ c #8F4F25",
"% c #DF7D48",
"& c #AF6032",
"* c gray49",
"= c #535353",
"- c #000073",
"; c #464646",
": c #D17943",
"> c #717171",
", c gray60",
"< c #78461C",
"1 c #353535",
"2 c #00003F",
"3 c #814B20",
"4 c #FFA56E",
"5 c #B36437",
"6 c gray10",
"7 c #FF9558",
"8 c #BC683B",
"9 c #A15C2E",
"0 c #4C350E",
"q c #653E17",
"w c #FFB98F",
"e c MediumBlue",
"r c #00009C",
"t c #646464",
"y c #8D8D8D",
"u c #985729",
"i c #00008C",
"p c #432C0F",
"a c #FFB17E",
"s c gray71",
"d c #00004C",
"f c gray82",
"g c #AAAAAA",
"h c #0000AD",
"j c black",
"k c None",
"l c None",
"z c black",
"x c black",
"c c black",
"v c black",
"b c black",
"n c black",
"m c black",
"M c black",
"N c black",
"B c black",
"V c black",
"C c black",
"Z c black",
"A c black",
"S c black",
"D c black",
"F c black",
/* pixels */
"kllllllllllllllllllllllllllllllllllllllllllllllllllllllllllllllll",
"kllllllllllllllllllllllllllllllllllllllllllllllllllllllllllllllll",
"kllllllllllllllllllllllllllllllllllllllllllllllllllllllllllllllll",
"kllllllllllllllllllllllllllllllllllllllllllllllllllllllllllllllll",
"kllllllllllllllllllllllllllllllllllllllllllllllllllllllllllllllll",
"kllllllllllllllllllllllllllllllllllllllllllllllllllllllllllllllll",
"kllllllllllllllllllllllllllllllllllllllllllllllllllllllllllllllll",
"kllllllllllllllllllllllllllllllllllllllllllllllllllllllllllllllll",
"kllllllllllllllllllllllllllllllllllllllllllllllllllllllllllllllll",
"kllllllllllllllllllllllllllllllllllllllllllllllllllllllllllllllll",
"kllllllllllllllllllllllllllllllllllllllllllllllllllllllllllllllll",
"kllllllllllllllllllllllllllllllllllllllllllllllllllllllllllllllll",
"kllllllllllllllllllllllllllllllllllllllllllllllllllllllllllllllll",
"kllllllllllllllllllllllllllllllllllllllllllllllllllllllllllllllll",
"kllllllllllllllllllllllllllllllllllllllllllllllllllllllllllllllll",
"kllllllllllllllllllllllllllllllllllllllllllllllllllllllllllllllll",
"klllllllllllllllllllllllllll,,*>t==llllllllllllllllllllllllllllll",
"kllllllllllllllllllllllllll,f>t;;1o=lllllllllllllllllllllllllllll",
"klllllllllllllllllllllllll,*>t=;;1oolllllllllllllllllllllllllllll",
"klllllllllllllllllllllllll,*>==;;1oolllllllllllllllllllllllllllll",
"klllllllllllllllllllllllll,*>==;*>;1oolllllllllllllllllllllllllll",
"kllllllllllllllllllllllll,sgy*>*0hullllllllllllllllllllllllllllll",
"klllllllllllllllllllllll,syy*>=0&...lllllllllllllllllllllllllllll",
"kllllllllllllllllllllllllll$< j&7..llllllllllllllllllllllllllllll",
"kllllllllllllllllllllllllll....j7.9llllllllllllllllllllllllllllll",
"kllllllllllllllllllllllllllw44#8j4.llllllllllllllllllllllllllllll",
"klllllllllllllllllllllllll11oou8ujlllllllllllllllllllllllllllllll",
"klllllllllllllllllllllllll11oo66jjlllllllllllllllllllllllllllllll",
"klllllllllllllllllllllllll@ooooj*;ollllllllllllllllllllllllllllll",
"kllllllllllllllllllllllll8@.XXXoj*ollllllllllllllllllllllllllllll",
"kllllllllllllllllllllllll@.X4..Oojj3lllllllllllllllllllllllllllll",
"kllllllllllllllllllllllll+O4X.:%&jj3lllllllllllllllllllllllllllll",
"kllllllllllllllllllllllll+O4X.55<3jplllllllllllllllllllllllllllll",
"kllllllllllllllllllllllll+OXO.5<&$jjlllllllllllllllllllllllllllll",
"klllllllllllllllllllllllllOXO.5<&$pjlllllllllllllllllllllllllllll",
"klllllllllllllllllllllllllOXXO:<q$ jlllllllllllllllllllllllllllll",
"klllllllllllllllllllllllllOX%5 @@@ llllllllllllllllllllllllllllll",
"klllllllllllllllllllllllllOXXO&qj*lllllllllllllllllllllllllllllll",
"kllllllllllllllllllllllllljOXO5qj=lllllllllllllllllllllllllllllll",
"kllllllllllllllllllllllll+#OX+%$   llllllllllllllllllllllllllllll",
"kllllllllllllllllllllllll+#O%X:+   llllllllllllllllllllllllllllll",
"kllllllllllllllllllllllll+#+O.$&X: llllllllllllllllllllllllllllll",
"kllllllllllllllllllllllll+#+&$54%X llllllllllllllllllllllllllllll",
"kllllllllllllllllllllllll+#+&$%ww% llllllllllllllllllllllllllllll",
"klllllllllllllllllllllllll&$$<<7w# llllllllllllllllllllllllllllll",
"klllllllllllllllllllllllll+X:::q<  llllllllllllllllllllllllllllll",
"klllllllllllllllllllllllll+X#7&3 @lllllllllllllllllllllllllllllll",
"klllllllllllllllllllllllll+7O#$& @lllllllllllllllllllllllllllllll",
"klllllllllllllllllllllllll+aO%%& @lllllllllllllllllllllllllllllll",
"kllllllllllllllllllllllllll:7%83 @lllllllllllllllllllllllllllllll",
"kllllllllllllllllllllllllll#893$@llllllllllllllllllllllllllllllll",
"kllllllllllllllllllllllllll#%%  @@lllllllllllllllllllllllllllllll",
"klllllllllllllllllllllllll#a#%$  @lllllllllllllllllllllllllllllll",
"klllllllllllllllllllllllll+#:8$ @@lllllllllllllllllllllllllllllll",
"klllllllllllllllllllllllll9993000llllllllllllllllllllllllllllllll",
"kllllllllllllllllllllllllll-666jjllllllllllllllllllllllllllllllll",
"kllllllllllllllllllllllllll-ei2jjllllllllllllllllllllllllllllllll",
"kllllllllllllllllllllllllll-er2jjllllllllllllllllllllllllllllllll",
"kllllllllllllllllllllllllll2ri2jjllllllllllllllllllllllllllllllll",
"kllllllllllllllllllllllllllld26jlllllllllllllllllllllllllllllllll",
"klllllllllllllllllllllllllllj-jjjllllllllllllllllllllllllllllllll",
"kllllllllllllllllllllllllll-erjjjjjllllllllllllllllllllllllllllll",
"kllllllllllllllllllllllllll-ei2jjjjjjllllllllllllllllllllllllllll",
"kllllllllllllllllllllllllll---2jjjjjjllllllllllllllllllllllllllll",
"kkkkkkkkkkkkkkkkkkkkkkkkkkkkkkkkkkkkkkkkkkkkkkkkkkkkkkkkkkkkkkkkk"
};
