/* XPM */
static char *right_walking_guard_081660768017[] = {
/* columns rows colors chars-per-pixel */
"65 65 64 1 ",
"  c #C9713F",
". c #E8814C",
"X c #FF8D54",
"o c #5B3913",
"O c #282828",
"+ c #FF9D5C",
"@ c #FF9558",
"# c #432C0F",
"$ c #00003F",
"% c #AF6032",
"& c #78461C",
"* c #000073",
"= c gray49",
"- c #8F4F25",
"; c #535353",
": c #D17943",
"> c #464646",
", c #39280A",
"< c #FFA56E",
"1 c gray60",
"2 c #717171",
"3 c #00009C",
"4 c #353535",
"5 c #814B20",
"6 c #B36437",
"7 c #DF7D48",
"8 c #985729",
"9 c MediumBlue",
"0 c #A15C2E",
"q c #FFB17E",
"w c #653E17",
"e c #FFB98F",
"r c #00004C",
"t c #BC683B",
"y c #F58950",
"u c #646464",
"i c #4C350E",
"p c #8D8D8D",
"a c gray10",
"s c gray71",
"d c #0000AD",
"f c #AAAAAA",
"g c gray82",
"h c #00008C",
"j c black",
"k c None",
"l c None",
"z c black",
"x c black",
"c c black",
"v c black",
"b c black",
"n c black",
"m c black",
"M c black",
"N c black",
"B c black",
"V c black",
"C c black",
"Z c black",
"A c black",
"S c black",
"D c black",
"F c black",
/* pixels */
"kkkkkkkkkkkkkkkkkkkkkkkkkkkkkkkkkkkkkkkkkkkkkkkkkkkkkkkkkkkkkkkkk",
"kllllllllllllllllllllllllllllllllllllllllllllllllllllllllllllllll",
"kllllllllllllllllllllllllllllllllllllllllllllllllllllllllllllllll",
"kllllllllllllllllllllllllllllllllllllllllllllllllllllllllllllllll",
"kllllllllllllllllllllllllllllllllllllllllllllllllllllllllllllllll",
"kllllllllllllllllllllllllllllllllllllllllllllllllllllllllllllllll",
"kllllllllllllllllllllllllllllllllllllllllllllllllllllllllllllllll",
"kllllllllllllllllllllllllllllllllllllllllllllllllllllllllllllllll",
"kllllllllllllllllllllllllllllllllllllllllllllllllllllllllllllllll",
"kllllllllllllllllllllllllllllllllllllllllllllllllllllllllllllllll",
"kllllllllllllllllllllllllllllllllllllllllllllllllllllllllllllllll",
"kllllllllllllllllllllllllllllllllllllllllllllllllllllllllllllllll",
"kllllllllllllllllllllllllllllllllllllllllllllllllllllllllllllllll",
"kllllllllllllllllllllllllllllllllllllllllllllllllllllllllllllllll",
"kllllllllllllllllllllllllllllllllllllllllllllllllllllllllllllllll",
"kllllllllllllllllllllllllllllllllllllllllllllllllllllllllllllllll",
"kllllllllllllllllllllllllllllllllllllllllllllllllllllllllllllllll",
"kllllllllllllllllllllllllllll11=2u;;lllllllllllllllllllllllllllll",
"klllllllllllllllllllllllllll1g2u>>4O;llllllllllllllllllllllllllll",
"kllllllllllllllllllllllllll1=2u;>>4OOllllllllllllllllllllllllllll",
"kllllllllllllllllllllllllll1=2;;>>4OOllllllllllllllllllllllllllll",
"kllllllllllllllllllllllllll1=2;;>=2>4OOllllllllllllllllllllllllll",
"klllllllllllllllllllllllll1sfp=2=id8lllllllllllllllllllllllllllll",
"kllllllllllllllllllllllll1spp=2;i%...llllllllllllllllllllllllllll",
"klllllllllllllllllllllllllll-&oj%@..lllllllllllllllllllllllllllll",
"klllllllllllllllllllllllllll....j@.0lllllllllllllllllllllllllllll",
"kllllllllllllllllllllllllllle<<ytj<.lllllllllllllllllllllllllllll",
"kllllllllllllllllllllllllll44OO8t8jllllllllllllllllllllllllllllll",
"kllllllllllllllllllllllllll44OOaajjllllllllllllllllllllllllllllll",
"kllllllllllllllllllllllllll,OOOOj=>Olllllllllllllllllllllllllllll",
"klllllllllllllllllllllllllt,.+++Oj=Olllllllllllllllllllllllllllll",
"klllllllllllllllllllllllll,.+<..XOjj5llllllllllllllllllllllllllll",
"klllllllllllllllllllllllll X<+.:7%jj5llllllllllllllllllllllllllll",
"klllllllllllllllllllllllll X<+.66&5j#llllllllllllllllllllllllllll",
"klllllllllllllllllllllllll X+X.6&%-jjllllllllllllllllllllllllllll",
"klllllllllllllllllllllllll X+X.6&%-#jllllllllllllllllllllllllllll",
"kllllllllllllllllllllllllllX++X:&w-ojllllllllllllllllllllllllllll",
"kllllllllllllllllllllllllllX+76o,,,olllllllllllllllllllllllllllll",
"kllllllllllllllllllllllllllX++X%wj=llllllllllllllllllllllllllllll",
"klllllllllllllllllllllllllljX+X6wj;llllllllllllllllllllllllllllll",
"klllllllllllllllllllllllll yX+ 7-ooolllllllllllllllllllllllllllll",
"klllllllllllllllllllllllll yX7+: ooolllllllllllllllllllllllllllll",
"klllllllllllllllllllllllll @ X.-%+:olllllllllllllllllllllllllllll",
"klllllllllllllllllllllllll @ %-6<7+olllllllllllllllllllllllllllll",
"klllllllllllllllllllllllll @ %-7ee7o5llllllllllllllllllllllllllll",
"kllllllllllllllllllllllllll%.-&&@ey#ollllllllllllllllllllllllllll",
"klllllllllllllllllllllllll. q::w&oo#ollllllllllllllllllllllllllll",
"klllllllllllllllllllllllll. X<X 0&&o#5lllllllllllllllllllllllllll",
"klllllllllllllllllllllllll.  X@  08&#olllllllllllllllllllllllllll",
"kllllllllllllllllllllllllll  Xq@@ 85o#lllllllllllllllllllllllllll",
"kllllllllllllllllllllllllll:%-8t@  5&#lllllllllllllllllllllllllll",
"kllllllllllllllllllllllllll%Xqq@@:5o##lllllllllllllllllllllllllll",
"kllllllllllllllllllllllllll%3$@@:0&##llllllllllllllllllllllllllll",
"klllllllllllllllllllllllll%3*$-@0&##lllllllllllllllllllllllllllll",
"klllllllllllllllllllllllll9*$jjo,,lllllllllllllllllllllllllllllll",
"kllllllllllllllllllllllll93$jjjjillllllllllllllllllllllllllllllll",
"kllllllllllllllllllllll99*3*jjjjjllllllllllllllllllllllllllllllll",
"kllllllllllllllllllllll**3*jj$$jjllllllllllllllllllllllllllllllll",
"kllllllllllllllllllllllr$33*j$$jlllllllllllllllllllllllllllllllll",
"kllllllllllllllllllllllljj$$rj$jlllllllllllllllllllllllllllllllll",
"klllllllllllllllllllllllljjrrjjllllllllllllllllllllllllllllllllll",
"klllllllllllllllllllllllllljjjjjlllllllllllllllllllllllllllllllll",
"klllllllllllllllllllllllll*93jjjjjlllllllllllllllllllllllllllllll",
"klllllllllllllllllllllllll*9h$jjjjjjlllllllllllllllllllllllllllll",
"klllllllllllllllllllllllll***$jjjjjjlllllllllllllllllllllllllllll"
};
