/* XPM */
static char *right_walking_guard_021660768017[] = {
/* columns rows colors chars-per-pixel */
"65 65 64 1 ",
"  c black",
". c #B36437",
"X c #8F4F25",
"o c #FF9D5C",
"O c #BC683B",
"+ c #DF7D48",
"@ c #282828",
"# c #00003F",
"$ c #78461C",
"% c #F58950",
"& c #FF8D54",
"* c #4C350E",
"= c #653E17",
"- c #A15C2E",
"; c #D17943",
": c #353535",
"> c #985729",
", c #464646",
"< c gray10",
"1 c #00004C",
"2 c #00007F",
"3 c #814B20",
"4 c #0000AD",
"5 c #535353",
"6 c #AF6032",
"7 c #E8814C",
"8 c #C9713F",
"9 c #000066",
"0 c gray49",
"q c gray60",
"w c #8D8D8D",
"e c #646464",
"r c #717171",
"t c #FFB17E",
"y c #00008C",
"u c #000073",
"i c #FF9558",
"p c gray71",
"a c #AAAAAA",
"s c #FFA56E",
"d c #000059",
"f c #5B3913",
"g c None",
"h c None",
"j c black",
"k c black",
"l c black",
"z c black",
"x c black",
"c c black",
"v c black",
"b c black",
"n c black",
"m c black",
"M c black",
"N c black",
"B c black",
"V c black",
"C c black",
"Z c black",
"A c black",
"S c black",
"D c black",
"F c black",
/* pixels */
"ghhhhhhhhhhhhhhhhhhhhhhhhhhhhhhhhhhhhhhhhhhhhhhhhhhhhhhhhhhhhhhhh",
"ghhhhhhhhhhhhhhhhhhhhhhhhhhhhhhhhhhhhhhhhhhhhhhhhhhhhhhhhhhhhhhhh",
"ghhhhhhhhhhhhhhhhhhhhhhhhhhhhhhhhhhhhhhhhhhhhhhhhhhhhhhhhhhhhhhhh",
"ghhhhhhhhhhhhhhhhhhhhhhhhhhhhhhhhhhhhhhhhhhhhhhhhhhhhhhhhhhhhhhhh",
"ghhhhhhhhhhhhhhhhhhhhhhhhhhhhhhhhhhhhhhhhhhhhhhhhhhhhhhhhhhhhhhhh",
"ghhhhhhhhhhhhhhhhhhhhhhhhhhhhhhhhhhhhhhhhhhhhhhhhhhhhhhhhhhhhhhhh",
"ghhhhhhhhhhhhhhhhhhhhhhhhhhhhhhhhhhhhhhhhhhhhhhhhhhhhhhhhhhhhhhhh",
"ghhhhhhhhhhhhhhhhhhhhhhhhhhhhhhhhhhhhhhhhhhhhhhhhhhhhhhhhhhhhhhhh",
"ghhhhhhhhhhhhhhhhhhhhhhhhhhhhhhhhhhhhhhhhhhhhhhhhhhhhhhhhhhhhhhhh",
"ghhhhhhhhhhhhhhhhhhhhhhhhhhhhhhhhhhhhhhhhhhhhhhhhhhhhhhhhhhhhhhhh",
"ghhhhhhhhhhhhhhhhhhhhhhhhhhhhhhhhhhhhhhhhhhhhhhhhhhhhhhhhhhhhhhhh",
"ghhhhhhhhhhhhhhhhhhhhhhhhhhhhhhhhhhhhhhhhhhhhhhhhhhhhhhhhhhhhhhhh",
"ghhhhhhhhhhhhhhhhhhhhhhhhhhhhhhhhhhhhhhhhhhhhhhhhhhhhhhhhhhhhhhhh",
"ghhhhhhhhhhhhhhhhhhhhhhhhhhhhhhhhhhhhhhhhhhhhhhhhhhhhhhhhhhhhhhhh",
"ghhhhhhhhhhhhhhhhhhhhhhhhhhhhhhhhhhhhhhhhhhhhhhhhhhhhhhhhhhhhhhhh",
"ghhhhhhhhhhhhhhhhhhhhhhhhhhhhhhhhhhhhhhhhhhhhhhhhhhhhhhhhhhhhhhhh",
"ghhhhhhhhhhhhhhhhhhhhhhhhhhhhhhhhpww0r55hhhhhhhhhhhhhhhhhhhhhhhhh",
"ghhhhhhhhhhhhhhhhhhhhhhhhhhhhhhhpq0re,,,5hhhhhhhhhhhhhhhhhhhhhhhh",
"ghhhhhhhhhhhhhhhhhhhhhhhhhhhhhhqw055,:::,hhhhhhhhhhhhhhhhhhhhhhhh",
"ghhhhhhhhhhhhhhhhhhhhhhhhhhhhhhq0e5,::::,hhhhhhhhhhhhhhhhhhhhhhhh",
"ghhhhhhhhhhhhhhhhhhhhhhhhhhhhhhrr5,::@@@:,hhhhhhhhhhhhhhhhhhhhhhh",
"ghhhhhhhhhhhhhhhhhhhhhhhhhhhhhaqw0e,:@@Xhhhhhhhhhhhhhhhhhhhhhhhhh",
"ghhhhhhhhhhhhhhhhhhhhhhhhhhhhaqw0e,:@@XOhhhhhhhhhhhhhhhhhhhhhhhhh",
"ghhhhhhhhhhhhhhhhhhhhhhhhhhhhhhh==== OOOhhhhhhhhhhhhhhhhhhhhhhhhh",
"ghhhhhhhhhhhhhhhhhhhhhhhhhhhhhhh6666 +OOhhhhhhhhhhhhhhhhhhhhhhhhh",
"ghhhhhhhhhhhhhhhhhhhhhhhhhhhhhhht%%;t +Ohhhhhhhhhhhhhhhhhhhhhhhhh",
"ghhhhhhhhhhhhhhhhhhhhhhhhhhhhhh@@@@   hhhhhhhhhhhhhhhhhhhhhhhhhhh",
"ghhhhhhhhhhhhhhhhhhhhhhhhhhhhhX@@@@ qe<hhhhhhhhhhhhhhhhhhhhhhhhhh",
"ghhhhhhhhhhhhhhhhhhhhhhhhhhhh.+&oo.@@;O>hhhhhhhhhhhhhhhhhhhhhhhhh",
"ghhhhhhhhhhhhhhhhhhhhhhhhhhh.8&&o.@oo%;O>hhhhhhhhhhhhhhhhhhhhhhhh",
"ghhhhhhhhhhhhhhhhhhhhhhhhhhh.8&&.@oo;o;O>hhhhhhhhhhhhhhhhhhhhhhhh",
"ghhhhhhhhhhhhhhhhhhhhhhhhhhh.8&+@.o%3o;O>hhhhhhhhhhhhhhhhhhhhhhhh",
"ghhhhhhhhhhhhhhhhhhhhhhhhhhh.8+.@oo3o;;.>hhhhhhhhhhhhhhhhhhhhhhhh",
"ghhhhhhhhhhhhhhhhhhhhhhhhhhh.8+@.&++o%;-$hhhhhhhhhhhhhhhhhhhhhhhh",
"ghhhhhhhhhhhhhhhhhhhhhhhhhhhh..@o&.+o..-$hhhhhhhhhhhhhhhhhhhhhhhh",
"ghhhhhhhhhhhhhhhhhhhhhhhhhhhh.@-&&.ooto$hhhhhhhhhhhhhhhhhhhhhhhhh",
"ghhhhhhhhhhhhhhhhhhhhhhhhhhhhh@$&&.ot6i$hhhhhhhhhhhhhhhhhhhhhhhhh",
"ghhhhhhhhhhhhhhhhhhhhhhhhhhhhh:,,:Xooo$$hhhhhhhhhhhhhhhhhhhhhhhhh",
"ghhhhhhhhhhhhhhhhhhhhhhhhhhhhh:,,:X++iXX;hhhhhhhhhhhhhhhhhhhhhhhh",
"ghhhhhhhhhhhhhhhhhhhhhhhhhhhh...XXX+++OX;hhhhhhhhhhhhhhhhhhhhhhhh",
"ghhhhhhhhhhhhhhhhhhhhhhhhhhhh7%%+%%O;;XXhhhhhhhhhhhhhhhhhhhhhhhhh",
"ghhhhhhhhhhhhhhhhhhhhhhhhhhh.7%+%o%;OOX.hhhhhhhhhhhhhhhhhhhhhhhhh",
"ghhhhhhhhhhhhhhhhhhhhhhhhhhh.&%O%o%;XX%;*hhhhhhhhhhhhhhhhhhhhhhhh",
"ghhhhhhhhhhhhhhhhhhhhhhhhhhh.---%%%-O%%.*hhhhhhhhhhhhhhhhhhhhhhhh",
"ghhhhhhhhhhhhhhhhhhhhhhhhhhh-886--3=Osi>=*hhhhhhhhhhhhhhhhhhhhhhh",
"ghhhhhhhhhhhhhhhhhhhhhhhhhhhh&&76=f==X>$=*hhhhhhhhhhhhhhhhhhhhhhh",
"ghhhhhhhhhhhhhhhhhhhhhhhhhhh+&o&+>-->-X$$=*hhhhhhhhhhhhhhhhhhhhhh",
"ghhhhhhhhhhhhhhhhhhhhhhhhhhh+oo&+>>O.-XX$=*hhhhhhhhhhhhhhhhhhhhhh",
"ghhhhhhhhhhhhhhhhhhhhhhhhhhh+oo&O.>O..X3$$*hhhhhhhhhhhhhhhhhhhhhh",
"ghhhhhhhhhhhhhhhhhhhhhhhhhhh+77OOX=X>>XXX$*hhhhhhhhhhhhhhhhhhhhhh",
"ghhhhhhhhhhhhhhhhhhhhhhhhhh++oo7O$=hXOOOX==*hhhhhhhhhhhhhhhhhhhhh",
"ghhhhhhhhhhhhhhhhhhhhhhhhhh+OOO.-$*hh3>$$X$*hhhhhhhhhhhhhhhhhhhhh",
"ghhhhhhhhhhhhhhhhhhhhhhhhh+ooo7OX=*hh3OOXX3*hhhhhhhhhhhhhhhhhhhhh",
"ghhhhhhhhhhhhhhhhhhhhhhhhh+++..;X*hhh---X3**hhhhhhhhhhhhhhhhhhhhh",
"ghhhhhhhhhhhhhhhhhhhhhhhhh14u3.X$*hhhh$$$** hhhhhhhhhhhhhhhhhhhhh",
"ghhhhhhhhhhhhhhhhhhhhhhhhhy4u1 ==hhhhh#921  hhhhhhhhhhhhhhhhhhhhh",
"ghhhhhhhhhhhhhhhhhhhhhhhh14111  hhhhhhh921  hhhhhhhhhhhhhhhhhhhhh",
"ghhhhhhhhhhhhhhhhhhhhhhhhy4y1  hhhhhhhhy#d# hhhhhhhhhhhhhhhhhhhhh",
"ghhhhhhhhhhhhhhhhhhhhhhu4421u hhhhhhhhh#92# hhhhhhhhhhhhhhhhhhhhh",
"ghhhhhhhhhhhhhhhhhhhhhh<<#4# hhhhhhhhhhh92# ## hhhhhhhhhhhhhhhhhh",
"ghhhhhhhhhhhhhhhhhhhhhh<<###hhhhhhhhhhhh922     hhhhhhhhhhhhhhhhh",
"ghhhhhhhhhhhhhhhhhhhhhh<<<####hhhhhhhhhh922#   hhhhhhhhhhhhhhhhhh",
"ghhhhhhhhhhhhhhhhhhhhhhh<<#    hhhhhhhhh#####hhhhhhhhhhhhhhhhhhhh",
"ghhhhhhhhhhhhhhhhhhhhhhh<<<   hhhhhhhhhhhhhhhhhhhhhhhhhhhhhhhhhhh",
"ggggggggggggggggggggggggggggggggggggggggggggggggggggggggggggggggg"
};
