/* XPM */
static char *right_running_guard_021660768017[] = {
/* columns rows colors chars-per-pixel */
"65 65 64 1 ",
"  c #814B20",
". c #78461C",
"X c #4C350E",
"o c #985729",
"O c #653E17",
"+ c #5B3913",
"@ c #BC683B",
"# c #DF7D48",
"$ c #FF9558",
"% c #D17943",
"& c #535353",
"* c #B36437",
"= c #8F4F25",
"- c #F58950",
"; c #C9713F",
": c #000073",
"> c #432C0F",
", c #E8814C",
"< c #FF9D5C",
"1 c #282828",
"2 c #AF6032",
"3 c #353535",
"4 c #FF8D54",
"5 c #00003F",
"6 c #464646",
"7 c #8D8D8D",
"8 c gray49",
"9 c #0000B5",
"0 c #C1C1C1",
"q c #646464",
"w c #39280A",
"e c #00008C",
"r c #000066",
"t c gray10",
"y c #717171",
"u c #FFA56E",
"i c #261A03",
"p c #FFB98F",
"a c #A15C2E",
"s c gray60",
"d c #AAAAAA",
"f c #FFB17E",
"g c gray82",
"h c #00004C",
"j c #0000AD",
"k c #00009C",
"l c black",
"z c None",
"x c None",
"c c black",
"v c black",
"b c black",
"n c black",
"m c black",
"M c black",
"N c black",
"B c black",
"V c black",
"C c black",
"Z c black",
"A c black",
"S c black",
"D c black",
"F c black",
/* pixels */
"zxxxxxxxxxxxxxxxxxxxxxxxxxxxxxxxxxxxxxxxxxxxxxxxxxxxxxxxxxxxxxxxx",
"zxxxxxxxxxxxxxxxxxxxxxxxxxxxxxxxxxxxxxxxxxxxxxxxxxxxxxxxxxxxxxxxx",
"zxxxxxxxxxxxxxxxxxxxxxxxxxxxxxxxxxxxxxxxxxxxxxxxxxxxxxxxxxxxxxxxx",
"zxxxxxxxxxxxxxxxxxxxxxxxxxxxxxxxxxxxxxxxxxxxxxxxxxxxxxxxxxxxxxxxx",
"zxxxxxxxxxxxxxxxxxxxxxxxxxxxxxxxxxxxxxxxxxxxxxxxxxxxxxxxxxxxxxxxx",
"zxxxxxxxxxxxxxxxxxxxxxxxxxxxxxxxxxxxxxxxxxxxxxxxxxxxxxxxxxxxxxxxx",
"zxxxxxxxxxxxxxxxxxxxxxxxxxxxxxxxxxxxxxxxxxxxxxxxxxxxxxxxxxxxxxxxx",
"zxxxxxxxxxxxxxxxxxxxxxxxxxxxxxxxxxxxxxxxxxxxxxxxxxxxxxxxxxxxxxxxx",
"zxxxxxxxxxxxxxxxxxxxxxxxxxxxxxxxxxxxxxxxxxxxxxxxxxxxxxxxxxxxxxxxx",
"zxxxxxxxxxxxxxxxxxxxxxxxxxxxxxxxxxxxxxxxxxxxxxxxxxxxxxxxxxxxxxxxx",
"zxxxxxxxxxxxxxxxxxxxxxxxxxxxxxxxxxxxxxxxxxxxxxxxxxxxxxxxxxxxxxxxx",
"zxxxxxxxxxxxxxxxxxxxxxxxxxxxxxxxxxxxxxxxxxxxxxxxxxxxxxxxxxxxxxxxx",
"zxxxxxxxxxxxxxxxxxxxxxxxxxxxxxxxxxxxxxxxxxxxxxxxxxxxxxxxxxxxxxxxx",
"zxxxxxxxxxxxxxxxxxxxxxxxxxxxxxxxxxxxxxxxxxxxxxxxxxxxxxxxxxxxxxxxx",
"zxxxxxxxxxxxxxxxxxxxxxxxxxxxxxxxxxxxxxxxxxxxxxxxxxxxxxxxxxxxxxxxx",
"zxxxxxxxxxxxxxxxxxxxxxxxxxxxxxxxxxxxxxxxxxxxxxxxxxxxxxxxxxxxxxxxx",
"zxxxxxxxxxxxxxxxxxxxxxxxxxxxxxxxxx70s88q&xxxxxxxxxxxxxxxxxxxxxxxx",
"zxxxxxxxxxxxxxxxxxxxxxxxxxxxxxxxx707q&6313xxxxxxxxxxxxxxxxxxxxxxx",
"zxxxxxxxxxxxxxxxxxxxxxxxxxxxxxxxx07q&66311xxxxxxxxxxxxxxxxxxxxxxx",
"zxxxxxxxxxxxxxxxxxxxxxxxxxxxxxxxxd8&&663113xxxxxxxxxxxxxxxxxxxxxx",
"zxxxxxxxxxxxxxxxxxxxxxxxxxxxxxxxx7q&68q&&111xxxxxxxxxxxxxxxxxxxxx",
"zxxxxxxxxxxxxxxxxxxxxxxxxxxxxxxx0s7y86je=:3xxxxxxxxxxxxxxxxxxxxxx",
"zxxxxxxxxxxxxxxxxxxxxxxxxxxxxxx0s7yy6X@,$=3xxxxxxxxxxxxxxxxxxxxxx",
"zxxxxxxxxxxxxxxxxxxxxxxxxxxxxxxxxx=Xl<<,;*xxxxxxxxxxxxxxxxxxxxxxx",
"zxxxxxxxxxxxxxxxxxxxxxxxxxxxxxxxxx;@t<,ooOxxxxxxxxxxxxxxxxxxxxxxx",
"zxxxxxxxxxxxxxxxxxxxxxxxxxxxxxxxxxf$<t&,;*xxxxxxxxxxxxxxxxxxxxxxx",
"zxxxxxxxxxxxxxxxxxxxxxxxxxxxxxxxlll<#==Xxxxxxxxxxxxxxxxxxxxxxxxxx",
"zxxxxxxxxxxxxxxxxxxxxxxxxxxxxxxlllg&##=Xlxxxxxxxxxxxxxxxxxxxxxxxx",
"zxxxxxxxxxxxxxxxxxxxxxxxxxxxx%y&&l&dla=lt xxxxxxxxxxxxxxxxxxxxxxx",
"zxxxxxxxxxxxxxxxxxxxxxxxxxxx%---o&illl+l1; xxxxxxxxxxxxxxxxxxxxxx",
"zxxxxxxxxxxxxxxxxxxxxxxxxxx%-$$-$o11%%2@@ ;xxxxxxxxxxxxxxxxxxxxxx",
"zxxxxxxxxxxxxxxxxxxxxxxxxxx$$-%%a$oXX@2@@ o.xxxxxxxxxxxxxxxxxxxxx",
"zxxxxxxxxxxxxxxxxxxxxxxxxx%$$-%*+@@olX oo X.xxxxxxxxxxxxxxxxxxxxx",
"zxxxxxxxxxxxxxxxxxxxxxxxxx$$$-* + @@XlXoo X.xxxxxxxxxxxxxxxxxxxxx",
"zxxxxxxxxxxxxxxxxxxxxxxxx%$-** Xw oooXlXo X.xxxxxxxxxxxxxxxxxxxxx",
"zxxxxxxxxxxxxxxxxxxxxxxx%$uu*.Xw ooo >ll X++.xxxxxxxxxxxxxxxxxxxx",
"zxxxxxxxxxxxxxxxxxxxxxxx%$u*.XXw  >  >XlXX...xxxxxxxxxxxxxxxxxxxx",
"zxxxxxxxxxxxxxxxxxxxxxxx%$u--@.lllll88ll i+@@@xxxxxxxxxxxxxxxxxxx",
"zxxxxxxxxxxxxxxxxxxxxxxxx%%-$$@.Xlll&&ll>X+o@@xxxxxxxxxxxxxxxxxxx",
"zxxxxxxxxxxxxxxxxxxxxxxxxx@%-%a<p#>++>++Xx+o@@xxxxxxxxxxxxxxxxxxx",
"zxxxxxxxxxxxxxxxxxxxxxxxxxxx,*4p<#   >..Xxxxxxxxxxxxxxxxxxxxxxxxx",
"zxxxxxxxxxxxxxxxxxxxxxxxxxx,,,4p<2  .X..Xxxxxxxxxxxxxxxxxxxxxxxxx",
"zxxxxxxxxxxxxxxxxxxxxxxxxxx,,,##2   OX..Xxxxxxxxxxxxxxxxxxxxxxxxx",
"zxxxxxxxxxxxxxxxxxxxxxxxxxx**2o*O   >O>>lxxxxxxxxxxxxxxxxxxxxxxxx",
"zxxxxxxxxxxxxxxxxxxxxxxxxxx#4ooO++XX>>OOxxxxxxxxxxxxxxxxxxxxxxxxx",
"zxxxxxxxxxxxxxxxxxxxxxxxxxx#4#2=.OO++O  xxxxxxxxxxxxxxxxxxxxxxxxx",
"zxxxxxxxxxxxxxxxxxxxxxxxxxx#4#@o .O+O    xxxxxxxxxxxxxxxxxxxxxxxx",
"zxxxxxxxxxxxxxxxxxxxxxxxxxx#4#@o=.O+O.   xxxxxxxxxxxxxxxxxxxxxxxx",
"zxxxxxxxxxxxxxxxxxxxxxxxxxx#4#;2o.O+O.    xxxxxxxxxxxxxxxxxxxxxxx",
"zxxxxxxxxxxxxxxxxxxxxxxxxx4#4#;2o.O+=.    xxxxxxxxxxxxxxxxxxxxxxx",
"zxxxxxxxxxxxxxxxxxxxxxxxxxx<<<-;2.+O+==   xxxxxxxxxxxxxxxxxxxxxxx",
"zxxxxxxxxxxxxxxxxxxxxxxxxx#**;;;o.+*o==   xxxxxxxxxxxxxxxxxxxxxxx",
"zxxxxxxxxxxxxxxxxxxxxxxxxx#4##;2.O+...OOO xxxxxxxxxxxxxxxxxxxxxxx",
"zxxxxxxxxxxxxxxxxxxxxxxxxx*#;;2o.+lwXOO  xxxxxxxxxxxxxxxxxxxxxxxx",
"zxxxxxxxxxxxxxxxxxxxxxxxxxi  =..Owlllllxxxxxxxxxxxxxxxxxxxxxxxxxx",
"zxxxxxxxxxxxxxxxxxxxxxxxxx:lltlllllllxxxxxxxxxxxxxxxxxxxxxxxxxxxx",
"zxxxxxxxxxxxxxxxxxxxxxxxxx:ee:5lllllxxxxxxxxxxxxxxxxxxxxxxxxxxxxx",
"zxxxxxxxxxxxxxxxxxxxxxxxxx:e9:5lllxxxxxxxxxxxxxxxxxxxxxxxxxxxxxxx",
"zxxxxxxxxxxxxxxxxxxxxxxxxx:e9:5llxxxxxxxxxxxxxxxxxxxxxxxxxxxxxxxx",
"zxxxxxxxxxxxxxxxxxxxxxxxxx:9:5llllxxxxxxxxxxxxxxxxxxxxxxxxxxxxxxx",
"zxxxxxxxxxxxxxxxxxxxxxxxxx:hllllllxxxxxxxxxxxxxxxxxxxxxxxxxxxxxxx",
"zxxxxxxxxxxxxxxxxxxxxxxxx:r99r5llllxxxxxxxxxxxxxxxxxxxxxxxxxxxxxx",
"zxxxxxxxxxxxxxxxxxxxxxxxx:9krrr55lxxxxxxxxxxxxxxxxxxxxxxxxxxxxxxx",
"zxxxxxxxxxxxxxxxxxxxxxxxx33355llllxxxxxxxxxxxxxxxxxxxxxxxxxxxxxxx",
"zzzzzzzzzzzzzzzzzzzzzzzzzzzzzzzzzzzzzzzzzzzzzzzzzzzzzzzzzzzzzzzzz"
};
