/* XPM */
static char *right_walking_guard_061660768017[] = {
/* columns rows colors chars-per-pixel */
"65 64 64 1 ",
"  c #39280A",
". c #814B20",
"X c #FF9D5C",
"o c #A15C2E",
"O c #FF8D54",
"+ c #BC683B",
"@ c #5B3913",
"# c #D17943",
"$ c #C9713F",
"% c #78461C",
"& c #00003F",
"* c #000073",
"= c #B36437",
"- c #E8814C",
"; c #432C0F",
": c #282828",
"> c #8F4F25",
", c #464646",
"< c #DF7D48",
"1 c #653E17",
"2 c MediumBlue",
"3 c #353535",
"4 c #FF9558",
"5 c #985729",
"6 c #F58950",
"7 c #00008C",
"8 c #4C350E",
"9 c gray10",
"0 c #535353",
"q c #717171",
"w c gray49",
"e c #FFA56E",
"r c gray60",
"t c #AF6032",
"y c #646464",
"u c #00009C",
"i c #8D8D8D",
"p c #0000A9",
"a c gray82",
"s c gray71",
"d c #000066",
"f c #000059",
"g c #00004C",
"h c #FFB98F",
"j c #0000AD",
"k c #AAAAAA",
"l c None",
"z c black",
"x c None",
"c c black",
"v c black",
"b c black",
"n c black",
"m c black",
"M c black",
"N c black",
"B c black",
"V c black",
"C c black",
"Z c black",
"A c black",
"S c black",
"D c black",
"F c black",
/* pixels */
"lxxxxxxxxxxxxxxxxxxxxxxxxxxxxxxxxxxxxxxxxxxxxxxxxxxxxxxxxxxxxxxxx",
"lxxxxxxxxxxxxxxxxxxxxxxxxxxxxxxxxxxxxxxxxxxxxxxxxxxxxxxxxxxxxxxxx",
"lxxxxxxxxxxxxxxxxxxxxxxxxxxxxxxxxxxxxxxxxxxxxxxxxxxxxxxxxxxxxxxxx",
"lxxxxxxxxxxxxxxxxxxxxxxxxxxxxxxxxxxxxxxxxxxxxxxxxxxxxxxxxxxxxxxxx",
"lxxxxxxxxxxxxxxxxxxxxxxxxxxxxxxxxxxxxxxxxxxxxxxxxxxxxxxxxxxxxxxxx",
"lxxxxxxxxxxxxxxxxxxxxxxxxxxxxxxxxxxxxxxxxxxxxxxxxxxxxxxxxxxxxxxxx",
"lxxxxxxxxxxxxxxxxxxxxxxxxxxxxxxxxxxxxxxxxxxxxxxxxxxxxxxxxxxxxxxxx",
"lxxxxxxxxxxxxxxxxxxxxxxxxxxxxxxxxxxxxxxxxxxxxxxxxxxxxxxxxxxxxxxxx",
"lxxxxxxxxxxxxxxxxxxxxxxxxxxxxxxxxxxxxxxxxxxxxxxxxxxxxxxxxxxxxxxxx",
"lxxxxxxxxxxxxxxxxxxxxxxxxxxxxxxxxxxxxxxxxxxxxxxxxxxxxxxxxxxxxxxxx",
"lxxxxxxxxxxxxxxxxxxxxxxxxxxxxxxxxxxxxxxxxxxxxxxxxxxxxxxxxxxxxxxxx",
"lxxxxxxxxxxxxxxxxxxxxxxxxxxxxxxxxxxxxxxxxxxxxxxxxxxxxxxxxxxxxxxxx",
"lxxxxxxxxxxxxxxxxxxxxxxxxxxxxxxxxxxxxxxxxxxxxxxxxxxxxxxxxxxxxxxxx",
"lxxxxxxxxxxxxxxxxxxxxxxxxxxxxxxxxxxxxxxxxxxxxxxxxxxxxxxxxxxxxxxxx",
"lxxxxxxxxxxxxxxxxxxxxxxxxxxxxxxxxxxxxxxxxxxxxxxxxxxxxxxxxxxxxxxxx",
"lxxxxxxxxxxxxxxxxxxxxxxxxxxxxxxxxxxxxxxxxxxxxxxxxxxxxxxxxxxxxxxxx",
"lxxxxxxxxxxxxxxxxxxxxxxxxxxxxrrwqy0,xxxxxxxxxxxxxxxxxxxxxxxxxxxxx",
"lxxxxxxxxxxxxxxxxxxxxxxxxxxxraqy,,3:3xxxxxxxxxxxxxxxxxxxxxxxxxxxx",
"lxxxxxxxxxxxxxxxxxxxxxxxxxxrwqy0,,3::xxxxxxxxxxxxxxxxxxxxxxxxxxxx",
"lxxxxxxxxxxxxxxxxxxxxxxxxxxrwq00,,3::xxxxxxxxxxxxxxxxxxxxxxxxxxxx",
"lxxxxxxxxxxxxxxxxxxxxxxxxxxrwq0,wq,3:::xxxxxxxxxxxxxxxxxxxxxxxxxx",
"lxxxxxxxxxxxxxxxxxxxxxxxxxaskiqw8j5.xxxxxxxxxxxxxxxxxxxxxxxxxxxxx",
"lxxxxxxxxxxxxxxxxxxxxxxxxasiiw08t---5xxxxxxxxxxxxxxxxxxxxxxxxxxxx",
"lxxxxxxxxxxxxxxxxxxxxxxxxxxx>%@z46-+xxxxxxxxxxxxxxxxxxxxxxxxxxxxx",
"lxxxxxxxxxxxxxxxxxxxxxxxxxxx---,44o%xxxxxxxxxxxxxxxxxxxxxxxxxxxxx",
"lxxxxxxxxxxxxxxxxxxxxxxxxxxxhee6,46$xxxxxxxxxxxxxxxxxxxxxxxxxxxxx",
"lxxxxxxxxxxxxxxxxxxxxxxxxxx33::5+5zxxxxxxxxxxxxxxxxxxxxxxxxxxxxxx",
"lxxxxxxxxxxxxxxxxxxxxxxxxxx33::99zzxxxxxxxxxxxxxxxxxxxxxxxxxxxxxx",
"lxxxxxxxxxxxxxxxxxxxxxxxxxx ,,::z0,:xxxxxxxxxxxxxxxxxxxxxxxxxxxxx",
"lxxxxxxxxxxxxxxxxxxxxxxxxx+y;XXX.zi:xxxxxxxxxxxxxxxxxxxxxxxxxxxxx",
"lxxxxxxxxxxxxxxxxxxxxxxxxOy;XeOOO.@z.xxxxxxxxxxxxxxxxxxxxxxxxxxxx",
"lxxxxxxxxxxxxxxxxxxxxxxxO6;OeXO#<t.z.xxxxxxxxxxxxxxxxxxxxxxxxxxxx",
"lxxxxxxxxxxxxxxxxxxxxxxxO-;OeX4##%.@;xxxxxxxxxxxxxxxxxxxxxxxxxxxx",
"lxxxxxxxxxxxxxxxxxxxxxxO-%%O-44--->.zxxxxxxxxxxxxxxxxxxxxxxxxxxxx",
"lxxxxxxxxxxxxxxxxxxxxxxO-%=O#44#Oo>;zxxxxxxxxxxxxxxxxxxxxxxxxxxxx",
"lxxxxxxxxxxxxxxxxxxxxx$-=%=#4#4Oo$t@zxxxxxxxxxxxxxxxxxxxxxxxxxxxx",
"lxxxxxxxxxxxxxxxxxxxxx$=%%=#=tOOt%+xxxxxxxxxxxxxxxxxxxxxxxxxxxxxx",
"lxxxxxxxxxxxxxxxxxxxxxx=%%3zz;+<+$-=xxxxxxxxxxxxxxxxxxxxxxxxxxxxx",
"lxxxxxxxxxxxxxxxxxxxxxx==%3zzz;++##==>xxxxxxxxxxxxxxxxxxxxxxxxxxx",
"lxxxxxxxxxxxxxxxxxxxxxxx=$#+5%%;%++++>Xxxxxxxxxxxxxxxxxxxxxxxxxxx",
"lxxxxxxxxxxxxxxxxxxxxxxx$$6OXX#=@;%%>.<$xxxxxxxxxxxxxxxxxxxxxxxxx",
"lxxxxxxxxxxxxxxxxxxxxxxxx$6XX-#=>%@;;oooxxxxxxxxxxxxxxxxxxxxxxxxx",
"lxxxxxxxxxxxxxxxxxxxxxxxx$6XX##=>%@ xx>>xxxxxxxxxxxxxxxxxxxxxxxxx",
"lxxxxxxxxxxxxxxxxxxxxxxxxoooo>;;11@ xxxxxxxxxxxxxxxxxxxxxxxxxxxxx",
"lxxxxxxxxxxxxxxxxxxxxxxxxx####55;;  1xxxxxxxxxxxxxxxxxxxxxxxxxxxx",
"lxxxxxxxxxxxxxxxxxxxxxxxxxXXXO#o.1@  xxxxxxxxxxxxxxxxxxxxxxxxxxxx",
"lxxxxxxxxxxxxxxxxxxxxxxxx<XXXOoo.@1  1xxxxxxxxxxxxxxxxxxxxxxxxxxx",
"lxxxxxxxxxxxxxxxxxxxxxxxx<XXO<o..@.1  xxxxxxxxxxxxxxxxxxxxxxxxxxx",
"lxxxxxxxxxxxxxxxxxxxxxxx<OXO<$..@ o.1 1xxxxxxxxxxxxxxxxxxxxxxxxxx",
"lxxxxxxxxxxxxxxxxxxxxxxx<+X<$o.@@$=.1  xxxxxxxxxxxxxxxxxxxxxxxxxx",
"lxxxxxxxxxxxxxxxxxxxxxx<XX+$o@.@8+$551 1xxxxxxxxxxxxxxxxxxxxxxxxx",
"lxxxxxxxxxxxxxxxxxxxxxOX+e>+.@ 8$<$+.1  xxxxxxxxxxxxxxxxxxxxxxxxx",
"lxxxxxxxxxxxxxxxxxxxxo<OO++ @ 8x6$+>@@  xxxxxxxxxxxxxxxxxxxxxxxxx",
"lxxxxxxxxxxxxxxxxxxxx&oo<> .  8x6$$#+>.@ xxxxxxxxxxxxxxxxxxxxxxxx",
"lxxxxxxxxxxxxxxxxxxxx77ooo.@  xxxooo..88 xxxxxxxxxxxxxxxxxxxxxxxx",
"lxxxxxxxxxxxxxxxxxxx*277zz   xxxxx*999zzxxxxxxxxxxxxxxxxxxxxxxxxx",
"lxxxxxxxxxxxxxxxxxx*2pd&zz xxxxxxx*27&zzxxxxxxxxxxxxxxxxxxxxxxxxx",
"lxxxxxxxxxxxxxxxxxx**p&zzzxxxxxxxxx22u&zxxxxxxxxxxxxxxxxxxxxxxxxx",
"lxxxxxxxxxxxxxxxx*22fp&zzxxxxxxxxxx&u7&zzxxxxxxxxxxxxxxxxxxxxxxxx",
"lxxxxxxxxxxxxxxx*229&zzxxxxxxxxxxxxxg&9z9xxxxxxxxxxxxxxxxxxxxxxxx",
"lxxxxxxxxxxxxxxx**u&zzxxxxxxxxxxxxxx2*zzzxxxxxxxxxxxxxxxxxxxxxxxx",
"lxxxxxxxxxxxxxxxx*7zzzxxxxxxxxxxxxx*2uzzzzzxxxxxxxxxxxxxxxxxxxxxx",
"lxxxxxxxxxxxxxxxx&*&zzzzxxxxxxxxxxx*27&zzzzzzxxxxxxxxxxxxxxxxxxxx",
"lxxxxxxxxxxxxxxxxx&&&&zzzxxxxxxxxxx***&zzzzzzxxxxxxxxxxxxxxxxxxxx"
};
