/* XPM */
static char *right_idle_guard_011660768017[] = {
/* columns rows colors chars-per-pixel */
"65 65 64 1 ",
"  c #814B20",
". c #8F4F25",
"X c #B36437",
"o c #78461C",
"O c #D17943",
"+ c #F58950",
"@ c #5B3913",
"# c #DF7D48",
"$ c #985729",
"% c #535353",
"& c #432C0F",
"* c #4C350E",
"= c #BC683B",
"- c #00003F",
"; c #282828",
": c #39280A",
"> c #000073",
", c #FF9558",
"< c #653E17",
"1 c #261A03",
"2 c #C9713F",
"3 c #A15C2E",
"4 c #FF9D5C",
"5 c #464646",
"6 c #AF6032",
"7 c #8D8D8D",
"8 c #353535",
"9 c gray49",
"0 c #FF8D54",
"q c #0000B5",
"w c #FFB98F",
"e c #646464",
"r c #C1C1C1",
"t c #00008C",
"y c gray10",
"u c #E8814C",
"i c #717171",
"p c #000066",
"a c gray60",
"s c #0000AD",
"d c #AAAAAA",
"f c gray82",
"g c #FFB17E",
"h c #00004C",
"j c #FFA56E",
"k c #000059",
"l c black",
"z c None",
"x c None",
"c c black",
"v c black",
"b c black",
"n c black",
"m c black",
"M c black",
"N c black",
"B c black",
"V c black",
"C c black",
"Z c black",
"A c black",
"S c black",
"D c black",
"F c black",
/* pixels */
"zxxxxxxxxxxxxxxxxxxxxxxxxxxxxxxxxxxxxxxxxxxxxxxxxxxxxxxxxxxxxxxxx",
"zxxxxxxxxxxxxxxxxxxxxxxxxxxxxxxxxxxxxxxxxxxxxxxxxxxxxxxxxxxxxxxxx",
"zxxxxxxxxxxxxxxxxxxxxxxxxxxxxxxxxxxxxxxxxxxxxxxxxxxxxxxxxxxxxxxxx",
"zxxxxxxxxxxxxxxxxxxxxxxxxxxxxxxxxxxxxxxxxxxxxxxxxxxxxxxxxxxxxxxxx",
"zxxxxxxxxxxxxxxxxxxxxxxxxxxxxxxxxxxxxxxxxxxxxxxxxxxxxxxxxxxxxxxxx",
"zxxxxxxxxxxxxxxxxxxxxxxxxxxxxxxxxxxxxxxxxxxxxxxxxxxxxxxxxxxxxxxxx",
"zxxxxxxxxxxxxxxxxxxxxxxxxxxxxxxxxxxxxxxxxxxxxxxxxxxxxxxxxxxxxxxxx",
"zxxxxxxxxxxxxxxxxxxxxxxxxxxxxxxxxxxxxxxxxxxxxxxxxxxxxxxxxxxxxxxxx",
"zxxxxxxxxxxxxxxxxxxxxxxxxxxxxxxxxxxxxxxxxxxxxxxxxxxxxxxxxxxxxxxxx",
"zxxxxxxxxxxxxxxxxxxxxxxxxxxxxxxxxxxxxxxxxxxxxxxxxxxxxxxxxxxxxxxxx",
"zxxxxxxxxxxxxxxxxxxxxxxxxxxxxxxxxxxxxxxxxxxxxxxxxxxxxxxxxxxxxxxxx",
"zxxxxxxxxxxxxxxxxxxxxxxxxxxxxxxxxxxxxxxxxxxxxxxxxxxxxxxxxxxxxxxxx",
"zxxxxxxxxxxxxxxxxxxxxxxxxxxxxxxxxxxxxxxxxxxxxxxxxxxxxxxxxxxxxxxxx",
"zxxxxxxxxxxxxxxxxxxxxxxxxxxxxxxxxxxxxxxxxxxxxxxxxxxxxxxxxxxxxxxxx",
"zxxxxxxxxxxxxxxxxxxxxxxxxxxxxxxxxxxxxxxxxxxxxxxxxxxxxxxxxxxxxxxxx",
"zxxxxxxxxxxxxxxxxxxxxxxxxxxxxxxxxxxxxxxxxxxxxxxxxxxxxxxxxxxxxxxxx",
"zxxxxxxxxxxxxxxxxxxxxxxxxxxxxx7ra99e%xxxxxxxxxxxxxxxxxxxxxxxxxxxx",
"zxxxxxxxxxxxxxxxxxxxxxxxxxxxx7r7e%58;8xxxxxxxxxxxxxxxxxxxxxxxxxxx",
"zxxxxxxxxxxxxxxxxxxxxxxxxxxxxr7e%558;;xxxxxxxxxxxxxxxxxxxxxxxxxxx",
"zxxxxxxxxxxxxxxxxxxxxxxxxxxxxd9%%558;;8xxxxxxxxxxxxxxxxxxxxxxxxxx",
"zxxxxxxxxxxxxxxxxxxxxxxxxxxxx7e%59e%%;;;xxxxxxxxxxxxxxxxxxxxxxxxx",
"zxxxxxxxxxxxxxxxxxxxxxxxxxxxra7i95st.s8xxxxxxxxxxxxxxxxxxxxxxxxxx",
"zxxxxxxxxxxxxxxxxxxxxxxxxxxra7ii5*=u,.8xxxxxxxxxxxxxxxxxxxxxxxxxx",
"zxxxxxxxxxxxxxxxxxxxxxxxxxxxxx.*l44u2Xxxxxxxxxxxxxxxxxxxxxxxxxxxx",
"zxxxxxxxxxxxxxxxxxxxxxxxxxxxxx2=y4u$$<xxxxxxxxxxxxxxxxxxxxxxxxxxx",
"zxxxxxxxxxxxxxxxxxxxxxxxxxxxxxg,4y%u2Xxxxxxxxxxxxxxxxxxxxxxxxxxxx",
"zxxxxxxxxxxxxxxxxxxxxxxxxxxxxlll4#..lxxxxxxxxxxxxxxxxxxxxxxxxxxxx",
"zxxxxxxxxxxxxxxxxxxxxxxxxxxxlllf%##.llxxxxxxxxxxxxxxxxxxxxxxxxxxx",
"zxxxxxxxxxxxxxxxxxxxxxxxxxOi%%l%dl3.ly xxxxxxxxxxxxxxxxxxxxxxxxxx",
"zxxxxxxxxxxxxxxxxxxxxxxxxO+++$%1lll@l;2 xxxxxxxxxxxxxxxxxxxxxxxxx",
"zxxxxxxxxxxxxxxxxxxxxxxxx+,,+,$;;OO6== 2xxxxxxxxxxxxxxxxxxxxxxxxx",
"zxxxxxxxxxxxxxxxxxxxxxxxO,+OO3,$ll=6== $oxxxxxxxxxxxxxxxxxxxxxxxx",
"zxxxxxxxxxxxxxxxxxxxxxxxO,+OX@==$ll $$ *oxxxxxxxxxxxxxxxxxxxxxxxx",
"zxxxxxxxxxxxxxxxxxxxxxxxO,+OX@ ===ll$$ *oxxxxxxxxxxxxxxxxxxxxxxxx",
"zxxxxxxxxxxxxxxxxxxxxxxxO,+OX: $$$$ll$ *oxxxxxxxxxxxxxxxxxxxxxxxx",
"zxxxxxxxxxxxxxxxxxxxxxxxO,OXX: $$$ &ll *oxxxxxxxxxxxxxxxxxxxxxxxx",
"zxxxxxxxxxxxxxxxxxxxxxxxO+O *:  &  & l**oxxxxxxxxxxxxxxxxxxxxxxxx",
"zxxxxxxxxxxxxxxxxxxxxxxxO+++Xlllll99ll 1xxxxxxxxxxxxxxxxxxxxxxxxx",
"zxxxxxxxxxxxxxxxxxxxxxxxO+#3*lllll%%ll&*xxxxxxxxxxxxxxxxxxxxxxxxx",
"zxxxxxxxxxxxxxxxxxxxxxxx=O++X 1@&@@&@@1 xxxxxxxxxxxxxxxxxxxxxxxxx",
"zxxxxxxxxxxxxxxxxxxxxxxx=++OXo1@   &  <*oxxxxxxxxxxxxxxxxxxxxxxxx",
"zxxxxxxxxxxxxxxxxxxxxxxxxO+OOX1@   &   *oxxxxxxxxxxxxxxxxxxxxxxxx",
"zxxxxxxxxxxxxxxxxxxxxxxxxO++33@<   &   *oxxxxxxxxxxxxxxxxxxxxxxxx",
"zxxxxxxxxxxxxxxxxxxxxxxxxxO3XwX<   &   lxxxxxxxxxxxxxxxxxxxxxxxxx",
"zxxxxxxxxxxxxxxxxxxxxxxxxxXww##&11llll1Xxxxxxxxxxxxxxxxxxxxxxxxxx",
"zxxxxxxxxxxxxxxxxxxxxxxxxxXww4..o@:@o.<Xxxxxxxxxxxxxxxxxxxxxxxxxx",
"zxxxxxxxxxxxxxxxxxxxxxxxxxX#wj#.o@:@..Xxxxxxxxxxxxxxxxxxxxxxxxxxx",
"zxxxxxxxxxxxxxxxxxxxxxxxxxX#0266o<:@..Xxxxxxxxxxxxxxxxxxxxxxxxxxx",
"zxxxxxxxxxxxxxxxxxxxxxxxxxX#0#66o<:o.X3xxxxxxxxxxxxxxxxxxxxxxxxxx",
"zxxxxxxxxxxxxxxxxxxxxxxxxx0#0#26o@:...Xxxxxxxxxxxxxxxxxxxxxxxxxxx",
"zxxxxxxxxxxxxxxxxxxxxxxxxxX440#2.*<@..Xxxxxxxxxxxxxxxxxxxxxxxxxxx",
"zxxxxxxxxxxxxxxxxxxxxxxxxx#XX3.oo:@...xxxxxxxxxxxxxxxxxxxxxxxxxxx",
"zxxxxxxxxxxxxxxxxxxxxxxxxx#0##2.o:o..Xxxxxxxxxxxxxxxxxxxxxxxxxxxx",
"zxxxxxxxxxxxxxxxxxxxxxxxxxX#26oo@&<..Xxxxxxxxxxxxxxxxxxxxxxxxxxxx",
"zxxxxxxxxxxxxxxxxxxxxxxxxx1  .oo:&<o3.xxxxxxxxxxxxxxxxxxxxxxxxxxx",
"zxxxxxxxxxxxxxxxxxxxxxxxxxlllylllllllxxxxxxxxxxxxxxxxxxxxxxxxxxxx",
"zxxxxxxxxxxxxxxxxxxxxxxxxxltt>-ll>-llxxxxxxxxxxxxxxxxxxxxxxxxxxxx",
"zxxxxxxxxxxxxxxxxxxxxxxxxxltq>-ll>-llxxxxxxxxxxxxxxxxxxxxxxxxxxxx",
"zxxxxxxxxxxxxxxxxxxxxxxxxxltq>-ll>-llxxxxxxxxxxxxxxxxxxxxxxxxxxxx",
"zxxxxxxxxxxxxxxxxxxxxxxxxxxlq>-l>-lllxxxxxxxxxxxxxxxxxxxxxxxxxxxx",
"zxxxxxxxxxxxxxxxxxxxxxxxxxxlhlll>-llxxxxxxxxxxxxxxxxxxxxxxxxxxxxx",
"zxxxxxxxxxxxxxxxxxxxxxxxxxlpqq>l&>-lllxxxxxxxxxxxxxxxxxxxxxxxxxxx",
"zxxxxxxxxxxxxxxxxxxxxxxxxxlqpp-ll&-llllxxxxxxxxxxxxxxxxxxxxxxxxxx",
"zxxxxxxxxxxxxxxxxxxxxxxxxxlpk-lll;-lllllxxxxxxxxxxxxxxxxxxxxxxxxx",
"zzzzzzzzzzzzzzzzzzzzzzzzzzzzzzzzzzzzzzzzzzzzzzzzzzzzzzzzzzzzzzzzz"
};
