/* XPM */
static char *shooting_guard_011660768017[] = {
/* columns rows colors chars-per-pixel */
"65 65 64 1 ",
"  c gray10",
". c #261A03",
"X c #D17943",
"o c #653E17",
"O c #814B20",
"+ c #C9713F",
"@ c #FF9D5C",
"# c #432C0F",
"$ c #E8814C",
"% c #985729",
"& c #4C350E",
"* c #535353",
"= c #A15C2E",
"- c #FF9558",
"; c #B36437",
": c #BC683B",
"> c #F58950",
", c #39280A",
"< c #282828",
"1 c #00003F",
"2 c #FFA56E",
"3 c #0000AD",
"4 c #FFB17E",
"5 c #AF6032",
"6 c #DF7D48",
"7 c #8F4F25",
"8 c #464646",
"9 c #FF8D54",
"0 c #8D8D8D",
"q c #00004C",
"w c gray60",
"e c #000073",
"r c #5D0051",
"t c #353535",
"y c #78461C",
"u c #00007F",
"i c #C1C1C1",
"p c #5B3913",
"a c #AAAAAA",
"s c #000066",
"d c #FFB98F",
"f c gray49",
"g c #0000B5",
"h c #0000D9",
"j c gray93",
"k c #646464",
"l c #FFBD9C",
"z c #0000E5",
"x c #717171",
"c c blue",
"v c gray82",
"b c #00009C",
"n c #FFD5BC",
"m c #00008C",
"M c black",
"N c None",
"B c None",
"V c black",
"C c black",
"Z c black",
"A c black",
"S c black",
"D c black",
"F c black",
/* pixels */
"NNNNNNNNNNNNNNNNNNNNNNNNNNNNNNNNNNNNNNNNNNNNNNNNNNNNNNNNNNNNNNNNN",
"BBBBBBBBBBBBBBBBBBBBBBBBBBBBBBBBBBBBBBBBBBBBBBBBBBBBBBBBBBBBBBBBN",
"BBBBBBBBBBBBBBBBBBBBBBBBBBBBBBBBBBBBBBBBBBBBBBBBBBBBBBBBBBBBBBBBN",
"BBBBBBBBBBBBBBBBBBBBBBBBBBBBBBBBBBBBBBBBBBBBBBBBBBBBBBBBBBBBBBBBN",
"BBBBBBBBBBBBBBBBBBBBBBBBBBBBBBBBBBBBBBBBBBBBBBBBBBBBBBBBBBBBBBBBN",
"BBBBBBBBBBBBBBBBBBBBBBBBBBBBBBBBBBBBBBBBBBBBBBBBBBBBBBBBBBBBBBBBN",
"BBBBBBBBBBBBBBBBBBBBBBBBBBBBBBBBBBBBBBBBBBBBBBBBBBBBBBBBBBBBBBBBN",
"BBBBBBBBBBBBBBBBBBBBBBBBBBBBBBBBBBBBBBBBBBBBBBBBBBBBBBBBBBBBBBBBN",
"BBBBBBBBBBBBBBBBBBBBBBBBBBBBBBBBBBBBBBBBBBBBBBBBBBBBBBBBBBBBBBBBN",
"BBBBBBBBBBBBBBBBBBBBBBBBBBBBBBBBBBBBBBBBBBBBBBBBBBBBBBBBBBBBBBBBN",
"BBBBBBBBBBBBBBBBBBBBBBBBBBBBBBBBBBBBBBBBBBBBBBBBBBBBBBBBBBBBBBBBN",
"BBBBBBBBBBBBBBBBBBBBBBBBBBBBBBBBBBBBBBBBBBBBBBBBBBBBBBBBBBBBBBBBN",
"BBBBBBBBBBBBBBBBBBBBBBBBBBBBBBBBBBBBBBBBBBBBBBBBBBBBBBBBBBBBBBBBN",
"BBBBBBBBBBBBBBBBBBBBBBBBBBBBBBBBBBBBBBBBBBBBBBBBBBBBBBBBBBBBBBBBN",
"BBBBBBBBBBBBBBBBBBBBBBBBBBBBBBBBBBBBBBBBBBBBBBBBBBBBBBBBBBBBBBBBN",
"BBBBBBBBBBBBBBBBBBBBBBBBBBBBBBBBBBBBBBBBBBBBBBBBBBBBBBBBBBBBBBBBN",
"BBBBBBBBBBBBBBBBBBBBBBBBBBBBBBBBBBBBBBBBBBBBBBBBBBBBBBBBBBBBBBBBN",
"BBBBBBBBBBBBBBBBBBBBBBBBBBBBBBBBBBBBBBBBBBBBBBBBBBBBBBBBBBBBBBBBN",
"BBBBBBBBBBBBBBBBBBBBBBBBBBBBBBBBBBBBBBBBBBBBBBBBBBBBBBBBBBBBBBBBN",
"BBBBBBBBBBBBBBBBBBBBBBBBBBBBBBaa0f*8BBBBBBBBBBBBBBBBBBBBBBBBBBBBN",
"BBBBBBBBBBBBBBBBBBBBBBBBBBBBBav0**8t8BBBBBBBBBBBBBBBBBBBBBBBBBBBN",
"BBBBBBBBBBBBBBBBBBBBBBBBBBBBB00k**8t BBBBBBBBBBBBBBBBBBBBBBBBBBBN",
"BBBBBBBBBBBBBBBBBBBBBBBBBBBBBwfx**8t BBBBBBBBBBBBBBBBBBBBBBBBBBBN",
"BBBBBBBBBBBBBBBBBBBBBBBBBBBBwiji0xk*< BBBBBBBBBBBBBBBBBBBBBBBBBBN",
"BBBBBBBBBBBBBBBBBBBBBBBBBBBww<<<<<<<M< BBBBBBBBBBBBBBBBBBBBBBBBBN",
"BBBBBBBBBBBBBBBBBBBBBBBBBBBBBO:c4Xc:OBBBBBBBBBBBBBBBBBBBBBBBBBBBN",
"BBBBBBBBBBBBBBBBBBBBBBBBBBBBB&-l :l-&BBBBBBBBBBBBBBBBBBBBBBBBBBBN",
"BBBBBBBBBBBBBBBBBBBBBBBBBBBBBM5 j 9&MBBBBBBBBBBBBBBBBBBBBBBBBBBBN",
"BBBBBBBBBBBBBBBBBBBBBBBBBB29MMMwMw MM#=:BBBBBBBBBBBBBBBBBBBBBBBBN",
"BBBBBBBBBBBBBBBBBBBBBBBd26;7#iM*f*Mi#::75$BBBBBBBBBBBBBBBBBBBBBBN",
"BBBBBBBBBBBBBBBBBBBBBB:22-@22%nM<MXMM@@@@5+BBBBBBBBBBBBBBBBBBBBBN",
"BBBBBBBBBBBBBBBBBBBBBBX22@@254X+2>XX5o$$XX+BBBBBBBBBBBBBBBBBBBBBN",
"BBBBBBBBBBBBBBBBBBBBBBXd9:$Xy44+d2XX5o:::=OBBBBBBBBBBBBBBBBBBBBBN",
"BBBBBBBBBBBBBBBBBBBBBBBX:;5%%o%%%:..MMoOOO,BBBBBBBBBBBBBBBBBBBBBN",
"BBBBBBBBBBBBBBBBBBBBBBBoooo&,  .M&&&+%&.,,BBBBBBBBBBBBBBBBBBBBBBN",
"BBBBBBBBBBBBBBBBBBBBBBBBB7..#p   8$++%&.BBBBBBBBBBBBBBBBBBBBBBBBN",
"BBBBBBBBBBBBBBBBBBBBBBBBBB%&.#7   8+;%o,BBBBBBBBBBBBBBBBBBBBBBBBN",
"BBBBBBBBBBBBBBBBBBBBBBBBBB6%p&#7M   %o,BBBBBBBBBBBBBBBBBBBBBBBBBN",
"BBBBBBBBBBBBBBBBBBBBBBBBBB6-5p##M%MMMo.BBBBBBBBBBBBBBBBBBBBBBBBBN",
"BBBBBBBBBBBBBBBBBBBBBBBBBB*8t  00*   MMBBBBBBBBBBBBBBBBBBBBBBBBBN",
"BBBBBBBBBBBBBBBBBBBBBBBBBB*8t  ***   MMBBBBBBBBBBBBBBBBBBBBBBBBBN",
"BBBBBBBBBBBBBBBBBBBBBBBBBB6-5$OO#OO,yo.BBBBBBBBBBBBBBBBBBBBBBBBBN",
"BBBBBBBBBBBBBBBBBBBBBBBBB6-->$+OrOOO7y&,BBBBBBBBBBBBBBBBBBBBBBBBN",
"BBBBBBBBBBBBBBBBBBBBBBBBB6--$$+OrO;==y&,BBBBBBBBBBBBBBBBBBBBBBBBN",
"BBBBBBBBBBBBBBBBBBBBBBBB6---$$+rrp;==7&,BBBBBBBBBBBBBBBBBBBBBBBBN",
"BBBBBBBBBBBBBBBBBBBBBBBB6--$$+Or.rO=%7&,.BBBBBBBBBBBBBBBBBBBBBBBN",
"BBBBBBBBBBBBBBBBBBBBBBBB=%OO##M.,.MMMMMM.BBBBBBBBBBBBBBBBBBBBBBBN",
"BBBBBBBBBBBBBBBBBBBBBBBB+>99Xo#.B.o;X>;7.BBBBBBBBBBBBBBBBBBBBBBBN",
"BBBBBBBBBBBBBBBBBBBBBBB+69@@X7#.B.oX>@+;#BBBBBBBBBBBBBBBBBBBBBBBN",
"BBBBBBBBBBBBBBBBBBBBBBB+6@4@X%.BBB.=$>@+#BBBBBBBBBBBBBBBBBBBBBBBN",
"BBBBBBBBBBBBBBBBBBBBBBB+>44OXo.BBB.yO5@@o#BBBBBBBBBBBBBBBBBBBBBBN",
"BBBBBBBBBBBBBBBBBBBBBBB+4$X-O.BBBBB.X@>;;#BBBBBBBBBBBBBBBBBBBBBBN",
"BBBBBBBBBBBBBBBBBBBBBB+>@4X&O#.BBB.oo;>@;o.BBBBBBBBBBBBBBBBBBBBBN",
"BBBBBBBBBBBBBBBBBBBBBB+>@4X=&.BBBBB.=X>>;o.BBBBBBBBBBBBBBBBBBBBBN",
"BBBBBBBBBBBBBBBBBBBBBB+9@@X%o.BBBBB.=$$$;o.BBBBBBBBBBBBBBBBBBBBBN",
"BBBBBBBBBBBBBBBBBBBBBB=XXXOO#BBBBBB.o==oo..BBBBBBBBBBBBBBBBBBBBBN",
"BBBBBBBBBBBBBBBBBBBBBBM     MBBBBBBBM    MBBBBBBBBBBBBBBBBBBBBBBN",
"BBBBBBBBBBBBBBBBBBBBBBMuu1  BBBBBBBBM3e11MBBBBBBBBBBBBBBBBBBBBBBN",
"BBBBBBBBBBBBBBBBBBBBBBM3q1  BBBBBBBBMs3q1MBBBBBBBBBBBBBBBBBBBBBBN",
"BBBBBBBBBBBBBBBBBBBBBBMzu1  BBBBBBBBB 3z1 MBBBBBBBBBBBBBBBBBBBBBN",
"BBBBBBBBBBBBBBBBBBBBBBM3q1 BBBBBBBBBBMs3q MBBBBBBBBBBBBBBBBBBBBBN",
"BBBBBBBBBBBBBBBBBBBBBBs3q MBBBBBBBBBBB 3e1MBBBBBBBBBBBBBBBBBBBBBN",
"BBBBBBBBBBBBBBBBBBBBB<3huq MBBBBBBBBB mhggeMBBBBBBBBBBBBBBBBBBBBN",
"BBBBBBBBBBBBBBBBBBBB<3ee1q MBBBBBBBBBM3be11 MBBBBBBBBBBBBBBBBBBBN",
"BBBBBBBBBBBBBBBBBBBB      MBBBBBBBBBBBM     MBBBBBBBBBBBBBBBBBBBN"
};
